G04 #@! TF.GenerationSoftware,KiCad,Pcbnew,(5.1.4)-1*
G04 #@! TF.CreationDate,2020-05-13T12:34:06-04:00*
G04 #@! TF.ProjectId,RPi_cape_proto,5250695f-6361-4706-955f-70726f746f2e,1.8*
G04 #@! TF.SameCoordinates,Original*
G04 #@! TF.FileFunction,Legend,Bot*
G04 #@! TF.FilePolarity,Positive*
%FSLAX45Y45*%
G04 Gerber Fmt 4.5, Leading zero omitted, Abs format (unit mm)*
G04 Created by KiCad (PCBNEW (5.1.4)-1) date 2020-05-13 12:34:06*
%MOMM*%
%LPD*%
G04 APERTURE LIST*
%ADD10C,0.120000*%
%ADD11C,0.150000*%
%ADD12C,0.160000*%
%ADD13C,2.402000*%
%ADD14O,1.802000X1.802000*%
%ADD15R,1.802000X1.802000*%
%ADD16C,1.652000*%
%ADD17C,1.460000*%
%ADD18R,1.460000X1.460000*%
%ADD19C,0.902000*%
%ADD20C,6.502000*%
%ADD21C,3.102000*%
%ADD22C,0.722000*%
G04 APERTURE END LIST*
D10*
X5182000Y-20542000D02*
X5049000Y-20542000D01*
X5049000Y-20542000D02*
X5049000Y-20675000D01*
X5309000Y-20542000D02*
X5309000Y-20802000D01*
X5309000Y-20802000D02*
X5049000Y-20802000D01*
X5049000Y-20802000D02*
X5049000Y-25634000D01*
X5569000Y-25634000D02*
X5049000Y-25634000D01*
X5569000Y-20542000D02*
X5569000Y-25634000D01*
X5569000Y-20542000D02*
X5309000Y-20542000D01*
X3150000Y-20542000D02*
X3017000Y-20542000D01*
X3017000Y-20542000D02*
X3017000Y-20675000D01*
X3277000Y-20542000D02*
X3277000Y-20802000D01*
X3277000Y-20802000D02*
X3017000Y-20802000D01*
X3017000Y-20802000D02*
X3017000Y-25634000D01*
X3537000Y-25634000D02*
X3017000Y-25634000D01*
X3537000Y-20542000D02*
X3537000Y-25634000D01*
X3537000Y-20542000D02*
X3277000Y-20542000D01*
X5617000Y-28125000D02*
X5617000Y-28258000D01*
X5617000Y-28258000D02*
X5750000Y-28258000D01*
X5617000Y-27998000D02*
X5877000Y-27998000D01*
X5877000Y-27998000D02*
X5877000Y-28258000D01*
X5877000Y-28258000D02*
X10709000Y-28258000D01*
X10709000Y-27738000D02*
X10709000Y-28258000D01*
X5617000Y-27738000D02*
X10709000Y-27738000D01*
X5617000Y-27738000D02*
X5617000Y-27998000D01*
D11*
X4219762Y-17723571D02*
X4215000Y-17718810D01*
X4210238Y-17709286D01*
X4210238Y-17685476D01*
X4215000Y-17675952D01*
X4219762Y-17671190D01*
X4229286Y-17666429D01*
X4238810Y-17666429D01*
X4253095Y-17671190D01*
X4310238Y-17728333D01*
X4310238Y-17666429D01*
X4220238Y-17306429D02*
X4220238Y-17363571D01*
X4220238Y-17335000D02*
X4120238Y-17335000D01*
X4134524Y-17344524D01*
X4144048Y-17354048D01*
X4148809Y-17363571D01*
X5342333Y-20343238D02*
X5342333Y-20414667D01*
X5347095Y-20428952D01*
X5356619Y-20438476D01*
X5370905Y-20443238D01*
X5380429Y-20443238D01*
X5247095Y-20343238D02*
X5294714Y-20343238D01*
X5299476Y-20390857D01*
X5294714Y-20386095D01*
X5285190Y-20381333D01*
X5261381Y-20381333D01*
X5251857Y-20386095D01*
X5247095Y-20390857D01*
X5242333Y-20400381D01*
X5242333Y-20424190D01*
X5247095Y-20433714D01*
X5251857Y-20438476D01*
X5261381Y-20443238D01*
X5285190Y-20443238D01*
X5294714Y-20438476D01*
X5299476Y-20433714D01*
X3310333Y-20343238D02*
X3310333Y-20414667D01*
X3315095Y-20428952D01*
X3324619Y-20438476D01*
X3338905Y-20443238D01*
X3348428Y-20443238D01*
X3267476Y-20352762D02*
X3262714Y-20348000D01*
X3253190Y-20343238D01*
X3229381Y-20343238D01*
X3219857Y-20348000D01*
X3215095Y-20352762D01*
X3210333Y-20362286D01*
X3210333Y-20371810D01*
X3215095Y-20386095D01*
X3272238Y-20443238D01*
X3210333Y-20443238D01*
X8736667Y-12255238D02*
X8798571Y-12255238D01*
X8765238Y-12293333D01*
X8779524Y-12293333D01*
X8789048Y-12298095D01*
X8793810Y-12302857D01*
X8798571Y-12312381D01*
X8798571Y-12336190D01*
X8793810Y-12345714D01*
X8789048Y-12350476D01*
X8779524Y-12355238D01*
X8750952Y-12355238D01*
X8741429Y-12350476D01*
X8736667Y-12345714D01*
X9101429Y-12344762D02*
X9106190Y-12340000D01*
X9115714Y-12335238D01*
X9139524Y-12335238D01*
X9149048Y-12340000D01*
X9153810Y-12344762D01*
X9158571Y-12354286D01*
X9158571Y-12363809D01*
X9153810Y-12378095D01*
X9096667Y-12435238D01*
X9158571Y-12435238D01*
D12*
X5434667Y-27974667D02*
X5484667Y-27974667D01*
X5494667Y-27971333D01*
X5501333Y-27964667D01*
X5504667Y-27954667D01*
X5504667Y-27948000D01*
X5464667Y-28018000D02*
X5461333Y-28011333D01*
X5458000Y-28008000D01*
X5451333Y-28004667D01*
X5448000Y-28004667D01*
X5441333Y-28008000D01*
X5438000Y-28011333D01*
X5434667Y-28018000D01*
X5434667Y-28031333D01*
X5438000Y-28038000D01*
X5441333Y-28041333D01*
X5448000Y-28044667D01*
X5451333Y-28044667D01*
X5458000Y-28041333D01*
X5461333Y-28038000D01*
X5464667Y-28031333D01*
X5464667Y-28018000D01*
X5468000Y-28011333D01*
X5471333Y-28008000D01*
X5478000Y-28004667D01*
X5491333Y-28004667D01*
X5498000Y-28008000D01*
X5501333Y-28011333D01*
X5504667Y-28018000D01*
X5504667Y-28031333D01*
X5501333Y-28038000D01*
X5498000Y-28041333D01*
X5491333Y-28044667D01*
X5478000Y-28044667D01*
X5471333Y-28041333D01*
X5468000Y-28038000D01*
X5464667Y-28031333D01*
%LPC*%
D13*
X4475000Y-17700000D03*
X3975000Y-17350000D03*
D14*
X5436000Y-25501000D03*
X5182000Y-25501000D03*
X5436000Y-25247000D03*
X5182000Y-25247000D03*
X5436000Y-24993000D03*
X5182000Y-24993000D03*
X5436000Y-24739000D03*
X5182000Y-24739000D03*
X5436000Y-24485000D03*
X5182000Y-24485000D03*
X5436000Y-24231000D03*
X5182000Y-24231000D03*
X5436000Y-23977000D03*
X5182000Y-23977000D03*
X5436000Y-23723000D03*
X5182000Y-23723000D03*
X5436000Y-23469000D03*
X5182000Y-23469000D03*
X5436000Y-23215000D03*
X5182000Y-23215000D03*
X5436000Y-22961000D03*
X5182000Y-22961000D03*
X5436000Y-22707000D03*
X5182000Y-22707000D03*
X5436000Y-22453000D03*
X5182000Y-22453000D03*
X5436000Y-22199000D03*
X5182000Y-22199000D03*
X5436000Y-21945000D03*
X5182000Y-21945000D03*
X5436000Y-21691000D03*
X5182000Y-21691000D03*
X5436000Y-21437000D03*
X5182000Y-21437000D03*
X5436000Y-21183000D03*
X5182000Y-21183000D03*
X5436000Y-20929000D03*
X5182000Y-20929000D03*
X5436000Y-20675000D03*
D15*
X5182000Y-20675000D03*
D14*
X3404000Y-25501000D03*
X3150000Y-25501000D03*
X3404000Y-25247000D03*
X3150000Y-25247000D03*
X3404000Y-24993000D03*
X3150000Y-24993000D03*
X3404000Y-24739000D03*
X3150000Y-24739000D03*
X3404000Y-24485000D03*
X3150000Y-24485000D03*
X3404000Y-24231000D03*
X3150000Y-24231000D03*
X3404000Y-23977000D03*
X3150000Y-23977000D03*
X3404000Y-23723000D03*
X3150000Y-23723000D03*
X3404000Y-23469000D03*
X3150000Y-23469000D03*
X3404000Y-23215000D03*
X3150000Y-23215000D03*
X3404000Y-22961000D03*
X3150000Y-22961000D03*
X3404000Y-22707000D03*
X3150000Y-22707000D03*
X3404000Y-22453000D03*
X3150000Y-22453000D03*
X3404000Y-22199000D03*
X3150000Y-22199000D03*
X3404000Y-21945000D03*
X3150000Y-21945000D03*
X3404000Y-21691000D03*
X3150000Y-21691000D03*
X3404000Y-21437000D03*
X3150000Y-21437000D03*
X3404000Y-21183000D03*
X3150000Y-21183000D03*
X3404000Y-20929000D03*
X3150000Y-20929000D03*
X3404000Y-20675000D03*
D15*
X3150000Y-20675000D03*
D16*
X11335000Y-26545000D03*
D17*
X12110000Y-26471000D03*
X11983000Y-26725000D03*
X11856000Y-26471000D03*
X11729000Y-26725000D03*
X11602000Y-26471000D03*
D18*
X11475000Y-26725000D03*
D13*
X8425000Y-12600000D03*
X8775000Y-12100000D03*
X9125000Y-12600000D03*
X9475000Y-12100000D03*
X12050000Y-22975000D03*
X12550000Y-23325000D03*
X12050000Y-20500000D03*
X12550000Y-20850000D03*
X12050000Y-18000000D03*
X12550000Y-18350000D03*
X12050000Y-15500000D03*
X12550000Y-15850000D03*
X5225000Y-12350000D03*
X5575000Y-11850000D03*
X4350000Y-27275000D03*
X4000000Y-27775000D03*
X6550000Y-12250000D03*
X6900000Y-11750000D03*
X4475000Y-18650000D03*
X3975000Y-18300000D03*
D19*
X3444706Y-11405294D03*
X3275000Y-11335000D03*
X3105294Y-11405294D03*
X3035000Y-11575000D03*
X3105294Y-11744706D03*
X3275000Y-11815000D03*
X3444706Y-11744706D03*
X3515000Y-11575000D03*
D20*
X3275000Y-11575000D03*
D19*
X12994706Y-11405294D03*
X12825000Y-11335000D03*
X12655294Y-11405294D03*
X12585000Y-11575000D03*
X12655294Y-11744706D03*
X12825000Y-11815000D03*
X12994706Y-11744706D03*
X13065000Y-11575000D03*
D20*
X12825000Y-11575000D03*
D19*
X3444706Y-27755294D03*
X3275000Y-27685000D03*
X3105294Y-27755294D03*
X3035000Y-27925000D03*
X3105294Y-28094706D03*
X3275000Y-28165000D03*
X3444706Y-28094706D03*
X3515000Y-27925000D03*
D20*
X3275000Y-27925000D03*
D19*
X12994706Y-26930294D03*
X12825000Y-26860000D03*
X12655294Y-26930294D03*
X12585000Y-27100000D03*
X12655294Y-27269706D03*
X12825000Y-27340000D03*
X12994706Y-27269706D03*
X13065000Y-27100000D03*
D20*
X12825000Y-27100000D03*
D14*
X12928000Y-24852000D03*
X12928000Y-25106000D03*
X12928000Y-25360000D03*
X12928000Y-25614000D03*
X12928000Y-25868000D03*
D15*
X12928000Y-26122000D03*
D14*
X10576000Y-27871000D03*
X10576000Y-28125000D03*
X10322000Y-27871000D03*
X10322000Y-28125000D03*
X10068000Y-27871000D03*
X10068000Y-28125000D03*
X9814000Y-27871000D03*
X9814000Y-28125000D03*
X9560000Y-27871000D03*
X9560000Y-28125000D03*
X9306000Y-27871000D03*
X9306000Y-28125000D03*
X9052000Y-27871000D03*
X9052000Y-28125000D03*
X8798000Y-27871000D03*
X8798000Y-28125000D03*
X8544000Y-27871000D03*
X8544000Y-28125000D03*
X8290000Y-27871000D03*
X8290000Y-28125000D03*
X8036000Y-27871000D03*
X8036000Y-28125000D03*
X7782000Y-27871000D03*
X7782000Y-28125000D03*
X7528000Y-27871000D03*
X7528000Y-28125000D03*
X7274000Y-27871000D03*
X7274000Y-28125000D03*
X7020000Y-27871000D03*
X7020000Y-28125000D03*
X6766000Y-27871000D03*
X6766000Y-28125000D03*
X6512000Y-27871000D03*
X6512000Y-28125000D03*
X6258000Y-27871000D03*
X6258000Y-28125000D03*
X6004000Y-27871000D03*
X6004000Y-28125000D03*
X5750000Y-27871000D03*
D15*
X5750000Y-28125000D03*
D21*
X11175000Y-22375000D03*
D19*
X3705000Y-19230000D03*
X3695000Y-19740000D03*
X7365000Y-18135000D03*
X7265000Y-17435000D03*
X6172789Y-17677501D03*
X6007501Y-17677501D03*
X5100000Y-16870000D03*
X9563000Y-15217000D03*
X3200000Y-12210000D03*
X4220000Y-13310000D03*
X4720000Y-14510000D03*
X4000000Y-14030000D03*
X4220000Y-13710000D03*
X3660000Y-12670000D03*
X4760000Y-12750000D03*
X4560000Y-12250000D03*
X6380000Y-13395000D03*
X5755000Y-13685000D03*
X7680000Y-13730000D03*
X11550000Y-24985000D03*
X11550000Y-25745000D03*
X3525000Y-15025000D03*
X6575000Y-15450000D03*
X3500000Y-15450000D03*
X6600000Y-15000000D03*
X4575000Y-27825000D03*
X7100000Y-22900000D03*
X4600000Y-15800000D03*
X10575000Y-14150000D03*
X9900000Y-14650000D03*
X9393999Y-16000000D03*
X10100000Y-15800000D03*
X9563000Y-17717000D03*
X9900000Y-17150000D03*
X9393999Y-18500000D03*
X10100000Y-18300000D03*
X9563000Y-20217000D03*
X9900000Y-19650000D03*
X9393999Y-21000000D03*
X10100000Y-20800000D03*
X9563000Y-22717000D03*
X9900000Y-22150000D03*
X9393999Y-23500000D03*
X10100000Y-23300000D03*
X10775000Y-16450000D03*
X10775000Y-18950000D03*
X10775000Y-21450000D03*
D22*
X4875000Y-15050000D03*
X4925000Y-15325000D03*
X5125000Y-15050000D03*
D19*
X5898503Y-17692612D03*
D22*
X7700000Y-18545700D03*
X7100000Y-18545700D03*
X7152805Y-19372195D03*
X8065002Y-18275000D03*
X6825000Y-18850000D03*
X8000000Y-19025000D03*
D19*
X12895000Y-14345000D03*
X12895000Y-14165000D03*
X11340000Y-13285000D03*
X11425000Y-13370000D03*
X10700000Y-15825000D03*
X10725000Y-16025000D03*
X12895000Y-16845000D03*
X12895000Y-16665000D03*
X10700000Y-18325000D03*
X10725000Y-18525000D03*
X12895000Y-19345000D03*
X12895000Y-19165000D03*
X10700000Y-20825000D03*
X10725000Y-21025000D03*
X12895000Y-21845000D03*
X12895000Y-21665000D03*
X10700000Y-23325000D03*
X10725000Y-23525000D03*
X10625000Y-13250000D03*
X4120000Y-13630000D03*
X3920000Y-12630000D03*
X5715000Y-13965000D03*
D22*
X7050000Y-18925000D03*
X7268750Y-19081250D03*
X7475000Y-18775000D03*
D19*
X9290000Y-15510000D03*
X9290000Y-18010000D03*
X9290000Y-20510000D03*
X9290000Y-23010000D03*
X4925000Y-18725000D03*
X6125000Y-17535000D03*
X5940000Y-16880500D03*
D21*
X11175000Y-19875000D03*
X11175000Y-17375000D03*
X11175000Y-14875000D03*
D19*
X5115000Y-15890000D03*
X10400000Y-14075000D03*
X8500000Y-15575000D03*
D22*
X7175000Y-20075000D03*
D19*
X6875000Y-14250000D03*
X6250000Y-18800000D03*
X4050000Y-20750000D03*
X11095000Y-11980000D03*
X10200000Y-24550000D03*
X7850000Y-16275000D03*
X9271497Y-25075000D03*
X7700000Y-16775000D03*
X8650000Y-27675000D03*
X11715000Y-24790000D03*
X9250000Y-27000000D03*
X8425000Y-27250000D03*
X3400000Y-16675000D03*
D22*
X3550000Y-15750000D03*
X3650000Y-15750000D03*
X3750000Y-15750000D03*
D19*
X6975000Y-15600000D03*
X8825000Y-27500000D03*
X4000000Y-14250000D03*
X9325000Y-27575000D03*
X9225000Y-27475000D03*
X9675000Y-27600000D03*
X6300000Y-15750000D03*
X8500000Y-27606000D03*
X6375000Y-15675000D03*
X8350000Y-27606000D03*
X6300000Y-15600000D03*
X8175000Y-27225000D03*
X8225000Y-27606000D03*
X3650000Y-20175000D03*
X3950000Y-20125000D03*
X3400000Y-16175000D03*
X5325000Y-19450000D03*
M02*
