G04 #@! TF.GenerationSoftware,KiCad,Pcbnew,(5.1.4)-1*
G04 #@! TF.CreationDate,2020-05-13T12:34:06-04:00*
G04 #@! TF.ProjectId,RPi_cape_proto,5250695f-6361-4706-955f-70726f746f2e,1.8*
G04 #@! TF.SameCoordinates,Original*
G04 #@! TF.FileFunction,Copper,L2,Bot*
G04 #@! TF.FilePolarity,Positive*
%FSLAX45Y45*%
G04 Gerber Fmt 4.5, Leading zero omitted, Abs format (unit mm)*
G04 Created by KiCad (PCBNEW (5.1.4)-1) date 2020-05-13 12:34:06*
%MOMM*%
%LPD*%
G04 APERTURE LIST*
%ADD10C,2.300000*%
%ADD11O,1.700000X1.700000*%
%ADD12R,1.700000X1.700000*%
%ADD13C,1.358000*%
%ADD14R,1.358000X1.358000*%
%ADD15C,0.800000*%
%ADD16C,6.400000*%
%ADD17C,3.000000*%
%ADD18C,0.620000*%
%ADD19C,0.500000*%
%ADD20C,1.000000*%
%ADD21C,0.200000*%
%ADD22C,0.254000*%
G04 APERTURE END LIST*
D10*
X4475000Y-17700000D03*
X3975000Y-17350000D03*
D11*
X5436000Y-25501000D03*
X5182000Y-25501000D03*
X5436000Y-25247000D03*
X5182000Y-25247000D03*
X5436000Y-24993000D03*
X5182000Y-24993000D03*
X5436000Y-24739000D03*
X5182000Y-24739000D03*
X5436000Y-24485000D03*
X5182000Y-24485000D03*
X5436000Y-24231000D03*
X5182000Y-24231000D03*
X5436000Y-23977000D03*
X5182000Y-23977000D03*
X5436000Y-23723000D03*
X5182000Y-23723000D03*
X5436000Y-23469000D03*
X5182000Y-23469000D03*
X5436000Y-23215000D03*
X5182000Y-23215000D03*
X5436000Y-22961000D03*
X5182000Y-22961000D03*
X5436000Y-22707000D03*
X5182000Y-22707000D03*
X5436000Y-22453000D03*
X5182000Y-22453000D03*
X5436000Y-22199000D03*
X5182000Y-22199000D03*
X5436000Y-21945000D03*
X5182000Y-21945000D03*
X5436000Y-21691000D03*
X5182000Y-21691000D03*
X5436000Y-21437000D03*
X5182000Y-21437000D03*
X5436000Y-21183000D03*
X5182000Y-21183000D03*
X5436000Y-20929000D03*
X5182000Y-20929000D03*
X5436000Y-20675000D03*
D12*
X5182000Y-20675000D03*
D11*
X3404000Y-25501000D03*
X3150000Y-25501000D03*
X3404000Y-25247000D03*
X3150000Y-25247000D03*
X3404000Y-24993000D03*
X3150000Y-24993000D03*
X3404000Y-24739000D03*
X3150000Y-24739000D03*
X3404000Y-24485000D03*
X3150000Y-24485000D03*
X3404000Y-24231000D03*
X3150000Y-24231000D03*
X3404000Y-23977000D03*
X3150000Y-23977000D03*
X3404000Y-23723000D03*
X3150000Y-23723000D03*
X3404000Y-23469000D03*
X3150000Y-23469000D03*
X3404000Y-23215000D03*
X3150000Y-23215000D03*
X3404000Y-22961000D03*
X3150000Y-22961000D03*
X3404000Y-22707000D03*
X3150000Y-22707000D03*
X3404000Y-22453000D03*
X3150000Y-22453000D03*
X3404000Y-22199000D03*
X3150000Y-22199000D03*
X3404000Y-21945000D03*
X3150000Y-21945000D03*
X3404000Y-21691000D03*
X3150000Y-21691000D03*
X3404000Y-21437000D03*
X3150000Y-21437000D03*
X3404000Y-21183000D03*
X3150000Y-21183000D03*
X3404000Y-20929000D03*
X3150000Y-20929000D03*
X3404000Y-20675000D03*
D12*
X3150000Y-20675000D03*
D13*
X12110000Y-26471000D03*
X11983000Y-26725000D03*
X11856000Y-26471000D03*
X11729000Y-26725000D03*
X11602000Y-26471000D03*
D14*
X11475000Y-26725000D03*
D10*
X8425000Y-12600000D03*
X8775000Y-12100000D03*
X9125000Y-12600000D03*
X9475000Y-12100000D03*
X12050000Y-22975000D03*
X12550000Y-23325000D03*
X12050000Y-20500000D03*
X12550000Y-20850000D03*
X12050000Y-18000000D03*
X12550000Y-18350000D03*
X12050000Y-15500000D03*
X12550000Y-15850000D03*
X5225000Y-12350000D03*
X5575000Y-11850000D03*
X4350000Y-27275000D03*
X4000000Y-27775000D03*
X6550000Y-12250000D03*
X6900000Y-11750000D03*
X4475000Y-18650000D03*
X3975000Y-18300000D03*
D15*
X3444706Y-11405294D03*
X3275000Y-11335000D03*
X3105294Y-11405294D03*
X3035000Y-11575000D03*
X3105294Y-11744706D03*
X3275000Y-11815000D03*
X3444706Y-11744706D03*
X3515000Y-11575000D03*
D16*
X3275000Y-11575000D03*
D15*
X12994706Y-11405294D03*
X12825000Y-11335000D03*
X12655294Y-11405294D03*
X12585000Y-11575000D03*
X12655294Y-11744706D03*
X12825000Y-11815000D03*
X12994706Y-11744706D03*
X13065000Y-11575000D03*
D16*
X12825000Y-11575000D03*
D15*
X3444706Y-27755294D03*
X3275000Y-27685000D03*
X3105294Y-27755294D03*
X3035000Y-27925000D03*
X3105294Y-28094706D03*
X3275000Y-28165000D03*
X3444706Y-28094706D03*
X3515000Y-27925000D03*
D16*
X3275000Y-27925000D03*
D15*
X12994706Y-26930294D03*
X12825000Y-26860000D03*
X12655294Y-26930294D03*
X12585000Y-27100000D03*
X12655294Y-27269706D03*
X12825000Y-27340000D03*
X12994706Y-27269706D03*
X13065000Y-27100000D03*
D16*
X12825000Y-27100000D03*
D11*
X12928000Y-24852000D03*
X12928000Y-25106000D03*
X12928000Y-25360000D03*
X12928000Y-25614000D03*
X12928000Y-25868000D03*
D12*
X12928000Y-26122000D03*
D11*
X10576000Y-27871000D03*
X10576000Y-28125000D03*
X10322000Y-27871000D03*
X10322000Y-28125000D03*
X10068000Y-27871000D03*
X10068000Y-28125000D03*
X9814000Y-27871000D03*
X9814000Y-28125000D03*
X9560000Y-27871000D03*
X9560000Y-28125000D03*
X9306000Y-27871000D03*
X9306000Y-28125000D03*
X9052000Y-27871000D03*
X9052000Y-28125000D03*
X8798000Y-27871000D03*
X8798000Y-28125000D03*
X8544000Y-27871000D03*
X8544000Y-28125000D03*
X8290000Y-27871000D03*
X8290000Y-28125000D03*
X8036000Y-27871000D03*
X8036000Y-28125000D03*
X7782000Y-27871000D03*
X7782000Y-28125000D03*
X7528000Y-27871000D03*
X7528000Y-28125000D03*
X7274000Y-27871000D03*
X7274000Y-28125000D03*
X7020000Y-27871000D03*
X7020000Y-28125000D03*
X6766000Y-27871000D03*
X6766000Y-28125000D03*
X6512000Y-27871000D03*
X6512000Y-28125000D03*
X6258000Y-27871000D03*
X6258000Y-28125000D03*
X6004000Y-27871000D03*
X6004000Y-28125000D03*
X5750000Y-27871000D03*
D12*
X5750000Y-28125000D03*
D17*
X11175000Y-22375000D03*
D15*
X3705000Y-19230000D03*
X3695000Y-19740000D03*
X7365000Y-18135000D03*
X7265000Y-17435000D03*
X6172789Y-17677501D03*
X6007501Y-17677501D03*
X5100000Y-16870000D03*
X9563000Y-15217000D03*
X3200000Y-12210000D03*
X4220000Y-13310000D03*
X4720000Y-14510000D03*
X4000000Y-14030000D03*
X4220000Y-13710000D03*
X3660000Y-12670000D03*
X4760000Y-12750000D03*
X4560000Y-12250000D03*
X6380000Y-13395000D03*
X5755000Y-13685000D03*
X7680000Y-13730000D03*
X11550000Y-24985000D03*
X11550000Y-25745000D03*
X3525000Y-15025000D03*
X6575000Y-15450000D03*
X3500000Y-15450000D03*
X6600000Y-15000000D03*
X4575000Y-27825000D03*
X7100000Y-22900000D03*
X4600000Y-15800000D03*
X10575000Y-14150000D03*
X9900000Y-14650000D03*
X9393999Y-16000000D03*
X10100000Y-15800000D03*
X9563000Y-17717000D03*
X9900000Y-17150000D03*
X9393999Y-18500000D03*
X10100000Y-18300000D03*
X9563000Y-20217000D03*
X9900000Y-19650000D03*
X9393999Y-21000000D03*
X10100000Y-20800000D03*
X9563000Y-22717000D03*
X9900000Y-22150000D03*
X9393999Y-23500000D03*
X10100000Y-23300000D03*
X10775000Y-16450000D03*
X10775000Y-18950000D03*
X10775000Y-21450000D03*
D18*
X4875000Y-15050000D03*
X4925000Y-15325000D03*
X5125000Y-15050000D03*
D15*
X5898503Y-17692612D03*
D18*
X7700000Y-18545700D03*
X7100000Y-18545700D03*
X7152805Y-19372195D03*
X8065002Y-18275000D03*
X6825000Y-18850000D03*
X8000000Y-19025000D03*
D15*
X12895000Y-14345000D03*
X12895000Y-14165000D03*
X11340000Y-13285000D03*
X11425000Y-13370000D03*
X10700000Y-15825000D03*
X10725000Y-16025000D03*
X12895000Y-16845000D03*
X12895000Y-16665000D03*
X10700000Y-18325000D03*
X10725000Y-18525000D03*
X12895000Y-19345000D03*
X12895000Y-19165000D03*
X10700000Y-20825000D03*
X10725000Y-21025000D03*
X12895000Y-21845000D03*
X12895000Y-21665000D03*
X10700000Y-23325000D03*
X10725000Y-23525000D03*
X10625000Y-13250000D03*
X4120000Y-13630000D03*
X3920000Y-12630000D03*
X5715000Y-13965000D03*
D18*
X7050000Y-18925000D03*
X7268750Y-19081250D03*
X7475000Y-18775000D03*
D15*
X9290000Y-15510000D03*
X9290000Y-18010000D03*
X9290000Y-20510000D03*
X9290000Y-23010000D03*
X4925000Y-18725000D03*
X6125000Y-17535000D03*
X5940000Y-16880500D03*
D17*
X11175000Y-19875000D03*
X11175000Y-17375000D03*
X11175000Y-14875000D03*
D15*
X5115000Y-15890000D03*
X10400000Y-14075000D03*
X8500000Y-15575000D03*
D18*
X7175000Y-20075000D03*
D15*
X6875000Y-14250000D03*
X6250000Y-18800000D03*
X4050000Y-20750000D03*
X11095000Y-11980000D03*
X10200000Y-24550000D03*
X7850000Y-16275000D03*
X9271497Y-25075000D03*
X7700000Y-16775000D03*
X8650000Y-27675000D03*
X11715000Y-24790000D03*
X9250000Y-27000000D03*
X8425000Y-27250000D03*
X3400000Y-16675000D03*
D18*
X3550000Y-15750000D03*
X3650000Y-15750000D03*
X3750000Y-15750000D03*
D15*
X6975000Y-15600000D03*
X8825000Y-27500000D03*
X4000000Y-14250000D03*
X9325000Y-27575000D03*
X9225000Y-27475000D03*
X9675000Y-27600000D03*
X6300000Y-15750000D03*
X8500000Y-27606000D03*
X6375000Y-15675000D03*
X8350000Y-27606000D03*
X6300000Y-15600000D03*
X8175000Y-27225000D03*
X8225000Y-27606000D03*
X3650000Y-20175000D03*
X3950000Y-20125000D03*
X3400000Y-16175000D03*
X5325000Y-19450000D03*
D19*
X11729000Y-26754000D02*
X11729000Y-26725000D01*
X12928000Y-25622000D02*
X12450000Y-26100000D01*
X12928000Y-25614000D02*
X12928000Y-25622000D01*
X12450000Y-26100000D02*
X12450000Y-26500000D01*
X12450000Y-26500000D02*
X12025000Y-26925000D01*
X12025000Y-26925000D02*
X11900000Y-26925000D01*
X11900000Y-26925000D02*
X11729000Y-26754000D01*
X7146000Y-27999000D02*
X7274000Y-27871000D01*
X6901000Y-27999000D02*
X7146000Y-27999000D01*
X6766000Y-28125000D02*
X6775000Y-28125000D01*
X6775000Y-28125000D02*
X6901000Y-27999000D01*
D20*
X7112500Y-18925000D02*
X7268750Y-19081250D01*
X7050000Y-18925000D02*
X7112500Y-18925000D01*
X7325000Y-18925000D02*
X7475000Y-18775000D01*
X7050000Y-18925000D02*
X7325000Y-18925000D01*
X3920000Y-13430000D02*
X4120000Y-13630000D01*
X3920000Y-12630000D02*
X3920000Y-13430000D01*
X5354000Y-13604000D02*
X5715000Y-13965000D01*
X4169120Y-13604000D02*
X5354000Y-13604000D01*
X4143120Y-13630000D02*
X4169120Y-13604000D01*
X4120000Y-13630000D02*
X4143120Y-13630000D01*
X9287999Y-18007999D02*
X9290000Y-18010000D01*
X9290000Y-15510000D02*
X9287999Y-15512001D01*
X9287999Y-20507999D02*
X9290000Y-20510000D01*
X9287999Y-18012001D02*
X9287999Y-20507999D01*
X9290000Y-18010000D02*
X9287999Y-18012001D01*
X9287999Y-23007999D02*
X9290000Y-23010000D01*
X9287999Y-20817001D02*
X9287999Y-23007999D01*
X9290000Y-20815000D02*
X9287999Y-20817001D01*
X9290000Y-20510000D02*
X9290000Y-20815000D01*
X9290000Y-23010000D02*
X9290000Y-23065000D01*
X9290000Y-23065000D02*
X9675000Y-23450000D01*
X9675000Y-23450000D02*
X9675000Y-24025000D01*
X9675000Y-24025000D02*
X10200000Y-24550000D01*
X9275998Y-16725000D02*
X9287999Y-16737001D01*
X9275998Y-17775000D02*
X9287999Y-17787001D01*
X9287999Y-16737001D02*
X9287999Y-17787001D01*
X9287999Y-17787001D02*
X9287999Y-18007999D01*
X9275000Y-16275000D02*
X9287999Y-16262001D01*
X7850000Y-16275000D02*
X9275000Y-16275000D01*
X9287999Y-15512001D02*
X9287999Y-16262001D01*
X9287999Y-16262001D02*
X9287999Y-16737001D01*
X9275000Y-25075000D02*
X9271497Y-25075000D01*
X9225000Y-23075000D02*
X9290000Y-23010000D01*
X9271497Y-25075000D02*
X9225000Y-25028503D01*
X9225000Y-25028503D02*
X9225000Y-23075000D01*
X5940000Y-17350000D02*
X6125000Y-17535000D01*
X5940000Y-16880500D02*
X5940000Y-17350000D01*
X4925000Y-18450000D02*
X4925000Y-18725000D01*
X6125000Y-17535000D02*
X5840000Y-17535000D01*
X5840000Y-17535000D02*
X4925000Y-18450000D01*
D21*
X7875000Y-16950000D02*
X7700000Y-16775000D01*
X7875000Y-16950000D02*
X8950000Y-18025000D01*
X8950000Y-18025000D02*
X8950000Y-19625000D01*
X8950000Y-19625000D02*
X8950000Y-27050000D01*
X8950000Y-27050000D02*
X8650000Y-27350000D01*
X8650000Y-27350000D02*
X8650000Y-27675000D01*
D20*
X6004000Y-27871000D02*
X5750000Y-27871000D01*
D19*
X11715000Y-24985000D02*
X11715000Y-24790000D01*
X9250000Y-27000000D02*
X9700000Y-27000000D01*
X9700000Y-27000000D02*
X11715000Y-24985000D01*
D20*
X6975000Y-15725000D02*
X6975000Y-15600000D01*
X9100000Y-17850000D02*
X6975000Y-15725000D01*
X8825000Y-27500000D02*
X9100000Y-27225000D01*
X9100000Y-27225000D02*
X9100000Y-17850000D01*
D21*
X10322000Y-27871000D02*
X10304000Y-27871000D01*
X10193000Y-27982000D02*
X9457000Y-27982000D01*
X10304000Y-27871000D02*
X10193000Y-27982000D01*
X9457000Y-27982000D02*
X9425000Y-27950000D01*
X9425000Y-27950000D02*
X9425000Y-27700000D01*
X9425000Y-27700000D02*
X9325000Y-27600000D01*
X9325000Y-27600000D02*
X9325000Y-27575000D01*
X9225000Y-27475000D02*
X9325000Y-27475000D01*
X9325000Y-27475000D02*
X9450000Y-27600000D01*
X9450000Y-27600000D02*
X9675000Y-27600000D01*
X6512000Y-28125000D02*
X6512000Y-28088000D01*
X6300000Y-15850000D02*
X6300000Y-15750000D01*
X8750000Y-18300000D02*
X6300000Y-15850000D01*
X8750000Y-26950000D02*
X8750000Y-18300000D01*
X8500000Y-27606000D02*
X8500000Y-27200000D01*
X8500000Y-27200000D02*
X8750000Y-26950000D01*
X8350000Y-27606000D02*
X8350000Y-27275000D01*
X8375000Y-27250000D02*
X8350000Y-27275000D01*
X8425000Y-27250000D02*
X8375000Y-27250000D01*
X8700000Y-26925000D02*
X8350000Y-27275000D01*
X8700000Y-18325000D02*
X8700000Y-26925000D01*
X6211001Y-15836001D02*
X8700000Y-18325000D01*
X6211001Y-15739912D02*
X6211001Y-15836001D01*
X6375000Y-15675000D02*
X6275913Y-15675000D01*
X6275913Y-15675000D02*
X6211001Y-15739912D01*
X8225000Y-27325000D02*
X8225000Y-27606000D01*
X8175000Y-27275000D02*
X8225000Y-27325000D01*
X8175000Y-27225000D02*
X8175000Y-27275000D01*
X8650000Y-26900000D02*
X8225000Y-27325000D01*
X8650000Y-18350000D02*
X8650000Y-26900000D01*
X6175000Y-15875000D02*
X8650000Y-18350000D01*
X6300000Y-15600000D02*
X6175000Y-15725000D01*
X6175000Y-15725000D02*
X6175000Y-15875000D01*
X3550000Y-20075000D02*
X3650000Y-20175000D01*
X3400000Y-16675000D02*
X3550000Y-16675000D01*
X3550000Y-15750000D02*
X3550000Y-16675000D01*
X3550000Y-16675000D02*
X3550000Y-20075000D01*
X3586001Y-19861001D02*
X3850000Y-20125000D01*
X3650000Y-15750000D02*
X3586001Y-15813999D01*
X3850000Y-20125000D02*
X3950000Y-20125000D01*
X3586001Y-15813999D02*
X3586001Y-19861001D01*
X3400000Y-16175000D02*
X3400000Y-15750000D01*
X3400000Y-15750000D02*
X3500000Y-15650000D01*
X3550000Y-15650000D02*
X3650000Y-15750000D01*
X3500000Y-15650000D02*
X3550000Y-15650000D01*
D19*
X12923000Y-24852000D02*
X12928000Y-24852000D01*
X12110000Y-26471000D02*
X12110000Y-25665000D01*
X12110000Y-25665000D02*
X12923000Y-24852000D01*
D21*
X5425000Y-21250000D02*
X5400000Y-21250000D01*
X5325000Y-19450000D02*
X5250000Y-19450000D01*
X5250000Y-19450000D02*
X4475000Y-20225000D01*
X4475000Y-20225000D02*
X4475000Y-20775000D01*
X4475000Y-20775000D02*
X3575000Y-21675000D01*
X11856000Y-26781000D02*
X11856000Y-26471000D01*
X12928000Y-25372000D02*
X12354750Y-25945250D01*
X12928000Y-25360000D02*
X12928000Y-25372000D01*
X12354750Y-25945250D02*
X12354750Y-26520250D01*
X12354750Y-26520250D02*
X12025000Y-26850000D01*
X12025000Y-26850000D02*
X11925000Y-26850000D01*
X11925000Y-26850000D02*
X11856000Y-26781000D01*
X12907000Y-25868000D02*
X12550000Y-26225000D01*
X12928000Y-25868000D02*
X12907000Y-25868000D01*
X12550000Y-26225000D02*
X12550000Y-26475000D01*
X11602000Y-26777000D02*
X11602000Y-26471000D01*
X12550000Y-26475000D02*
X12025000Y-27000000D01*
X12025000Y-27000000D02*
X11825000Y-27000000D01*
X11825000Y-27000000D02*
X11602000Y-26777000D01*
X11995500Y-26725000D02*
X11983000Y-26725000D01*
X12222750Y-26497750D02*
X11995500Y-26725000D01*
X12222750Y-25802250D02*
X12222750Y-26497750D01*
X12928000Y-25106000D02*
X12919000Y-25106000D01*
X12919000Y-25106000D02*
X12222750Y-25802250D01*
X3625000Y-19825000D02*
X3625000Y-15875000D01*
X4016000Y-20093320D02*
X3747680Y-19825000D01*
X3625000Y-15875000D02*
X3750000Y-15750000D01*
X4016000Y-20571000D02*
X4016000Y-20093320D01*
X3747680Y-19825000D02*
X3625000Y-19825000D01*
X3404000Y-21183000D02*
X4016000Y-20571000D01*
X3420000Y-21675000D02*
X3404000Y-21691000D01*
X3575000Y-21675000D02*
X3420000Y-21675000D01*
D22*
G36*
X12580533Y-11277116D02*
G01*
X12527116Y-11330533D01*
X12485147Y-11393345D01*
X12456238Y-11463137D01*
X12441500Y-11537228D01*
X12441500Y-11612771D01*
X12456238Y-11686863D01*
X12485147Y-11756655D01*
X12527116Y-11819467D01*
X12580533Y-11872884D01*
X12643345Y-11914853D01*
X12713137Y-11943762D01*
X12787228Y-11958500D01*
X12862771Y-11958500D01*
X12936863Y-11943762D01*
X13006655Y-11914853D01*
X13069467Y-11872884D01*
X13122884Y-11819467D01*
X13137300Y-11797892D01*
X13137300Y-23837300D01*
X10612700Y-23837300D01*
X10612700Y-23307419D01*
X12371500Y-23307419D01*
X12371500Y-23342581D01*
X12378360Y-23377066D01*
X12391815Y-23409551D01*
X12411350Y-23438787D01*
X12436213Y-23463650D01*
X12465448Y-23483185D01*
X12497933Y-23496640D01*
X12532419Y-23503500D01*
X12567581Y-23503500D01*
X12602066Y-23496640D01*
X12634551Y-23483185D01*
X12663787Y-23463650D01*
X12688650Y-23438787D01*
X12708185Y-23409551D01*
X12721640Y-23377066D01*
X12728500Y-23342581D01*
X12728500Y-23307419D01*
X12721640Y-23272933D01*
X12708185Y-23240448D01*
X12688650Y-23211213D01*
X12663787Y-23186350D01*
X12634551Y-23166815D01*
X12602066Y-23153360D01*
X12567581Y-23146500D01*
X12532419Y-23146500D01*
X12497933Y-23153360D01*
X12465448Y-23166815D01*
X12436213Y-23186350D01*
X12411350Y-23211213D01*
X12391815Y-23240448D01*
X12378360Y-23272933D01*
X12371500Y-23307419D01*
X10612700Y-23307419D01*
X10612700Y-22957419D01*
X11871500Y-22957419D01*
X11871500Y-22992581D01*
X11878360Y-23027066D01*
X11891815Y-23059551D01*
X11911350Y-23088787D01*
X11936213Y-23113650D01*
X11965448Y-23133185D01*
X11997933Y-23146640D01*
X12032419Y-23153500D01*
X12067581Y-23153500D01*
X12102066Y-23146640D01*
X12134551Y-23133185D01*
X12163787Y-23113650D01*
X12188650Y-23088787D01*
X12208185Y-23059551D01*
X12221640Y-23027066D01*
X12228500Y-22992581D01*
X12228500Y-22957419D01*
X12221640Y-22922933D01*
X12208185Y-22890448D01*
X12188650Y-22861213D01*
X12163787Y-22836350D01*
X12134551Y-22816815D01*
X12102066Y-22803360D01*
X12067581Y-22796500D01*
X12032419Y-22796500D01*
X11997933Y-22803360D01*
X11965448Y-22816815D01*
X11936213Y-22836350D01*
X11911350Y-22861213D01*
X11891815Y-22890448D01*
X11878360Y-22922933D01*
X11871500Y-22957419D01*
X10612700Y-22957419D01*
X10612700Y-22937700D01*
X11475000Y-22937700D01*
X11477478Y-22937456D01*
X11479860Y-22936733D01*
X11482056Y-22935560D01*
X11483980Y-22933980D01*
X11485560Y-22932056D01*
X11486733Y-22929860D01*
X11487456Y-22927478D01*
X11487700Y-22925000D01*
X11487700Y-21150000D01*
X11487456Y-21147522D01*
X11486733Y-21145140D01*
X11485560Y-21142944D01*
X11483980Y-21141020D01*
X11482056Y-21139440D01*
X11479860Y-21138267D01*
X11477478Y-21137544D01*
X11475000Y-21137300D01*
X10612700Y-21137300D01*
X10612700Y-20832419D01*
X12371500Y-20832419D01*
X12371500Y-20867581D01*
X12378360Y-20902067D01*
X12391815Y-20934552D01*
X12411350Y-20963787D01*
X12436213Y-20988650D01*
X12465448Y-21008185D01*
X12497933Y-21021640D01*
X12532419Y-21028500D01*
X12567581Y-21028500D01*
X12602066Y-21021640D01*
X12634551Y-21008185D01*
X12663787Y-20988650D01*
X12688650Y-20963787D01*
X12708185Y-20934552D01*
X12721640Y-20902067D01*
X12728500Y-20867581D01*
X12728500Y-20832419D01*
X12721640Y-20797934D01*
X12708185Y-20765449D01*
X12688650Y-20736213D01*
X12663787Y-20711350D01*
X12634551Y-20691815D01*
X12602066Y-20678360D01*
X12567581Y-20671500D01*
X12532419Y-20671500D01*
X12497933Y-20678360D01*
X12465448Y-20691815D01*
X12436213Y-20711350D01*
X12411350Y-20736213D01*
X12391815Y-20765449D01*
X12378360Y-20797934D01*
X12371500Y-20832419D01*
X10612700Y-20832419D01*
X10612700Y-20482419D01*
X11871500Y-20482419D01*
X11871500Y-20517581D01*
X11878360Y-20552067D01*
X11891815Y-20584552D01*
X11911350Y-20613787D01*
X11936213Y-20638650D01*
X11965448Y-20658185D01*
X11997933Y-20671640D01*
X12032419Y-20678500D01*
X12067581Y-20678500D01*
X12102066Y-20671640D01*
X12134551Y-20658185D01*
X12163787Y-20638650D01*
X12188650Y-20613787D01*
X12208185Y-20584552D01*
X12221640Y-20552067D01*
X12228500Y-20517581D01*
X12228500Y-20482419D01*
X12221640Y-20447934D01*
X12208185Y-20415449D01*
X12188650Y-20386213D01*
X12163787Y-20361350D01*
X12134551Y-20341815D01*
X12102066Y-20328360D01*
X12067581Y-20321500D01*
X12032419Y-20321500D01*
X11997933Y-20328360D01*
X11965448Y-20341815D01*
X11936213Y-20361350D01*
X11911350Y-20386213D01*
X11891815Y-20415449D01*
X11878360Y-20447934D01*
X11871500Y-20482419D01*
X10612700Y-20482419D01*
X10612700Y-20437700D01*
X11475000Y-20437700D01*
X11477478Y-20437456D01*
X11479860Y-20436733D01*
X11482056Y-20435560D01*
X11483980Y-20433980D01*
X11485560Y-20432056D01*
X11486733Y-20429860D01*
X11487456Y-20427478D01*
X11487700Y-20425000D01*
X11487700Y-18650000D01*
X11487456Y-18647522D01*
X11486733Y-18645140D01*
X11485560Y-18642944D01*
X11483980Y-18641020D01*
X11482056Y-18639440D01*
X11479860Y-18638267D01*
X11477478Y-18637544D01*
X11475000Y-18637300D01*
X10612700Y-18637300D01*
X10612700Y-18332419D01*
X12371500Y-18332419D01*
X12371500Y-18367581D01*
X12378360Y-18402067D01*
X12391815Y-18434552D01*
X12411350Y-18463787D01*
X12436213Y-18488650D01*
X12465448Y-18508185D01*
X12497933Y-18521640D01*
X12532419Y-18528500D01*
X12567581Y-18528500D01*
X12602066Y-18521640D01*
X12634551Y-18508185D01*
X12663787Y-18488650D01*
X12688650Y-18463787D01*
X12708185Y-18434552D01*
X12721640Y-18402067D01*
X12728500Y-18367581D01*
X12728500Y-18332419D01*
X12721640Y-18297934D01*
X12708185Y-18265449D01*
X12688650Y-18236213D01*
X12663787Y-18211350D01*
X12634551Y-18191815D01*
X12602066Y-18178360D01*
X12567581Y-18171500D01*
X12532419Y-18171500D01*
X12497933Y-18178360D01*
X12465448Y-18191815D01*
X12436213Y-18211350D01*
X12411350Y-18236213D01*
X12391815Y-18265449D01*
X12378360Y-18297934D01*
X12371500Y-18332419D01*
X10612700Y-18332419D01*
X10612700Y-17982419D01*
X11871500Y-17982419D01*
X11871500Y-18017581D01*
X11878360Y-18052067D01*
X11891815Y-18084552D01*
X11911350Y-18113787D01*
X11936213Y-18138650D01*
X11965448Y-18158185D01*
X11997933Y-18171640D01*
X12032419Y-18178500D01*
X12067581Y-18178500D01*
X12102066Y-18171640D01*
X12134551Y-18158185D01*
X12163787Y-18138650D01*
X12188650Y-18113787D01*
X12208185Y-18084552D01*
X12221640Y-18052067D01*
X12228500Y-18017581D01*
X12228500Y-17982419D01*
X12221640Y-17947934D01*
X12208185Y-17915449D01*
X12188650Y-17886213D01*
X12163787Y-17861350D01*
X12134551Y-17841815D01*
X12102066Y-17828360D01*
X12067581Y-17821500D01*
X12032419Y-17821500D01*
X11997933Y-17828360D01*
X11965448Y-17841815D01*
X11936213Y-17861350D01*
X11911350Y-17886213D01*
X11891815Y-17915449D01*
X11878360Y-17947934D01*
X11871500Y-17982419D01*
X10612700Y-17982419D01*
X10612700Y-17937700D01*
X11475000Y-17937700D01*
X11477478Y-17937456D01*
X11479860Y-17936733D01*
X11482056Y-17935560D01*
X11483980Y-17933980D01*
X11485560Y-17932056D01*
X11486733Y-17929860D01*
X11487456Y-17927478D01*
X11487700Y-17925000D01*
X11487700Y-16150000D01*
X11487456Y-16147522D01*
X11486733Y-16145140D01*
X11485560Y-16142944D01*
X11483980Y-16141020D01*
X11482056Y-16139440D01*
X11479860Y-16138267D01*
X11477478Y-16137544D01*
X11475000Y-16137300D01*
X10587700Y-16137300D01*
X10587700Y-15832419D01*
X12371500Y-15832419D01*
X12371500Y-15867581D01*
X12378360Y-15902066D01*
X12391815Y-15934551D01*
X12411350Y-15963787D01*
X12436213Y-15988650D01*
X12465448Y-16008185D01*
X12497933Y-16021640D01*
X12532419Y-16028500D01*
X12567581Y-16028500D01*
X12602066Y-16021640D01*
X12634551Y-16008185D01*
X12663787Y-15988650D01*
X12688650Y-15963787D01*
X12708185Y-15934551D01*
X12721640Y-15902066D01*
X12728500Y-15867581D01*
X12728500Y-15832419D01*
X12721640Y-15797933D01*
X12708185Y-15765448D01*
X12688650Y-15736213D01*
X12663787Y-15711350D01*
X12634551Y-15691815D01*
X12602066Y-15678360D01*
X12567581Y-15671500D01*
X12532419Y-15671500D01*
X12497933Y-15678360D01*
X12465448Y-15691815D01*
X12436213Y-15711350D01*
X12411350Y-15736213D01*
X12391815Y-15765448D01*
X12378360Y-15797933D01*
X12371500Y-15832419D01*
X10587700Y-15832419D01*
X10587700Y-15482419D01*
X11871500Y-15482419D01*
X11871500Y-15517581D01*
X11878360Y-15552066D01*
X11891815Y-15584551D01*
X11911350Y-15613787D01*
X11936213Y-15638650D01*
X11965448Y-15658185D01*
X11997933Y-15671640D01*
X12032419Y-15678500D01*
X12067581Y-15678500D01*
X12102066Y-15671640D01*
X12134551Y-15658185D01*
X12163787Y-15638650D01*
X12188650Y-15613787D01*
X12208185Y-15584551D01*
X12221640Y-15552066D01*
X12228500Y-15517581D01*
X12228500Y-15482419D01*
X12221640Y-15447933D01*
X12208185Y-15415448D01*
X12188650Y-15386213D01*
X12163787Y-15361350D01*
X12134551Y-15341815D01*
X12102066Y-15328360D01*
X12067581Y-15321500D01*
X12032419Y-15321500D01*
X11997933Y-15328360D01*
X11965448Y-15341815D01*
X11936213Y-15361350D01*
X11911350Y-15386213D01*
X11891815Y-15415448D01*
X11878360Y-15447933D01*
X11871500Y-15482419D01*
X10587700Y-15482419D01*
X10587700Y-15437700D01*
X11475000Y-15437700D01*
X11477478Y-15437456D01*
X11479860Y-15436733D01*
X11482056Y-15435560D01*
X11483980Y-15433980D01*
X11485560Y-15432056D01*
X11486733Y-15429860D01*
X11487456Y-15427478D01*
X11487700Y-15425000D01*
X11487700Y-14162700D01*
X12050000Y-14162700D01*
X12052478Y-14162456D01*
X12054860Y-14161733D01*
X12057056Y-14160560D01*
X12058980Y-14158980D01*
X12060560Y-14157056D01*
X12061733Y-14154860D01*
X12062456Y-14152478D01*
X12062700Y-14150000D01*
X12062700Y-13675000D01*
X12062456Y-13672522D01*
X12061733Y-13670140D01*
X12060560Y-13667944D01*
X12058980Y-13666020D01*
X12057056Y-13664440D01*
X12054860Y-13663267D01*
X12052478Y-13662544D01*
X12050000Y-13662300D01*
X8112700Y-13662300D01*
X8112700Y-12724235D01*
X8318726Y-12724235D01*
X8330112Y-12752209D01*
X8361630Y-12767796D01*
X8395583Y-12776935D01*
X8430666Y-12779274D01*
X8465532Y-12774724D01*
X8498840Y-12763459D01*
X8519888Y-12752209D01*
X8531274Y-12724235D01*
X9018726Y-12724235D01*
X9030112Y-12752209D01*
X9061630Y-12767796D01*
X9095583Y-12776935D01*
X9130666Y-12779274D01*
X9165532Y-12774724D01*
X9198840Y-12763459D01*
X9219888Y-12752209D01*
X9231274Y-12724235D01*
X9125000Y-12617960D01*
X9018726Y-12724235D01*
X8531274Y-12724235D01*
X8425000Y-12617960D01*
X8318726Y-12724235D01*
X8112700Y-12724235D01*
X8112700Y-12605666D01*
X8245726Y-12605666D01*
X8250276Y-12640532D01*
X8261541Y-12673840D01*
X8272791Y-12694888D01*
X8300765Y-12706274D01*
X8407040Y-12600000D01*
X8442961Y-12600000D01*
X8549235Y-12706274D01*
X8577209Y-12694888D01*
X8592796Y-12663370D01*
X8601935Y-12629417D01*
X8603519Y-12605666D01*
X8945726Y-12605666D01*
X8950276Y-12640532D01*
X8961541Y-12673840D01*
X8972791Y-12694888D01*
X9000765Y-12706274D01*
X9107040Y-12600000D01*
X9142961Y-12600000D01*
X9249235Y-12706274D01*
X9277209Y-12694888D01*
X9292796Y-12663370D01*
X9301935Y-12629417D01*
X9304274Y-12594334D01*
X9299724Y-12559468D01*
X9288459Y-12526160D01*
X9277209Y-12505112D01*
X9249235Y-12493726D01*
X9142961Y-12600000D01*
X9107040Y-12600000D01*
X9000765Y-12493726D01*
X8972791Y-12505112D01*
X8957204Y-12536630D01*
X8948065Y-12570583D01*
X8945726Y-12605666D01*
X8603519Y-12605666D01*
X8604274Y-12594334D01*
X8599724Y-12559468D01*
X8588459Y-12526160D01*
X8577209Y-12505112D01*
X8549235Y-12493726D01*
X8442961Y-12600000D01*
X8407040Y-12600000D01*
X8300765Y-12493726D01*
X8272791Y-12505112D01*
X8257204Y-12536630D01*
X8248065Y-12570583D01*
X8245726Y-12605666D01*
X8112700Y-12605666D01*
X8112700Y-12475765D01*
X8318726Y-12475765D01*
X8425000Y-12582039D01*
X8531274Y-12475765D01*
X9018726Y-12475765D01*
X9125000Y-12582039D01*
X9231274Y-12475765D01*
X9219888Y-12447791D01*
X9188370Y-12432204D01*
X9154417Y-12423065D01*
X9119334Y-12420726D01*
X9084468Y-12425276D01*
X9051160Y-12436541D01*
X9030112Y-12447791D01*
X9018726Y-12475765D01*
X8531274Y-12475765D01*
X8519888Y-12447791D01*
X8488370Y-12432204D01*
X8454417Y-12423065D01*
X8419334Y-12420726D01*
X8384468Y-12425276D01*
X8351160Y-12436541D01*
X8330112Y-12447791D01*
X8318726Y-12475765D01*
X8112700Y-12475765D01*
X8112700Y-12082419D01*
X8596500Y-12082419D01*
X8596500Y-12117581D01*
X8603360Y-12152066D01*
X8616815Y-12184551D01*
X8636350Y-12213787D01*
X8661213Y-12238650D01*
X8690449Y-12258185D01*
X8722934Y-12271640D01*
X8757419Y-12278500D01*
X8792581Y-12278500D01*
X8827067Y-12271640D01*
X8859552Y-12258185D01*
X8888787Y-12238650D01*
X8913650Y-12213787D01*
X8933185Y-12184551D01*
X8946640Y-12152066D01*
X8953500Y-12117581D01*
X8953500Y-12082419D01*
X9296500Y-12082419D01*
X9296500Y-12117581D01*
X9303360Y-12152066D01*
X9316815Y-12184551D01*
X9336350Y-12213787D01*
X9361213Y-12238650D01*
X9390449Y-12258185D01*
X9422934Y-12271640D01*
X9457419Y-12278500D01*
X9492581Y-12278500D01*
X9527067Y-12271640D01*
X9559552Y-12258185D01*
X9588787Y-12238650D01*
X9613650Y-12213787D01*
X9633185Y-12184551D01*
X9646640Y-12152066D01*
X9653500Y-12117581D01*
X9653500Y-12082419D01*
X9646640Y-12047933D01*
X9633185Y-12015448D01*
X9613650Y-11986213D01*
X9588787Y-11961350D01*
X9559552Y-11941815D01*
X9527067Y-11928360D01*
X9492581Y-11921500D01*
X9457419Y-11921500D01*
X9422934Y-11928360D01*
X9390449Y-11941815D01*
X9361213Y-11961350D01*
X9336350Y-11986213D01*
X9316815Y-12015448D01*
X9303360Y-12047933D01*
X9296500Y-12082419D01*
X8953500Y-12082419D01*
X8946640Y-12047933D01*
X8933185Y-12015448D01*
X8913650Y-11986213D01*
X8888787Y-11961350D01*
X8859552Y-11941815D01*
X8827067Y-11928360D01*
X8792581Y-11921500D01*
X8757419Y-11921500D01*
X8722934Y-11928360D01*
X8690449Y-11941815D01*
X8661213Y-11961350D01*
X8636350Y-11986213D01*
X8616815Y-12015448D01*
X8603360Y-12047933D01*
X8596500Y-12082419D01*
X8112700Y-12082419D01*
X8112700Y-11262700D01*
X12602108Y-11262700D01*
X12580533Y-11277116D01*
X12580533Y-11277116D01*
G37*
X12580533Y-11277116D02*
X12527116Y-11330533D01*
X12485147Y-11393345D01*
X12456238Y-11463137D01*
X12441500Y-11537228D01*
X12441500Y-11612771D01*
X12456238Y-11686863D01*
X12485147Y-11756655D01*
X12527116Y-11819467D01*
X12580533Y-11872884D01*
X12643345Y-11914853D01*
X12713137Y-11943762D01*
X12787228Y-11958500D01*
X12862771Y-11958500D01*
X12936863Y-11943762D01*
X13006655Y-11914853D01*
X13069467Y-11872884D01*
X13122884Y-11819467D01*
X13137300Y-11797892D01*
X13137300Y-23837300D01*
X10612700Y-23837300D01*
X10612700Y-23307419D01*
X12371500Y-23307419D01*
X12371500Y-23342581D01*
X12378360Y-23377066D01*
X12391815Y-23409551D01*
X12411350Y-23438787D01*
X12436213Y-23463650D01*
X12465448Y-23483185D01*
X12497933Y-23496640D01*
X12532419Y-23503500D01*
X12567581Y-23503500D01*
X12602066Y-23496640D01*
X12634551Y-23483185D01*
X12663787Y-23463650D01*
X12688650Y-23438787D01*
X12708185Y-23409551D01*
X12721640Y-23377066D01*
X12728500Y-23342581D01*
X12728500Y-23307419D01*
X12721640Y-23272933D01*
X12708185Y-23240448D01*
X12688650Y-23211213D01*
X12663787Y-23186350D01*
X12634551Y-23166815D01*
X12602066Y-23153360D01*
X12567581Y-23146500D01*
X12532419Y-23146500D01*
X12497933Y-23153360D01*
X12465448Y-23166815D01*
X12436213Y-23186350D01*
X12411350Y-23211213D01*
X12391815Y-23240448D01*
X12378360Y-23272933D01*
X12371500Y-23307419D01*
X10612700Y-23307419D01*
X10612700Y-22957419D01*
X11871500Y-22957419D01*
X11871500Y-22992581D01*
X11878360Y-23027066D01*
X11891815Y-23059551D01*
X11911350Y-23088787D01*
X11936213Y-23113650D01*
X11965448Y-23133185D01*
X11997933Y-23146640D01*
X12032419Y-23153500D01*
X12067581Y-23153500D01*
X12102066Y-23146640D01*
X12134551Y-23133185D01*
X12163787Y-23113650D01*
X12188650Y-23088787D01*
X12208185Y-23059551D01*
X12221640Y-23027066D01*
X12228500Y-22992581D01*
X12228500Y-22957419D01*
X12221640Y-22922933D01*
X12208185Y-22890448D01*
X12188650Y-22861213D01*
X12163787Y-22836350D01*
X12134551Y-22816815D01*
X12102066Y-22803360D01*
X12067581Y-22796500D01*
X12032419Y-22796500D01*
X11997933Y-22803360D01*
X11965448Y-22816815D01*
X11936213Y-22836350D01*
X11911350Y-22861213D01*
X11891815Y-22890448D01*
X11878360Y-22922933D01*
X11871500Y-22957419D01*
X10612700Y-22957419D01*
X10612700Y-22937700D01*
X11475000Y-22937700D01*
X11477478Y-22937456D01*
X11479860Y-22936733D01*
X11482056Y-22935560D01*
X11483980Y-22933980D01*
X11485560Y-22932056D01*
X11486733Y-22929860D01*
X11487456Y-22927478D01*
X11487700Y-22925000D01*
X11487700Y-21150000D01*
X11487456Y-21147522D01*
X11486733Y-21145140D01*
X11485560Y-21142944D01*
X11483980Y-21141020D01*
X11482056Y-21139440D01*
X11479860Y-21138267D01*
X11477478Y-21137544D01*
X11475000Y-21137300D01*
X10612700Y-21137300D01*
X10612700Y-20832419D01*
X12371500Y-20832419D01*
X12371500Y-20867581D01*
X12378360Y-20902067D01*
X12391815Y-20934552D01*
X12411350Y-20963787D01*
X12436213Y-20988650D01*
X12465448Y-21008185D01*
X12497933Y-21021640D01*
X12532419Y-21028500D01*
X12567581Y-21028500D01*
X12602066Y-21021640D01*
X12634551Y-21008185D01*
X12663787Y-20988650D01*
X12688650Y-20963787D01*
X12708185Y-20934552D01*
X12721640Y-20902067D01*
X12728500Y-20867581D01*
X12728500Y-20832419D01*
X12721640Y-20797934D01*
X12708185Y-20765449D01*
X12688650Y-20736213D01*
X12663787Y-20711350D01*
X12634551Y-20691815D01*
X12602066Y-20678360D01*
X12567581Y-20671500D01*
X12532419Y-20671500D01*
X12497933Y-20678360D01*
X12465448Y-20691815D01*
X12436213Y-20711350D01*
X12411350Y-20736213D01*
X12391815Y-20765449D01*
X12378360Y-20797934D01*
X12371500Y-20832419D01*
X10612700Y-20832419D01*
X10612700Y-20482419D01*
X11871500Y-20482419D01*
X11871500Y-20517581D01*
X11878360Y-20552067D01*
X11891815Y-20584552D01*
X11911350Y-20613787D01*
X11936213Y-20638650D01*
X11965448Y-20658185D01*
X11997933Y-20671640D01*
X12032419Y-20678500D01*
X12067581Y-20678500D01*
X12102066Y-20671640D01*
X12134551Y-20658185D01*
X12163787Y-20638650D01*
X12188650Y-20613787D01*
X12208185Y-20584552D01*
X12221640Y-20552067D01*
X12228500Y-20517581D01*
X12228500Y-20482419D01*
X12221640Y-20447934D01*
X12208185Y-20415449D01*
X12188650Y-20386213D01*
X12163787Y-20361350D01*
X12134551Y-20341815D01*
X12102066Y-20328360D01*
X12067581Y-20321500D01*
X12032419Y-20321500D01*
X11997933Y-20328360D01*
X11965448Y-20341815D01*
X11936213Y-20361350D01*
X11911350Y-20386213D01*
X11891815Y-20415449D01*
X11878360Y-20447934D01*
X11871500Y-20482419D01*
X10612700Y-20482419D01*
X10612700Y-20437700D01*
X11475000Y-20437700D01*
X11477478Y-20437456D01*
X11479860Y-20436733D01*
X11482056Y-20435560D01*
X11483980Y-20433980D01*
X11485560Y-20432056D01*
X11486733Y-20429860D01*
X11487456Y-20427478D01*
X11487700Y-20425000D01*
X11487700Y-18650000D01*
X11487456Y-18647522D01*
X11486733Y-18645140D01*
X11485560Y-18642944D01*
X11483980Y-18641020D01*
X11482056Y-18639440D01*
X11479860Y-18638267D01*
X11477478Y-18637544D01*
X11475000Y-18637300D01*
X10612700Y-18637300D01*
X10612700Y-18332419D01*
X12371500Y-18332419D01*
X12371500Y-18367581D01*
X12378360Y-18402067D01*
X12391815Y-18434552D01*
X12411350Y-18463787D01*
X12436213Y-18488650D01*
X12465448Y-18508185D01*
X12497933Y-18521640D01*
X12532419Y-18528500D01*
X12567581Y-18528500D01*
X12602066Y-18521640D01*
X12634551Y-18508185D01*
X12663787Y-18488650D01*
X12688650Y-18463787D01*
X12708185Y-18434552D01*
X12721640Y-18402067D01*
X12728500Y-18367581D01*
X12728500Y-18332419D01*
X12721640Y-18297934D01*
X12708185Y-18265449D01*
X12688650Y-18236213D01*
X12663787Y-18211350D01*
X12634551Y-18191815D01*
X12602066Y-18178360D01*
X12567581Y-18171500D01*
X12532419Y-18171500D01*
X12497933Y-18178360D01*
X12465448Y-18191815D01*
X12436213Y-18211350D01*
X12411350Y-18236213D01*
X12391815Y-18265449D01*
X12378360Y-18297934D01*
X12371500Y-18332419D01*
X10612700Y-18332419D01*
X10612700Y-17982419D01*
X11871500Y-17982419D01*
X11871500Y-18017581D01*
X11878360Y-18052067D01*
X11891815Y-18084552D01*
X11911350Y-18113787D01*
X11936213Y-18138650D01*
X11965448Y-18158185D01*
X11997933Y-18171640D01*
X12032419Y-18178500D01*
X12067581Y-18178500D01*
X12102066Y-18171640D01*
X12134551Y-18158185D01*
X12163787Y-18138650D01*
X12188650Y-18113787D01*
X12208185Y-18084552D01*
X12221640Y-18052067D01*
X12228500Y-18017581D01*
X12228500Y-17982419D01*
X12221640Y-17947934D01*
X12208185Y-17915449D01*
X12188650Y-17886213D01*
X12163787Y-17861350D01*
X12134551Y-17841815D01*
X12102066Y-17828360D01*
X12067581Y-17821500D01*
X12032419Y-17821500D01*
X11997933Y-17828360D01*
X11965448Y-17841815D01*
X11936213Y-17861350D01*
X11911350Y-17886213D01*
X11891815Y-17915449D01*
X11878360Y-17947934D01*
X11871500Y-17982419D01*
X10612700Y-17982419D01*
X10612700Y-17937700D01*
X11475000Y-17937700D01*
X11477478Y-17937456D01*
X11479860Y-17936733D01*
X11482056Y-17935560D01*
X11483980Y-17933980D01*
X11485560Y-17932056D01*
X11486733Y-17929860D01*
X11487456Y-17927478D01*
X11487700Y-17925000D01*
X11487700Y-16150000D01*
X11487456Y-16147522D01*
X11486733Y-16145140D01*
X11485560Y-16142944D01*
X11483980Y-16141020D01*
X11482056Y-16139440D01*
X11479860Y-16138267D01*
X11477478Y-16137544D01*
X11475000Y-16137300D01*
X10587700Y-16137300D01*
X10587700Y-15832419D01*
X12371500Y-15832419D01*
X12371500Y-15867581D01*
X12378360Y-15902066D01*
X12391815Y-15934551D01*
X12411350Y-15963787D01*
X12436213Y-15988650D01*
X12465448Y-16008185D01*
X12497933Y-16021640D01*
X12532419Y-16028500D01*
X12567581Y-16028500D01*
X12602066Y-16021640D01*
X12634551Y-16008185D01*
X12663787Y-15988650D01*
X12688650Y-15963787D01*
X12708185Y-15934551D01*
X12721640Y-15902066D01*
X12728500Y-15867581D01*
X12728500Y-15832419D01*
X12721640Y-15797933D01*
X12708185Y-15765448D01*
X12688650Y-15736213D01*
X12663787Y-15711350D01*
X12634551Y-15691815D01*
X12602066Y-15678360D01*
X12567581Y-15671500D01*
X12532419Y-15671500D01*
X12497933Y-15678360D01*
X12465448Y-15691815D01*
X12436213Y-15711350D01*
X12411350Y-15736213D01*
X12391815Y-15765448D01*
X12378360Y-15797933D01*
X12371500Y-15832419D01*
X10587700Y-15832419D01*
X10587700Y-15482419D01*
X11871500Y-15482419D01*
X11871500Y-15517581D01*
X11878360Y-15552066D01*
X11891815Y-15584551D01*
X11911350Y-15613787D01*
X11936213Y-15638650D01*
X11965448Y-15658185D01*
X11997933Y-15671640D01*
X12032419Y-15678500D01*
X12067581Y-15678500D01*
X12102066Y-15671640D01*
X12134551Y-15658185D01*
X12163787Y-15638650D01*
X12188650Y-15613787D01*
X12208185Y-15584551D01*
X12221640Y-15552066D01*
X12228500Y-15517581D01*
X12228500Y-15482419D01*
X12221640Y-15447933D01*
X12208185Y-15415448D01*
X12188650Y-15386213D01*
X12163787Y-15361350D01*
X12134551Y-15341815D01*
X12102066Y-15328360D01*
X12067581Y-15321500D01*
X12032419Y-15321500D01*
X11997933Y-15328360D01*
X11965448Y-15341815D01*
X11936213Y-15361350D01*
X11911350Y-15386213D01*
X11891815Y-15415448D01*
X11878360Y-15447933D01*
X11871500Y-15482419D01*
X10587700Y-15482419D01*
X10587700Y-15437700D01*
X11475000Y-15437700D01*
X11477478Y-15437456D01*
X11479860Y-15436733D01*
X11482056Y-15435560D01*
X11483980Y-15433980D01*
X11485560Y-15432056D01*
X11486733Y-15429860D01*
X11487456Y-15427478D01*
X11487700Y-15425000D01*
X11487700Y-14162700D01*
X12050000Y-14162700D01*
X12052478Y-14162456D01*
X12054860Y-14161733D01*
X12057056Y-14160560D01*
X12058980Y-14158980D01*
X12060560Y-14157056D01*
X12061733Y-14154860D01*
X12062456Y-14152478D01*
X12062700Y-14150000D01*
X12062700Y-13675000D01*
X12062456Y-13672522D01*
X12061733Y-13670140D01*
X12060560Y-13667944D01*
X12058980Y-13666020D01*
X12057056Y-13664440D01*
X12054860Y-13663267D01*
X12052478Y-13662544D01*
X12050000Y-13662300D01*
X8112700Y-13662300D01*
X8112700Y-12724235D01*
X8318726Y-12724235D01*
X8330112Y-12752209D01*
X8361630Y-12767796D01*
X8395583Y-12776935D01*
X8430666Y-12779274D01*
X8465532Y-12774724D01*
X8498840Y-12763459D01*
X8519888Y-12752209D01*
X8531274Y-12724235D01*
X9018726Y-12724235D01*
X9030112Y-12752209D01*
X9061630Y-12767796D01*
X9095583Y-12776935D01*
X9130666Y-12779274D01*
X9165532Y-12774724D01*
X9198840Y-12763459D01*
X9219888Y-12752209D01*
X9231274Y-12724235D01*
X9125000Y-12617960D01*
X9018726Y-12724235D01*
X8531274Y-12724235D01*
X8425000Y-12617960D01*
X8318726Y-12724235D01*
X8112700Y-12724235D01*
X8112700Y-12605666D01*
X8245726Y-12605666D01*
X8250276Y-12640532D01*
X8261541Y-12673840D01*
X8272791Y-12694888D01*
X8300765Y-12706274D01*
X8407040Y-12600000D01*
X8442961Y-12600000D01*
X8549235Y-12706274D01*
X8577209Y-12694888D01*
X8592796Y-12663370D01*
X8601935Y-12629417D01*
X8603519Y-12605666D01*
X8945726Y-12605666D01*
X8950276Y-12640532D01*
X8961541Y-12673840D01*
X8972791Y-12694888D01*
X9000765Y-12706274D01*
X9107040Y-12600000D01*
X9142961Y-12600000D01*
X9249235Y-12706274D01*
X9277209Y-12694888D01*
X9292796Y-12663370D01*
X9301935Y-12629417D01*
X9304274Y-12594334D01*
X9299724Y-12559468D01*
X9288459Y-12526160D01*
X9277209Y-12505112D01*
X9249235Y-12493726D01*
X9142961Y-12600000D01*
X9107040Y-12600000D01*
X9000765Y-12493726D01*
X8972791Y-12505112D01*
X8957204Y-12536630D01*
X8948065Y-12570583D01*
X8945726Y-12605666D01*
X8603519Y-12605666D01*
X8604274Y-12594334D01*
X8599724Y-12559468D01*
X8588459Y-12526160D01*
X8577209Y-12505112D01*
X8549235Y-12493726D01*
X8442961Y-12600000D01*
X8407040Y-12600000D01*
X8300765Y-12493726D01*
X8272791Y-12505112D01*
X8257204Y-12536630D01*
X8248065Y-12570583D01*
X8245726Y-12605666D01*
X8112700Y-12605666D01*
X8112700Y-12475765D01*
X8318726Y-12475765D01*
X8425000Y-12582039D01*
X8531274Y-12475765D01*
X9018726Y-12475765D01*
X9125000Y-12582039D01*
X9231274Y-12475765D01*
X9219888Y-12447791D01*
X9188370Y-12432204D01*
X9154417Y-12423065D01*
X9119334Y-12420726D01*
X9084468Y-12425276D01*
X9051160Y-12436541D01*
X9030112Y-12447791D01*
X9018726Y-12475765D01*
X8531274Y-12475765D01*
X8519888Y-12447791D01*
X8488370Y-12432204D01*
X8454417Y-12423065D01*
X8419334Y-12420726D01*
X8384468Y-12425276D01*
X8351160Y-12436541D01*
X8330112Y-12447791D01*
X8318726Y-12475765D01*
X8112700Y-12475765D01*
X8112700Y-12082419D01*
X8596500Y-12082419D01*
X8596500Y-12117581D01*
X8603360Y-12152066D01*
X8616815Y-12184551D01*
X8636350Y-12213787D01*
X8661213Y-12238650D01*
X8690449Y-12258185D01*
X8722934Y-12271640D01*
X8757419Y-12278500D01*
X8792581Y-12278500D01*
X8827067Y-12271640D01*
X8859552Y-12258185D01*
X8888787Y-12238650D01*
X8913650Y-12213787D01*
X8933185Y-12184551D01*
X8946640Y-12152066D01*
X8953500Y-12117581D01*
X8953500Y-12082419D01*
X9296500Y-12082419D01*
X9296500Y-12117581D01*
X9303360Y-12152066D01*
X9316815Y-12184551D01*
X9336350Y-12213787D01*
X9361213Y-12238650D01*
X9390449Y-12258185D01*
X9422934Y-12271640D01*
X9457419Y-12278500D01*
X9492581Y-12278500D01*
X9527067Y-12271640D01*
X9559552Y-12258185D01*
X9588787Y-12238650D01*
X9613650Y-12213787D01*
X9633185Y-12184551D01*
X9646640Y-12152066D01*
X9653500Y-12117581D01*
X9653500Y-12082419D01*
X9646640Y-12047933D01*
X9633185Y-12015448D01*
X9613650Y-11986213D01*
X9588787Y-11961350D01*
X9559552Y-11941815D01*
X9527067Y-11928360D01*
X9492581Y-11921500D01*
X9457419Y-11921500D01*
X9422934Y-11928360D01*
X9390449Y-11941815D01*
X9361213Y-11961350D01*
X9336350Y-11986213D01*
X9316815Y-12015448D01*
X9303360Y-12047933D01*
X9296500Y-12082419D01*
X8953500Y-12082419D01*
X8946640Y-12047933D01*
X8933185Y-12015448D01*
X8913650Y-11986213D01*
X8888787Y-11961350D01*
X8859552Y-11941815D01*
X8827067Y-11928360D01*
X8792581Y-11921500D01*
X8757419Y-11921500D01*
X8722934Y-11928360D01*
X8690449Y-11941815D01*
X8661213Y-11961350D01*
X8636350Y-11986213D01*
X8616815Y-12015448D01*
X8603360Y-12047933D01*
X8596500Y-12082419D01*
X8112700Y-12082419D01*
X8112700Y-11262700D01*
X12602108Y-11262700D01*
X12580533Y-11277116D01*
G36*
X3022872Y-11304912D02*
G01*
X3275000Y-11557039D01*
X3527128Y-11304912D01*
X3496077Y-11262700D01*
X7737300Y-11262700D01*
X7737300Y-13975000D01*
X7737544Y-13977478D01*
X7738267Y-13979860D01*
X7739440Y-13982056D01*
X7741020Y-13983980D01*
X7742944Y-13985560D01*
X7745140Y-13986733D01*
X7747522Y-13987456D01*
X7750000Y-13987700D01*
X11387300Y-13987700D01*
X11387300Y-15287300D01*
X10325000Y-15287300D01*
X10322522Y-15287544D01*
X10320140Y-15288267D01*
X10317944Y-15289440D01*
X10316020Y-15291020D01*
X10314440Y-15292944D01*
X10313267Y-15295140D01*
X10312544Y-15297522D01*
X10312300Y-15300000D01*
X10312300Y-16400000D01*
X10312544Y-16402478D01*
X10313267Y-16404860D01*
X10314440Y-16407056D01*
X10316020Y-16408980D01*
X10317944Y-16410560D01*
X10320140Y-16411733D01*
X10322522Y-16412456D01*
X10325000Y-16412700D01*
X11387300Y-16412700D01*
X11387300Y-17787300D01*
X10325000Y-17787300D01*
X10322522Y-17787544D01*
X10320140Y-17788267D01*
X10317944Y-17789440D01*
X10316020Y-17791020D01*
X10314440Y-17792944D01*
X10313267Y-17795140D01*
X10312544Y-17797522D01*
X10312300Y-17800000D01*
X10312300Y-18900000D01*
X10312544Y-18902478D01*
X10313267Y-18904860D01*
X10314440Y-18907056D01*
X10316020Y-18908980D01*
X10317944Y-18910560D01*
X10320140Y-18911733D01*
X10322522Y-18912456D01*
X10325000Y-18912700D01*
X11387300Y-18912700D01*
X11387300Y-20287300D01*
X10325000Y-20287300D01*
X10322522Y-20287544D01*
X10320140Y-20288267D01*
X10317944Y-20289440D01*
X10316020Y-20291020D01*
X10314440Y-20292944D01*
X10313267Y-20295140D01*
X10312544Y-20297522D01*
X10312300Y-20300000D01*
X10312300Y-21400000D01*
X10312544Y-21402478D01*
X10313267Y-21404860D01*
X10314440Y-21407056D01*
X10316020Y-21408980D01*
X10317944Y-21410560D01*
X10320140Y-21411733D01*
X10322522Y-21412456D01*
X10325000Y-21412700D01*
X11387300Y-21412700D01*
X11387300Y-22787300D01*
X10325000Y-22787300D01*
X10322522Y-22787544D01*
X10320140Y-22788267D01*
X10317944Y-22789440D01*
X10316020Y-22791020D01*
X10314440Y-22792944D01*
X10313267Y-22795140D01*
X10312544Y-22797522D01*
X10312300Y-22800000D01*
X10312300Y-24050000D01*
X10312544Y-24052478D01*
X10313267Y-24054860D01*
X10314440Y-24057056D01*
X10316020Y-24058980D01*
X10317944Y-24060560D01*
X10320140Y-24061733D01*
X10322522Y-24062456D01*
X10325000Y-24062700D01*
X13137300Y-24062700D01*
X13137300Y-26878922D01*
X13095088Y-26847872D01*
X12842960Y-27100000D01*
X13095088Y-27352128D01*
X13137300Y-27321077D01*
X13137300Y-27634000D01*
X11003242Y-27634000D01*
X11000000Y-27633681D01*
X10996758Y-27634000D01*
X10987062Y-27634955D01*
X10974621Y-27638729D01*
X10963155Y-27644857D01*
X10953105Y-27653105D01*
X10944858Y-27663155D01*
X10938729Y-27674621D01*
X10934955Y-27687062D01*
X10933681Y-27700000D01*
X10934000Y-27703243D01*
X10934000Y-28237300D01*
X10672620Y-28237300D01*
X10676027Y-28234759D01*
X10695518Y-28213135D01*
X10710416Y-28188125D01*
X10720148Y-28160689D01*
X10708081Y-28137700D01*
X10588700Y-28137700D01*
X10588700Y-28139700D01*
X10563300Y-28139700D01*
X10563300Y-28137700D01*
X10561300Y-28137700D01*
X10561300Y-28112300D01*
X10563300Y-28112300D01*
X10563300Y-28110300D01*
X10588700Y-28110300D01*
X10588700Y-28112300D01*
X10708081Y-28112300D01*
X10720148Y-28089311D01*
X10710416Y-28061875D01*
X10695518Y-28036864D01*
X10676027Y-28015241D01*
X10653124Y-27998158D01*
X10658901Y-27995071D01*
X10681513Y-27976513D01*
X10700071Y-27953901D01*
X10713860Y-27928103D01*
X10722351Y-27900111D01*
X10725219Y-27871000D01*
X10722351Y-27841889D01*
X10713860Y-27813897D01*
X10700071Y-27788099D01*
X10681513Y-27765487D01*
X10658901Y-27746929D01*
X10633103Y-27733140D01*
X10605111Y-27724649D01*
X10583295Y-27722500D01*
X10568705Y-27722500D01*
X10546889Y-27724649D01*
X10518897Y-27733140D01*
X10493099Y-27746929D01*
X10470487Y-27765487D01*
X10451929Y-27788099D01*
X10449000Y-27793579D01*
X10446071Y-27788099D01*
X10427513Y-27765487D01*
X10404901Y-27746929D01*
X10379103Y-27733140D01*
X10351111Y-27724649D01*
X10329295Y-27722500D01*
X10314705Y-27722500D01*
X10292889Y-27724649D01*
X10264897Y-27733140D01*
X10239099Y-27746929D01*
X10216487Y-27765487D01*
X10197929Y-27788099D01*
X10195000Y-27793579D01*
X10192071Y-27788099D01*
X10173513Y-27765487D01*
X10150901Y-27746929D01*
X10125103Y-27733140D01*
X10097111Y-27724649D01*
X10075295Y-27722500D01*
X10060705Y-27722500D01*
X10038889Y-27724649D01*
X10010897Y-27733140D01*
X9985099Y-27746929D01*
X9962487Y-27765487D01*
X9943929Y-27788099D01*
X9940480Y-27794552D01*
X9933518Y-27782864D01*
X9914027Y-27761241D01*
X9890692Y-27743836D01*
X9864410Y-27731317D01*
X9849689Y-27726852D01*
X9826700Y-27738984D01*
X9826700Y-27858300D01*
X9828700Y-27858300D01*
X9828700Y-27883700D01*
X9826700Y-27883700D01*
X9826700Y-27885700D01*
X9801300Y-27885700D01*
X9801300Y-27883700D01*
X9799300Y-27883700D01*
X9799300Y-27858300D01*
X9801300Y-27858300D01*
X9801300Y-27738984D01*
X9778311Y-27726852D01*
X9763590Y-27731317D01*
X9737308Y-27743836D01*
X9713973Y-27761241D01*
X9694482Y-27782864D01*
X9687520Y-27794552D01*
X9684071Y-27788099D01*
X9665513Y-27765487D01*
X9642901Y-27746929D01*
X9617103Y-27733140D01*
X9589111Y-27724649D01*
X9567295Y-27722500D01*
X9552705Y-27722500D01*
X9530889Y-27724649D01*
X9502897Y-27733140D01*
X9498500Y-27735490D01*
X9498500Y-27703610D01*
X9498856Y-27700000D01*
X9497437Y-27685591D01*
X9493769Y-27673500D01*
X9602129Y-27673500D01*
X9609023Y-27680394D01*
X9625974Y-27691720D01*
X9644810Y-27699523D01*
X9664806Y-27703500D01*
X9685194Y-27703500D01*
X9705190Y-27699523D01*
X9724026Y-27691720D01*
X9740977Y-27680394D01*
X9755394Y-27665977D01*
X9766721Y-27649026D01*
X9774523Y-27630190D01*
X9778500Y-27610194D01*
X9778500Y-27589806D01*
X9774523Y-27569810D01*
X9766721Y-27550974D01*
X9755394Y-27534023D01*
X9740977Y-27519606D01*
X9724026Y-27508279D01*
X9705190Y-27500477D01*
X9685194Y-27496500D01*
X9664806Y-27496500D01*
X9644810Y-27500477D01*
X9625974Y-27508279D01*
X9609023Y-27519606D01*
X9602129Y-27526500D01*
X9480445Y-27526500D01*
X9379526Y-27425581D01*
X9377224Y-27422776D01*
X9366032Y-27413591D01*
X9353263Y-27406766D01*
X9339409Y-27402563D01*
X9328611Y-27401500D01*
X9325000Y-27401144D01*
X9321390Y-27401500D01*
X9297871Y-27401500D01*
X9290977Y-27394606D01*
X9274026Y-27383279D01*
X9255190Y-27375477D01*
X9235194Y-27371500D01*
X9214806Y-27371500D01*
X9194810Y-27375477D01*
X9175974Y-27383279D01*
X9159023Y-27394606D01*
X9144606Y-27409023D01*
X9133280Y-27425974D01*
X9125477Y-27444810D01*
X9121500Y-27464806D01*
X9121500Y-27485194D01*
X9125477Y-27505190D01*
X9133280Y-27524026D01*
X9144606Y-27540977D01*
X9159023Y-27555394D01*
X9175974Y-27566720D01*
X9194810Y-27574523D01*
X9214806Y-27578500D01*
X9221500Y-27578500D01*
X9221500Y-27585194D01*
X9225477Y-27605190D01*
X9233280Y-27624026D01*
X9244606Y-27640977D01*
X9259023Y-27655394D01*
X9275974Y-27666720D01*
X9294810Y-27674523D01*
X9295769Y-27674713D01*
X9350615Y-27729560D01*
X9341689Y-27726852D01*
X9318700Y-27738984D01*
X9318700Y-27858300D01*
X9320700Y-27858300D01*
X9320700Y-27883700D01*
X9318700Y-27883700D01*
X9318700Y-27885700D01*
X9293300Y-27885700D01*
X9293300Y-27883700D01*
X9291300Y-27883700D01*
X9291300Y-27858300D01*
X9293300Y-27858300D01*
X9293300Y-27738984D01*
X9270311Y-27726852D01*
X9255590Y-27731317D01*
X9229308Y-27743836D01*
X9205973Y-27761241D01*
X9186482Y-27782864D01*
X9179520Y-27794552D01*
X9176071Y-27788099D01*
X9157513Y-27765487D01*
X9134901Y-27746929D01*
X9109103Y-27733140D01*
X9081111Y-27724649D01*
X9059295Y-27722500D01*
X9044705Y-27722500D01*
X9022889Y-27724649D01*
X8994897Y-27733140D01*
X8969099Y-27746929D01*
X8946487Y-27765487D01*
X8927929Y-27788099D01*
X8925000Y-27793579D01*
X8922071Y-27788099D01*
X8903513Y-27765487D01*
X8880901Y-27746929D01*
X8855103Y-27733140D01*
X8827111Y-27724649D01*
X8805295Y-27722500D01*
X8790705Y-27722500D01*
X8768889Y-27724649D01*
X8740897Y-27733140D01*
X8732705Y-27737519D01*
X8741721Y-27724026D01*
X8749523Y-27705190D01*
X8753500Y-27685194D01*
X8753500Y-27664806D01*
X8749523Y-27644810D01*
X8741721Y-27625974D01*
X8730394Y-27609023D01*
X8723500Y-27602129D01*
X8723500Y-27550880D01*
X8730172Y-27563362D01*
X8744355Y-27580645D01*
X8761638Y-27594828D01*
X8781355Y-27605368D01*
X8802750Y-27611858D01*
X8825000Y-27614049D01*
X8847250Y-27611858D01*
X8868645Y-27605368D01*
X8888362Y-27594828D01*
X8901314Y-27584199D01*
X9115425Y-27370088D01*
X12572872Y-27370088D01*
X12608891Y-27419055D01*
X12675288Y-27455085D01*
X12747438Y-27477469D01*
X12822569Y-27485348D01*
X12897794Y-27478418D01*
X12970221Y-27456945D01*
X13037067Y-27421755D01*
X13041109Y-27419055D01*
X13077128Y-27370088D01*
X12825000Y-27117960D01*
X12572872Y-27370088D01*
X9115425Y-27370088D01*
X9176314Y-27309199D01*
X9180645Y-27305645D01*
X9194828Y-27288362D01*
X9205368Y-27268645D01*
X9211858Y-27247250D01*
X9213500Y-27230575D01*
X9213500Y-27230574D01*
X9214049Y-27225000D01*
X9213500Y-27219426D01*
X9213500Y-27096909D01*
X9219810Y-27099523D01*
X9239806Y-27103500D01*
X9260194Y-27103500D01*
X9280190Y-27099523D01*
X9284905Y-27097569D01*
X12439652Y-27097569D01*
X12446582Y-27172794D01*
X12468055Y-27245221D01*
X12503244Y-27312067D01*
X12505945Y-27316109D01*
X12554912Y-27352128D01*
X12807039Y-27100000D01*
X12554912Y-26847872D01*
X12505945Y-26883891D01*
X12469915Y-26950288D01*
X12447531Y-27022438D01*
X12439652Y-27097569D01*
X9284905Y-27097569D01*
X9299026Y-27091720D01*
X9303845Y-27088500D01*
X9695653Y-27088500D01*
X9700000Y-27088928D01*
X9704347Y-27088500D01*
X9704348Y-27088500D01*
X9717349Y-27087219D01*
X9734031Y-27082159D01*
X9749406Y-27073941D01*
X9762882Y-27062882D01*
X9765653Y-27059504D01*
X10032258Y-26792900D01*
X11343293Y-26792900D01*
X11344519Y-26805348D01*
X11348150Y-26817318D01*
X11354046Y-26828349D01*
X11361981Y-26838018D01*
X11371651Y-26845954D01*
X11382682Y-26851850D01*
X11394652Y-26855481D01*
X11407100Y-26856707D01*
X11446425Y-26856400D01*
X11462300Y-26840525D01*
X11462300Y-26737700D01*
X11359475Y-26737700D01*
X11343600Y-26753575D01*
X11343293Y-26792900D01*
X10032258Y-26792900D01*
X10294045Y-26531113D01*
X11194000Y-26531113D01*
X11194000Y-26558887D01*
X11199419Y-26586128D01*
X11210047Y-26611788D01*
X11225478Y-26634882D01*
X11245118Y-26654522D01*
X11268211Y-26669952D01*
X11293872Y-26680581D01*
X11321113Y-26686000D01*
X11343519Y-26686000D01*
X11343600Y-26696425D01*
X11359475Y-26712300D01*
X11462300Y-26712300D01*
X11462300Y-26609475D01*
X11461318Y-26608493D01*
X11470581Y-26586128D01*
X11476000Y-26558887D01*
X11476000Y-26531113D01*
X11470581Y-26503872D01*
X11459952Y-26478211D01*
X11446487Y-26458058D01*
X11470600Y-26458058D01*
X11470600Y-26483942D01*
X11475650Y-26509328D01*
X11485555Y-26533241D01*
X11499935Y-26554763D01*
X11518237Y-26573065D01*
X11528500Y-26579922D01*
X11528500Y-26593405D01*
X11503575Y-26593600D01*
X11487700Y-26609475D01*
X11487700Y-26712300D01*
X11489700Y-26712300D01*
X11489700Y-26737700D01*
X11487700Y-26737700D01*
X11487700Y-26840525D01*
X11503575Y-26856400D01*
X11542900Y-26856707D01*
X11555348Y-26855481D01*
X11567318Y-26851850D01*
X11570959Y-26849904D01*
X11770475Y-27049419D01*
X11772776Y-27052224D01*
X11783968Y-27061409D01*
X11796737Y-27068234D01*
X11810591Y-27072436D01*
X11821389Y-27073500D01*
X11821390Y-27073500D01*
X11825000Y-27073855D01*
X11828609Y-27073500D01*
X12021389Y-27073500D01*
X12025000Y-27073856D01*
X12028610Y-27073500D01*
X12039408Y-27072436D01*
X12053263Y-27068234D01*
X12066032Y-27061409D01*
X12077224Y-27052224D01*
X12079526Y-27049419D01*
X12299033Y-26829912D01*
X12572872Y-26829912D01*
X12825000Y-27082039D01*
X13077128Y-26829912D01*
X13041109Y-26780945D01*
X12974712Y-26744915D01*
X12902561Y-26722531D01*
X12827430Y-26714652D01*
X12752206Y-26721582D01*
X12679779Y-26743055D01*
X12612933Y-26778244D01*
X12608891Y-26780945D01*
X12572872Y-26829912D01*
X12299033Y-26829912D01*
X12599419Y-26529525D01*
X12602224Y-26527224D01*
X12611409Y-26516032D01*
X12618234Y-26503263D01*
X12622436Y-26489408D01*
X12623500Y-26478610D01*
X12623500Y-26478610D01*
X12623855Y-26475000D01*
X12623500Y-26471391D01*
X12623500Y-26255445D01*
X12671945Y-26207000D01*
X12779193Y-26207000D01*
X12780419Y-26219448D01*
X12784050Y-26231418D01*
X12789946Y-26242449D01*
X12797881Y-26252118D01*
X12807551Y-26260054D01*
X12818582Y-26265950D01*
X12830552Y-26269581D01*
X12843000Y-26270807D01*
X12899425Y-26270500D01*
X12915300Y-26254625D01*
X12915300Y-26134700D01*
X12940700Y-26134700D01*
X12940700Y-26254625D01*
X12956575Y-26270500D01*
X13013000Y-26270807D01*
X13025448Y-26269581D01*
X13037418Y-26265950D01*
X13048449Y-26260054D01*
X13058118Y-26252118D01*
X13066054Y-26242449D01*
X13071950Y-26231418D01*
X13075581Y-26219448D01*
X13076807Y-26207000D01*
X13076500Y-26150575D01*
X13060625Y-26134700D01*
X12940700Y-26134700D01*
X12915300Y-26134700D01*
X12795375Y-26134700D01*
X12779500Y-26150575D01*
X12779193Y-26207000D01*
X12671945Y-26207000D01*
X12782510Y-26096435D01*
X12795375Y-26109300D01*
X12915300Y-26109300D01*
X12915300Y-26107300D01*
X12940700Y-26107300D01*
X12940700Y-26109300D01*
X13060625Y-26109300D01*
X13076500Y-26093425D01*
X13076807Y-26037000D01*
X13075581Y-26024552D01*
X13071950Y-26012582D01*
X13066054Y-26001551D01*
X13058118Y-25991881D01*
X13048449Y-25983946D01*
X13037418Y-25978050D01*
X13030531Y-25975961D01*
X13033513Y-25973513D01*
X13052071Y-25950901D01*
X13065860Y-25925103D01*
X13074351Y-25897111D01*
X13077218Y-25868000D01*
X13074351Y-25838889D01*
X13065860Y-25810897D01*
X13052071Y-25785099D01*
X13033513Y-25762487D01*
X13010901Y-25743929D01*
X13005421Y-25741000D01*
X13010901Y-25738071D01*
X13033513Y-25719513D01*
X13052071Y-25696901D01*
X13065860Y-25671103D01*
X13074351Y-25643111D01*
X13077218Y-25614000D01*
X13074351Y-25584889D01*
X13065860Y-25556897D01*
X13052071Y-25531099D01*
X13033513Y-25508487D01*
X13010901Y-25489929D01*
X13005421Y-25487000D01*
X13010901Y-25484071D01*
X13033513Y-25465513D01*
X13052071Y-25442901D01*
X13065860Y-25417103D01*
X13074351Y-25389111D01*
X13077218Y-25360000D01*
X13074351Y-25330889D01*
X13065860Y-25302897D01*
X13052071Y-25277099D01*
X13033513Y-25254487D01*
X13010901Y-25235929D01*
X13005421Y-25233000D01*
X13010901Y-25230071D01*
X13033513Y-25211513D01*
X13052071Y-25188901D01*
X13065860Y-25163103D01*
X13074351Y-25135111D01*
X13077218Y-25106000D01*
X13074351Y-25076889D01*
X13065860Y-25048897D01*
X13052071Y-25023099D01*
X13033513Y-25000487D01*
X13010901Y-24981929D01*
X13005421Y-24979000D01*
X13010901Y-24976071D01*
X13033513Y-24957513D01*
X13052071Y-24934901D01*
X13065860Y-24909103D01*
X13074351Y-24881111D01*
X13077218Y-24852000D01*
X13074351Y-24822889D01*
X13065860Y-24794897D01*
X13052071Y-24769099D01*
X13033513Y-24746487D01*
X13010901Y-24727929D01*
X12985103Y-24714140D01*
X12957111Y-24705649D01*
X12935295Y-24703500D01*
X12920705Y-24703500D01*
X12898889Y-24705649D01*
X12870897Y-24714140D01*
X12845099Y-24727929D01*
X12822487Y-24746487D01*
X12803929Y-24769099D01*
X12790140Y-24794897D01*
X12781649Y-24822889D01*
X12778781Y-24852000D01*
X12780490Y-24869352D01*
X12050495Y-25599347D01*
X12047118Y-25602118D01*
X12044347Y-25605495D01*
X12044347Y-25605495D01*
X12036059Y-25615594D01*
X12027841Y-25630969D01*
X12022780Y-25647651D01*
X12021072Y-25665000D01*
X12021500Y-25669348D01*
X12021500Y-26373672D01*
X12007935Y-26387237D01*
X11993555Y-26408759D01*
X11983650Y-26432672D01*
X11983000Y-26435938D01*
X11982350Y-26432672D01*
X11972445Y-26408759D01*
X11958065Y-26387237D01*
X11939763Y-26368935D01*
X11918241Y-26354555D01*
X11894328Y-26344650D01*
X11868942Y-26339600D01*
X11843058Y-26339600D01*
X11817672Y-26344650D01*
X11793759Y-26354555D01*
X11772237Y-26368935D01*
X11753935Y-26387237D01*
X11739555Y-26408759D01*
X11729650Y-26432672D01*
X11729000Y-26435938D01*
X11728350Y-26432672D01*
X11718445Y-26408759D01*
X11704065Y-26387237D01*
X11685763Y-26368935D01*
X11664241Y-26354555D01*
X11640328Y-26344650D01*
X11614942Y-26339600D01*
X11589058Y-26339600D01*
X11563672Y-26344650D01*
X11539759Y-26354555D01*
X11518237Y-26368935D01*
X11499935Y-26387237D01*
X11485555Y-26408759D01*
X11475650Y-26432672D01*
X11470600Y-26458058D01*
X11446487Y-26458058D01*
X11444522Y-26455118D01*
X11424882Y-26435478D01*
X11401788Y-26420047D01*
X11376128Y-26409419D01*
X11348887Y-26404000D01*
X11321113Y-26404000D01*
X11293872Y-26409419D01*
X11268211Y-26420047D01*
X11245118Y-26435478D01*
X11225478Y-26455118D01*
X11210047Y-26478211D01*
X11199419Y-26503872D01*
X11194000Y-26531113D01*
X10294045Y-26531113D01*
X11774505Y-25050653D01*
X11777882Y-25047882D01*
X11788941Y-25034406D01*
X11797159Y-25019031D01*
X11802219Y-25002349D01*
X11803500Y-24989348D01*
X11803500Y-24989347D01*
X11803928Y-24985000D01*
X11803500Y-24980653D01*
X11803500Y-24843845D01*
X11806720Y-24839026D01*
X11814523Y-24820190D01*
X11818500Y-24800194D01*
X11818500Y-24779806D01*
X11814523Y-24759810D01*
X11806720Y-24740974D01*
X11795394Y-24724023D01*
X11780977Y-24709606D01*
X11764026Y-24698279D01*
X11745190Y-24690477D01*
X11725194Y-24686500D01*
X11704806Y-24686500D01*
X11684810Y-24690477D01*
X11665974Y-24698279D01*
X11649023Y-24709606D01*
X11634606Y-24724023D01*
X11623279Y-24740974D01*
X11615477Y-24759810D01*
X11611500Y-24779806D01*
X11611500Y-24800194D01*
X11615477Y-24820190D01*
X11623279Y-24839026D01*
X11626500Y-24843845D01*
X11626500Y-24948342D01*
X9663342Y-26911500D01*
X9303845Y-26911500D01*
X9299026Y-26908279D01*
X9280190Y-26900477D01*
X9260194Y-26896500D01*
X9239806Y-26896500D01*
X9219810Y-26900477D01*
X9213500Y-26903091D01*
X9213500Y-25172696D01*
X9226229Y-25179500D01*
X9227852Y-25180368D01*
X9249247Y-25186858D01*
X9271497Y-25189049D01*
X9277072Y-25188500D01*
X9280575Y-25188500D01*
X9297250Y-25186858D01*
X9318645Y-25180368D01*
X9338362Y-25169828D01*
X9355645Y-25155645D01*
X9369828Y-25138362D01*
X9380368Y-25118645D01*
X9386858Y-25097250D01*
X9389049Y-25075000D01*
X9386858Y-25052750D01*
X9380368Y-25031355D01*
X9369828Y-25011638D01*
X9355645Y-24994355D01*
X9338500Y-24980285D01*
X9338500Y-23274013D01*
X9561500Y-23497013D01*
X9561500Y-24019424D01*
X9560951Y-24025000D01*
X9563142Y-24047250D01*
X9569632Y-24068645D01*
X9569633Y-24068645D01*
X9580172Y-24088362D01*
X9594355Y-24105645D01*
X9598686Y-24109199D01*
X10123686Y-24634199D01*
X10136638Y-24644828D01*
X10156355Y-24655367D01*
X10177750Y-24661858D01*
X10200000Y-24664049D01*
X10222250Y-24661858D01*
X10243645Y-24655367D01*
X10263362Y-24644828D01*
X10280645Y-24630645D01*
X10294828Y-24613362D01*
X10305368Y-24593645D01*
X10311858Y-24572250D01*
X10314049Y-24550000D01*
X10311858Y-24527750D01*
X10305368Y-24506355D01*
X10294828Y-24486638D01*
X10284199Y-24473686D01*
X9788500Y-23977987D01*
X9788500Y-23455574D01*
X9789049Y-23450000D01*
X9788500Y-23444425D01*
X9788500Y-23444425D01*
X9786858Y-23427750D01*
X9785879Y-23424523D01*
X9784962Y-23421500D01*
X9780368Y-23406355D01*
X9769828Y-23386638D01*
X9755645Y-23369355D01*
X9751314Y-23365801D01*
X9403500Y-23017987D01*
X9403500Y-23015575D01*
X9404049Y-23010000D01*
X9401858Y-22987750D01*
X9401499Y-22986567D01*
X9401499Y-20838433D01*
X9401858Y-20837250D01*
X9403500Y-20820575D01*
X9403500Y-20820574D01*
X9404049Y-20815000D01*
X9403500Y-20809426D01*
X9403500Y-20515574D01*
X9404049Y-20510000D01*
X9403500Y-20504426D01*
X9403500Y-20504425D01*
X9401858Y-20487750D01*
X9401499Y-20486567D01*
X9401499Y-18033433D01*
X9401858Y-18032250D01*
X9404049Y-18010000D01*
X9401858Y-17987750D01*
X9401499Y-17986567D01*
X9401499Y-17792576D01*
X9402048Y-17787001D01*
X9401499Y-17781426D01*
X9401499Y-16742576D01*
X9402048Y-16737001D01*
X9401499Y-16731426D01*
X9401499Y-16267576D01*
X9402048Y-16262001D01*
X9401499Y-16256426D01*
X9401499Y-15533433D01*
X9401858Y-15532250D01*
X9404049Y-15510000D01*
X9401858Y-15487750D01*
X9395368Y-15466355D01*
X9384828Y-15446638D01*
X9370645Y-15429355D01*
X9353362Y-15415172D01*
X9333645Y-15404632D01*
X9312250Y-15398142D01*
X9290000Y-15395951D01*
X9267750Y-15398142D01*
X9246355Y-15404632D01*
X9226638Y-15415172D01*
X9213686Y-15425801D01*
X9211685Y-15427802D01*
X9207354Y-15431356D01*
X9193170Y-15448639D01*
X9183701Y-15466355D01*
X9182631Y-15468357D01*
X9176141Y-15489751D01*
X9173950Y-15512001D01*
X9174499Y-15517576D01*
X9174499Y-16161500D01*
X7844425Y-16161500D01*
X7827750Y-16163142D01*
X7806355Y-16169632D01*
X7786638Y-16180172D01*
X7769355Y-16194355D01*
X7755172Y-16211638D01*
X7744632Y-16231355D01*
X7738142Y-16252750D01*
X7735951Y-16275000D01*
X7738142Y-16297250D01*
X7744632Y-16318645D01*
X7755172Y-16338362D01*
X7769355Y-16355645D01*
X7786638Y-16369828D01*
X7806355Y-16380368D01*
X7827750Y-16386858D01*
X7844425Y-16388500D01*
X9174499Y-16388500D01*
X9174499Y-16674117D01*
X9170630Y-16681355D01*
X9164140Y-16702750D01*
X9161949Y-16725000D01*
X9164140Y-16747250D01*
X9170630Y-16768645D01*
X9174499Y-16775883D01*
X9174499Y-17724117D01*
X9170630Y-17731355D01*
X9164140Y-17752750D01*
X9164061Y-17753548D01*
X7088500Y-15677987D01*
X7088500Y-15594425D01*
X7086858Y-15577750D01*
X7080368Y-15556355D01*
X7069828Y-15536638D01*
X7055645Y-15519355D01*
X7038362Y-15505172D01*
X7018645Y-15494632D01*
X6997250Y-15488142D01*
X6975000Y-15485951D01*
X6952750Y-15488142D01*
X6931355Y-15494632D01*
X6911638Y-15505172D01*
X6894355Y-15519355D01*
X6880172Y-15536638D01*
X6869632Y-15556355D01*
X6863142Y-15577750D01*
X6861500Y-15594425D01*
X6861500Y-15719425D01*
X6860951Y-15725000D01*
X6861500Y-15730575D01*
X6863142Y-15747250D01*
X6869632Y-15768645D01*
X6880172Y-15788362D01*
X6894355Y-15805645D01*
X6898686Y-15809200D01*
X8986500Y-17897013D01*
X8986500Y-17957555D01*
X7929526Y-16900581D01*
X7929525Y-16900580D01*
X7803500Y-16774555D01*
X7803500Y-16764806D01*
X7799523Y-16744810D01*
X7791720Y-16725974D01*
X7780394Y-16709022D01*
X7765977Y-16694606D01*
X7749026Y-16683279D01*
X7730190Y-16675477D01*
X7710194Y-16671500D01*
X7689806Y-16671500D01*
X7669810Y-16675477D01*
X7650974Y-16683279D01*
X7634023Y-16694606D01*
X7619606Y-16709022D01*
X7608279Y-16725974D01*
X7600477Y-16744810D01*
X7596500Y-16764806D01*
X7596500Y-16785194D01*
X7600477Y-16805190D01*
X7608279Y-16824025D01*
X7619606Y-16840977D01*
X7634023Y-16855394D01*
X7650974Y-16866720D01*
X7669810Y-16874522D01*
X7689806Y-16878500D01*
X7699555Y-16878500D01*
X7825581Y-17004525D01*
X7825581Y-17004526D01*
X8876500Y-18055445D01*
X8876500Y-19621389D01*
X8876500Y-19621390D01*
X8876500Y-27019555D01*
X8600581Y-27295475D01*
X8597776Y-27297776D01*
X8588591Y-27308968D01*
X8581766Y-27321737D01*
X8579715Y-27328500D01*
X8577564Y-27335591D01*
X8576144Y-27350000D01*
X8576500Y-27353610D01*
X8576500Y-27536129D01*
X8573500Y-27533129D01*
X8573500Y-27230445D01*
X8799420Y-27004525D01*
X8802224Y-27002224D01*
X8804525Y-26999420D01*
X8804525Y-26999419D01*
X8807763Y-26995475D01*
X8811409Y-26991032D01*
X8818234Y-26978263D01*
X8822437Y-26964408D01*
X8823500Y-26953610D01*
X8823500Y-26953610D01*
X8823856Y-26950000D01*
X8823500Y-26946389D01*
X8823500Y-18303609D01*
X8823856Y-18300000D01*
X8823500Y-18296390D01*
X8823500Y-18296390D01*
X8822437Y-18285592D01*
X8818234Y-18271737D01*
X8811409Y-18258968D01*
X8802224Y-18247776D01*
X8799419Y-18245475D01*
X6375158Y-15821213D01*
X6380394Y-15815977D01*
X6391720Y-15799026D01*
X6399523Y-15780190D01*
X6400463Y-15775463D01*
X6405190Y-15774523D01*
X6424026Y-15766720D01*
X6440977Y-15755394D01*
X6455394Y-15740977D01*
X6466720Y-15724026D01*
X6474523Y-15705190D01*
X6478500Y-15685194D01*
X6478500Y-15664806D01*
X6474523Y-15644810D01*
X6466720Y-15625974D01*
X6455394Y-15609023D01*
X6440977Y-15594606D01*
X6424026Y-15583279D01*
X6405190Y-15575477D01*
X6400463Y-15574537D01*
X6399523Y-15569810D01*
X6391720Y-15550974D01*
X6380394Y-15534023D01*
X6365977Y-15519606D01*
X6349026Y-15508279D01*
X6330190Y-15500477D01*
X6310194Y-15496500D01*
X6289806Y-15496500D01*
X6269810Y-15500477D01*
X6250974Y-15508279D01*
X6234023Y-15519606D01*
X6219606Y-15534023D01*
X6208279Y-15550974D01*
X6200477Y-15569810D01*
X6196500Y-15589806D01*
X6196500Y-15599555D01*
X6125581Y-15670475D01*
X6122776Y-15672776D01*
X6113591Y-15683968D01*
X6106766Y-15696737D01*
X6103838Y-15706389D01*
X6102563Y-15710591D01*
X6101144Y-15725000D01*
X6101500Y-15728610D01*
X6101500Y-15871388D01*
X6101144Y-15875000D01*
X6102563Y-15889408D01*
X6106451Y-15902224D01*
X6106766Y-15903263D01*
X6113591Y-15916032D01*
X6122776Y-15927224D01*
X6125581Y-15929525D01*
X8576500Y-18380445D01*
X8576500Y-26869555D01*
X8267705Y-27178351D01*
X8266720Y-27175974D01*
X8255394Y-27159023D01*
X8240977Y-27144606D01*
X8224026Y-27133279D01*
X8205190Y-27125477D01*
X8185194Y-27121500D01*
X8164806Y-27121500D01*
X8144810Y-27125477D01*
X8125974Y-27133279D01*
X8109023Y-27144606D01*
X8094606Y-27159023D01*
X8083279Y-27175974D01*
X8075477Y-27194810D01*
X8071500Y-27214806D01*
X8071500Y-27235194D01*
X8075477Y-27255190D01*
X8083279Y-27274026D01*
X8094606Y-27290977D01*
X8106711Y-27303083D01*
X8106766Y-27303263D01*
X8113591Y-27316032D01*
X8122776Y-27327224D01*
X8125581Y-27329525D01*
X8151500Y-27355445D01*
X8151500Y-27533129D01*
X8144606Y-27540023D01*
X8133279Y-27556974D01*
X8125477Y-27575810D01*
X8121500Y-27595806D01*
X8121500Y-27616194D01*
X8125477Y-27636190D01*
X8133279Y-27655026D01*
X8144606Y-27671977D01*
X8159023Y-27686394D01*
X8175974Y-27697720D01*
X8194810Y-27705523D01*
X8214806Y-27709500D01*
X8235194Y-27709500D01*
X8255190Y-27705523D01*
X8274026Y-27697720D01*
X8287500Y-27688717D01*
X8300974Y-27697720D01*
X8319810Y-27705523D01*
X8339806Y-27709500D01*
X8360194Y-27709500D01*
X8380190Y-27705523D01*
X8399026Y-27697720D01*
X8415977Y-27686394D01*
X8425000Y-27677371D01*
X8434023Y-27686394D01*
X8450974Y-27697720D01*
X8469810Y-27705523D01*
X8489806Y-27709500D01*
X8510194Y-27709500D01*
X8530190Y-27705523D01*
X8548994Y-27697733D01*
X8550477Y-27705190D01*
X8557918Y-27723152D01*
X8551295Y-27722500D01*
X8536705Y-27722500D01*
X8514889Y-27724649D01*
X8486897Y-27733140D01*
X8461099Y-27746929D01*
X8438487Y-27765487D01*
X8419929Y-27788099D01*
X8417000Y-27793579D01*
X8414071Y-27788099D01*
X8395513Y-27765487D01*
X8372901Y-27746929D01*
X8347103Y-27733140D01*
X8319111Y-27724649D01*
X8297295Y-27722500D01*
X8282705Y-27722500D01*
X8260889Y-27724649D01*
X8232897Y-27733140D01*
X8207099Y-27746929D01*
X8184487Y-27765487D01*
X8165929Y-27788099D01*
X8162480Y-27794552D01*
X8155518Y-27782864D01*
X8136027Y-27761241D01*
X8112692Y-27743836D01*
X8086410Y-27731317D01*
X8071689Y-27726852D01*
X8048700Y-27738984D01*
X8048700Y-27858300D01*
X8050700Y-27858300D01*
X8050700Y-27883700D01*
X8048700Y-27883700D01*
X8048700Y-27885700D01*
X8023300Y-27885700D01*
X8023300Y-27883700D01*
X8021300Y-27883700D01*
X8021300Y-27858300D01*
X8023300Y-27858300D01*
X8023300Y-27738984D01*
X8000311Y-27726852D01*
X7985590Y-27731317D01*
X7959308Y-27743836D01*
X7935973Y-27761241D01*
X7916482Y-27782864D01*
X7909520Y-27794552D01*
X7906071Y-27788099D01*
X7887513Y-27765487D01*
X7864901Y-27746929D01*
X7839103Y-27733140D01*
X7811111Y-27724649D01*
X7789295Y-27722500D01*
X7774705Y-27722500D01*
X7752889Y-27724649D01*
X7724897Y-27733140D01*
X7699099Y-27746929D01*
X7676487Y-27765487D01*
X7657929Y-27788099D01*
X7655000Y-27793579D01*
X7652071Y-27788099D01*
X7633513Y-27765487D01*
X7610901Y-27746929D01*
X7585103Y-27733140D01*
X7557111Y-27724649D01*
X7535295Y-27722500D01*
X7520705Y-27722500D01*
X7498889Y-27724649D01*
X7470897Y-27733140D01*
X7445099Y-27746929D01*
X7422487Y-27765487D01*
X7403929Y-27788099D01*
X7400480Y-27794552D01*
X7393518Y-27782864D01*
X7374027Y-27761241D01*
X7350692Y-27743836D01*
X7324410Y-27731317D01*
X7309689Y-27726852D01*
X7286700Y-27738984D01*
X7286700Y-27858300D01*
X7288700Y-27858300D01*
X7288700Y-27883700D01*
X7286700Y-27883700D01*
X7286700Y-27885700D01*
X7261300Y-27885700D01*
X7261300Y-27883700D01*
X7259300Y-27883700D01*
X7259300Y-27858300D01*
X7261300Y-27858300D01*
X7261300Y-27738984D01*
X7238311Y-27726852D01*
X7223590Y-27731317D01*
X7197308Y-27743836D01*
X7173973Y-27761241D01*
X7154482Y-27782864D01*
X7147520Y-27794552D01*
X7144071Y-27788099D01*
X7125513Y-27765487D01*
X7102901Y-27746929D01*
X7077103Y-27733140D01*
X7049111Y-27724649D01*
X7027295Y-27722500D01*
X7012705Y-27722500D01*
X6990889Y-27724649D01*
X6962897Y-27733140D01*
X6937099Y-27746929D01*
X6914487Y-27765487D01*
X6895929Y-27788099D01*
X6893000Y-27793579D01*
X6890071Y-27788099D01*
X6871513Y-27765487D01*
X6848901Y-27746929D01*
X6823103Y-27733140D01*
X6795111Y-27724649D01*
X6773295Y-27722500D01*
X6758705Y-27722500D01*
X6736889Y-27724649D01*
X6708897Y-27733140D01*
X6683099Y-27746929D01*
X6660487Y-27765487D01*
X6641929Y-27788099D01*
X6639000Y-27793579D01*
X6636071Y-27788099D01*
X6617513Y-27765487D01*
X6594901Y-27746929D01*
X6569103Y-27733140D01*
X6541111Y-27724649D01*
X6519295Y-27722500D01*
X6504705Y-27722500D01*
X6482889Y-27724649D01*
X6454897Y-27733140D01*
X6429099Y-27746929D01*
X6406487Y-27765487D01*
X6387929Y-27788099D01*
X6384480Y-27794552D01*
X6377518Y-27782864D01*
X6358027Y-27761241D01*
X6334692Y-27743836D01*
X6308410Y-27731317D01*
X6293689Y-27726852D01*
X6270700Y-27738984D01*
X6270700Y-27858300D01*
X6272700Y-27858300D01*
X6272700Y-27883700D01*
X6270700Y-27883700D01*
X6270700Y-27885700D01*
X6245300Y-27885700D01*
X6245300Y-27883700D01*
X6243300Y-27883700D01*
X6243300Y-27858300D01*
X6245300Y-27858300D01*
X6245300Y-27738984D01*
X6222311Y-27726852D01*
X6207590Y-27731317D01*
X6181308Y-27743836D01*
X6157973Y-27761241D01*
X6138482Y-27782864D01*
X6131520Y-27794552D01*
X6128071Y-27788099D01*
X6109513Y-27765487D01*
X6086901Y-27746929D01*
X6061103Y-27733140D01*
X6033111Y-27724649D01*
X6011295Y-27722500D01*
X5996705Y-27722500D01*
X5974889Y-27724649D01*
X5946897Y-27733140D01*
X5921099Y-27746929D01*
X5908218Y-27757500D01*
X5845782Y-27757500D01*
X5832901Y-27746929D01*
X5807103Y-27733140D01*
X5779111Y-27724649D01*
X5757295Y-27722500D01*
X5742705Y-27722500D01*
X5720889Y-27724649D01*
X5692897Y-27733140D01*
X5667099Y-27746929D01*
X5644487Y-27765487D01*
X5625929Y-27788099D01*
X5612140Y-27813897D01*
X5603649Y-27841889D01*
X5600781Y-27871000D01*
X5603649Y-27900111D01*
X5612140Y-27928103D01*
X5625929Y-27953901D01*
X5644487Y-27976513D01*
X5647469Y-27978961D01*
X5640582Y-27981050D01*
X5629551Y-27986946D01*
X5619881Y-27994881D01*
X5611946Y-28004551D01*
X5606050Y-28015582D01*
X5602419Y-28027552D01*
X5601193Y-28040000D01*
X5601193Y-28210000D01*
X5602419Y-28222448D01*
X5606050Y-28234418D01*
X5607590Y-28237300D01*
X3496077Y-28237300D01*
X3527128Y-28195088D01*
X3275000Y-27942960D01*
X3022872Y-28195088D01*
X3053922Y-28237300D01*
X2962700Y-28237300D01*
X2962700Y-28146077D01*
X3004912Y-28177128D01*
X3257039Y-27925000D01*
X3292960Y-27925000D01*
X3545088Y-28177128D01*
X3594055Y-28141109D01*
X3630085Y-28074712D01*
X3652469Y-28002561D01*
X3660348Y-27927430D01*
X3653418Y-27852206D01*
X3631945Y-27779779D01*
X3620174Y-27757419D01*
X3821500Y-27757419D01*
X3821500Y-27792581D01*
X3828360Y-27827066D01*
X3841815Y-27859551D01*
X3861350Y-27888787D01*
X3886213Y-27913650D01*
X3915448Y-27933185D01*
X3947933Y-27946640D01*
X3982419Y-27953500D01*
X4017581Y-27953500D01*
X4052066Y-27946640D01*
X4084551Y-27933185D01*
X4113787Y-27913650D01*
X4138650Y-27888787D01*
X4158185Y-27859551D01*
X4171640Y-27827066D01*
X4178500Y-27792581D01*
X4178500Y-27757419D01*
X4171640Y-27722933D01*
X4158185Y-27690448D01*
X4138650Y-27661213D01*
X4113787Y-27636350D01*
X4084551Y-27616815D01*
X4052066Y-27603360D01*
X4017581Y-27596500D01*
X3982419Y-27596500D01*
X3947933Y-27603360D01*
X3915448Y-27616815D01*
X3886213Y-27636350D01*
X3861350Y-27661213D01*
X3841815Y-27690448D01*
X3828360Y-27722933D01*
X3821500Y-27757419D01*
X3620174Y-27757419D01*
X3596755Y-27712933D01*
X3594055Y-27708891D01*
X3545088Y-27672872D01*
X3292960Y-27925000D01*
X3257039Y-27925000D01*
X3004912Y-27672872D01*
X2962700Y-27703922D01*
X2962700Y-27654912D01*
X3022872Y-27654912D01*
X3275000Y-27907039D01*
X3527128Y-27654912D01*
X3491109Y-27605945D01*
X3424712Y-27569915D01*
X3352561Y-27547531D01*
X3277430Y-27539652D01*
X3202206Y-27546582D01*
X3129779Y-27568055D01*
X3062933Y-27603244D01*
X3058891Y-27605945D01*
X3022872Y-27654912D01*
X2962700Y-27654912D01*
X2962700Y-27399235D01*
X4243726Y-27399235D01*
X4255112Y-27427209D01*
X4286630Y-27442796D01*
X4320583Y-27451935D01*
X4355666Y-27454274D01*
X4390532Y-27449724D01*
X4423840Y-27438459D01*
X4444888Y-27427209D01*
X4456274Y-27399235D01*
X4350000Y-27292960D01*
X4243726Y-27399235D01*
X2962700Y-27399235D01*
X2962700Y-27280666D01*
X4170726Y-27280666D01*
X4175276Y-27315532D01*
X4186541Y-27348840D01*
X4197791Y-27369888D01*
X4225765Y-27381274D01*
X4332040Y-27275000D01*
X4367961Y-27275000D01*
X4474235Y-27381274D01*
X4502209Y-27369888D01*
X4517796Y-27338370D01*
X4526935Y-27304417D01*
X4529274Y-27269334D01*
X4524724Y-27234468D01*
X4513459Y-27201160D01*
X4502209Y-27180112D01*
X4474235Y-27168726D01*
X4367961Y-27275000D01*
X4332040Y-27275000D01*
X4225765Y-27168726D01*
X4197791Y-27180112D01*
X4182204Y-27211630D01*
X4173065Y-27245583D01*
X4170726Y-27280666D01*
X2962700Y-27280666D01*
X2962700Y-27150765D01*
X4243726Y-27150765D01*
X4350000Y-27257039D01*
X4456274Y-27150765D01*
X4444888Y-27122791D01*
X4413370Y-27107204D01*
X4379417Y-27098065D01*
X4344334Y-27095726D01*
X4309468Y-27100276D01*
X4276160Y-27111541D01*
X4255112Y-27122791D01*
X4243726Y-27150765D01*
X2962700Y-27150765D01*
X2962700Y-20929000D01*
X3000781Y-20929000D01*
X3003649Y-20958111D01*
X3012140Y-20986103D01*
X3025929Y-21011901D01*
X3044487Y-21034513D01*
X3067099Y-21053071D01*
X3072579Y-21056000D01*
X3067099Y-21058929D01*
X3044487Y-21077487D01*
X3025929Y-21100099D01*
X3012140Y-21125897D01*
X3003649Y-21153889D01*
X3000781Y-21183000D01*
X3003649Y-21212111D01*
X3012140Y-21240103D01*
X3025929Y-21265901D01*
X3044487Y-21288513D01*
X3067099Y-21307071D01*
X3072579Y-21310000D01*
X3067099Y-21312929D01*
X3044487Y-21331487D01*
X3025929Y-21354099D01*
X3012140Y-21379897D01*
X3003649Y-21407889D01*
X3000781Y-21437000D01*
X3003649Y-21466111D01*
X3012140Y-21494103D01*
X3025929Y-21519901D01*
X3044487Y-21542513D01*
X3067099Y-21561071D01*
X3072579Y-21564000D01*
X3067099Y-21566929D01*
X3044487Y-21585487D01*
X3025929Y-21608099D01*
X3012140Y-21633897D01*
X3003649Y-21661889D01*
X3000781Y-21691000D01*
X3003649Y-21720111D01*
X3012140Y-21748103D01*
X3025929Y-21773901D01*
X3044487Y-21796513D01*
X3067099Y-21815071D01*
X3072579Y-21818000D01*
X3067099Y-21820929D01*
X3044487Y-21839487D01*
X3025929Y-21862099D01*
X3012140Y-21887897D01*
X3003649Y-21915889D01*
X3000781Y-21945000D01*
X3003649Y-21974111D01*
X3012140Y-22002103D01*
X3025929Y-22027901D01*
X3044487Y-22050513D01*
X3067099Y-22069071D01*
X3072579Y-22072000D01*
X3067099Y-22074929D01*
X3044487Y-22093487D01*
X3025929Y-22116099D01*
X3012140Y-22141897D01*
X3003649Y-22169889D01*
X3000781Y-22199000D01*
X3003649Y-22228111D01*
X3012140Y-22256103D01*
X3025929Y-22281901D01*
X3044487Y-22304513D01*
X3067099Y-22323071D01*
X3072579Y-22326000D01*
X3067099Y-22328929D01*
X3044487Y-22347487D01*
X3025929Y-22370099D01*
X3012140Y-22395897D01*
X3003649Y-22423889D01*
X3000781Y-22453000D01*
X3003649Y-22482111D01*
X3012140Y-22510103D01*
X3025929Y-22535901D01*
X3044487Y-22558513D01*
X3067099Y-22577071D01*
X3072579Y-22580000D01*
X3067099Y-22582929D01*
X3044487Y-22601487D01*
X3025929Y-22624099D01*
X3012140Y-22649897D01*
X3003649Y-22677889D01*
X3000781Y-22707000D01*
X3003649Y-22736111D01*
X3012140Y-22764103D01*
X3025929Y-22789901D01*
X3044487Y-22812513D01*
X3067099Y-22831071D01*
X3072579Y-22834000D01*
X3067099Y-22836929D01*
X3044487Y-22855487D01*
X3025929Y-22878099D01*
X3012140Y-22903897D01*
X3003649Y-22931889D01*
X3000781Y-22961000D01*
X3003649Y-22990111D01*
X3012140Y-23018103D01*
X3025929Y-23043901D01*
X3044487Y-23066513D01*
X3067099Y-23085071D01*
X3072579Y-23088000D01*
X3067099Y-23090929D01*
X3044487Y-23109487D01*
X3025929Y-23132099D01*
X3012140Y-23157897D01*
X3003649Y-23185889D01*
X3000781Y-23215000D01*
X3003649Y-23244111D01*
X3012140Y-23272103D01*
X3025929Y-23297901D01*
X3044487Y-23320513D01*
X3067099Y-23339071D01*
X3072579Y-23342000D01*
X3067099Y-23344929D01*
X3044487Y-23363487D01*
X3025929Y-23386099D01*
X3012140Y-23411897D01*
X3003649Y-23439889D01*
X3000781Y-23469000D01*
X3003649Y-23498111D01*
X3012140Y-23526103D01*
X3025929Y-23551901D01*
X3044487Y-23574513D01*
X3067099Y-23593071D01*
X3072579Y-23596000D01*
X3067099Y-23598929D01*
X3044487Y-23617487D01*
X3025929Y-23640099D01*
X3012140Y-23665897D01*
X3003649Y-23693889D01*
X3000781Y-23723000D01*
X3003649Y-23752111D01*
X3012140Y-23780103D01*
X3025929Y-23805901D01*
X3044487Y-23828513D01*
X3067099Y-23847071D01*
X3072579Y-23850000D01*
X3067099Y-23852929D01*
X3044487Y-23871487D01*
X3025929Y-23894099D01*
X3012140Y-23919897D01*
X3003649Y-23947889D01*
X3000781Y-23977000D01*
X3003649Y-24006111D01*
X3012140Y-24034103D01*
X3025929Y-24059901D01*
X3044487Y-24082513D01*
X3067099Y-24101071D01*
X3072579Y-24104000D01*
X3067099Y-24106929D01*
X3044487Y-24125487D01*
X3025929Y-24148099D01*
X3012140Y-24173897D01*
X3003649Y-24201889D01*
X3000781Y-24231000D01*
X3003649Y-24260111D01*
X3012140Y-24288103D01*
X3025929Y-24313901D01*
X3044487Y-24336513D01*
X3067099Y-24355071D01*
X3072579Y-24358000D01*
X3067099Y-24360929D01*
X3044487Y-24379487D01*
X3025929Y-24402099D01*
X3012140Y-24427897D01*
X3003649Y-24455889D01*
X3000781Y-24485000D01*
X3003649Y-24514111D01*
X3012140Y-24542103D01*
X3025929Y-24567901D01*
X3044487Y-24590513D01*
X3067099Y-24609071D01*
X3072579Y-24612000D01*
X3067099Y-24614929D01*
X3044487Y-24633487D01*
X3025929Y-24656099D01*
X3012140Y-24681897D01*
X3003649Y-24709889D01*
X3000781Y-24739000D01*
X3003649Y-24768111D01*
X3012140Y-24796103D01*
X3025929Y-24821901D01*
X3044487Y-24844513D01*
X3067099Y-24863071D01*
X3072579Y-24866000D01*
X3067099Y-24868929D01*
X3044487Y-24887487D01*
X3025929Y-24910099D01*
X3012140Y-24935897D01*
X3003649Y-24963889D01*
X3000781Y-24993000D01*
X3003649Y-25022111D01*
X3012140Y-25050103D01*
X3025929Y-25075901D01*
X3044487Y-25098513D01*
X3067099Y-25117071D01*
X3072579Y-25120000D01*
X3067099Y-25122929D01*
X3044487Y-25141487D01*
X3025929Y-25164099D01*
X3012140Y-25189897D01*
X3003649Y-25217889D01*
X3000781Y-25247000D01*
X3003649Y-25276111D01*
X3012140Y-25304103D01*
X3025929Y-25329901D01*
X3044487Y-25352513D01*
X3067099Y-25371071D01*
X3072579Y-25374000D01*
X3067099Y-25376929D01*
X3044487Y-25395487D01*
X3025929Y-25418099D01*
X3012140Y-25443897D01*
X3003649Y-25471889D01*
X3000781Y-25501000D01*
X3003649Y-25530111D01*
X3012140Y-25558103D01*
X3025929Y-25583901D01*
X3044487Y-25606513D01*
X3067099Y-25625071D01*
X3092897Y-25638860D01*
X3120889Y-25647351D01*
X3142705Y-25649500D01*
X3157295Y-25649500D01*
X3179111Y-25647351D01*
X3207103Y-25638860D01*
X3232901Y-25625071D01*
X3255513Y-25606513D01*
X3274071Y-25583901D01*
X3277000Y-25578421D01*
X3279929Y-25583901D01*
X3298487Y-25606513D01*
X3321099Y-25625071D01*
X3346897Y-25638860D01*
X3374889Y-25647351D01*
X3396705Y-25649500D01*
X3411295Y-25649500D01*
X3433111Y-25647351D01*
X3461103Y-25638860D01*
X3486901Y-25625071D01*
X3509513Y-25606513D01*
X3528071Y-25583901D01*
X3541860Y-25558103D01*
X3550351Y-25530111D01*
X3553218Y-25501000D01*
X3550351Y-25471889D01*
X3541860Y-25443897D01*
X3528071Y-25418099D01*
X3509513Y-25395487D01*
X3486901Y-25376929D01*
X3481421Y-25374000D01*
X3486901Y-25371071D01*
X3509513Y-25352513D01*
X3528071Y-25329901D01*
X3541860Y-25304103D01*
X3550351Y-25276111D01*
X3553218Y-25247000D01*
X3550351Y-25217889D01*
X3541860Y-25189897D01*
X3528071Y-25164099D01*
X3509513Y-25141487D01*
X3486901Y-25122929D01*
X3481421Y-25120000D01*
X3486901Y-25117071D01*
X3509513Y-25098513D01*
X3528071Y-25075901D01*
X3541860Y-25050103D01*
X3550351Y-25022111D01*
X3553218Y-24993000D01*
X3550351Y-24963889D01*
X3541860Y-24935897D01*
X3528071Y-24910099D01*
X3509513Y-24887487D01*
X3486901Y-24868929D01*
X3481421Y-24866000D01*
X3486901Y-24863071D01*
X3509513Y-24844513D01*
X3528071Y-24821901D01*
X3541860Y-24796103D01*
X3550351Y-24768111D01*
X3553218Y-24739000D01*
X3550351Y-24709889D01*
X3541860Y-24681897D01*
X3528071Y-24656099D01*
X3509513Y-24633487D01*
X3486901Y-24614929D01*
X3481421Y-24612000D01*
X3486901Y-24609071D01*
X3509513Y-24590513D01*
X3528071Y-24567901D01*
X3541860Y-24542103D01*
X3550351Y-24514111D01*
X3553218Y-24485000D01*
X3550351Y-24455889D01*
X3541860Y-24427897D01*
X3528071Y-24402099D01*
X3509513Y-24379487D01*
X3486901Y-24360929D01*
X3480448Y-24357480D01*
X3492135Y-24350518D01*
X3513759Y-24331027D01*
X3531164Y-24307692D01*
X3543682Y-24281410D01*
X3548148Y-24266689D01*
X3536015Y-24243700D01*
X3416700Y-24243700D01*
X3416700Y-24245700D01*
X3391300Y-24245700D01*
X3391300Y-24243700D01*
X3389300Y-24243700D01*
X3389300Y-24218300D01*
X3391300Y-24218300D01*
X3391300Y-24216300D01*
X3416700Y-24216300D01*
X3416700Y-24218300D01*
X3536015Y-24218300D01*
X3548148Y-24195311D01*
X3543682Y-24180590D01*
X3531164Y-24154308D01*
X3513759Y-24130973D01*
X3492135Y-24111482D01*
X3480448Y-24104520D01*
X3486901Y-24101071D01*
X3509513Y-24082513D01*
X3528071Y-24059901D01*
X3541860Y-24034103D01*
X3550351Y-24006111D01*
X3553218Y-23977000D01*
X3550351Y-23947889D01*
X3541860Y-23919897D01*
X3528071Y-23894099D01*
X3509513Y-23871487D01*
X3486901Y-23852929D01*
X3481421Y-23850000D01*
X3486901Y-23847071D01*
X3509513Y-23828513D01*
X3528071Y-23805901D01*
X3541860Y-23780103D01*
X3550351Y-23752111D01*
X3553218Y-23723000D01*
X3550351Y-23693889D01*
X3541860Y-23665897D01*
X3528071Y-23640099D01*
X3509513Y-23617487D01*
X3486901Y-23598929D01*
X3481421Y-23596000D01*
X3486901Y-23593071D01*
X3509513Y-23574513D01*
X3528071Y-23551901D01*
X3541860Y-23526103D01*
X3550351Y-23498111D01*
X3553218Y-23469000D01*
X3550351Y-23439889D01*
X3541860Y-23411897D01*
X3528071Y-23386099D01*
X3509513Y-23363487D01*
X3486901Y-23344929D01*
X3481421Y-23342000D01*
X3486901Y-23339071D01*
X3509513Y-23320513D01*
X3528071Y-23297901D01*
X3541860Y-23272103D01*
X3550351Y-23244111D01*
X3553218Y-23215000D01*
X3550351Y-23185889D01*
X3541860Y-23157897D01*
X3528071Y-23132099D01*
X3509513Y-23109487D01*
X3486901Y-23090929D01*
X3481421Y-23088000D01*
X3486901Y-23085071D01*
X3509513Y-23066513D01*
X3528071Y-23043901D01*
X3541860Y-23018103D01*
X3550351Y-22990111D01*
X3553218Y-22961000D01*
X3550351Y-22931889D01*
X3541860Y-22903897D01*
X3528071Y-22878099D01*
X3509513Y-22855487D01*
X3486901Y-22836929D01*
X3481421Y-22834000D01*
X3486901Y-22831071D01*
X3509513Y-22812513D01*
X3528071Y-22789901D01*
X3541860Y-22764103D01*
X3550351Y-22736111D01*
X3553218Y-22707000D01*
X3550351Y-22677889D01*
X3541860Y-22649897D01*
X3528071Y-22624099D01*
X3509513Y-22601487D01*
X3486901Y-22582929D01*
X3481421Y-22580000D01*
X3486901Y-22577071D01*
X3509513Y-22558513D01*
X3528071Y-22535901D01*
X3541860Y-22510103D01*
X3550351Y-22482111D01*
X3553218Y-22453000D01*
X3550351Y-22423889D01*
X3541860Y-22395897D01*
X3528071Y-22370099D01*
X3509513Y-22347487D01*
X3486901Y-22328929D01*
X3481421Y-22326000D01*
X3486901Y-22323071D01*
X3509513Y-22304513D01*
X3528071Y-22281901D01*
X3541860Y-22256103D01*
X3550351Y-22228111D01*
X3553218Y-22199000D01*
X3550351Y-22169889D01*
X3541860Y-22141897D01*
X3528071Y-22116099D01*
X3509513Y-22093487D01*
X3486901Y-22074929D01*
X3480448Y-22071480D01*
X3492135Y-22064518D01*
X3513759Y-22045027D01*
X3531164Y-22021692D01*
X3543682Y-21995410D01*
X3548148Y-21980689D01*
X3536015Y-21957700D01*
X3416700Y-21957700D01*
X3416700Y-21959700D01*
X3391300Y-21959700D01*
X3391300Y-21957700D01*
X3389300Y-21957700D01*
X3389300Y-21932300D01*
X3391300Y-21932300D01*
X3391300Y-21930300D01*
X3416700Y-21930300D01*
X3416700Y-21932300D01*
X3536015Y-21932300D01*
X3548148Y-21909311D01*
X3543682Y-21894590D01*
X3531164Y-21868308D01*
X3513759Y-21844973D01*
X3492135Y-21825482D01*
X3480448Y-21818520D01*
X3486901Y-21815071D01*
X3509513Y-21796513D01*
X3528071Y-21773901D01*
X3541648Y-21748500D01*
X3571389Y-21748500D01*
X3575000Y-21748856D01*
X3578610Y-21748500D01*
X3589408Y-21747437D01*
X3603263Y-21743234D01*
X3616032Y-21736409D01*
X3627224Y-21727224D01*
X3629526Y-21724419D01*
X4424945Y-20929000D01*
X5032782Y-20929000D01*
X5035649Y-20958111D01*
X5044140Y-20986103D01*
X5057929Y-21011901D01*
X5076487Y-21034513D01*
X5099099Y-21053071D01*
X5104579Y-21056000D01*
X5099099Y-21058929D01*
X5076487Y-21077487D01*
X5057929Y-21100099D01*
X5044140Y-21125897D01*
X5035649Y-21153889D01*
X5032782Y-21183000D01*
X5035649Y-21212111D01*
X5044140Y-21240103D01*
X5057929Y-21265901D01*
X5076487Y-21288513D01*
X5099099Y-21307071D01*
X5104579Y-21310000D01*
X5099099Y-21312929D01*
X5076487Y-21331487D01*
X5057929Y-21354099D01*
X5044140Y-21379897D01*
X5035649Y-21407889D01*
X5032782Y-21437000D01*
X5035649Y-21466111D01*
X5044140Y-21494103D01*
X5057929Y-21519901D01*
X5076487Y-21542513D01*
X5099099Y-21561071D01*
X5104579Y-21564000D01*
X5099099Y-21566929D01*
X5076487Y-21585487D01*
X5057929Y-21608099D01*
X5044140Y-21633897D01*
X5035649Y-21661889D01*
X5032782Y-21691000D01*
X5035649Y-21720111D01*
X5044140Y-21748103D01*
X5057929Y-21773901D01*
X5076487Y-21796513D01*
X5099099Y-21815071D01*
X5104579Y-21818000D01*
X5099099Y-21820929D01*
X5076487Y-21839487D01*
X5057929Y-21862099D01*
X5044140Y-21887897D01*
X5035649Y-21915889D01*
X5032782Y-21945000D01*
X5035649Y-21974111D01*
X5044140Y-22002103D01*
X5057929Y-22027901D01*
X5076487Y-22050513D01*
X5099099Y-22069071D01*
X5104579Y-22072000D01*
X5099099Y-22074929D01*
X5076487Y-22093487D01*
X5057929Y-22116099D01*
X5044140Y-22141897D01*
X5035649Y-22169889D01*
X5032782Y-22199000D01*
X5035649Y-22228111D01*
X5044140Y-22256103D01*
X5057929Y-22281901D01*
X5076487Y-22304513D01*
X5099099Y-22323071D01*
X5104579Y-22326000D01*
X5099099Y-22328929D01*
X5076487Y-22347487D01*
X5057929Y-22370099D01*
X5044140Y-22395897D01*
X5035649Y-22423889D01*
X5032782Y-22453000D01*
X5035649Y-22482111D01*
X5044140Y-22510103D01*
X5057929Y-22535901D01*
X5076487Y-22558513D01*
X5099099Y-22577071D01*
X5104579Y-22580000D01*
X5099099Y-22582929D01*
X5076487Y-22601487D01*
X5057929Y-22624099D01*
X5044140Y-22649897D01*
X5035649Y-22677889D01*
X5032782Y-22707000D01*
X5035649Y-22736111D01*
X5044140Y-22764103D01*
X5057929Y-22789901D01*
X5076487Y-22812513D01*
X5099099Y-22831071D01*
X5104579Y-22834000D01*
X5099099Y-22836929D01*
X5076487Y-22855487D01*
X5057929Y-22878099D01*
X5044140Y-22903897D01*
X5035649Y-22931889D01*
X5032782Y-22961000D01*
X5035649Y-22990111D01*
X5044140Y-23018103D01*
X5057929Y-23043901D01*
X5076487Y-23066513D01*
X5099099Y-23085071D01*
X5104579Y-23088000D01*
X5099099Y-23090929D01*
X5076487Y-23109487D01*
X5057929Y-23132099D01*
X5044140Y-23157897D01*
X5035649Y-23185889D01*
X5032782Y-23215000D01*
X5035649Y-23244111D01*
X5044140Y-23272103D01*
X5057929Y-23297901D01*
X5076487Y-23320513D01*
X5099099Y-23339071D01*
X5104579Y-23342000D01*
X5099099Y-23344929D01*
X5076487Y-23363487D01*
X5057929Y-23386099D01*
X5044140Y-23411897D01*
X5035649Y-23439889D01*
X5032782Y-23469000D01*
X5035649Y-23498111D01*
X5044140Y-23526103D01*
X5057929Y-23551901D01*
X5076487Y-23574513D01*
X5099099Y-23593071D01*
X5104579Y-23596000D01*
X5099099Y-23598929D01*
X5076487Y-23617487D01*
X5057929Y-23640099D01*
X5044140Y-23665897D01*
X5035649Y-23693889D01*
X5032782Y-23723000D01*
X5035649Y-23752111D01*
X5044140Y-23780103D01*
X5057929Y-23805901D01*
X5076487Y-23828513D01*
X5099099Y-23847071D01*
X5104579Y-23850000D01*
X5099099Y-23852929D01*
X5076487Y-23871487D01*
X5057929Y-23894099D01*
X5044140Y-23919897D01*
X5035649Y-23947889D01*
X5032782Y-23977000D01*
X5035649Y-24006111D01*
X5044140Y-24034103D01*
X5057929Y-24059901D01*
X5076487Y-24082513D01*
X5099099Y-24101071D01*
X5104579Y-24104000D01*
X5099099Y-24106929D01*
X5076487Y-24125487D01*
X5057929Y-24148099D01*
X5044140Y-24173897D01*
X5035649Y-24201889D01*
X5032782Y-24231000D01*
X5035649Y-24260111D01*
X5044140Y-24288103D01*
X5057929Y-24313901D01*
X5076487Y-24336513D01*
X5099099Y-24355071D01*
X5104579Y-24358000D01*
X5099099Y-24360929D01*
X5076487Y-24379487D01*
X5057929Y-24402099D01*
X5044140Y-24427897D01*
X5035649Y-24455889D01*
X5032782Y-24485000D01*
X5035649Y-24514111D01*
X5044140Y-24542103D01*
X5057929Y-24567901D01*
X5076487Y-24590513D01*
X5099099Y-24609071D01*
X5104579Y-24612000D01*
X5099099Y-24614929D01*
X5076487Y-24633487D01*
X5057929Y-24656099D01*
X5044140Y-24681897D01*
X5035649Y-24709889D01*
X5032782Y-24739000D01*
X5035649Y-24768111D01*
X5044140Y-24796103D01*
X5057929Y-24821901D01*
X5076487Y-24844513D01*
X5099099Y-24863071D01*
X5104579Y-24866000D01*
X5099099Y-24868929D01*
X5076487Y-24887487D01*
X5057929Y-24910099D01*
X5044140Y-24935897D01*
X5035649Y-24963889D01*
X5032782Y-24993000D01*
X5035649Y-25022111D01*
X5044140Y-25050103D01*
X5057929Y-25075901D01*
X5076487Y-25098513D01*
X5099099Y-25117071D01*
X5104579Y-25120000D01*
X5099099Y-25122929D01*
X5076487Y-25141487D01*
X5057929Y-25164099D01*
X5044140Y-25189897D01*
X5035649Y-25217889D01*
X5032782Y-25247000D01*
X5035649Y-25276111D01*
X5044140Y-25304103D01*
X5057929Y-25329901D01*
X5076487Y-25352513D01*
X5099099Y-25371071D01*
X5104579Y-25374000D01*
X5099099Y-25376929D01*
X5076487Y-25395487D01*
X5057929Y-25418099D01*
X5044140Y-25443897D01*
X5035649Y-25471889D01*
X5032782Y-25501000D01*
X5035649Y-25530111D01*
X5044140Y-25558103D01*
X5057929Y-25583901D01*
X5076487Y-25606513D01*
X5099099Y-25625071D01*
X5124897Y-25638860D01*
X5152889Y-25647351D01*
X5174705Y-25649500D01*
X5189295Y-25649500D01*
X5211111Y-25647351D01*
X5239103Y-25638860D01*
X5264901Y-25625071D01*
X5287513Y-25606513D01*
X5306071Y-25583901D01*
X5309000Y-25578421D01*
X5311929Y-25583901D01*
X5330487Y-25606513D01*
X5353099Y-25625071D01*
X5378897Y-25638860D01*
X5406889Y-25647351D01*
X5428705Y-25649500D01*
X5443295Y-25649500D01*
X5465111Y-25647351D01*
X5493103Y-25638860D01*
X5518901Y-25625071D01*
X5541513Y-25606513D01*
X5560071Y-25583901D01*
X5573860Y-25558103D01*
X5582351Y-25530111D01*
X5585219Y-25501000D01*
X5582351Y-25471889D01*
X5573860Y-25443897D01*
X5560071Y-25418099D01*
X5541513Y-25395487D01*
X5518901Y-25376929D01*
X5513421Y-25374000D01*
X5518901Y-25371071D01*
X5541513Y-25352513D01*
X5560071Y-25329901D01*
X5573860Y-25304103D01*
X5582351Y-25276111D01*
X5585219Y-25247000D01*
X5582351Y-25217889D01*
X5573860Y-25189897D01*
X5560071Y-25164099D01*
X5541513Y-25141487D01*
X5518901Y-25122929D01*
X5513421Y-25120000D01*
X5518901Y-25117071D01*
X5541513Y-25098513D01*
X5560071Y-25075901D01*
X5573860Y-25050103D01*
X5582351Y-25022111D01*
X5585219Y-24993000D01*
X5582351Y-24963889D01*
X5573860Y-24935897D01*
X5560071Y-24910099D01*
X5541513Y-24887487D01*
X5518901Y-24868929D01*
X5513421Y-24866000D01*
X5518901Y-24863071D01*
X5541513Y-24844513D01*
X5560071Y-24821901D01*
X5573860Y-24796103D01*
X5582351Y-24768111D01*
X5585219Y-24739000D01*
X5582351Y-24709889D01*
X5573860Y-24681897D01*
X5560071Y-24656099D01*
X5541513Y-24633487D01*
X5518901Y-24614929D01*
X5513421Y-24612000D01*
X5518901Y-24609071D01*
X5541513Y-24590513D01*
X5560071Y-24567901D01*
X5573860Y-24542103D01*
X5582351Y-24514111D01*
X5585219Y-24485000D01*
X5582351Y-24455889D01*
X5573860Y-24427897D01*
X5560071Y-24402099D01*
X5541513Y-24379487D01*
X5518901Y-24360929D01*
X5512448Y-24357480D01*
X5524136Y-24350518D01*
X5545759Y-24331027D01*
X5563164Y-24307692D01*
X5575683Y-24281410D01*
X5580148Y-24266689D01*
X5568016Y-24243700D01*
X5448700Y-24243700D01*
X5448700Y-24245700D01*
X5423300Y-24245700D01*
X5423300Y-24243700D01*
X5421300Y-24243700D01*
X5421300Y-24218300D01*
X5423300Y-24218300D01*
X5423300Y-24216300D01*
X5448700Y-24216300D01*
X5448700Y-24218300D01*
X5568016Y-24218300D01*
X5580148Y-24195311D01*
X5575683Y-24180590D01*
X5563164Y-24154308D01*
X5545759Y-24130973D01*
X5524136Y-24111482D01*
X5512448Y-24104520D01*
X5518901Y-24101071D01*
X5541513Y-24082513D01*
X5560071Y-24059901D01*
X5573860Y-24034103D01*
X5582351Y-24006111D01*
X5585219Y-23977000D01*
X5582351Y-23947889D01*
X5573860Y-23919897D01*
X5560071Y-23894099D01*
X5541513Y-23871487D01*
X5518901Y-23852929D01*
X5513421Y-23850000D01*
X5518901Y-23847071D01*
X5541513Y-23828513D01*
X5560071Y-23805901D01*
X5573860Y-23780103D01*
X5582351Y-23752111D01*
X5585219Y-23723000D01*
X5582351Y-23693889D01*
X5573860Y-23665897D01*
X5560071Y-23640099D01*
X5541513Y-23617487D01*
X5518901Y-23598929D01*
X5513421Y-23596000D01*
X5518901Y-23593071D01*
X5541513Y-23574513D01*
X5560071Y-23551901D01*
X5573860Y-23526103D01*
X5582351Y-23498111D01*
X5585219Y-23469000D01*
X5582351Y-23439889D01*
X5573860Y-23411897D01*
X5560071Y-23386099D01*
X5541513Y-23363487D01*
X5518901Y-23344929D01*
X5513421Y-23342000D01*
X5518901Y-23339071D01*
X5541513Y-23320513D01*
X5560071Y-23297901D01*
X5573860Y-23272103D01*
X5582351Y-23244111D01*
X5585219Y-23215000D01*
X5582351Y-23185889D01*
X5573860Y-23157897D01*
X5560071Y-23132099D01*
X5541513Y-23109487D01*
X5518901Y-23090929D01*
X5513421Y-23088000D01*
X5518901Y-23085071D01*
X5541513Y-23066513D01*
X5560071Y-23043901D01*
X5573860Y-23018103D01*
X5582351Y-22990111D01*
X5585219Y-22961000D01*
X5582351Y-22931889D01*
X5573860Y-22903897D01*
X5560071Y-22878099D01*
X5541513Y-22855487D01*
X5518901Y-22836929D01*
X5513421Y-22834000D01*
X5518901Y-22831071D01*
X5541513Y-22812513D01*
X5560071Y-22789901D01*
X5573860Y-22764103D01*
X5582351Y-22736111D01*
X5585219Y-22707000D01*
X5582351Y-22677889D01*
X5573860Y-22649897D01*
X5560071Y-22624099D01*
X5541513Y-22601487D01*
X5518901Y-22582929D01*
X5513421Y-22580000D01*
X5518901Y-22577071D01*
X5541513Y-22558513D01*
X5560071Y-22535901D01*
X5573860Y-22510103D01*
X5582351Y-22482111D01*
X5585219Y-22453000D01*
X5582351Y-22423889D01*
X5573860Y-22395897D01*
X5560071Y-22370099D01*
X5541513Y-22347487D01*
X5518901Y-22328929D01*
X5513421Y-22326000D01*
X5518901Y-22323071D01*
X5541513Y-22304513D01*
X5560071Y-22281901D01*
X5573860Y-22256103D01*
X5582351Y-22228111D01*
X5585219Y-22199000D01*
X5582351Y-22169889D01*
X5573860Y-22141897D01*
X5560071Y-22116099D01*
X5541513Y-22093487D01*
X5518901Y-22074929D01*
X5512448Y-22071480D01*
X5524136Y-22064518D01*
X5545759Y-22045027D01*
X5563164Y-22021692D01*
X5575683Y-21995410D01*
X5580148Y-21980689D01*
X5568016Y-21957700D01*
X5448700Y-21957700D01*
X5448700Y-21959700D01*
X5423300Y-21959700D01*
X5423300Y-21957700D01*
X5421300Y-21957700D01*
X5421300Y-21932300D01*
X5423300Y-21932300D01*
X5423300Y-21930300D01*
X5448700Y-21930300D01*
X5448700Y-21932300D01*
X5568016Y-21932300D01*
X5580148Y-21909311D01*
X5575683Y-21894590D01*
X5563164Y-21868308D01*
X5545759Y-21844973D01*
X5524136Y-21825482D01*
X5512448Y-21818520D01*
X5518901Y-21815071D01*
X5541513Y-21796513D01*
X5560071Y-21773901D01*
X5573860Y-21748103D01*
X5582351Y-21720111D01*
X5585219Y-21691000D01*
X5582351Y-21661889D01*
X5573860Y-21633897D01*
X5560071Y-21608099D01*
X5541513Y-21585487D01*
X5518901Y-21566929D01*
X5513421Y-21564000D01*
X5518901Y-21561071D01*
X5541513Y-21542513D01*
X5560071Y-21519901D01*
X5573860Y-21494103D01*
X5582351Y-21466111D01*
X5585219Y-21437000D01*
X5582351Y-21407889D01*
X5573860Y-21379897D01*
X5560071Y-21354099D01*
X5541513Y-21331487D01*
X5518901Y-21312929D01*
X5513421Y-21310000D01*
X5518901Y-21307071D01*
X5541513Y-21288513D01*
X5560071Y-21265901D01*
X5573860Y-21240103D01*
X5582351Y-21212111D01*
X5585219Y-21183000D01*
X5582351Y-21153889D01*
X5573860Y-21125897D01*
X5560071Y-21100099D01*
X5541513Y-21077487D01*
X5518901Y-21058929D01*
X5513421Y-21056000D01*
X5518901Y-21053071D01*
X5541513Y-21034513D01*
X5560071Y-21011901D01*
X5573860Y-20986103D01*
X5582351Y-20958111D01*
X5585219Y-20929000D01*
X5582351Y-20899889D01*
X5573860Y-20871897D01*
X5560071Y-20846099D01*
X5541513Y-20823487D01*
X5518901Y-20804929D01*
X5513421Y-20802000D01*
X5518901Y-20799071D01*
X5541513Y-20780513D01*
X5560071Y-20757901D01*
X5573860Y-20732103D01*
X5582351Y-20704111D01*
X5585219Y-20675000D01*
X5582351Y-20645889D01*
X5573860Y-20617897D01*
X5560071Y-20592099D01*
X5541513Y-20569487D01*
X5518901Y-20550929D01*
X5493103Y-20537140D01*
X5465111Y-20528649D01*
X5443295Y-20526500D01*
X5428705Y-20526500D01*
X5406889Y-20528649D01*
X5378897Y-20537140D01*
X5353099Y-20550929D01*
X5330487Y-20569487D01*
X5328039Y-20572469D01*
X5325950Y-20565582D01*
X5320054Y-20554551D01*
X5312119Y-20544882D01*
X5302449Y-20536946D01*
X5291418Y-20531050D01*
X5279448Y-20527419D01*
X5267000Y-20526193D01*
X5097000Y-20526193D01*
X5084552Y-20527419D01*
X5072582Y-20531050D01*
X5061551Y-20536946D01*
X5051882Y-20544882D01*
X5043946Y-20554551D01*
X5038050Y-20565582D01*
X5034419Y-20577552D01*
X5033193Y-20590000D01*
X5033193Y-20760000D01*
X5034419Y-20772448D01*
X5038050Y-20784418D01*
X5043946Y-20795449D01*
X5051882Y-20805119D01*
X5061551Y-20813054D01*
X5072582Y-20818950D01*
X5079469Y-20821039D01*
X5076487Y-20823487D01*
X5057929Y-20846099D01*
X5044140Y-20871897D01*
X5035649Y-20899889D01*
X5032782Y-20929000D01*
X4424945Y-20929000D01*
X4524419Y-20829525D01*
X4527224Y-20827224D01*
X4536409Y-20816032D01*
X4543234Y-20803263D01*
X4547437Y-20789409D01*
X4548500Y-20778611D01*
X4548856Y-20775000D01*
X4548500Y-20771390D01*
X4548500Y-20255445D01*
X5267732Y-19536213D01*
X5275974Y-19541721D01*
X5294810Y-19549523D01*
X5314806Y-19553500D01*
X5335194Y-19553500D01*
X5355190Y-19549523D01*
X5374026Y-19541721D01*
X5390977Y-19530394D01*
X5405394Y-19515977D01*
X5416721Y-19499026D01*
X5424523Y-19480190D01*
X5428500Y-19460194D01*
X5428500Y-19439806D01*
X5424523Y-19419810D01*
X5416721Y-19400974D01*
X5405394Y-19384023D01*
X5390977Y-19369606D01*
X5374026Y-19358280D01*
X5355190Y-19350477D01*
X5335194Y-19346500D01*
X5314806Y-19346500D01*
X5294810Y-19350477D01*
X5275974Y-19358280D01*
X5259023Y-19369606D01*
X5252262Y-19376367D01*
X5250000Y-19376145D01*
X5246390Y-19376500D01*
X5246390Y-19376500D01*
X5237013Y-19377424D01*
X5235591Y-19377564D01*
X5231389Y-19378838D01*
X5221737Y-19381766D01*
X5208968Y-19388591D01*
X5197776Y-19397776D01*
X5195475Y-19400581D01*
X4425581Y-20170475D01*
X4422776Y-20172776D01*
X4413591Y-20183968D01*
X4406766Y-20196737D01*
X4406124Y-20198856D01*
X4402564Y-20210592D01*
X4401144Y-20225000D01*
X4401500Y-20228611D01*
X4401500Y-20744555D01*
X3544555Y-21601500D01*
X3522655Y-21601500D01*
X3509513Y-21585487D01*
X3486901Y-21566929D01*
X3481421Y-21564000D01*
X3486901Y-21561071D01*
X3509513Y-21542513D01*
X3528071Y-21519901D01*
X3541860Y-21494103D01*
X3550351Y-21466111D01*
X3553218Y-21437000D01*
X3550351Y-21407889D01*
X3541860Y-21379897D01*
X3528071Y-21354099D01*
X3509513Y-21331487D01*
X3486901Y-21312929D01*
X3481421Y-21310000D01*
X3486901Y-21307071D01*
X3509513Y-21288513D01*
X3528071Y-21265901D01*
X3541860Y-21240103D01*
X3550351Y-21212111D01*
X3553218Y-21183000D01*
X3550351Y-21153889D01*
X3547257Y-21143688D01*
X4065420Y-20625525D01*
X4068224Y-20623224D01*
X4070525Y-20620420D01*
X4070525Y-20620419D01*
X4077409Y-20612032D01*
X4081259Y-20604828D01*
X4084234Y-20599263D01*
X4088437Y-20585408D01*
X4089500Y-20574610D01*
X4089500Y-20574610D01*
X4089856Y-20571000D01*
X4089500Y-20567389D01*
X4089500Y-20096930D01*
X4089856Y-20093320D01*
X4088437Y-20078911D01*
X4086188Y-20071500D01*
X4084234Y-20065057D01*
X4077409Y-20052288D01*
X4068224Y-20041096D01*
X4065419Y-20038794D01*
X3802206Y-19775581D01*
X3799904Y-19772776D01*
X3788712Y-19763591D01*
X3775944Y-19756766D01*
X3762089Y-19752564D01*
X3751291Y-19751500D01*
X3747680Y-19751144D01*
X3744070Y-19751500D01*
X3698500Y-19751500D01*
X3698500Y-18925000D01*
X6935951Y-18925000D01*
X6938142Y-18947250D01*
X6944632Y-18968645D01*
X6955172Y-18988362D01*
X6969355Y-19005645D01*
X6986638Y-19019828D01*
X7006355Y-19030368D01*
X7027750Y-19036858D01*
X7044425Y-19038500D01*
X7065487Y-19038500D01*
X7192436Y-19165449D01*
X7205388Y-19176078D01*
X7225105Y-19186618D01*
X7246500Y-19193108D01*
X7268750Y-19195299D01*
X7291000Y-19193108D01*
X7312395Y-19186618D01*
X7332112Y-19176078D01*
X7349395Y-19161895D01*
X7363578Y-19144612D01*
X7374118Y-19124895D01*
X7380608Y-19103500D01*
X7382799Y-19081250D01*
X7380608Y-19059000D01*
X7374118Y-19037605D01*
X7369892Y-19029701D01*
X7388362Y-19019828D01*
X7405645Y-19005645D01*
X7409200Y-19001314D01*
X7559199Y-18851314D01*
X7569828Y-18838362D01*
X7580367Y-18818645D01*
X7586858Y-18797250D01*
X7589049Y-18775000D01*
X7586858Y-18752750D01*
X7580367Y-18731355D01*
X7569828Y-18711638D01*
X7555645Y-18694355D01*
X7538362Y-18680172D01*
X7518645Y-18669633D01*
X7497250Y-18663142D01*
X7475000Y-18660951D01*
X7452750Y-18663142D01*
X7431355Y-18669633D01*
X7411638Y-18680172D01*
X7398686Y-18690801D01*
X7277987Y-18811500D01*
X7118075Y-18811500D01*
X7112500Y-18810951D01*
X7106925Y-18811500D01*
X7044425Y-18811500D01*
X7027750Y-18813142D01*
X7006355Y-18819632D01*
X6986638Y-18830172D01*
X6969355Y-18844355D01*
X6955172Y-18861638D01*
X6944632Y-18881355D01*
X6938142Y-18902750D01*
X6935951Y-18925000D01*
X3698500Y-18925000D01*
X3698500Y-18774235D01*
X4368726Y-18774235D01*
X4380112Y-18802209D01*
X4411630Y-18817796D01*
X4445583Y-18826935D01*
X4480666Y-18829274D01*
X4515532Y-18824724D01*
X4548840Y-18813459D01*
X4569888Y-18802209D01*
X4581274Y-18774235D01*
X4475000Y-18667961D01*
X4368726Y-18774235D01*
X3698500Y-18774235D01*
X3698500Y-18655666D01*
X4295726Y-18655666D01*
X4300276Y-18690532D01*
X4311541Y-18723840D01*
X4322791Y-18744888D01*
X4350765Y-18756274D01*
X4457040Y-18650000D01*
X4492961Y-18650000D01*
X4599235Y-18756274D01*
X4627209Y-18744888D01*
X4642796Y-18713370D01*
X4651935Y-18679417D01*
X4654274Y-18644334D01*
X4649724Y-18609468D01*
X4638459Y-18576160D01*
X4627209Y-18555112D01*
X4599235Y-18543726D01*
X4492961Y-18650000D01*
X4457040Y-18650000D01*
X4350765Y-18543726D01*
X4322791Y-18555112D01*
X4307204Y-18586630D01*
X4298065Y-18620583D01*
X4295726Y-18655666D01*
X3698500Y-18655666D01*
X3698500Y-18525765D01*
X4368726Y-18525765D01*
X4475000Y-18632040D01*
X4581274Y-18525765D01*
X4569888Y-18497791D01*
X4538370Y-18482204D01*
X4504417Y-18473065D01*
X4469334Y-18470726D01*
X4434468Y-18475276D01*
X4401160Y-18486541D01*
X4380112Y-18497791D01*
X4368726Y-18525765D01*
X3698500Y-18525765D01*
X3698500Y-18282419D01*
X3796500Y-18282419D01*
X3796500Y-18317581D01*
X3803360Y-18352067D01*
X3816815Y-18384552D01*
X3836350Y-18413787D01*
X3861213Y-18438650D01*
X3890448Y-18458185D01*
X3922933Y-18471640D01*
X3957419Y-18478500D01*
X3992581Y-18478500D01*
X4027066Y-18471640D01*
X4059551Y-18458185D01*
X4071801Y-18450000D01*
X4810951Y-18450000D01*
X4811500Y-18455575D01*
X4811500Y-18730575D01*
X4813142Y-18747250D01*
X4819633Y-18768645D01*
X4830172Y-18788362D01*
X4844355Y-18805645D01*
X4861638Y-18819828D01*
X4881355Y-18830368D01*
X4902750Y-18836858D01*
X4925000Y-18839049D01*
X4947250Y-18836858D01*
X4968645Y-18830368D01*
X4988362Y-18819828D01*
X5005645Y-18805645D01*
X5019828Y-18788362D01*
X5030368Y-18768645D01*
X5036858Y-18747250D01*
X5038500Y-18730575D01*
X5038500Y-18497013D01*
X5887013Y-17648500D01*
X6119425Y-17648500D01*
X6125000Y-17649049D01*
X6130575Y-17648500D01*
X6130575Y-17648500D01*
X6147250Y-17646858D01*
X6168645Y-17640368D01*
X6188362Y-17629828D01*
X6205645Y-17615645D01*
X6219828Y-17598362D01*
X6230368Y-17578645D01*
X6236858Y-17557250D01*
X6239049Y-17535000D01*
X6236858Y-17512750D01*
X6230368Y-17491355D01*
X6219828Y-17471638D01*
X6205645Y-17454355D01*
X6201314Y-17450801D01*
X6053500Y-17302987D01*
X6053500Y-16874925D01*
X6051858Y-16858250D01*
X6045368Y-16836855D01*
X6034828Y-16817138D01*
X6020645Y-16799855D01*
X6003362Y-16785672D01*
X5983645Y-16775132D01*
X5962250Y-16768642D01*
X5940000Y-16766451D01*
X5917750Y-16768642D01*
X5896355Y-16775132D01*
X5876638Y-16785672D01*
X5859355Y-16799855D01*
X5845172Y-16817138D01*
X5834632Y-16836855D01*
X5828142Y-16858250D01*
X5826500Y-16874925D01*
X5826500Y-17344424D01*
X5825951Y-17350000D01*
X5828142Y-17372250D01*
X5834632Y-17393645D01*
X5834632Y-17393645D01*
X5845172Y-17413362D01*
X5851850Y-17421500D01*
X5845575Y-17421500D01*
X5840000Y-17420951D01*
X5834425Y-17421500D01*
X5817750Y-17423142D01*
X5796355Y-17429632D01*
X5776638Y-17440172D01*
X5759355Y-17454355D01*
X5755801Y-17458686D01*
X4848687Y-18365800D01*
X4844355Y-18369355D01*
X4830172Y-18386638D01*
X4821841Y-18402224D01*
X4819632Y-18406355D01*
X4813142Y-18427750D01*
X4810951Y-18450000D01*
X4071801Y-18450000D01*
X4088787Y-18438650D01*
X4113650Y-18413787D01*
X4133185Y-18384552D01*
X4146640Y-18352067D01*
X4153500Y-18317581D01*
X4153500Y-18282419D01*
X4146640Y-18247934D01*
X4133185Y-18215449D01*
X4113650Y-18186213D01*
X4088787Y-18161350D01*
X4059551Y-18141815D01*
X4027066Y-18128360D01*
X3992581Y-18121500D01*
X3957419Y-18121500D01*
X3922933Y-18128360D01*
X3890448Y-18141815D01*
X3861213Y-18161350D01*
X3836350Y-18186213D01*
X3816815Y-18215449D01*
X3803360Y-18247934D01*
X3796500Y-18282419D01*
X3698500Y-18282419D01*
X3698500Y-17682419D01*
X4296500Y-17682419D01*
X4296500Y-17717581D01*
X4303360Y-17752067D01*
X4316815Y-17784552D01*
X4336350Y-17813787D01*
X4361213Y-17838650D01*
X4390449Y-17858185D01*
X4422934Y-17871640D01*
X4457419Y-17878500D01*
X4492581Y-17878500D01*
X4527067Y-17871640D01*
X4559552Y-17858185D01*
X4588787Y-17838650D01*
X4613650Y-17813787D01*
X4633185Y-17784552D01*
X4646640Y-17752067D01*
X4653500Y-17717581D01*
X4653500Y-17682419D01*
X4646640Y-17647934D01*
X4633185Y-17615449D01*
X4613650Y-17586213D01*
X4588787Y-17561350D01*
X4559552Y-17541815D01*
X4527067Y-17528360D01*
X4492581Y-17521500D01*
X4457419Y-17521500D01*
X4422934Y-17528360D01*
X4390449Y-17541815D01*
X4361213Y-17561350D01*
X4336350Y-17586213D01*
X4316815Y-17615449D01*
X4303360Y-17647934D01*
X4296500Y-17682419D01*
X3698500Y-17682419D01*
X3698500Y-17332419D01*
X3796500Y-17332419D01*
X3796500Y-17367581D01*
X3803360Y-17402067D01*
X3816815Y-17434552D01*
X3836350Y-17463787D01*
X3861213Y-17488650D01*
X3890448Y-17508185D01*
X3922933Y-17521640D01*
X3957419Y-17528500D01*
X3992581Y-17528500D01*
X4027066Y-17521640D01*
X4059551Y-17508185D01*
X4088787Y-17488650D01*
X4113650Y-17463787D01*
X4133185Y-17434552D01*
X4146640Y-17402067D01*
X4153500Y-17367581D01*
X4153500Y-17332419D01*
X4146640Y-17297934D01*
X4133185Y-17265449D01*
X4113650Y-17236213D01*
X4088787Y-17211350D01*
X4059551Y-17191815D01*
X4027066Y-17178360D01*
X3992581Y-17171500D01*
X3957419Y-17171500D01*
X3922933Y-17178360D01*
X3890448Y-17191815D01*
X3861213Y-17211350D01*
X3836350Y-17236213D01*
X3816815Y-17265449D01*
X3803360Y-17297934D01*
X3796500Y-17332419D01*
X3698500Y-17332419D01*
X3698500Y-15905445D01*
X3759479Y-15844466D01*
X3777565Y-15840868D01*
X3794762Y-15833745D01*
X3810240Y-15823403D01*
X3823403Y-15810240D01*
X3833745Y-15794762D01*
X3840868Y-15777565D01*
X3844500Y-15759307D01*
X3844500Y-15740693D01*
X3840868Y-15722435D01*
X3833745Y-15705237D01*
X3823403Y-15689760D01*
X3810240Y-15676597D01*
X3794762Y-15666255D01*
X3777565Y-15659132D01*
X3759307Y-15655500D01*
X3740693Y-15655500D01*
X3722435Y-15659132D01*
X3705237Y-15666255D01*
X3700000Y-15669755D01*
X3694762Y-15666255D01*
X3677565Y-15659132D01*
X3659479Y-15655534D01*
X3604526Y-15600581D01*
X3602224Y-15597776D01*
X3591032Y-15588591D01*
X3578263Y-15581766D01*
X3564408Y-15577563D01*
X3553610Y-15576500D01*
X3550000Y-15576144D01*
X3546389Y-15576500D01*
X3503610Y-15576500D01*
X3500000Y-15576144D01*
X3485591Y-15577563D01*
X3471737Y-15581766D01*
X3458968Y-15588591D01*
X3447776Y-15597776D01*
X3445475Y-15600581D01*
X3350581Y-15695475D01*
X3347776Y-15697776D01*
X3338591Y-15708968D01*
X3337158Y-15711649D01*
X3331766Y-15721737D01*
X3327563Y-15735591D01*
X3326144Y-15750000D01*
X3326500Y-15753611D01*
X3326500Y-16102129D01*
X3319606Y-16109023D01*
X3308279Y-16125974D01*
X3300477Y-16144810D01*
X3296500Y-16164806D01*
X3296500Y-16185194D01*
X3300477Y-16205190D01*
X3308279Y-16224026D01*
X3319606Y-16240977D01*
X3334023Y-16255394D01*
X3350974Y-16266720D01*
X3369810Y-16274523D01*
X3389806Y-16278500D01*
X3410194Y-16278500D01*
X3430190Y-16274523D01*
X3449026Y-16266720D01*
X3465977Y-16255394D01*
X3476500Y-16244871D01*
X3476500Y-16601500D01*
X3472871Y-16601500D01*
X3465977Y-16594606D01*
X3449026Y-16583279D01*
X3430190Y-16575477D01*
X3410194Y-16571500D01*
X3389806Y-16571500D01*
X3369810Y-16575477D01*
X3350974Y-16583279D01*
X3334023Y-16594606D01*
X3319606Y-16609023D01*
X3308279Y-16625974D01*
X3300477Y-16644810D01*
X3296500Y-16664806D01*
X3296500Y-16685194D01*
X3300477Y-16705190D01*
X3308279Y-16724026D01*
X3319606Y-16740977D01*
X3334023Y-16755394D01*
X3350974Y-16766720D01*
X3369810Y-16774523D01*
X3389806Y-16778500D01*
X3410194Y-16778500D01*
X3430190Y-16774523D01*
X3449026Y-16766720D01*
X3465977Y-16755394D01*
X3472871Y-16748500D01*
X3476500Y-16748500D01*
X3476500Y-20071389D01*
X3476144Y-20075000D01*
X3477563Y-20089409D01*
X3481766Y-20103263D01*
X3488591Y-20116032D01*
X3497776Y-20127224D01*
X3500581Y-20129525D01*
X3546500Y-20175445D01*
X3546500Y-20185194D01*
X3550477Y-20205190D01*
X3558279Y-20224026D01*
X3569606Y-20240977D01*
X3584023Y-20255394D01*
X3600974Y-20266721D01*
X3619810Y-20274523D01*
X3639806Y-20278500D01*
X3660194Y-20278500D01*
X3680190Y-20274523D01*
X3699026Y-20266721D01*
X3715977Y-20255394D01*
X3730394Y-20240977D01*
X3741720Y-20224026D01*
X3749523Y-20205190D01*
X3753500Y-20185194D01*
X3753500Y-20164806D01*
X3749523Y-20144810D01*
X3741720Y-20125974D01*
X3731030Y-20109974D01*
X3795475Y-20174419D01*
X3797776Y-20177224D01*
X3800581Y-20179525D01*
X3808968Y-20186409D01*
X3821737Y-20193234D01*
X3835591Y-20197437D01*
X3850000Y-20198856D01*
X3853610Y-20198500D01*
X3877129Y-20198500D01*
X3884023Y-20205394D01*
X3900974Y-20216721D01*
X3919810Y-20224523D01*
X3939806Y-20228500D01*
X3942500Y-20228500D01*
X3942500Y-20540555D01*
X3553127Y-20929928D01*
X3553218Y-20929000D01*
X3550351Y-20899889D01*
X3541860Y-20871897D01*
X3528071Y-20846099D01*
X3509513Y-20823487D01*
X3486901Y-20804929D01*
X3481421Y-20802000D01*
X3486901Y-20799071D01*
X3509513Y-20780513D01*
X3528071Y-20757901D01*
X3541860Y-20732103D01*
X3550351Y-20704111D01*
X3553218Y-20675000D01*
X3550351Y-20645889D01*
X3541860Y-20617897D01*
X3528071Y-20592099D01*
X3509513Y-20569487D01*
X3486901Y-20550929D01*
X3461103Y-20537140D01*
X3433111Y-20528649D01*
X3411295Y-20526500D01*
X3396705Y-20526500D01*
X3374889Y-20528649D01*
X3346897Y-20537140D01*
X3321099Y-20550929D01*
X3298487Y-20569487D01*
X3296039Y-20572469D01*
X3293950Y-20565582D01*
X3288054Y-20554551D01*
X3280118Y-20544882D01*
X3270449Y-20536946D01*
X3259418Y-20531050D01*
X3247448Y-20527419D01*
X3235000Y-20526193D01*
X3065000Y-20526193D01*
X3052552Y-20527419D01*
X3040582Y-20531050D01*
X3029551Y-20536946D01*
X3019881Y-20544882D01*
X3011946Y-20554551D01*
X3006050Y-20565582D01*
X3002419Y-20577552D01*
X3001193Y-20590000D01*
X3001193Y-20760000D01*
X3002419Y-20772448D01*
X3006050Y-20784418D01*
X3011946Y-20795449D01*
X3019881Y-20805119D01*
X3029551Y-20813054D01*
X3040582Y-20818950D01*
X3047469Y-20821039D01*
X3044487Y-20823487D01*
X3025929Y-20846099D01*
X3012140Y-20871897D01*
X3003649Y-20899889D01*
X3000781Y-20929000D01*
X2962700Y-20929000D01*
X2962700Y-14239806D01*
X3896500Y-14239806D01*
X3896500Y-14260194D01*
X3900477Y-14280190D01*
X3908279Y-14299026D01*
X3919606Y-14315977D01*
X3934023Y-14330394D01*
X3950974Y-14341720D01*
X3969810Y-14349523D01*
X3989806Y-14353500D01*
X4010194Y-14353500D01*
X4030190Y-14349523D01*
X4049026Y-14341720D01*
X4065977Y-14330394D01*
X4080394Y-14315977D01*
X4091720Y-14299026D01*
X4099523Y-14280190D01*
X4103500Y-14260194D01*
X4103500Y-14239806D01*
X4099523Y-14219810D01*
X4091720Y-14200974D01*
X4080394Y-14184023D01*
X4065977Y-14169606D01*
X4049026Y-14158279D01*
X4030190Y-14150477D01*
X4010194Y-14146500D01*
X3989806Y-14146500D01*
X3969810Y-14150477D01*
X3950974Y-14158279D01*
X3934023Y-14169606D01*
X3919606Y-14184023D01*
X3908279Y-14200974D01*
X3900477Y-14219810D01*
X3896500Y-14239806D01*
X2962700Y-14239806D01*
X2962700Y-13430000D01*
X3805951Y-13430000D01*
X3808142Y-13452250D01*
X3814632Y-13473645D01*
X3814632Y-13473645D01*
X3825172Y-13493362D01*
X3839355Y-13510645D01*
X3843686Y-13514199D01*
X4035801Y-13706314D01*
X4039355Y-13710645D01*
X4056638Y-13724828D01*
X4076355Y-13735368D01*
X4092770Y-13740347D01*
X4097750Y-13741858D01*
X4120000Y-13744049D01*
X4125575Y-13743500D01*
X4137545Y-13743500D01*
X4143120Y-13744049D01*
X4148695Y-13743500D01*
X4148695Y-13743500D01*
X4165370Y-13741858D01*
X4186764Y-13735368D01*
X4206482Y-13724828D01*
X4215412Y-13717500D01*
X5306987Y-13717500D01*
X5638686Y-14049199D01*
X5651638Y-14059828D01*
X5671355Y-14070367D01*
X5692750Y-14076858D01*
X5715000Y-14079049D01*
X5737250Y-14076858D01*
X5758645Y-14070367D01*
X5778362Y-14059828D01*
X5795645Y-14045645D01*
X5809828Y-14028362D01*
X5820367Y-14008645D01*
X5826858Y-13987250D01*
X5829049Y-13965000D01*
X5826858Y-13942750D01*
X5820367Y-13921355D01*
X5809828Y-13901638D01*
X5799199Y-13888686D01*
X5438200Y-13527686D01*
X5434645Y-13523355D01*
X5417362Y-13509171D01*
X5397645Y-13498632D01*
X5376250Y-13492142D01*
X5359575Y-13490500D01*
X5359575Y-13490500D01*
X5354000Y-13489951D01*
X5348425Y-13490500D01*
X4174695Y-13490500D01*
X4169120Y-13489951D01*
X4163545Y-13490500D01*
X4146870Y-13492142D01*
X4143636Y-13493123D01*
X4033500Y-13382987D01*
X4033500Y-12624425D01*
X4031858Y-12607750D01*
X4025368Y-12586355D01*
X4014828Y-12566638D01*
X4000645Y-12549355D01*
X3983362Y-12535172D01*
X3963645Y-12524632D01*
X3942250Y-12518142D01*
X3920000Y-12515951D01*
X3897750Y-12518142D01*
X3876355Y-12524632D01*
X3856638Y-12535172D01*
X3839355Y-12549355D01*
X3825172Y-12566638D01*
X3814632Y-12586355D01*
X3808142Y-12607750D01*
X3806500Y-12624425D01*
X3806500Y-13424424D01*
X3805951Y-13430000D01*
X2962700Y-13430000D01*
X2962700Y-12474235D01*
X5118726Y-12474235D01*
X5130112Y-12502209D01*
X5161630Y-12517796D01*
X5195583Y-12526935D01*
X5230666Y-12529274D01*
X5265532Y-12524724D01*
X5298840Y-12513459D01*
X5319888Y-12502209D01*
X5331274Y-12474235D01*
X5225000Y-12367960D01*
X5118726Y-12474235D01*
X2962700Y-12474235D01*
X2962700Y-12355666D01*
X5045726Y-12355666D01*
X5050276Y-12390532D01*
X5061541Y-12423840D01*
X5072791Y-12444888D01*
X5100765Y-12456274D01*
X5207040Y-12350000D01*
X5242961Y-12350000D01*
X5349235Y-12456274D01*
X5377209Y-12444888D01*
X5392796Y-12413370D01*
X5401935Y-12379417D01*
X5402280Y-12374235D01*
X6443726Y-12374235D01*
X6455112Y-12402209D01*
X6486630Y-12417796D01*
X6520583Y-12426935D01*
X6555666Y-12429274D01*
X6590532Y-12424724D01*
X6623840Y-12413459D01*
X6644888Y-12402209D01*
X6656274Y-12374235D01*
X6550000Y-12267960D01*
X6443726Y-12374235D01*
X5402280Y-12374235D01*
X5404274Y-12344334D01*
X5399724Y-12309468D01*
X5388459Y-12276160D01*
X5377505Y-12255666D01*
X6370726Y-12255666D01*
X6375276Y-12290532D01*
X6386541Y-12323840D01*
X6397791Y-12344888D01*
X6425765Y-12356274D01*
X6532039Y-12250000D01*
X6567960Y-12250000D01*
X6674235Y-12356274D01*
X6702209Y-12344888D01*
X6717796Y-12313370D01*
X6726935Y-12279417D01*
X6729274Y-12244334D01*
X6724724Y-12209468D01*
X6713459Y-12176160D01*
X6702209Y-12155112D01*
X6674235Y-12143726D01*
X6567960Y-12250000D01*
X6532039Y-12250000D01*
X6425765Y-12143726D01*
X6397791Y-12155112D01*
X6382204Y-12186630D01*
X6373065Y-12220583D01*
X6370726Y-12255666D01*
X5377505Y-12255666D01*
X5377209Y-12255112D01*
X5349235Y-12243726D01*
X5242961Y-12350000D01*
X5207040Y-12350000D01*
X5100765Y-12243726D01*
X5072791Y-12255112D01*
X5057204Y-12286630D01*
X5048065Y-12320583D01*
X5045726Y-12355666D01*
X2962700Y-12355666D01*
X2962700Y-12225765D01*
X5118726Y-12225765D01*
X5225000Y-12332039D01*
X5331274Y-12225765D01*
X5319888Y-12197791D01*
X5288370Y-12182204D01*
X5254417Y-12173065D01*
X5219334Y-12170726D01*
X5184468Y-12175276D01*
X5151160Y-12186541D01*
X5130112Y-12197791D01*
X5118726Y-12225765D01*
X2962700Y-12225765D01*
X2962700Y-12125765D01*
X6443726Y-12125765D01*
X6550000Y-12232039D01*
X6656274Y-12125765D01*
X6644888Y-12097791D01*
X6613370Y-12082204D01*
X6579417Y-12073065D01*
X6544334Y-12070726D01*
X6509468Y-12075276D01*
X6476160Y-12086541D01*
X6455112Y-12097791D01*
X6443726Y-12125765D01*
X2962700Y-12125765D01*
X2962700Y-11845088D01*
X3022872Y-11845088D01*
X3058891Y-11894055D01*
X3125288Y-11930085D01*
X3197438Y-11952469D01*
X3272569Y-11960348D01*
X3347794Y-11953418D01*
X3420221Y-11931945D01*
X3487067Y-11896755D01*
X3491109Y-11894055D01*
X3527128Y-11845088D01*
X3514459Y-11832419D01*
X5396500Y-11832419D01*
X5396500Y-11867581D01*
X5403360Y-11902066D01*
X5416815Y-11934551D01*
X5436350Y-11963787D01*
X5461213Y-11988650D01*
X5490449Y-12008185D01*
X5522934Y-12021640D01*
X5557419Y-12028500D01*
X5592581Y-12028500D01*
X5627066Y-12021640D01*
X5659551Y-12008185D01*
X5688787Y-11988650D01*
X5713650Y-11963787D01*
X5733185Y-11934551D01*
X5746640Y-11902066D01*
X5753500Y-11867581D01*
X5753500Y-11832419D01*
X5746640Y-11797933D01*
X5733185Y-11765448D01*
X5713650Y-11736213D01*
X5709856Y-11732419D01*
X6721500Y-11732419D01*
X6721500Y-11767581D01*
X6728360Y-11802066D01*
X6741815Y-11834551D01*
X6761350Y-11863787D01*
X6786213Y-11888650D01*
X6815448Y-11908185D01*
X6847933Y-11921640D01*
X6882419Y-11928500D01*
X6917581Y-11928500D01*
X6952066Y-11921640D01*
X6984551Y-11908185D01*
X7013787Y-11888650D01*
X7038650Y-11863787D01*
X7058185Y-11834551D01*
X7071640Y-11802066D01*
X7078500Y-11767581D01*
X7078500Y-11732419D01*
X7071640Y-11697933D01*
X7058185Y-11665448D01*
X7038650Y-11636213D01*
X7013787Y-11611350D01*
X6984551Y-11591815D01*
X6952066Y-11578360D01*
X6917581Y-11571500D01*
X6882419Y-11571500D01*
X6847933Y-11578360D01*
X6815448Y-11591815D01*
X6786213Y-11611350D01*
X6761350Y-11636213D01*
X6741815Y-11665448D01*
X6728360Y-11697933D01*
X6721500Y-11732419D01*
X5709856Y-11732419D01*
X5688787Y-11711350D01*
X5659551Y-11691815D01*
X5627066Y-11678360D01*
X5592581Y-11671500D01*
X5557419Y-11671500D01*
X5522934Y-11678360D01*
X5490449Y-11691815D01*
X5461213Y-11711350D01*
X5436350Y-11736213D01*
X5416815Y-11765448D01*
X5403360Y-11797933D01*
X5396500Y-11832419D01*
X3514459Y-11832419D01*
X3275000Y-11592960D01*
X3022872Y-11845088D01*
X2962700Y-11845088D01*
X2962700Y-11796077D01*
X3004912Y-11827128D01*
X3257039Y-11575000D01*
X3292960Y-11575000D01*
X3545088Y-11827128D01*
X3594055Y-11791109D01*
X3630085Y-11724712D01*
X3652469Y-11652561D01*
X3660348Y-11577430D01*
X3653418Y-11502206D01*
X3631945Y-11429779D01*
X3596755Y-11362933D01*
X3594055Y-11358891D01*
X3545088Y-11322872D01*
X3292960Y-11575000D01*
X3257039Y-11575000D01*
X3004912Y-11322872D01*
X2962700Y-11353922D01*
X2962700Y-11262700D01*
X3053922Y-11262700D01*
X3022872Y-11304912D01*
X3022872Y-11304912D01*
G37*
X3022872Y-11304912D02*
X3275000Y-11557039D01*
X3527128Y-11304912D01*
X3496077Y-11262700D01*
X7737300Y-11262700D01*
X7737300Y-13975000D01*
X7737544Y-13977478D01*
X7738267Y-13979860D01*
X7739440Y-13982056D01*
X7741020Y-13983980D01*
X7742944Y-13985560D01*
X7745140Y-13986733D01*
X7747522Y-13987456D01*
X7750000Y-13987700D01*
X11387300Y-13987700D01*
X11387300Y-15287300D01*
X10325000Y-15287300D01*
X10322522Y-15287544D01*
X10320140Y-15288267D01*
X10317944Y-15289440D01*
X10316020Y-15291020D01*
X10314440Y-15292944D01*
X10313267Y-15295140D01*
X10312544Y-15297522D01*
X10312300Y-15300000D01*
X10312300Y-16400000D01*
X10312544Y-16402478D01*
X10313267Y-16404860D01*
X10314440Y-16407056D01*
X10316020Y-16408980D01*
X10317944Y-16410560D01*
X10320140Y-16411733D01*
X10322522Y-16412456D01*
X10325000Y-16412700D01*
X11387300Y-16412700D01*
X11387300Y-17787300D01*
X10325000Y-17787300D01*
X10322522Y-17787544D01*
X10320140Y-17788267D01*
X10317944Y-17789440D01*
X10316020Y-17791020D01*
X10314440Y-17792944D01*
X10313267Y-17795140D01*
X10312544Y-17797522D01*
X10312300Y-17800000D01*
X10312300Y-18900000D01*
X10312544Y-18902478D01*
X10313267Y-18904860D01*
X10314440Y-18907056D01*
X10316020Y-18908980D01*
X10317944Y-18910560D01*
X10320140Y-18911733D01*
X10322522Y-18912456D01*
X10325000Y-18912700D01*
X11387300Y-18912700D01*
X11387300Y-20287300D01*
X10325000Y-20287300D01*
X10322522Y-20287544D01*
X10320140Y-20288267D01*
X10317944Y-20289440D01*
X10316020Y-20291020D01*
X10314440Y-20292944D01*
X10313267Y-20295140D01*
X10312544Y-20297522D01*
X10312300Y-20300000D01*
X10312300Y-21400000D01*
X10312544Y-21402478D01*
X10313267Y-21404860D01*
X10314440Y-21407056D01*
X10316020Y-21408980D01*
X10317944Y-21410560D01*
X10320140Y-21411733D01*
X10322522Y-21412456D01*
X10325000Y-21412700D01*
X11387300Y-21412700D01*
X11387300Y-22787300D01*
X10325000Y-22787300D01*
X10322522Y-22787544D01*
X10320140Y-22788267D01*
X10317944Y-22789440D01*
X10316020Y-22791020D01*
X10314440Y-22792944D01*
X10313267Y-22795140D01*
X10312544Y-22797522D01*
X10312300Y-22800000D01*
X10312300Y-24050000D01*
X10312544Y-24052478D01*
X10313267Y-24054860D01*
X10314440Y-24057056D01*
X10316020Y-24058980D01*
X10317944Y-24060560D01*
X10320140Y-24061733D01*
X10322522Y-24062456D01*
X10325000Y-24062700D01*
X13137300Y-24062700D01*
X13137300Y-26878922D01*
X13095088Y-26847872D01*
X12842960Y-27100000D01*
X13095088Y-27352128D01*
X13137300Y-27321077D01*
X13137300Y-27634000D01*
X11003242Y-27634000D01*
X11000000Y-27633681D01*
X10996758Y-27634000D01*
X10987062Y-27634955D01*
X10974621Y-27638729D01*
X10963155Y-27644857D01*
X10953105Y-27653105D01*
X10944858Y-27663155D01*
X10938729Y-27674621D01*
X10934955Y-27687062D01*
X10933681Y-27700000D01*
X10934000Y-27703243D01*
X10934000Y-28237300D01*
X10672620Y-28237300D01*
X10676027Y-28234759D01*
X10695518Y-28213135D01*
X10710416Y-28188125D01*
X10720148Y-28160689D01*
X10708081Y-28137700D01*
X10588700Y-28137700D01*
X10588700Y-28139700D01*
X10563300Y-28139700D01*
X10563300Y-28137700D01*
X10561300Y-28137700D01*
X10561300Y-28112300D01*
X10563300Y-28112300D01*
X10563300Y-28110300D01*
X10588700Y-28110300D01*
X10588700Y-28112300D01*
X10708081Y-28112300D01*
X10720148Y-28089311D01*
X10710416Y-28061875D01*
X10695518Y-28036864D01*
X10676027Y-28015241D01*
X10653124Y-27998158D01*
X10658901Y-27995071D01*
X10681513Y-27976513D01*
X10700071Y-27953901D01*
X10713860Y-27928103D01*
X10722351Y-27900111D01*
X10725219Y-27871000D01*
X10722351Y-27841889D01*
X10713860Y-27813897D01*
X10700071Y-27788099D01*
X10681513Y-27765487D01*
X10658901Y-27746929D01*
X10633103Y-27733140D01*
X10605111Y-27724649D01*
X10583295Y-27722500D01*
X10568705Y-27722500D01*
X10546889Y-27724649D01*
X10518897Y-27733140D01*
X10493099Y-27746929D01*
X10470487Y-27765487D01*
X10451929Y-27788099D01*
X10449000Y-27793579D01*
X10446071Y-27788099D01*
X10427513Y-27765487D01*
X10404901Y-27746929D01*
X10379103Y-27733140D01*
X10351111Y-27724649D01*
X10329295Y-27722500D01*
X10314705Y-27722500D01*
X10292889Y-27724649D01*
X10264897Y-27733140D01*
X10239099Y-27746929D01*
X10216487Y-27765487D01*
X10197929Y-27788099D01*
X10195000Y-27793579D01*
X10192071Y-27788099D01*
X10173513Y-27765487D01*
X10150901Y-27746929D01*
X10125103Y-27733140D01*
X10097111Y-27724649D01*
X10075295Y-27722500D01*
X10060705Y-27722500D01*
X10038889Y-27724649D01*
X10010897Y-27733140D01*
X9985099Y-27746929D01*
X9962487Y-27765487D01*
X9943929Y-27788099D01*
X9940480Y-27794552D01*
X9933518Y-27782864D01*
X9914027Y-27761241D01*
X9890692Y-27743836D01*
X9864410Y-27731317D01*
X9849689Y-27726852D01*
X9826700Y-27738984D01*
X9826700Y-27858300D01*
X9828700Y-27858300D01*
X9828700Y-27883700D01*
X9826700Y-27883700D01*
X9826700Y-27885700D01*
X9801300Y-27885700D01*
X9801300Y-27883700D01*
X9799300Y-27883700D01*
X9799300Y-27858300D01*
X9801300Y-27858300D01*
X9801300Y-27738984D01*
X9778311Y-27726852D01*
X9763590Y-27731317D01*
X9737308Y-27743836D01*
X9713973Y-27761241D01*
X9694482Y-27782864D01*
X9687520Y-27794552D01*
X9684071Y-27788099D01*
X9665513Y-27765487D01*
X9642901Y-27746929D01*
X9617103Y-27733140D01*
X9589111Y-27724649D01*
X9567295Y-27722500D01*
X9552705Y-27722500D01*
X9530889Y-27724649D01*
X9502897Y-27733140D01*
X9498500Y-27735490D01*
X9498500Y-27703610D01*
X9498856Y-27700000D01*
X9497437Y-27685591D01*
X9493769Y-27673500D01*
X9602129Y-27673500D01*
X9609023Y-27680394D01*
X9625974Y-27691720D01*
X9644810Y-27699523D01*
X9664806Y-27703500D01*
X9685194Y-27703500D01*
X9705190Y-27699523D01*
X9724026Y-27691720D01*
X9740977Y-27680394D01*
X9755394Y-27665977D01*
X9766721Y-27649026D01*
X9774523Y-27630190D01*
X9778500Y-27610194D01*
X9778500Y-27589806D01*
X9774523Y-27569810D01*
X9766721Y-27550974D01*
X9755394Y-27534023D01*
X9740977Y-27519606D01*
X9724026Y-27508279D01*
X9705190Y-27500477D01*
X9685194Y-27496500D01*
X9664806Y-27496500D01*
X9644810Y-27500477D01*
X9625974Y-27508279D01*
X9609023Y-27519606D01*
X9602129Y-27526500D01*
X9480445Y-27526500D01*
X9379526Y-27425581D01*
X9377224Y-27422776D01*
X9366032Y-27413591D01*
X9353263Y-27406766D01*
X9339409Y-27402563D01*
X9328611Y-27401500D01*
X9325000Y-27401144D01*
X9321390Y-27401500D01*
X9297871Y-27401500D01*
X9290977Y-27394606D01*
X9274026Y-27383279D01*
X9255190Y-27375477D01*
X9235194Y-27371500D01*
X9214806Y-27371500D01*
X9194810Y-27375477D01*
X9175974Y-27383279D01*
X9159023Y-27394606D01*
X9144606Y-27409023D01*
X9133280Y-27425974D01*
X9125477Y-27444810D01*
X9121500Y-27464806D01*
X9121500Y-27485194D01*
X9125477Y-27505190D01*
X9133280Y-27524026D01*
X9144606Y-27540977D01*
X9159023Y-27555394D01*
X9175974Y-27566720D01*
X9194810Y-27574523D01*
X9214806Y-27578500D01*
X9221500Y-27578500D01*
X9221500Y-27585194D01*
X9225477Y-27605190D01*
X9233280Y-27624026D01*
X9244606Y-27640977D01*
X9259023Y-27655394D01*
X9275974Y-27666720D01*
X9294810Y-27674523D01*
X9295769Y-27674713D01*
X9350615Y-27729560D01*
X9341689Y-27726852D01*
X9318700Y-27738984D01*
X9318700Y-27858300D01*
X9320700Y-27858300D01*
X9320700Y-27883700D01*
X9318700Y-27883700D01*
X9318700Y-27885700D01*
X9293300Y-27885700D01*
X9293300Y-27883700D01*
X9291300Y-27883700D01*
X9291300Y-27858300D01*
X9293300Y-27858300D01*
X9293300Y-27738984D01*
X9270311Y-27726852D01*
X9255590Y-27731317D01*
X9229308Y-27743836D01*
X9205973Y-27761241D01*
X9186482Y-27782864D01*
X9179520Y-27794552D01*
X9176071Y-27788099D01*
X9157513Y-27765487D01*
X9134901Y-27746929D01*
X9109103Y-27733140D01*
X9081111Y-27724649D01*
X9059295Y-27722500D01*
X9044705Y-27722500D01*
X9022889Y-27724649D01*
X8994897Y-27733140D01*
X8969099Y-27746929D01*
X8946487Y-27765487D01*
X8927929Y-27788099D01*
X8925000Y-27793579D01*
X8922071Y-27788099D01*
X8903513Y-27765487D01*
X8880901Y-27746929D01*
X8855103Y-27733140D01*
X8827111Y-27724649D01*
X8805295Y-27722500D01*
X8790705Y-27722500D01*
X8768889Y-27724649D01*
X8740897Y-27733140D01*
X8732705Y-27737519D01*
X8741721Y-27724026D01*
X8749523Y-27705190D01*
X8753500Y-27685194D01*
X8753500Y-27664806D01*
X8749523Y-27644810D01*
X8741721Y-27625974D01*
X8730394Y-27609023D01*
X8723500Y-27602129D01*
X8723500Y-27550880D01*
X8730172Y-27563362D01*
X8744355Y-27580645D01*
X8761638Y-27594828D01*
X8781355Y-27605368D01*
X8802750Y-27611858D01*
X8825000Y-27614049D01*
X8847250Y-27611858D01*
X8868645Y-27605368D01*
X8888362Y-27594828D01*
X8901314Y-27584199D01*
X9115425Y-27370088D01*
X12572872Y-27370088D01*
X12608891Y-27419055D01*
X12675288Y-27455085D01*
X12747438Y-27477469D01*
X12822569Y-27485348D01*
X12897794Y-27478418D01*
X12970221Y-27456945D01*
X13037067Y-27421755D01*
X13041109Y-27419055D01*
X13077128Y-27370088D01*
X12825000Y-27117960D01*
X12572872Y-27370088D01*
X9115425Y-27370088D01*
X9176314Y-27309199D01*
X9180645Y-27305645D01*
X9194828Y-27288362D01*
X9205368Y-27268645D01*
X9211858Y-27247250D01*
X9213500Y-27230575D01*
X9213500Y-27230574D01*
X9214049Y-27225000D01*
X9213500Y-27219426D01*
X9213500Y-27096909D01*
X9219810Y-27099523D01*
X9239806Y-27103500D01*
X9260194Y-27103500D01*
X9280190Y-27099523D01*
X9284905Y-27097569D01*
X12439652Y-27097569D01*
X12446582Y-27172794D01*
X12468055Y-27245221D01*
X12503244Y-27312067D01*
X12505945Y-27316109D01*
X12554912Y-27352128D01*
X12807039Y-27100000D01*
X12554912Y-26847872D01*
X12505945Y-26883891D01*
X12469915Y-26950288D01*
X12447531Y-27022438D01*
X12439652Y-27097569D01*
X9284905Y-27097569D01*
X9299026Y-27091720D01*
X9303845Y-27088500D01*
X9695653Y-27088500D01*
X9700000Y-27088928D01*
X9704347Y-27088500D01*
X9704348Y-27088500D01*
X9717349Y-27087219D01*
X9734031Y-27082159D01*
X9749406Y-27073941D01*
X9762882Y-27062882D01*
X9765653Y-27059504D01*
X10032258Y-26792900D01*
X11343293Y-26792900D01*
X11344519Y-26805348D01*
X11348150Y-26817318D01*
X11354046Y-26828349D01*
X11361981Y-26838018D01*
X11371651Y-26845954D01*
X11382682Y-26851850D01*
X11394652Y-26855481D01*
X11407100Y-26856707D01*
X11446425Y-26856400D01*
X11462300Y-26840525D01*
X11462300Y-26737700D01*
X11359475Y-26737700D01*
X11343600Y-26753575D01*
X11343293Y-26792900D01*
X10032258Y-26792900D01*
X10294045Y-26531113D01*
X11194000Y-26531113D01*
X11194000Y-26558887D01*
X11199419Y-26586128D01*
X11210047Y-26611788D01*
X11225478Y-26634882D01*
X11245118Y-26654522D01*
X11268211Y-26669952D01*
X11293872Y-26680581D01*
X11321113Y-26686000D01*
X11343519Y-26686000D01*
X11343600Y-26696425D01*
X11359475Y-26712300D01*
X11462300Y-26712300D01*
X11462300Y-26609475D01*
X11461318Y-26608493D01*
X11470581Y-26586128D01*
X11476000Y-26558887D01*
X11476000Y-26531113D01*
X11470581Y-26503872D01*
X11459952Y-26478211D01*
X11446487Y-26458058D01*
X11470600Y-26458058D01*
X11470600Y-26483942D01*
X11475650Y-26509328D01*
X11485555Y-26533241D01*
X11499935Y-26554763D01*
X11518237Y-26573065D01*
X11528500Y-26579922D01*
X11528500Y-26593405D01*
X11503575Y-26593600D01*
X11487700Y-26609475D01*
X11487700Y-26712300D01*
X11489700Y-26712300D01*
X11489700Y-26737700D01*
X11487700Y-26737700D01*
X11487700Y-26840525D01*
X11503575Y-26856400D01*
X11542900Y-26856707D01*
X11555348Y-26855481D01*
X11567318Y-26851850D01*
X11570959Y-26849904D01*
X11770475Y-27049419D01*
X11772776Y-27052224D01*
X11783968Y-27061409D01*
X11796737Y-27068234D01*
X11810591Y-27072436D01*
X11821389Y-27073500D01*
X11821390Y-27073500D01*
X11825000Y-27073855D01*
X11828609Y-27073500D01*
X12021389Y-27073500D01*
X12025000Y-27073856D01*
X12028610Y-27073500D01*
X12039408Y-27072436D01*
X12053263Y-27068234D01*
X12066032Y-27061409D01*
X12077224Y-27052224D01*
X12079526Y-27049419D01*
X12299033Y-26829912D01*
X12572872Y-26829912D01*
X12825000Y-27082039D01*
X13077128Y-26829912D01*
X13041109Y-26780945D01*
X12974712Y-26744915D01*
X12902561Y-26722531D01*
X12827430Y-26714652D01*
X12752206Y-26721582D01*
X12679779Y-26743055D01*
X12612933Y-26778244D01*
X12608891Y-26780945D01*
X12572872Y-26829912D01*
X12299033Y-26829912D01*
X12599419Y-26529525D01*
X12602224Y-26527224D01*
X12611409Y-26516032D01*
X12618234Y-26503263D01*
X12622436Y-26489408D01*
X12623500Y-26478610D01*
X12623500Y-26478610D01*
X12623855Y-26475000D01*
X12623500Y-26471391D01*
X12623500Y-26255445D01*
X12671945Y-26207000D01*
X12779193Y-26207000D01*
X12780419Y-26219448D01*
X12784050Y-26231418D01*
X12789946Y-26242449D01*
X12797881Y-26252118D01*
X12807551Y-26260054D01*
X12818582Y-26265950D01*
X12830552Y-26269581D01*
X12843000Y-26270807D01*
X12899425Y-26270500D01*
X12915300Y-26254625D01*
X12915300Y-26134700D01*
X12940700Y-26134700D01*
X12940700Y-26254625D01*
X12956575Y-26270500D01*
X13013000Y-26270807D01*
X13025448Y-26269581D01*
X13037418Y-26265950D01*
X13048449Y-26260054D01*
X13058118Y-26252118D01*
X13066054Y-26242449D01*
X13071950Y-26231418D01*
X13075581Y-26219448D01*
X13076807Y-26207000D01*
X13076500Y-26150575D01*
X13060625Y-26134700D01*
X12940700Y-26134700D01*
X12915300Y-26134700D01*
X12795375Y-26134700D01*
X12779500Y-26150575D01*
X12779193Y-26207000D01*
X12671945Y-26207000D01*
X12782510Y-26096435D01*
X12795375Y-26109300D01*
X12915300Y-26109300D01*
X12915300Y-26107300D01*
X12940700Y-26107300D01*
X12940700Y-26109300D01*
X13060625Y-26109300D01*
X13076500Y-26093425D01*
X13076807Y-26037000D01*
X13075581Y-26024552D01*
X13071950Y-26012582D01*
X13066054Y-26001551D01*
X13058118Y-25991881D01*
X13048449Y-25983946D01*
X13037418Y-25978050D01*
X13030531Y-25975961D01*
X13033513Y-25973513D01*
X13052071Y-25950901D01*
X13065860Y-25925103D01*
X13074351Y-25897111D01*
X13077218Y-25868000D01*
X13074351Y-25838889D01*
X13065860Y-25810897D01*
X13052071Y-25785099D01*
X13033513Y-25762487D01*
X13010901Y-25743929D01*
X13005421Y-25741000D01*
X13010901Y-25738071D01*
X13033513Y-25719513D01*
X13052071Y-25696901D01*
X13065860Y-25671103D01*
X13074351Y-25643111D01*
X13077218Y-25614000D01*
X13074351Y-25584889D01*
X13065860Y-25556897D01*
X13052071Y-25531099D01*
X13033513Y-25508487D01*
X13010901Y-25489929D01*
X13005421Y-25487000D01*
X13010901Y-25484071D01*
X13033513Y-25465513D01*
X13052071Y-25442901D01*
X13065860Y-25417103D01*
X13074351Y-25389111D01*
X13077218Y-25360000D01*
X13074351Y-25330889D01*
X13065860Y-25302897D01*
X13052071Y-25277099D01*
X13033513Y-25254487D01*
X13010901Y-25235929D01*
X13005421Y-25233000D01*
X13010901Y-25230071D01*
X13033513Y-25211513D01*
X13052071Y-25188901D01*
X13065860Y-25163103D01*
X13074351Y-25135111D01*
X13077218Y-25106000D01*
X13074351Y-25076889D01*
X13065860Y-25048897D01*
X13052071Y-25023099D01*
X13033513Y-25000487D01*
X13010901Y-24981929D01*
X13005421Y-24979000D01*
X13010901Y-24976071D01*
X13033513Y-24957513D01*
X13052071Y-24934901D01*
X13065860Y-24909103D01*
X13074351Y-24881111D01*
X13077218Y-24852000D01*
X13074351Y-24822889D01*
X13065860Y-24794897D01*
X13052071Y-24769099D01*
X13033513Y-24746487D01*
X13010901Y-24727929D01*
X12985103Y-24714140D01*
X12957111Y-24705649D01*
X12935295Y-24703500D01*
X12920705Y-24703500D01*
X12898889Y-24705649D01*
X12870897Y-24714140D01*
X12845099Y-24727929D01*
X12822487Y-24746487D01*
X12803929Y-24769099D01*
X12790140Y-24794897D01*
X12781649Y-24822889D01*
X12778781Y-24852000D01*
X12780490Y-24869352D01*
X12050495Y-25599347D01*
X12047118Y-25602118D01*
X12044347Y-25605495D01*
X12044347Y-25605495D01*
X12036059Y-25615594D01*
X12027841Y-25630969D01*
X12022780Y-25647651D01*
X12021072Y-25665000D01*
X12021500Y-25669348D01*
X12021500Y-26373672D01*
X12007935Y-26387237D01*
X11993555Y-26408759D01*
X11983650Y-26432672D01*
X11983000Y-26435938D01*
X11982350Y-26432672D01*
X11972445Y-26408759D01*
X11958065Y-26387237D01*
X11939763Y-26368935D01*
X11918241Y-26354555D01*
X11894328Y-26344650D01*
X11868942Y-26339600D01*
X11843058Y-26339600D01*
X11817672Y-26344650D01*
X11793759Y-26354555D01*
X11772237Y-26368935D01*
X11753935Y-26387237D01*
X11739555Y-26408759D01*
X11729650Y-26432672D01*
X11729000Y-26435938D01*
X11728350Y-26432672D01*
X11718445Y-26408759D01*
X11704065Y-26387237D01*
X11685763Y-26368935D01*
X11664241Y-26354555D01*
X11640328Y-26344650D01*
X11614942Y-26339600D01*
X11589058Y-26339600D01*
X11563672Y-26344650D01*
X11539759Y-26354555D01*
X11518237Y-26368935D01*
X11499935Y-26387237D01*
X11485555Y-26408759D01*
X11475650Y-26432672D01*
X11470600Y-26458058D01*
X11446487Y-26458058D01*
X11444522Y-26455118D01*
X11424882Y-26435478D01*
X11401788Y-26420047D01*
X11376128Y-26409419D01*
X11348887Y-26404000D01*
X11321113Y-26404000D01*
X11293872Y-26409419D01*
X11268211Y-26420047D01*
X11245118Y-26435478D01*
X11225478Y-26455118D01*
X11210047Y-26478211D01*
X11199419Y-26503872D01*
X11194000Y-26531113D01*
X10294045Y-26531113D01*
X11774505Y-25050653D01*
X11777882Y-25047882D01*
X11788941Y-25034406D01*
X11797159Y-25019031D01*
X11802219Y-25002349D01*
X11803500Y-24989348D01*
X11803500Y-24989347D01*
X11803928Y-24985000D01*
X11803500Y-24980653D01*
X11803500Y-24843845D01*
X11806720Y-24839026D01*
X11814523Y-24820190D01*
X11818500Y-24800194D01*
X11818500Y-24779806D01*
X11814523Y-24759810D01*
X11806720Y-24740974D01*
X11795394Y-24724023D01*
X11780977Y-24709606D01*
X11764026Y-24698279D01*
X11745190Y-24690477D01*
X11725194Y-24686500D01*
X11704806Y-24686500D01*
X11684810Y-24690477D01*
X11665974Y-24698279D01*
X11649023Y-24709606D01*
X11634606Y-24724023D01*
X11623279Y-24740974D01*
X11615477Y-24759810D01*
X11611500Y-24779806D01*
X11611500Y-24800194D01*
X11615477Y-24820190D01*
X11623279Y-24839026D01*
X11626500Y-24843845D01*
X11626500Y-24948342D01*
X9663342Y-26911500D01*
X9303845Y-26911500D01*
X9299026Y-26908279D01*
X9280190Y-26900477D01*
X9260194Y-26896500D01*
X9239806Y-26896500D01*
X9219810Y-26900477D01*
X9213500Y-26903091D01*
X9213500Y-25172696D01*
X9226229Y-25179500D01*
X9227852Y-25180368D01*
X9249247Y-25186858D01*
X9271497Y-25189049D01*
X9277072Y-25188500D01*
X9280575Y-25188500D01*
X9297250Y-25186858D01*
X9318645Y-25180368D01*
X9338362Y-25169828D01*
X9355645Y-25155645D01*
X9369828Y-25138362D01*
X9380368Y-25118645D01*
X9386858Y-25097250D01*
X9389049Y-25075000D01*
X9386858Y-25052750D01*
X9380368Y-25031355D01*
X9369828Y-25011638D01*
X9355645Y-24994355D01*
X9338500Y-24980285D01*
X9338500Y-23274013D01*
X9561500Y-23497013D01*
X9561500Y-24019424D01*
X9560951Y-24025000D01*
X9563142Y-24047250D01*
X9569632Y-24068645D01*
X9569633Y-24068645D01*
X9580172Y-24088362D01*
X9594355Y-24105645D01*
X9598686Y-24109199D01*
X10123686Y-24634199D01*
X10136638Y-24644828D01*
X10156355Y-24655367D01*
X10177750Y-24661858D01*
X10200000Y-24664049D01*
X10222250Y-24661858D01*
X10243645Y-24655367D01*
X10263362Y-24644828D01*
X10280645Y-24630645D01*
X10294828Y-24613362D01*
X10305368Y-24593645D01*
X10311858Y-24572250D01*
X10314049Y-24550000D01*
X10311858Y-24527750D01*
X10305368Y-24506355D01*
X10294828Y-24486638D01*
X10284199Y-24473686D01*
X9788500Y-23977987D01*
X9788500Y-23455574D01*
X9789049Y-23450000D01*
X9788500Y-23444425D01*
X9788500Y-23444425D01*
X9786858Y-23427750D01*
X9785879Y-23424523D01*
X9784962Y-23421500D01*
X9780368Y-23406355D01*
X9769828Y-23386638D01*
X9755645Y-23369355D01*
X9751314Y-23365801D01*
X9403500Y-23017987D01*
X9403500Y-23015575D01*
X9404049Y-23010000D01*
X9401858Y-22987750D01*
X9401499Y-22986567D01*
X9401499Y-20838433D01*
X9401858Y-20837250D01*
X9403500Y-20820575D01*
X9403500Y-20820574D01*
X9404049Y-20815000D01*
X9403500Y-20809426D01*
X9403500Y-20515574D01*
X9404049Y-20510000D01*
X9403500Y-20504426D01*
X9403500Y-20504425D01*
X9401858Y-20487750D01*
X9401499Y-20486567D01*
X9401499Y-18033433D01*
X9401858Y-18032250D01*
X9404049Y-18010000D01*
X9401858Y-17987750D01*
X9401499Y-17986567D01*
X9401499Y-17792576D01*
X9402048Y-17787001D01*
X9401499Y-17781426D01*
X9401499Y-16742576D01*
X9402048Y-16737001D01*
X9401499Y-16731426D01*
X9401499Y-16267576D01*
X9402048Y-16262001D01*
X9401499Y-16256426D01*
X9401499Y-15533433D01*
X9401858Y-15532250D01*
X9404049Y-15510000D01*
X9401858Y-15487750D01*
X9395368Y-15466355D01*
X9384828Y-15446638D01*
X9370645Y-15429355D01*
X9353362Y-15415172D01*
X9333645Y-15404632D01*
X9312250Y-15398142D01*
X9290000Y-15395951D01*
X9267750Y-15398142D01*
X9246355Y-15404632D01*
X9226638Y-15415172D01*
X9213686Y-15425801D01*
X9211685Y-15427802D01*
X9207354Y-15431356D01*
X9193170Y-15448639D01*
X9183701Y-15466355D01*
X9182631Y-15468357D01*
X9176141Y-15489751D01*
X9173950Y-15512001D01*
X9174499Y-15517576D01*
X9174499Y-16161500D01*
X7844425Y-16161500D01*
X7827750Y-16163142D01*
X7806355Y-16169632D01*
X7786638Y-16180172D01*
X7769355Y-16194355D01*
X7755172Y-16211638D01*
X7744632Y-16231355D01*
X7738142Y-16252750D01*
X7735951Y-16275000D01*
X7738142Y-16297250D01*
X7744632Y-16318645D01*
X7755172Y-16338362D01*
X7769355Y-16355645D01*
X7786638Y-16369828D01*
X7806355Y-16380368D01*
X7827750Y-16386858D01*
X7844425Y-16388500D01*
X9174499Y-16388500D01*
X9174499Y-16674117D01*
X9170630Y-16681355D01*
X9164140Y-16702750D01*
X9161949Y-16725000D01*
X9164140Y-16747250D01*
X9170630Y-16768645D01*
X9174499Y-16775883D01*
X9174499Y-17724117D01*
X9170630Y-17731355D01*
X9164140Y-17752750D01*
X9164061Y-17753548D01*
X7088500Y-15677987D01*
X7088500Y-15594425D01*
X7086858Y-15577750D01*
X7080368Y-15556355D01*
X7069828Y-15536638D01*
X7055645Y-15519355D01*
X7038362Y-15505172D01*
X7018645Y-15494632D01*
X6997250Y-15488142D01*
X6975000Y-15485951D01*
X6952750Y-15488142D01*
X6931355Y-15494632D01*
X6911638Y-15505172D01*
X6894355Y-15519355D01*
X6880172Y-15536638D01*
X6869632Y-15556355D01*
X6863142Y-15577750D01*
X6861500Y-15594425D01*
X6861500Y-15719425D01*
X6860951Y-15725000D01*
X6861500Y-15730575D01*
X6863142Y-15747250D01*
X6869632Y-15768645D01*
X6880172Y-15788362D01*
X6894355Y-15805645D01*
X6898686Y-15809200D01*
X8986500Y-17897013D01*
X8986500Y-17957555D01*
X7929526Y-16900581D01*
X7929525Y-16900580D01*
X7803500Y-16774555D01*
X7803500Y-16764806D01*
X7799523Y-16744810D01*
X7791720Y-16725974D01*
X7780394Y-16709022D01*
X7765977Y-16694606D01*
X7749026Y-16683279D01*
X7730190Y-16675477D01*
X7710194Y-16671500D01*
X7689806Y-16671500D01*
X7669810Y-16675477D01*
X7650974Y-16683279D01*
X7634023Y-16694606D01*
X7619606Y-16709022D01*
X7608279Y-16725974D01*
X7600477Y-16744810D01*
X7596500Y-16764806D01*
X7596500Y-16785194D01*
X7600477Y-16805190D01*
X7608279Y-16824025D01*
X7619606Y-16840977D01*
X7634023Y-16855394D01*
X7650974Y-16866720D01*
X7669810Y-16874522D01*
X7689806Y-16878500D01*
X7699555Y-16878500D01*
X7825581Y-17004525D01*
X7825581Y-17004526D01*
X8876500Y-18055445D01*
X8876500Y-19621389D01*
X8876500Y-19621390D01*
X8876500Y-27019555D01*
X8600581Y-27295475D01*
X8597776Y-27297776D01*
X8588591Y-27308968D01*
X8581766Y-27321737D01*
X8579715Y-27328500D01*
X8577564Y-27335591D01*
X8576144Y-27350000D01*
X8576500Y-27353610D01*
X8576500Y-27536129D01*
X8573500Y-27533129D01*
X8573500Y-27230445D01*
X8799420Y-27004525D01*
X8802224Y-27002224D01*
X8804525Y-26999420D01*
X8804525Y-26999419D01*
X8807763Y-26995475D01*
X8811409Y-26991032D01*
X8818234Y-26978263D01*
X8822437Y-26964408D01*
X8823500Y-26953610D01*
X8823500Y-26953610D01*
X8823856Y-26950000D01*
X8823500Y-26946389D01*
X8823500Y-18303609D01*
X8823856Y-18300000D01*
X8823500Y-18296390D01*
X8823500Y-18296390D01*
X8822437Y-18285592D01*
X8818234Y-18271737D01*
X8811409Y-18258968D01*
X8802224Y-18247776D01*
X8799419Y-18245475D01*
X6375158Y-15821213D01*
X6380394Y-15815977D01*
X6391720Y-15799026D01*
X6399523Y-15780190D01*
X6400463Y-15775463D01*
X6405190Y-15774523D01*
X6424026Y-15766720D01*
X6440977Y-15755394D01*
X6455394Y-15740977D01*
X6466720Y-15724026D01*
X6474523Y-15705190D01*
X6478500Y-15685194D01*
X6478500Y-15664806D01*
X6474523Y-15644810D01*
X6466720Y-15625974D01*
X6455394Y-15609023D01*
X6440977Y-15594606D01*
X6424026Y-15583279D01*
X6405190Y-15575477D01*
X6400463Y-15574537D01*
X6399523Y-15569810D01*
X6391720Y-15550974D01*
X6380394Y-15534023D01*
X6365977Y-15519606D01*
X6349026Y-15508279D01*
X6330190Y-15500477D01*
X6310194Y-15496500D01*
X6289806Y-15496500D01*
X6269810Y-15500477D01*
X6250974Y-15508279D01*
X6234023Y-15519606D01*
X6219606Y-15534023D01*
X6208279Y-15550974D01*
X6200477Y-15569810D01*
X6196500Y-15589806D01*
X6196500Y-15599555D01*
X6125581Y-15670475D01*
X6122776Y-15672776D01*
X6113591Y-15683968D01*
X6106766Y-15696737D01*
X6103838Y-15706389D01*
X6102563Y-15710591D01*
X6101144Y-15725000D01*
X6101500Y-15728610D01*
X6101500Y-15871388D01*
X6101144Y-15875000D01*
X6102563Y-15889408D01*
X6106451Y-15902224D01*
X6106766Y-15903263D01*
X6113591Y-15916032D01*
X6122776Y-15927224D01*
X6125581Y-15929525D01*
X8576500Y-18380445D01*
X8576500Y-26869555D01*
X8267705Y-27178351D01*
X8266720Y-27175974D01*
X8255394Y-27159023D01*
X8240977Y-27144606D01*
X8224026Y-27133279D01*
X8205190Y-27125477D01*
X8185194Y-27121500D01*
X8164806Y-27121500D01*
X8144810Y-27125477D01*
X8125974Y-27133279D01*
X8109023Y-27144606D01*
X8094606Y-27159023D01*
X8083279Y-27175974D01*
X8075477Y-27194810D01*
X8071500Y-27214806D01*
X8071500Y-27235194D01*
X8075477Y-27255190D01*
X8083279Y-27274026D01*
X8094606Y-27290977D01*
X8106711Y-27303083D01*
X8106766Y-27303263D01*
X8113591Y-27316032D01*
X8122776Y-27327224D01*
X8125581Y-27329525D01*
X8151500Y-27355445D01*
X8151500Y-27533129D01*
X8144606Y-27540023D01*
X8133279Y-27556974D01*
X8125477Y-27575810D01*
X8121500Y-27595806D01*
X8121500Y-27616194D01*
X8125477Y-27636190D01*
X8133279Y-27655026D01*
X8144606Y-27671977D01*
X8159023Y-27686394D01*
X8175974Y-27697720D01*
X8194810Y-27705523D01*
X8214806Y-27709500D01*
X8235194Y-27709500D01*
X8255190Y-27705523D01*
X8274026Y-27697720D01*
X8287500Y-27688717D01*
X8300974Y-27697720D01*
X8319810Y-27705523D01*
X8339806Y-27709500D01*
X8360194Y-27709500D01*
X8380190Y-27705523D01*
X8399026Y-27697720D01*
X8415977Y-27686394D01*
X8425000Y-27677371D01*
X8434023Y-27686394D01*
X8450974Y-27697720D01*
X8469810Y-27705523D01*
X8489806Y-27709500D01*
X8510194Y-27709500D01*
X8530190Y-27705523D01*
X8548994Y-27697733D01*
X8550477Y-27705190D01*
X8557918Y-27723152D01*
X8551295Y-27722500D01*
X8536705Y-27722500D01*
X8514889Y-27724649D01*
X8486897Y-27733140D01*
X8461099Y-27746929D01*
X8438487Y-27765487D01*
X8419929Y-27788099D01*
X8417000Y-27793579D01*
X8414071Y-27788099D01*
X8395513Y-27765487D01*
X8372901Y-27746929D01*
X8347103Y-27733140D01*
X8319111Y-27724649D01*
X8297295Y-27722500D01*
X8282705Y-27722500D01*
X8260889Y-27724649D01*
X8232897Y-27733140D01*
X8207099Y-27746929D01*
X8184487Y-27765487D01*
X8165929Y-27788099D01*
X8162480Y-27794552D01*
X8155518Y-27782864D01*
X8136027Y-27761241D01*
X8112692Y-27743836D01*
X8086410Y-27731317D01*
X8071689Y-27726852D01*
X8048700Y-27738984D01*
X8048700Y-27858300D01*
X8050700Y-27858300D01*
X8050700Y-27883700D01*
X8048700Y-27883700D01*
X8048700Y-27885700D01*
X8023300Y-27885700D01*
X8023300Y-27883700D01*
X8021300Y-27883700D01*
X8021300Y-27858300D01*
X8023300Y-27858300D01*
X8023300Y-27738984D01*
X8000311Y-27726852D01*
X7985590Y-27731317D01*
X7959308Y-27743836D01*
X7935973Y-27761241D01*
X7916482Y-27782864D01*
X7909520Y-27794552D01*
X7906071Y-27788099D01*
X7887513Y-27765487D01*
X7864901Y-27746929D01*
X7839103Y-27733140D01*
X7811111Y-27724649D01*
X7789295Y-27722500D01*
X7774705Y-27722500D01*
X7752889Y-27724649D01*
X7724897Y-27733140D01*
X7699099Y-27746929D01*
X7676487Y-27765487D01*
X7657929Y-27788099D01*
X7655000Y-27793579D01*
X7652071Y-27788099D01*
X7633513Y-27765487D01*
X7610901Y-27746929D01*
X7585103Y-27733140D01*
X7557111Y-27724649D01*
X7535295Y-27722500D01*
X7520705Y-27722500D01*
X7498889Y-27724649D01*
X7470897Y-27733140D01*
X7445099Y-27746929D01*
X7422487Y-27765487D01*
X7403929Y-27788099D01*
X7400480Y-27794552D01*
X7393518Y-27782864D01*
X7374027Y-27761241D01*
X7350692Y-27743836D01*
X7324410Y-27731317D01*
X7309689Y-27726852D01*
X7286700Y-27738984D01*
X7286700Y-27858300D01*
X7288700Y-27858300D01*
X7288700Y-27883700D01*
X7286700Y-27883700D01*
X7286700Y-27885700D01*
X7261300Y-27885700D01*
X7261300Y-27883700D01*
X7259300Y-27883700D01*
X7259300Y-27858300D01*
X7261300Y-27858300D01*
X7261300Y-27738984D01*
X7238311Y-27726852D01*
X7223590Y-27731317D01*
X7197308Y-27743836D01*
X7173973Y-27761241D01*
X7154482Y-27782864D01*
X7147520Y-27794552D01*
X7144071Y-27788099D01*
X7125513Y-27765487D01*
X7102901Y-27746929D01*
X7077103Y-27733140D01*
X7049111Y-27724649D01*
X7027295Y-27722500D01*
X7012705Y-27722500D01*
X6990889Y-27724649D01*
X6962897Y-27733140D01*
X6937099Y-27746929D01*
X6914487Y-27765487D01*
X6895929Y-27788099D01*
X6893000Y-27793579D01*
X6890071Y-27788099D01*
X6871513Y-27765487D01*
X6848901Y-27746929D01*
X6823103Y-27733140D01*
X6795111Y-27724649D01*
X6773295Y-27722500D01*
X6758705Y-27722500D01*
X6736889Y-27724649D01*
X6708897Y-27733140D01*
X6683099Y-27746929D01*
X6660487Y-27765487D01*
X6641929Y-27788099D01*
X6639000Y-27793579D01*
X6636071Y-27788099D01*
X6617513Y-27765487D01*
X6594901Y-27746929D01*
X6569103Y-27733140D01*
X6541111Y-27724649D01*
X6519295Y-27722500D01*
X6504705Y-27722500D01*
X6482889Y-27724649D01*
X6454897Y-27733140D01*
X6429099Y-27746929D01*
X6406487Y-27765487D01*
X6387929Y-27788099D01*
X6384480Y-27794552D01*
X6377518Y-27782864D01*
X6358027Y-27761241D01*
X6334692Y-27743836D01*
X6308410Y-27731317D01*
X6293689Y-27726852D01*
X6270700Y-27738984D01*
X6270700Y-27858300D01*
X6272700Y-27858300D01*
X6272700Y-27883700D01*
X6270700Y-27883700D01*
X6270700Y-27885700D01*
X6245300Y-27885700D01*
X6245300Y-27883700D01*
X6243300Y-27883700D01*
X6243300Y-27858300D01*
X6245300Y-27858300D01*
X6245300Y-27738984D01*
X6222311Y-27726852D01*
X6207590Y-27731317D01*
X6181308Y-27743836D01*
X6157973Y-27761241D01*
X6138482Y-27782864D01*
X6131520Y-27794552D01*
X6128071Y-27788099D01*
X6109513Y-27765487D01*
X6086901Y-27746929D01*
X6061103Y-27733140D01*
X6033111Y-27724649D01*
X6011295Y-27722500D01*
X5996705Y-27722500D01*
X5974889Y-27724649D01*
X5946897Y-27733140D01*
X5921099Y-27746929D01*
X5908218Y-27757500D01*
X5845782Y-27757500D01*
X5832901Y-27746929D01*
X5807103Y-27733140D01*
X5779111Y-27724649D01*
X5757295Y-27722500D01*
X5742705Y-27722500D01*
X5720889Y-27724649D01*
X5692897Y-27733140D01*
X5667099Y-27746929D01*
X5644487Y-27765487D01*
X5625929Y-27788099D01*
X5612140Y-27813897D01*
X5603649Y-27841889D01*
X5600781Y-27871000D01*
X5603649Y-27900111D01*
X5612140Y-27928103D01*
X5625929Y-27953901D01*
X5644487Y-27976513D01*
X5647469Y-27978961D01*
X5640582Y-27981050D01*
X5629551Y-27986946D01*
X5619881Y-27994881D01*
X5611946Y-28004551D01*
X5606050Y-28015582D01*
X5602419Y-28027552D01*
X5601193Y-28040000D01*
X5601193Y-28210000D01*
X5602419Y-28222448D01*
X5606050Y-28234418D01*
X5607590Y-28237300D01*
X3496077Y-28237300D01*
X3527128Y-28195088D01*
X3275000Y-27942960D01*
X3022872Y-28195088D01*
X3053922Y-28237300D01*
X2962700Y-28237300D01*
X2962700Y-28146077D01*
X3004912Y-28177128D01*
X3257039Y-27925000D01*
X3292960Y-27925000D01*
X3545088Y-28177128D01*
X3594055Y-28141109D01*
X3630085Y-28074712D01*
X3652469Y-28002561D01*
X3660348Y-27927430D01*
X3653418Y-27852206D01*
X3631945Y-27779779D01*
X3620174Y-27757419D01*
X3821500Y-27757419D01*
X3821500Y-27792581D01*
X3828360Y-27827066D01*
X3841815Y-27859551D01*
X3861350Y-27888787D01*
X3886213Y-27913650D01*
X3915448Y-27933185D01*
X3947933Y-27946640D01*
X3982419Y-27953500D01*
X4017581Y-27953500D01*
X4052066Y-27946640D01*
X4084551Y-27933185D01*
X4113787Y-27913650D01*
X4138650Y-27888787D01*
X4158185Y-27859551D01*
X4171640Y-27827066D01*
X4178500Y-27792581D01*
X4178500Y-27757419D01*
X4171640Y-27722933D01*
X4158185Y-27690448D01*
X4138650Y-27661213D01*
X4113787Y-27636350D01*
X4084551Y-27616815D01*
X4052066Y-27603360D01*
X4017581Y-27596500D01*
X3982419Y-27596500D01*
X3947933Y-27603360D01*
X3915448Y-27616815D01*
X3886213Y-27636350D01*
X3861350Y-27661213D01*
X3841815Y-27690448D01*
X3828360Y-27722933D01*
X3821500Y-27757419D01*
X3620174Y-27757419D01*
X3596755Y-27712933D01*
X3594055Y-27708891D01*
X3545088Y-27672872D01*
X3292960Y-27925000D01*
X3257039Y-27925000D01*
X3004912Y-27672872D01*
X2962700Y-27703922D01*
X2962700Y-27654912D01*
X3022872Y-27654912D01*
X3275000Y-27907039D01*
X3527128Y-27654912D01*
X3491109Y-27605945D01*
X3424712Y-27569915D01*
X3352561Y-27547531D01*
X3277430Y-27539652D01*
X3202206Y-27546582D01*
X3129779Y-27568055D01*
X3062933Y-27603244D01*
X3058891Y-27605945D01*
X3022872Y-27654912D01*
X2962700Y-27654912D01*
X2962700Y-27399235D01*
X4243726Y-27399235D01*
X4255112Y-27427209D01*
X4286630Y-27442796D01*
X4320583Y-27451935D01*
X4355666Y-27454274D01*
X4390532Y-27449724D01*
X4423840Y-27438459D01*
X4444888Y-27427209D01*
X4456274Y-27399235D01*
X4350000Y-27292960D01*
X4243726Y-27399235D01*
X2962700Y-27399235D01*
X2962700Y-27280666D01*
X4170726Y-27280666D01*
X4175276Y-27315532D01*
X4186541Y-27348840D01*
X4197791Y-27369888D01*
X4225765Y-27381274D01*
X4332040Y-27275000D01*
X4367961Y-27275000D01*
X4474235Y-27381274D01*
X4502209Y-27369888D01*
X4517796Y-27338370D01*
X4526935Y-27304417D01*
X4529274Y-27269334D01*
X4524724Y-27234468D01*
X4513459Y-27201160D01*
X4502209Y-27180112D01*
X4474235Y-27168726D01*
X4367961Y-27275000D01*
X4332040Y-27275000D01*
X4225765Y-27168726D01*
X4197791Y-27180112D01*
X4182204Y-27211630D01*
X4173065Y-27245583D01*
X4170726Y-27280666D01*
X2962700Y-27280666D01*
X2962700Y-27150765D01*
X4243726Y-27150765D01*
X4350000Y-27257039D01*
X4456274Y-27150765D01*
X4444888Y-27122791D01*
X4413370Y-27107204D01*
X4379417Y-27098065D01*
X4344334Y-27095726D01*
X4309468Y-27100276D01*
X4276160Y-27111541D01*
X4255112Y-27122791D01*
X4243726Y-27150765D01*
X2962700Y-27150765D01*
X2962700Y-20929000D01*
X3000781Y-20929000D01*
X3003649Y-20958111D01*
X3012140Y-20986103D01*
X3025929Y-21011901D01*
X3044487Y-21034513D01*
X3067099Y-21053071D01*
X3072579Y-21056000D01*
X3067099Y-21058929D01*
X3044487Y-21077487D01*
X3025929Y-21100099D01*
X3012140Y-21125897D01*
X3003649Y-21153889D01*
X3000781Y-21183000D01*
X3003649Y-21212111D01*
X3012140Y-21240103D01*
X3025929Y-21265901D01*
X3044487Y-21288513D01*
X3067099Y-21307071D01*
X3072579Y-21310000D01*
X3067099Y-21312929D01*
X3044487Y-21331487D01*
X3025929Y-21354099D01*
X3012140Y-21379897D01*
X3003649Y-21407889D01*
X3000781Y-21437000D01*
X3003649Y-21466111D01*
X3012140Y-21494103D01*
X3025929Y-21519901D01*
X3044487Y-21542513D01*
X3067099Y-21561071D01*
X3072579Y-21564000D01*
X3067099Y-21566929D01*
X3044487Y-21585487D01*
X3025929Y-21608099D01*
X3012140Y-21633897D01*
X3003649Y-21661889D01*
X3000781Y-21691000D01*
X3003649Y-21720111D01*
X3012140Y-21748103D01*
X3025929Y-21773901D01*
X3044487Y-21796513D01*
X3067099Y-21815071D01*
X3072579Y-21818000D01*
X3067099Y-21820929D01*
X3044487Y-21839487D01*
X3025929Y-21862099D01*
X3012140Y-21887897D01*
X3003649Y-21915889D01*
X3000781Y-21945000D01*
X3003649Y-21974111D01*
X3012140Y-22002103D01*
X3025929Y-22027901D01*
X3044487Y-22050513D01*
X3067099Y-22069071D01*
X3072579Y-22072000D01*
X3067099Y-22074929D01*
X3044487Y-22093487D01*
X3025929Y-22116099D01*
X3012140Y-22141897D01*
X3003649Y-22169889D01*
X3000781Y-22199000D01*
X3003649Y-22228111D01*
X3012140Y-22256103D01*
X3025929Y-22281901D01*
X3044487Y-22304513D01*
X3067099Y-22323071D01*
X3072579Y-22326000D01*
X3067099Y-22328929D01*
X3044487Y-22347487D01*
X3025929Y-22370099D01*
X3012140Y-22395897D01*
X3003649Y-22423889D01*
X3000781Y-22453000D01*
X3003649Y-22482111D01*
X3012140Y-22510103D01*
X3025929Y-22535901D01*
X3044487Y-22558513D01*
X3067099Y-22577071D01*
X3072579Y-22580000D01*
X3067099Y-22582929D01*
X3044487Y-22601487D01*
X3025929Y-22624099D01*
X3012140Y-22649897D01*
X3003649Y-22677889D01*
X3000781Y-22707000D01*
X3003649Y-22736111D01*
X3012140Y-22764103D01*
X3025929Y-22789901D01*
X3044487Y-22812513D01*
X3067099Y-22831071D01*
X3072579Y-22834000D01*
X3067099Y-22836929D01*
X3044487Y-22855487D01*
X3025929Y-22878099D01*
X3012140Y-22903897D01*
X3003649Y-22931889D01*
X3000781Y-22961000D01*
X3003649Y-22990111D01*
X3012140Y-23018103D01*
X3025929Y-23043901D01*
X3044487Y-23066513D01*
X3067099Y-23085071D01*
X3072579Y-23088000D01*
X3067099Y-23090929D01*
X3044487Y-23109487D01*
X3025929Y-23132099D01*
X3012140Y-23157897D01*
X3003649Y-23185889D01*
X3000781Y-23215000D01*
X3003649Y-23244111D01*
X3012140Y-23272103D01*
X3025929Y-23297901D01*
X3044487Y-23320513D01*
X3067099Y-23339071D01*
X3072579Y-23342000D01*
X3067099Y-23344929D01*
X3044487Y-23363487D01*
X3025929Y-23386099D01*
X3012140Y-23411897D01*
X3003649Y-23439889D01*
X3000781Y-23469000D01*
X3003649Y-23498111D01*
X3012140Y-23526103D01*
X3025929Y-23551901D01*
X3044487Y-23574513D01*
X3067099Y-23593071D01*
X3072579Y-23596000D01*
X3067099Y-23598929D01*
X3044487Y-23617487D01*
X3025929Y-23640099D01*
X3012140Y-23665897D01*
X3003649Y-23693889D01*
X3000781Y-23723000D01*
X3003649Y-23752111D01*
X3012140Y-23780103D01*
X3025929Y-23805901D01*
X3044487Y-23828513D01*
X3067099Y-23847071D01*
X3072579Y-23850000D01*
X3067099Y-23852929D01*
X3044487Y-23871487D01*
X3025929Y-23894099D01*
X3012140Y-23919897D01*
X3003649Y-23947889D01*
X3000781Y-23977000D01*
X3003649Y-24006111D01*
X3012140Y-24034103D01*
X3025929Y-24059901D01*
X3044487Y-24082513D01*
X3067099Y-24101071D01*
X3072579Y-24104000D01*
X3067099Y-24106929D01*
X3044487Y-24125487D01*
X3025929Y-24148099D01*
X3012140Y-24173897D01*
X3003649Y-24201889D01*
X3000781Y-24231000D01*
X3003649Y-24260111D01*
X3012140Y-24288103D01*
X3025929Y-24313901D01*
X3044487Y-24336513D01*
X3067099Y-24355071D01*
X3072579Y-24358000D01*
X3067099Y-24360929D01*
X3044487Y-24379487D01*
X3025929Y-24402099D01*
X3012140Y-24427897D01*
X3003649Y-24455889D01*
X3000781Y-24485000D01*
X3003649Y-24514111D01*
X3012140Y-24542103D01*
X3025929Y-24567901D01*
X3044487Y-24590513D01*
X3067099Y-24609071D01*
X3072579Y-24612000D01*
X3067099Y-24614929D01*
X3044487Y-24633487D01*
X3025929Y-24656099D01*
X3012140Y-24681897D01*
X3003649Y-24709889D01*
X3000781Y-24739000D01*
X3003649Y-24768111D01*
X3012140Y-24796103D01*
X3025929Y-24821901D01*
X3044487Y-24844513D01*
X3067099Y-24863071D01*
X3072579Y-24866000D01*
X3067099Y-24868929D01*
X3044487Y-24887487D01*
X3025929Y-24910099D01*
X3012140Y-24935897D01*
X3003649Y-24963889D01*
X3000781Y-24993000D01*
X3003649Y-25022111D01*
X3012140Y-25050103D01*
X3025929Y-25075901D01*
X3044487Y-25098513D01*
X3067099Y-25117071D01*
X3072579Y-25120000D01*
X3067099Y-25122929D01*
X3044487Y-25141487D01*
X3025929Y-25164099D01*
X3012140Y-25189897D01*
X3003649Y-25217889D01*
X3000781Y-25247000D01*
X3003649Y-25276111D01*
X3012140Y-25304103D01*
X3025929Y-25329901D01*
X3044487Y-25352513D01*
X3067099Y-25371071D01*
X3072579Y-25374000D01*
X3067099Y-25376929D01*
X3044487Y-25395487D01*
X3025929Y-25418099D01*
X3012140Y-25443897D01*
X3003649Y-25471889D01*
X3000781Y-25501000D01*
X3003649Y-25530111D01*
X3012140Y-25558103D01*
X3025929Y-25583901D01*
X3044487Y-25606513D01*
X3067099Y-25625071D01*
X3092897Y-25638860D01*
X3120889Y-25647351D01*
X3142705Y-25649500D01*
X3157295Y-25649500D01*
X3179111Y-25647351D01*
X3207103Y-25638860D01*
X3232901Y-25625071D01*
X3255513Y-25606513D01*
X3274071Y-25583901D01*
X3277000Y-25578421D01*
X3279929Y-25583901D01*
X3298487Y-25606513D01*
X3321099Y-25625071D01*
X3346897Y-25638860D01*
X3374889Y-25647351D01*
X3396705Y-25649500D01*
X3411295Y-25649500D01*
X3433111Y-25647351D01*
X3461103Y-25638860D01*
X3486901Y-25625071D01*
X3509513Y-25606513D01*
X3528071Y-25583901D01*
X3541860Y-25558103D01*
X3550351Y-25530111D01*
X3553218Y-25501000D01*
X3550351Y-25471889D01*
X3541860Y-25443897D01*
X3528071Y-25418099D01*
X3509513Y-25395487D01*
X3486901Y-25376929D01*
X3481421Y-25374000D01*
X3486901Y-25371071D01*
X3509513Y-25352513D01*
X3528071Y-25329901D01*
X3541860Y-25304103D01*
X3550351Y-25276111D01*
X3553218Y-25247000D01*
X3550351Y-25217889D01*
X3541860Y-25189897D01*
X3528071Y-25164099D01*
X3509513Y-25141487D01*
X3486901Y-25122929D01*
X3481421Y-25120000D01*
X3486901Y-25117071D01*
X3509513Y-25098513D01*
X3528071Y-25075901D01*
X3541860Y-25050103D01*
X3550351Y-25022111D01*
X3553218Y-24993000D01*
X3550351Y-24963889D01*
X3541860Y-24935897D01*
X3528071Y-24910099D01*
X3509513Y-24887487D01*
X3486901Y-24868929D01*
X3481421Y-24866000D01*
X3486901Y-24863071D01*
X3509513Y-24844513D01*
X3528071Y-24821901D01*
X3541860Y-24796103D01*
X3550351Y-24768111D01*
X3553218Y-24739000D01*
X3550351Y-24709889D01*
X3541860Y-24681897D01*
X3528071Y-24656099D01*
X3509513Y-24633487D01*
X3486901Y-24614929D01*
X3481421Y-24612000D01*
X3486901Y-24609071D01*
X3509513Y-24590513D01*
X3528071Y-24567901D01*
X3541860Y-24542103D01*
X3550351Y-24514111D01*
X3553218Y-24485000D01*
X3550351Y-24455889D01*
X3541860Y-24427897D01*
X3528071Y-24402099D01*
X3509513Y-24379487D01*
X3486901Y-24360929D01*
X3480448Y-24357480D01*
X3492135Y-24350518D01*
X3513759Y-24331027D01*
X3531164Y-24307692D01*
X3543682Y-24281410D01*
X3548148Y-24266689D01*
X3536015Y-24243700D01*
X3416700Y-24243700D01*
X3416700Y-24245700D01*
X3391300Y-24245700D01*
X3391300Y-24243700D01*
X3389300Y-24243700D01*
X3389300Y-24218300D01*
X3391300Y-24218300D01*
X3391300Y-24216300D01*
X3416700Y-24216300D01*
X3416700Y-24218300D01*
X3536015Y-24218300D01*
X3548148Y-24195311D01*
X3543682Y-24180590D01*
X3531164Y-24154308D01*
X3513759Y-24130973D01*
X3492135Y-24111482D01*
X3480448Y-24104520D01*
X3486901Y-24101071D01*
X3509513Y-24082513D01*
X3528071Y-24059901D01*
X3541860Y-24034103D01*
X3550351Y-24006111D01*
X3553218Y-23977000D01*
X3550351Y-23947889D01*
X3541860Y-23919897D01*
X3528071Y-23894099D01*
X3509513Y-23871487D01*
X3486901Y-23852929D01*
X3481421Y-23850000D01*
X3486901Y-23847071D01*
X3509513Y-23828513D01*
X3528071Y-23805901D01*
X3541860Y-23780103D01*
X3550351Y-23752111D01*
X3553218Y-23723000D01*
X3550351Y-23693889D01*
X3541860Y-23665897D01*
X3528071Y-23640099D01*
X3509513Y-23617487D01*
X3486901Y-23598929D01*
X3481421Y-23596000D01*
X3486901Y-23593071D01*
X3509513Y-23574513D01*
X3528071Y-23551901D01*
X3541860Y-23526103D01*
X3550351Y-23498111D01*
X3553218Y-23469000D01*
X3550351Y-23439889D01*
X3541860Y-23411897D01*
X3528071Y-23386099D01*
X3509513Y-23363487D01*
X3486901Y-23344929D01*
X3481421Y-23342000D01*
X3486901Y-23339071D01*
X3509513Y-23320513D01*
X3528071Y-23297901D01*
X3541860Y-23272103D01*
X3550351Y-23244111D01*
X3553218Y-23215000D01*
X3550351Y-23185889D01*
X3541860Y-23157897D01*
X3528071Y-23132099D01*
X3509513Y-23109487D01*
X3486901Y-23090929D01*
X3481421Y-23088000D01*
X3486901Y-23085071D01*
X3509513Y-23066513D01*
X3528071Y-23043901D01*
X3541860Y-23018103D01*
X3550351Y-22990111D01*
X3553218Y-22961000D01*
X3550351Y-22931889D01*
X3541860Y-22903897D01*
X3528071Y-22878099D01*
X3509513Y-22855487D01*
X3486901Y-22836929D01*
X3481421Y-22834000D01*
X3486901Y-22831071D01*
X3509513Y-22812513D01*
X3528071Y-22789901D01*
X3541860Y-22764103D01*
X3550351Y-22736111D01*
X3553218Y-22707000D01*
X3550351Y-22677889D01*
X3541860Y-22649897D01*
X3528071Y-22624099D01*
X3509513Y-22601487D01*
X3486901Y-22582929D01*
X3481421Y-22580000D01*
X3486901Y-22577071D01*
X3509513Y-22558513D01*
X3528071Y-22535901D01*
X3541860Y-22510103D01*
X3550351Y-22482111D01*
X3553218Y-22453000D01*
X3550351Y-22423889D01*
X3541860Y-22395897D01*
X3528071Y-22370099D01*
X3509513Y-22347487D01*
X3486901Y-22328929D01*
X3481421Y-22326000D01*
X3486901Y-22323071D01*
X3509513Y-22304513D01*
X3528071Y-22281901D01*
X3541860Y-22256103D01*
X3550351Y-22228111D01*
X3553218Y-22199000D01*
X3550351Y-22169889D01*
X3541860Y-22141897D01*
X3528071Y-22116099D01*
X3509513Y-22093487D01*
X3486901Y-22074929D01*
X3480448Y-22071480D01*
X3492135Y-22064518D01*
X3513759Y-22045027D01*
X3531164Y-22021692D01*
X3543682Y-21995410D01*
X3548148Y-21980689D01*
X3536015Y-21957700D01*
X3416700Y-21957700D01*
X3416700Y-21959700D01*
X3391300Y-21959700D01*
X3391300Y-21957700D01*
X3389300Y-21957700D01*
X3389300Y-21932300D01*
X3391300Y-21932300D01*
X3391300Y-21930300D01*
X3416700Y-21930300D01*
X3416700Y-21932300D01*
X3536015Y-21932300D01*
X3548148Y-21909311D01*
X3543682Y-21894590D01*
X3531164Y-21868308D01*
X3513759Y-21844973D01*
X3492135Y-21825482D01*
X3480448Y-21818520D01*
X3486901Y-21815071D01*
X3509513Y-21796513D01*
X3528071Y-21773901D01*
X3541648Y-21748500D01*
X3571389Y-21748500D01*
X3575000Y-21748856D01*
X3578610Y-21748500D01*
X3589408Y-21747437D01*
X3603263Y-21743234D01*
X3616032Y-21736409D01*
X3627224Y-21727224D01*
X3629526Y-21724419D01*
X4424945Y-20929000D01*
X5032782Y-20929000D01*
X5035649Y-20958111D01*
X5044140Y-20986103D01*
X5057929Y-21011901D01*
X5076487Y-21034513D01*
X5099099Y-21053071D01*
X5104579Y-21056000D01*
X5099099Y-21058929D01*
X5076487Y-21077487D01*
X5057929Y-21100099D01*
X5044140Y-21125897D01*
X5035649Y-21153889D01*
X5032782Y-21183000D01*
X5035649Y-21212111D01*
X5044140Y-21240103D01*
X5057929Y-21265901D01*
X5076487Y-21288513D01*
X5099099Y-21307071D01*
X5104579Y-21310000D01*
X5099099Y-21312929D01*
X5076487Y-21331487D01*
X5057929Y-21354099D01*
X5044140Y-21379897D01*
X5035649Y-21407889D01*
X5032782Y-21437000D01*
X5035649Y-21466111D01*
X5044140Y-21494103D01*
X5057929Y-21519901D01*
X5076487Y-21542513D01*
X5099099Y-21561071D01*
X5104579Y-21564000D01*
X5099099Y-21566929D01*
X5076487Y-21585487D01*
X5057929Y-21608099D01*
X5044140Y-21633897D01*
X5035649Y-21661889D01*
X5032782Y-21691000D01*
X5035649Y-21720111D01*
X5044140Y-21748103D01*
X5057929Y-21773901D01*
X5076487Y-21796513D01*
X5099099Y-21815071D01*
X5104579Y-21818000D01*
X5099099Y-21820929D01*
X5076487Y-21839487D01*
X5057929Y-21862099D01*
X5044140Y-21887897D01*
X5035649Y-21915889D01*
X5032782Y-21945000D01*
X5035649Y-21974111D01*
X5044140Y-22002103D01*
X5057929Y-22027901D01*
X5076487Y-22050513D01*
X5099099Y-22069071D01*
X5104579Y-22072000D01*
X5099099Y-22074929D01*
X5076487Y-22093487D01*
X5057929Y-22116099D01*
X5044140Y-22141897D01*
X5035649Y-22169889D01*
X5032782Y-22199000D01*
X5035649Y-22228111D01*
X5044140Y-22256103D01*
X5057929Y-22281901D01*
X5076487Y-22304513D01*
X5099099Y-22323071D01*
X5104579Y-22326000D01*
X5099099Y-22328929D01*
X5076487Y-22347487D01*
X5057929Y-22370099D01*
X5044140Y-22395897D01*
X5035649Y-22423889D01*
X5032782Y-22453000D01*
X5035649Y-22482111D01*
X5044140Y-22510103D01*
X5057929Y-22535901D01*
X5076487Y-22558513D01*
X5099099Y-22577071D01*
X5104579Y-22580000D01*
X5099099Y-22582929D01*
X5076487Y-22601487D01*
X5057929Y-22624099D01*
X5044140Y-22649897D01*
X5035649Y-22677889D01*
X5032782Y-22707000D01*
X5035649Y-22736111D01*
X5044140Y-22764103D01*
X5057929Y-22789901D01*
X5076487Y-22812513D01*
X5099099Y-22831071D01*
X5104579Y-22834000D01*
X5099099Y-22836929D01*
X5076487Y-22855487D01*
X5057929Y-22878099D01*
X5044140Y-22903897D01*
X5035649Y-22931889D01*
X5032782Y-22961000D01*
X5035649Y-22990111D01*
X5044140Y-23018103D01*
X5057929Y-23043901D01*
X5076487Y-23066513D01*
X5099099Y-23085071D01*
X5104579Y-23088000D01*
X5099099Y-23090929D01*
X5076487Y-23109487D01*
X5057929Y-23132099D01*
X5044140Y-23157897D01*
X5035649Y-23185889D01*
X5032782Y-23215000D01*
X5035649Y-23244111D01*
X5044140Y-23272103D01*
X5057929Y-23297901D01*
X5076487Y-23320513D01*
X5099099Y-23339071D01*
X5104579Y-23342000D01*
X5099099Y-23344929D01*
X5076487Y-23363487D01*
X5057929Y-23386099D01*
X5044140Y-23411897D01*
X5035649Y-23439889D01*
X5032782Y-23469000D01*
X5035649Y-23498111D01*
X5044140Y-23526103D01*
X5057929Y-23551901D01*
X5076487Y-23574513D01*
X5099099Y-23593071D01*
X5104579Y-23596000D01*
X5099099Y-23598929D01*
X5076487Y-23617487D01*
X5057929Y-23640099D01*
X5044140Y-23665897D01*
X5035649Y-23693889D01*
X5032782Y-23723000D01*
X5035649Y-23752111D01*
X5044140Y-23780103D01*
X5057929Y-23805901D01*
X5076487Y-23828513D01*
X5099099Y-23847071D01*
X5104579Y-23850000D01*
X5099099Y-23852929D01*
X5076487Y-23871487D01*
X5057929Y-23894099D01*
X5044140Y-23919897D01*
X5035649Y-23947889D01*
X5032782Y-23977000D01*
X5035649Y-24006111D01*
X5044140Y-24034103D01*
X5057929Y-24059901D01*
X5076487Y-24082513D01*
X5099099Y-24101071D01*
X5104579Y-24104000D01*
X5099099Y-24106929D01*
X5076487Y-24125487D01*
X5057929Y-24148099D01*
X5044140Y-24173897D01*
X5035649Y-24201889D01*
X5032782Y-24231000D01*
X5035649Y-24260111D01*
X5044140Y-24288103D01*
X5057929Y-24313901D01*
X5076487Y-24336513D01*
X5099099Y-24355071D01*
X5104579Y-24358000D01*
X5099099Y-24360929D01*
X5076487Y-24379487D01*
X5057929Y-24402099D01*
X5044140Y-24427897D01*
X5035649Y-24455889D01*
X5032782Y-24485000D01*
X5035649Y-24514111D01*
X5044140Y-24542103D01*
X5057929Y-24567901D01*
X5076487Y-24590513D01*
X5099099Y-24609071D01*
X5104579Y-24612000D01*
X5099099Y-24614929D01*
X5076487Y-24633487D01*
X5057929Y-24656099D01*
X5044140Y-24681897D01*
X5035649Y-24709889D01*
X5032782Y-24739000D01*
X5035649Y-24768111D01*
X5044140Y-24796103D01*
X5057929Y-24821901D01*
X5076487Y-24844513D01*
X5099099Y-24863071D01*
X5104579Y-24866000D01*
X5099099Y-24868929D01*
X5076487Y-24887487D01*
X5057929Y-24910099D01*
X5044140Y-24935897D01*
X5035649Y-24963889D01*
X5032782Y-24993000D01*
X5035649Y-25022111D01*
X5044140Y-25050103D01*
X5057929Y-25075901D01*
X5076487Y-25098513D01*
X5099099Y-25117071D01*
X5104579Y-25120000D01*
X5099099Y-25122929D01*
X5076487Y-25141487D01*
X5057929Y-25164099D01*
X5044140Y-25189897D01*
X5035649Y-25217889D01*
X5032782Y-25247000D01*
X5035649Y-25276111D01*
X5044140Y-25304103D01*
X5057929Y-25329901D01*
X5076487Y-25352513D01*
X5099099Y-25371071D01*
X5104579Y-25374000D01*
X5099099Y-25376929D01*
X5076487Y-25395487D01*
X5057929Y-25418099D01*
X5044140Y-25443897D01*
X5035649Y-25471889D01*
X5032782Y-25501000D01*
X5035649Y-25530111D01*
X5044140Y-25558103D01*
X5057929Y-25583901D01*
X5076487Y-25606513D01*
X5099099Y-25625071D01*
X5124897Y-25638860D01*
X5152889Y-25647351D01*
X5174705Y-25649500D01*
X5189295Y-25649500D01*
X5211111Y-25647351D01*
X5239103Y-25638860D01*
X5264901Y-25625071D01*
X5287513Y-25606513D01*
X5306071Y-25583901D01*
X5309000Y-25578421D01*
X5311929Y-25583901D01*
X5330487Y-25606513D01*
X5353099Y-25625071D01*
X5378897Y-25638860D01*
X5406889Y-25647351D01*
X5428705Y-25649500D01*
X5443295Y-25649500D01*
X5465111Y-25647351D01*
X5493103Y-25638860D01*
X5518901Y-25625071D01*
X5541513Y-25606513D01*
X5560071Y-25583901D01*
X5573860Y-25558103D01*
X5582351Y-25530111D01*
X5585219Y-25501000D01*
X5582351Y-25471889D01*
X5573860Y-25443897D01*
X5560071Y-25418099D01*
X5541513Y-25395487D01*
X5518901Y-25376929D01*
X5513421Y-25374000D01*
X5518901Y-25371071D01*
X5541513Y-25352513D01*
X5560071Y-25329901D01*
X5573860Y-25304103D01*
X5582351Y-25276111D01*
X5585219Y-25247000D01*
X5582351Y-25217889D01*
X5573860Y-25189897D01*
X5560071Y-25164099D01*
X5541513Y-25141487D01*
X5518901Y-25122929D01*
X5513421Y-25120000D01*
X5518901Y-25117071D01*
X5541513Y-25098513D01*
X5560071Y-25075901D01*
X5573860Y-25050103D01*
X5582351Y-25022111D01*
X5585219Y-24993000D01*
X5582351Y-24963889D01*
X5573860Y-24935897D01*
X5560071Y-24910099D01*
X5541513Y-24887487D01*
X5518901Y-24868929D01*
X5513421Y-24866000D01*
X5518901Y-24863071D01*
X5541513Y-24844513D01*
X5560071Y-24821901D01*
X5573860Y-24796103D01*
X5582351Y-24768111D01*
X5585219Y-24739000D01*
X5582351Y-24709889D01*
X5573860Y-24681897D01*
X5560071Y-24656099D01*
X5541513Y-24633487D01*
X5518901Y-24614929D01*
X5513421Y-24612000D01*
X5518901Y-24609071D01*
X5541513Y-24590513D01*
X5560071Y-24567901D01*
X5573860Y-24542103D01*
X5582351Y-24514111D01*
X5585219Y-24485000D01*
X5582351Y-24455889D01*
X5573860Y-24427897D01*
X5560071Y-24402099D01*
X5541513Y-24379487D01*
X5518901Y-24360929D01*
X5512448Y-24357480D01*
X5524136Y-24350518D01*
X5545759Y-24331027D01*
X5563164Y-24307692D01*
X5575683Y-24281410D01*
X5580148Y-24266689D01*
X5568016Y-24243700D01*
X5448700Y-24243700D01*
X5448700Y-24245700D01*
X5423300Y-24245700D01*
X5423300Y-24243700D01*
X5421300Y-24243700D01*
X5421300Y-24218300D01*
X5423300Y-24218300D01*
X5423300Y-24216300D01*
X5448700Y-24216300D01*
X5448700Y-24218300D01*
X5568016Y-24218300D01*
X5580148Y-24195311D01*
X5575683Y-24180590D01*
X5563164Y-24154308D01*
X5545759Y-24130973D01*
X5524136Y-24111482D01*
X5512448Y-24104520D01*
X5518901Y-24101071D01*
X5541513Y-24082513D01*
X5560071Y-24059901D01*
X5573860Y-24034103D01*
X5582351Y-24006111D01*
X5585219Y-23977000D01*
X5582351Y-23947889D01*
X5573860Y-23919897D01*
X5560071Y-23894099D01*
X5541513Y-23871487D01*
X5518901Y-23852929D01*
X5513421Y-23850000D01*
X5518901Y-23847071D01*
X5541513Y-23828513D01*
X5560071Y-23805901D01*
X5573860Y-23780103D01*
X5582351Y-23752111D01*
X5585219Y-23723000D01*
X5582351Y-23693889D01*
X5573860Y-23665897D01*
X5560071Y-23640099D01*
X5541513Y-23617487D01*
X5518901Y-23598929D01*
X5513421Y-23596000D01*
X5518901Y-23593071D01*
X5541513Y-23574513D01*
X5560071Y-23551901D01*
X5573860Y-23526103D01*
X5582351Y-23498111D01*
X5585219Y-23469000D01*
X5582351Y-23439889D01*
X5573860Y-23411897D01*
X5560071Y-23386099D01*
X5541513Y-23363487D01*
X5518901Y-23344929D01*
X5513421Y-23342000D01*
X5518901Y-23339071D01*
X5541513Y-23320513D01*
X5560071Y-23297901D01*
X5573860Y-23272103D01*
X5582351Y-23244111D01*
X5585219Y-23215000D01*
X5582351Y-23185889D01*
X5573860Y-23157897D01*
X5560071Y-23132099D01*
X5541513Y-23109487D01*
X5518901Y-23090929D01*
X5513421Y-23088000D01*
X5518901Y-23085071D01*
X5541513Y-23066513D01*
X5560071Y-23043901D01*
X5573860Y-23018103D01*
X5582351Y-22990111D01*
X5585219Y-22961000D01*
X5582351Y-22931889D01*
X5573860Y-22903897D01*
X5560071Y-22878099D01*
X5541513Y-22855487D01*
X5518901Y-22836929D01*
X5513421Y-22834000D01*
X5518901Y-22831071D01*
X5541513Y-22812513D01*
X5560071Y-22789901D01*
X5573860Y-22764103D01*
X5582351Y-22736111D01*
X5585219Y-22707000D01*
X5582351Y-22677889D01*
X5573860Y-22649897D01*
X5560071Y-22624099D01*
X5541513Y-22601487D01*
X5518901Y-22582929D01*
X5513421Y-22580000D01*
X5518901Y-22577071D01*
X5541513Y-22558513D01*
X5560071Y-22535901D01*
X5573860Y-22510103D01*
X5582351Y-22482111D01*
X5585219Y-22453000D01*
X5582351Y-22423889D01*
X5573860Y-22395897D01*
X5560071Y-22370099D01*
X5541513Y-22347487D01*
X5518901Y-22328929D01*
X5513421Y-22326000D01*
X5518901Y-22323071D01*
X5541513Y-22304513D01*
X5560071Y-22281901D01*
X5573860Y-22256103D01*
X5582351Y-22228111D01*
X5585219Y-22199000D01*
X5582351Y-22169889D01*
X5573860Y-22141897D01*
X5560071Y-22116099D01*
X5541513Y-22093487D01*
X5518901Y-22074929D01*
X5512448Y-22071480D01*
X5524136Y-22064518D01*
X5545759Y-22045027D01*
X5563164Y-22021692D01*
X5575683Y-21995410D01*
X5580148Y-21980689D01*
X5568016Y-21957700D01*
X5448700Y-21957700D01*
X5448700Y-21959700D01*
X5423300Y-21959700D01*
X5423300Y-21957700D01*
X5421300Y-21957700D01*
X5421300Y-21932300D01*
X5423300Y-21932300D01*
X5423300Y-21930300D01*
X5448700Y-21930300D01*
X5448700Y-21932300D01*
X5568016Y-21932300D01*
X5580148Y-21909311D01*
X5575683Y-21894590D01*
X5563164Y-21868308D01*
X5545759Y-21844973D01*
X5524136Y-21825482D01*
X5512448Y-21818520D01*
X5518901Y-21815071D01*
X5541513Y-21796513D01*
X5560071Y-21773901D01*
X5573860Y-21748103D01*
X5582351Y-21720111D01*
X5585219Y-21691000D01*
X5582351Y-21661889D01*
X5573860Y-21633897D01*
X5560071Y-21608099D01*
X5541513Y-21585487D01*
X5518901Y-21566929D01*
X5513421Y-21564000D01*
X5518901Y-21561071D01*
X5541513Y-21542513D01*
X5560071Y-21519901D01*
X5573860Y-21494103D01*
X5582351Y-21466111D01*
X5585219Y-21437000D01*
X5582351Y-21407889D01*
X5573860Y-21379897D01*
X5560071Y-21354099D01*
X5541513Y-21331487D01*
X5518901Y-21312929D01*
X5513421Y-21310000D01*
X5518901Y-21307071D01*
X5541513Y-21288513D01*
X5560071Y-21265901D01*
X5573860Y-21240103D01*
X5582351Y-21212111D01*
X5585219Y-21183000D01*
X5582351Y-21153889D01*
X5573860Y-21125897D01*
X5560071Y-21100099D01*
X5541513Y-21077487D01*
X5518901Y-21058929D01*
X5513421Y-21056000D01*
X5518901Y-21053071D01*
X5541513Y-21034513D01*
X5560071Y-21011901D01*
X5573860Y-20986103D01*
X5582351Y-20958111D01*
X5585219Y-20929000D01*
X5582351Y-20899889D01*
X5573860Y-20871897D01*
X5560071Y-20846099D01*
X5541513Y-20823487D01*
X5518901Y-20804929D01*
X5513421Y-20802000D01*
X5518901Y-20799071D01*
X5541513Y-20780513D01*
X5560071Y-20757901D01*
X5573860Y-20732103D01*
X5582351Y-20704111D01*
X5585219Y-20675000D01*
X5582351Y-20645889D01*
X5573860Y-20617897D01*
X5560071Y-20592099D01*
X5541513Y-20569487D01*
X5518901Y-20550929D01*
X5493103Y-20537140D01*
X5465111Y-20528649D01*
X5443295Y-20526500D01*
X5428705Y-20526500D01*
X5406889Y-20528649D01*
X5378897Y-20537140D01*
X5353099Y-20550929D01*
X5330487Y-20569487D01*
X5328039Y-20572469D01*
X5325950Y-20565582D01*
X5320054Y-20554551D01*
X5312119Y-20544882D01*
X5302449Y-20536946D01*
X5291418Y-20531050D01*
X5279448Y-20527419D01*
X5267000Y-20526193D01*
X5097000Y-20526193D01*
X5084552Y-20527419D01*
X5072582Y-20531050D01*
X5061551Y-20536946D01*
X5051882Y-20544882D01*
X5043946Y-20554551D01*
X5038050Y-20565582D01*
X5034419Y-20577552D01*
X5033193Y-20590000D01*
X5033193Y-20760000D01*
X5034419Y-20772448D01*
X5038050Y-20784418D01*
X5043946Y-20795449D01*
X5051882Y-20805119D01*
X5061551Y-20813054D01*
X5072582Y-20818950D01*
X5079469Y-20821039D01*
X5076487Y-20823487D01*
X5057929Y-20846099D01*
X5044140Y-20871897D01*
X5035649Y-20899889D01*
X5032782Y-20929000D01*
X4424945Y-20929000D01*
X4524419Y-20829525D01*
X4527224Y-20827224D01*
X4536409Y-20816032D01*
X4543234Y-20803263D01*
X4547437Y-20789409D01*
X4548500Y-20778611D01*
X4548856Y-20775000D01*
X4548500Y-20771390D01*
X4548500Y-20255445D01*
X5267732Y-19536213D01*
X5275974Y-19541721D01*
X5294810Y-19549523D01*
X5314806Y-19553500D01*
X5335194Y-19553500D01*
X5355190Y-19549523D01*
X5374026Y-19541721D01*
X5390977Y-19530394D01*
X5405394Y-19515977D01*
X5416721Y-19499026D01*
X5424523Y-19480190D01*
X5428500Y-19460194D01*
X5428500Y-19439806D01*
X5424523Y-19419810D01*
X5416721Y-19400974D01*
X5405394Y-19384023D01*
X5390977Y-19369606D01*
X5374026Y-19358280D01*
X5355190Y-19350477D01*
X5335194Y-19346500D01*
X5314806Y-19346500D01*
X5294810Y-19350477D01*
X5275974Y-19358280D01*
X5259023Y-19369606D01*
X5252262Y-19376367D01*
X5250000Y-19376145D01*
X5246390Y-19376500D01*
X5246390Y-19376500D01*
X5237013Y-19377424D01*
X5235591Y-19377564D01*
X5231389Y-19378838D01*
X5221737Y-19381766D01*
X5208968Y-19388591D01*
X5197776Y-19397776D01*
X5195475Y-19400581D01*
X4425581Y-20170475D01*
X4422776Y-20172776D01*
X4413591Y-20183968D01*
X4406766Y-20196737D01*
X4406124Y-20198856D01*
X4402564Y-20210592D01*
X4401144Y-20225000D01*
X4401500Y-20228611D01*
X4401500Y-20744555D01*
X3544555Y-21601500D01*
X3522655Y-21601500D01*
X3509513Y-21585487D01*
X3486901Y-21566929D01*
X3481421Y-21564000D01*
X3486901Y-21561071D01*
X3509513Y-21542513D01*
X3528071Y-21519901D01*
X3541860Y-21494103D01*
X3550351Y-21466111D01*
X3553218Y-21437000D01*
X3550351Y-21407889D01*
X3541860Y-21379897D01*
X3528071Y-21354099D01*
X3509513Y-21331487D01*
X3486901Y-21312929D01*
X3481421Y-21310000D01*
X3486901Y-21307071D01*
X3509513Y-21288513D01*
X3528071Y-21265901D01*
X3541860Y-21240103D01*
X3550351Y-21212111D01*
X3553218Y-21183000D01*
X3550351Y-21153889D01*
X3547257Y-21143688D01*
X4065420Y-20625525D01*
X4068224Y-20623224D01*
X4070525Y-20620420D01*
X4070525Y-20620419D01*
X4077409Y-20612032D01*
X4081259Y-20604828D01*
X4084234Y-20599263D01*
X4088437Y-20585408D01*
X4089500Y-20574610D01*
X4089500Y-20574610D01*
X4089856Y-20571000D01*
X4089500Y-20567389D01*
X4089500Y-20096930D01*
X4089856Y-20093320D01*
X4088437Y-20078911D01*
X4086188Y-20071500D01*
X4084234Y-20065057D01*
X4077409Y-20052288D01*
X4068224Y-20041096D01*
X4065419Y-20038794D01*
X3802206Y-19775581D01*
X3799904Y-19772776D01*
X3788712Y-19763591D01*
X3775944Y-19756766D01*
X3762089Y-19752564D01*
X3751291Y-19751500D01*
X3747680Y-19751144D01*
X3744070Y-19751500D01*
X3698500Y-19751500D01*
X3698500Y-18925000D01*
X6935951Y-18925000D01*
X6938142Y-18947250D01*
X6944632Y-18968645D01*
X6955172Y-18988362D01*
X6969355Y-19005645D01*
X6986638Y-19019828D01*
X7006355Y-19030368D01*
X7027750Y-19036858D01*
X7044425Y-19038500D01*
X7065487Y-19038500D01*
X7192436Y-19165449D01*
X7205388Y-19176078D01*
X7225105Y-19186618D01*
X7246500Y-19193108D01*
X7268750Y-19195299D01*
X7291000Y-19193108D01*
X7312395Y-19186618D01*
X7332112Y-19176078D01*
X7349395Y-19161895D01*
X7363578Y-19144612D01*
X7374118Y-19124895D01*
X7380608Y-19103500D01*
X7382799Y-19081250D01*
X7380608Y-19059000D01*
X7374118Y-19037605D01*
X7369892Y-19029701D01*
X7388362Y-19019828D01*
X7405645Y-19005645D01*
X7409200Y-19001314D01*
X7559199Y-18851314D01*
X7569828Y-18838362D01*
X7580367Y-18818645D01*
X7586858Y-18797250D01*
X7589049Y-18775000D01*
X7586858Y-18752750D01*
X7580367Y-18731355D01*
X7569828Y-18711638D01*
X7555645Y-18694355D01*
X7538362Y-18680172D01*
X7518645Y-18669633D01*
X7497250Y-18663142D01*
X7475000Y-18660951D01*
X7452750Y-18663142D01*
X7431355Y-18669633D01*
X7411638Y-18680172D01*
X7398686Y-18690801D01*
X7277987Y-18811500D01*
X7118075Y-18811500D01*
X7112500Y-18810951D01*
X7106925Y-18811500D01*
X7044425Y-18811500D01*
X7027750Y-18813142D01*
X7006355Y-18819632D01*
X6986638Y-18830172D01*
X6969355Y-18844355D01*
X6955172Y-18861638D01*
X6944632Y-18881355D01*
X6938142Y-18902750D01*
X6935951Y-18925000D01*
X3698500Y-18925000D01*
X3698500Y-18774235D01*
X4368726Y-18774235D01*
X4380112Y-18802209D01*
X4411630Y-18817796D01*
X4445583Y-18826935D01*
X4480666Y-18829274D01*
X4515532Y-18824724D01*
X4548840Y-18813459D01*
X4569888Y-18802209D01*
X4581274Y-18774235D01*
X4475000Y-18667961D01*
X4368726Y-18774235D01*
X3698500Y-18774235D01*
X3698500Y-18655666D01*
X4295726Y-18655666D01*
X4300276Y-18690532D01*
X4311541Y-18723840D01*
X4322791Y-18744888D01*
X4350765Y-18756274D01*
X4457040Y-18650000D01*
X4492961Y-18650000D01*
X4599235Y-18756274D01*
X4627209Y-18744888D01*
X4642796Y-18713370D01*
X4651935Y-18679417D01*
X4654274Y-18644334D01*
X4649724Y-18609468D01*
X4638459Y-18576160D01*
X4627209Y-18555112D01*
X4599235Y-18543726D01*
X4492961Y-18650000D01*
X4457040Y-18650000D01*
X4350765Y-18543726D01*
X4322791Y-18555112D01*
X4307204Y-18586630D01*
X4298065Y-18620583D01*
X4295726Y-18655666D01*
X3698500Y-18655666D01*
X3698500Y-18525765D01*
X4368726Y-18525765D01*
X4475000Y-18632040D01*
X4581274Y-18525765D01*
X4569888Y-18497791D01*
X4538370Y-18482204D01*
X4504417Y-18473065D01*
X4469334Y-18470726D01*
X4434468Y-18475276D01*
X4401160Y-18486541D01*
X4380112Y-18497791D01*
X4368726Y-18525765D01*
X3698500Y-18525765D01*
X3698500Y-18282419D01*
X3796500Y-18282419D01*
X3796500Y-18317581D01*
X3803360Y-18352067D01*
X3816815Y-18384552D01*
X3836350Y-18413787D01*
X3861213Y-18438650D01*
X3890448Y-18458185D01*
X3922933Y-18471640D01*
X3957419Y-18478500D01*
X3992581Y-18478500D01*
X4027066Y-18471640D01*
X4059551Y-18458185D01*
X4071801Y-18450000D01*
X4810951Y-18450000D01*
X4811500Y-18455575D01*
X4811500Y-18730575D01*
X4813142Y-18747250D01*
X4819633Y-18768645D01*
X4830172Y-18788362D01*
X4844355Y-18805645D01*
X4861638Y-18819828D01*
X4881355Y-18830368D01*
X4902750Y-18836858D01*
X4925000Y-18839049D01*
X4947250Y-18836858D01*
X4968645Y-18830368D01*
X4988362Y-18819828D01*
X5005645Y-18805645D01*
X5019828Y-18788362D01*
X5030368Y-18768645D01*
X5036858Y-18747250D01*
X5038500Y-18730575D01*
X5038500Y-18497013D01*
X5887013Y-17648500D01*
X6119425Y-17648500D01*
X6125000Y-17649049D01*
X6130575Y-17648500D01*
X6130575Y-17648500D01*
X6147250Y-17646858D01*
X6168645Y-17640368D01*
X6188362Y-17629828D01*
X6205645Y-17615645D01*
X6219828Y-17598362D01*
X6230368Y-17578645D01*
X6236858Y-17557250D01*
X6239049Y-17535000D01*
X6236858Y-17512750D01*
X6230368Y-17491355D01*
X6219828Y-17471638D01*
X6205645Y-17454355D01*
X6201314Y-17450801D01*
X6053500Y-17302987D01*
X6053500Y-16874925D01*
X6051858Y-16858250D01*
X6045368Y-16836855D01*
X6034828Y-16817138D01*
X6020645Y-16799855D01*
X6003362Y-16785672D01*
X5983645Y-16775132D01*
X5962250Y-16768642D01*
X5940000Y-16766451D01*
X5917750Y-16768642D01*
X5896355Y-16775132D01*
X5876638Y-16785672D01*
X5859355Y-16799855D01*
X5845172Y-16817138D01*
X5834632Y-16836855D01*
X5828142Y-16858250D01*
X5826500Y-16874925D01*
X5826500Y-17344424D01*
X5825951Y-17350000D01*
X5828142Y-17372250D01*
X5834632Y-17393645D01*
X5834632Y-17393645D01*
X5845172Y-17413362D01*
X5851850Y-17421500D01*
X5845575Y-17421500D01*
X5840000Y-17420951D01*
X5834425Y-17421500D01*
X5817750Y-17423142D01*
X5796355Y-17429632D01*
X5776638Y-17440172D01*
X5759355Y-17454355D01*
X5755801Y-17458686D01*
X4848687Y-18365800D01*
X4844355Y-18369355D01*
X4830172Y-18386638D01*
X4821841Y-18402224D01*
X4819632Y-18406355D01*
X4813142Y-18427750D01*
X4810951Y-18450000D01*
X4071801Y-18450000D01*
X4088787Y-18438650D01*
X4113650Y-18413787D01*
X4133185Y-18384552D01*
X4146640Y-18352067D01*
X4153500Y-18317581D01*
X4153500Y-18282419D01*
X4146640Y-18247934D01*
X4133185Y-18215449D01*
X4113650Y-18186213D01*
X4088787Y-18161350D01*
X4059551Y-18141815D01*
X4027066Y-18128360D01*
X3992581Y-18121500D01*
X3957419Y-18121500D01*
X3922933Y-18128360D01*
X3890448Y-18141815D01*
X3861213Y-18161350D01*
X3836350Y-18186213D01*
X3816815Y-18215449D01*
X3803360Y-18247934D01*
X3796500Y-18282419D01*
X3698500Y-18282419D01*
X3698500Y-17682419D01*
X4296500Y-17682419D01*
X4296500Y-17717581D01*
X4303360Y-17752067D01*
X4316815Y-17784552D01*
X4336350Y-17813787D01*
X4361213Y-17838650D01*
X4390449Y-17858185D01*
X4422934Y-17871640D01*
X4457419Y-17878500D01*
X4492581Y-17878500D01*
X4527067Y-17871640D01*
X4559552Y-17858185D01*
X4588787Y-17838650D01*
X4613650Y-17813787D01*
X4633185Y-17784552D01*
X4646640Y-17752067D01*
X4653500Y-17717581D01*
X4653500Y-17682419D01*
X4646640Y-17647934D01*
X4633185Y-17615449D01*
X4613650Y-17586213D01*
X4588787Y-17561350D01*
X4559552Y-17541815D01*
X4527067Y-17528360D01*
X4492581Y-17521500D01*
X4457419Y-17521500D01*
X4422934Y-17528360D01*
X4390449Y-17541815D01*
X4361213Y-17561350D01*
X4336350Y-17586213D01*
X4316815Y-17615449D01*
X4303360Y-17647934D01*
X4296500Y-17682419D01*
X3698500Y-17682419D01*
X3698500Y-17332419D01*
X3796500Y-17332419D01*
X3796500Y-17367581D01*
X3803360Y-17402067D01*
X3816815Y-17434552D01*
X3836350Y-17463787D01*
X3861213Y-17488650D01*
X3890448Y-17508185D01*
X3922933Y-17521640D01*
X3957419Y-17528500D01*
X3992581Y-17528500D01*
X4027066Y-17521640D01*
X4059551Y-17508185D01*
X4088787Y-17488650D01*
X4113650Y-17463787D01*
X4133185Y-17434552D01*
X4146640Y-17402067D01*
X4153500Y-17367581D01*
X4153500Y-17332419D01*
X4146640Y-17297934D01*
X4133185Y-17265449D01*
X4113650Y-17236213D01*
X4088787Y-17211350D01*
X4059551Y-17191815D01*
X4027066Y-17178360D01*
X3992581Y-17171500D01*
X3957419Y-17171500D01*
X3922933Y-17178360D01*
X3890448Y-17191815D01*
X3861213Y-17211350D01*
X3836350Y-17236213D01*
X3816815Y-17265449D01*
X3803360Y-17297934D01*
X3796500Y-17332419D01*
X3698500Y-17332419D01*
X3698500Y-15905445D01*
X3759479Y-15844466D01*
X3777565Y-15840868D01*
X3794762Y-15833745D01*
X3810240Y-15823403D01*
X3823403Y-15810240D01*
X3833745Y-15794762D01*
X3840868Y-15777565D01*
X3844500Y-15759307D01*
X3844500Y-15740693D01*
X3840868Y-15722435D01*
X3833745Y-15705237D01*
X3823403Y-15689760D01*
X3810240Y-15676597D01*
X3794762Y-15666255D01*
X3777565Y-15659132D01*
X3759307Y-15655500D01*
X3740693Y-15655500D01*
X3722435Y-15659132D01*
X3705237Y-15666255D01*
X3700000Y-15669755D01*
X3694762Y-15666255D01*
X3677565Y-15659132D01*
X3659479Y-15655534D01*
X3604526Y-15600581D01*
X3602224Y-15597776D01*
X3591032Y-15588591D01*
X3578263Y-15581766D01*
X3564408Y-15577563D01*
X3553610Y-15576500D01*
X3550000Y-15576144D01*
X3546389Y-15576500D01*
X3503610Y-15576500D01*
X3500000Y-15576144D01*
X3485591Y-15577563D01*
X3471737Y-15581766D01*
X3458968Y-15588591D01*
X3447776Y-15597776D01*
X3445475Y-15600581D01*
X3350581Y-15695475D01*
X3347776Y-15697776D01*
X3338591Y-15708968D01*
X3337158Y-15711649D01*
X3331766Y-15721737D01*
X3327563Y-15735591D01*
X3326144Y-15750000D01*
X3326500Y-15753611D01*
X3326500Y-16102129D01*
X3319606Y-16109023D01*
X3308279Y-16125974D01*
X3300477Y-16144810D01*
X3296500Y-16164806D01*
X3296500Y-16185194D01*
X3300477Y-16205190D01*
X3308279Y-16224026D01*
X3319606Y-16240977D01*
X3334023Y-16255394D01*
X3350974Y-16266720D01*
X3369810Y-16274523D01*
X3389806Y-16278500D01*
X3410194Y-16278500D01*
X3430190Y-16274523D01*
X3449026Y-16266720D01*
X3465977Y-16255394D01*
X3476500Y-16244871D01*
X3476500Y-16601500D01*
X3472871Y-16601500D01*
X3465977Y-16594606D01*
X3449026Y-16583279D01*
X3430190Y-16575477D01*
X3410194Y-16571500D01*
X3389806Y-16571500D01*
X3369810Y-16575477D01*
X3350974Y-16583279D01*
X3334023Y-16594606D01*
X3319606Y-16609023D01*
X3308279Y-16625974D01*
X3300477Y-16644810D01*
X3296500Y-16664806D01*
X3296500Y-16685194D01*
X3300477Y-16705190D01*
X3308279Y-16724026D01*
X3319606Y-16740977D01*
X3334023Y-16755394D01*
X3350974Y-16766720D01*
X3369810Y-16774523D01*
X3389806Y-16778500D01*
X3410194Y-16778500D01*
X3430190Y-16774523D01*
X3449026Y-16766720D01*
X3465977Y-16755394D01*
X3472871Y-16748500D01*
X3476500Y-16748500D01*
X3476500Y-20071389D01*
X3476144Y-20075000D01*
X3477563Y-20089409D01*
X3481766Y-20103263D01*
X3488591Y-20116032D01*
X3497776Y-20127224D01*
X3500581Y-20129525D01*
X3546500Y-20175445D01*
X3546500Y-20185194D01*
X3550477Y-20205190D01*
X3558279Y-20224026D01*
X3569606Y-20240977D01*
X3584023Y-20255394D01*
X3600974Y-20266721D01*
X3619810Y-20274523D01*
X3639806Y-20278500D01*
X3660194Y-20278500D01*
X3680190Y-20274523D01*
X3699026Y-20266721D01*
X3715977Y-20255394D01*
X3730394Y-20240977D01*
X3741720Y-20224026D01*
X3749523Y-20205190D01*
X3753500Y-20185194D01*
X3753500Y-20164806D01*
X3749523Y-20144810D01*
X3741720Y-20125974D01*
X3731030Y-20109974D01*
X3795475Y-20174419D01*
X3797776Y-20177224D01*
X3800581Y-20179525D01*
X3808968Y-20186409D01*
X3821737Y-20193234D01*
X3835591Y-20197437D01*
X3850000Y-20198856D01*
X3853610Y-20198500D01*
X3877129Y-20198500D01*
X3884023Y-20205394D01*
X3900974Y-20216721D01*
X3919810Y-20224523D01*
X3939806Y-20228500D01*
X3942500Y-20228500D01*
X3942500Y-20540555D01*
X3553127Y-20929928D01*
X3553218Y-20929000D01*
X3550351Y-20899889D01*
X3541860Y-20871897D01*
X3528071Y-20846099D01*
X3509513Y-20823487D01*
X3486901Y-20804929D01*
X3481421Y-20802000D01*
X3486901Y-20799071D01*
X3509513Y-20780513D01*
X3528071Y-20757901D01*
X3541860Y-20732103D01*
X3550351Y-20704111D01*
X3553218Y-20675000D01*
X3550351Y-20645889D01*
X3541860Y-20617897D01*
X3528071Y-20592099D01*
X3509513Y-20569487D01*
X3486901Y-20550929D01*
X3461103Y-20537140D01*
X3433111Y-20528649D01*
X3411295Y-20526500D01*
X3396705Y-20526500D01*
X3374889Y-20528649D01*
X3346897Y-20537140D01*
X3321099Y-20550929D01*
X3298487Y-20569487D01*
X3296039Y-20572469D01*
X3293950Y-20565582D01*
X3288054Y-20554551D01*
X3280118Y-20544882D01*
X3270449Y-20536946D01*
X3259418Y-20531050D01*
X3247448Y-20527419D01*
X3235000Y-20526193D01*
X3065000Y-20526193D01*
X3052552Y-20527419D01*
X3040582Y-20531050D01*
X3029551Y-20536946D01*
X3019881Y-20544882D01*
X3011946Y-20554551D01*
X3006050Y-20565582D01*
X3002419Y-20577552D01*
X3001193Y-20590000D01*
X3001193Y-20760000D01*
X3002419Y-20772448D01*
X3006050Y-20784418D01*
X3011946Y-20795449D01*
X3019881Y-20805119D01*
X3029551Y-20813054D01*
X3040582Y-20818950D01*
X3047469Y-20821039D01*
X3044487Y-20823487D01*
X3025929Y-20846099D01*
X3012140Y-20871897D01*
X3003649Y-20899889D01*
X3000781Y-20929000D01*
X2962700Y-20929000D01*
X2962700Y-14239806D01*
X3896500Y-14239806D01*
X3896500Y-14260194D01*
X3900477Y-14280190D01*
X3908279Y-14299026D01*
X3919606Y-14315977D01*
X3934023Y-14330394D01*
X3950974Y-14341720D01*
X3969810Y-14349523D01*
X3989806Y-14353500D01*
X4010194Y-14353500D01*
X4030190Y-14349523D01*
X4049026Y-14341720D01*
X4065977Y-14330394D01*
X4080394Y-14315977D01*
X4091720Y-14299026D01*
X4099523Y-14280190D01*
X4103500Y-14260194D01*
X4103500Y-14239806D01*
X4099523Y-14219810D01*
X4091720Y-14200974D01*
X4080394Y-14184023D01*
X4065977Y-14169606D01*
X4049026Y-14158279D01*
X4030190Y-14150477D01*
X4010194Y-14146500D01*
X3989806Y-14146500D01*
X3969810Y-14150477D01*
X3950974Y-14158279D01*
X3934023Y-14169606D01*
X3919606Y-14184023D01*
X3908279Y-14200974D01*
X3900477Y-14219810D01*
X3896500Y-14239806D01*
X2962700Y-14239806D01*
X2962700Y-13430000D01*
X3805951Y-13430000D01*
X3808142Y-13452250D01*
X3814632Y-13473645D01*
X3814632Y-13473645D01*
X3825172Y-13493362D01*
X3839355Y-13510645D01*
X3843686Y-13514199D01*
X4035801Y-13706314D01*
X4039355Y-13710645D01*
X4056638Y-13724828D01*
X4076355Y-13735368D01*
X4092770Y-13740347D01*
X4097750Y-13741858D01*
X4120000Y-13744049D01*
X4125575Y-13743500D01*
X4137545Y-13743500D01*
X4143120Y-13744049D01*
X4148695Y-13743500D01*
X4148695Y-13743500D01*
X4165370Y-13741858D01*
X4186764Y-13735368D01*
X4206482Y-13724828D01*
X4215412Y-13717500D01*
X5306987Y-13717500D01*
X5638686Y-14049199D01*
X5651638Y-14059828D01*
X5671355Y-14070367D01*
X5692750Y-14076858D01*
X5715000Y-14079049D01*
X5737250Y-14076858D01*
X5758645Y-14070367D01*
X5778362Y-14059828D01*
X5795645Y-14045645D01*
X5809828Y-14028362D01*
X5820367Y-14008645D01*
X5826858Y-13987250D01*
X5829049Y-13965000D01*
X5826858Y-13942750D01*
X5820367Y-13921355D01*
X5809828Y-13901638D01*
X5799199Y-13888686D01*
X5438200Y-13527686D01*
X5434645Y-13523355D01*
X5417362Y-13509171D01*
X5397645Y-13498632D01*
X5376250Y-13492142D01*
X5359575Y-13490500D01*
X5359575Y-13490500D01*
X5354000Y-13489951D01*
X5348425Y-13490500D01*
X4174695Y-13490500D01*
X4169120Y-13489951D01*
X4163545Y-13490500D01*
X4146870Y-13492142D01*
X4143636Y-13493123D01*
X4033500Y-13382987D01*
X4033500Y-12624425D01*
X4031858Y-12607750D01*
X4025368Y-12586355D01*
X4014828Y-12566638D01*
X4000645Y-12549355D01*
X3983362Y-12535172D01*
X3963645Y-12524632D01*
X3942250Y-12518142D01*
X3920000Y-12515951D01*
X3897750Y-12518142D01*
X3876355Y-12524632D01*
X3856638Y-12535172D01*
X3839355Y-12549355D01*
X3825172Y-12566638D01*
X3814632Y-12586355D01*
X3808142Y-12607750D01*
X3806500Y-12624425D01*
X3806500Y-13424424D01*
X3805951Y-13430000D01*
X2962700Y-13430000D01*
X2962700Y-12474235D01*
X5118726Y-12474235D01*
X5130112Y-12502209D01*
X5161630Y-12517796D01*
X5195583Y-12526935D01*
X5230666Y-12529274D01*
X5265532Y-12524724D01*
X5298840Y-12513459D01*
X5319888Y-12502209D01*
X5331274Y-12474235D01*
X5225000Y-12367960D01*
X5118726Y-12474235D01*
X2962700Y-12474235D01*
X2962700Y-12355666D01*
X5045726Y-12355666D01*
X5050276Y-12390532D01*
X5061541Y-12423840D01*
X5072791Y-12444888D01*
X5100765Y-12456274D01*
X5207040Y-12350000D01*
X5242961Y-12350000D01*
X5349235Y-12456274D01*
X5377209Y-12444888D01*
X5392796Y-12413370D01*
X5401935Y-12379417D01*
X5402280Y-12374235D01*
X6443726Y-12374235D01*
X6455112Y-12402209D01*
X6486630Y-12417796D01*
X6520583Y-12426935D01*
X6555666Y-12429274D01*
X6590532Y-12424724D01*
X6623840Y-12413459D01*
X6644888Y-12402209D01*
X6656274Y-12374235D01*
X6550000Y-12267960D01*
X6443726Y-12374235D01*
X5402280Y-12374235D01*
X5404274Y-12344334D01*
X5399724Y-12309468D01*
X5388459Y-12276160D01*
X5377505Y-12255666D01*
X6370726Y-12255666D01*
X6375276Y-12290532D01*
X6386541Y-12323840D01*
X6397791Y-12344888D01*
X6425765Y-12356274D01*
X6532039Y-12250000D01*
X6567960Y-12250000D01*
X6674235Y-12356274D01*
X6702209Y-12344888D01*
X6717796Y-12313370D01*
X6726935Y-12279417D01*
X6729274Y-12244334D01*
X6724724Y-12209468D01*
X6713459Y-12176160D01*
X6702209Y-12155112D01*
X6674235Y-12143726D01*
X6567960Y-12250000D01*
X6532039Y-12250000D01*
X6425765Y-12143726D01*
X6397791Y-12155112D01*
X6382204Y-12186630D01*
X6373065Y-12220583D01*
X6370726Y-12255666D01*
X5377505Y-12255666D01*
X5377209Y-12255112D01*
X5349235Y-12243726D01*
X5242961Y-12350000D01*
X5207040Y-12350000D01*
X5100765Y-12243726D01*
X5072791Y-12255112D01*
X5057204Y-12286630D01*
X5048065Y-12320583D01*
X5045726Y-12355666D01*
X2962700Y-12355666D01*
X2962700Y-12225765D01*
X5118726Y-12225765D01*
X5225000Y-12332039D01*
X5331274Y-12225765D01*
X5319888Y-12197791D01*
X5288370Y-12182204D01*
X5254417Y-12173065D01*
X5219334Y-12170726D01*
X5184468Y-12175276D01*
X5151160Y-12186541D01*
X5130112Y-12197791D01*
X5118726Y-12225765D01*
X2962700Y-12225765D01*
X2962700Y-12125765D01*
X6443726Y-12125765D01*
X6550000Y-12232039D01*
X6656274Y-12125765D01*
X6644888Y-12097791D01*
X6613370Y-12082204D01*
X6579417Y-12073065D01*
X6544334Y-12070726D01*
X6509468Y-12075276D01*
X6476160Y-12086541D01*
X6455112Y-12097791D01*
X6443726Y-12125765D01*
X2962700Y-12125765D01*
X2962700Y-11845088D01*
X3022872Y-11845088D01*
X3058891Y-11894055D01*
X3125288Y-11930085D01*
X3197438Y-11952469D01*
X3272569Y-11960348D01*
X3347794Y-11953418D01*
X3420221Y-11931945D01*
X3487067Y-11896755D01*
X3491109Y-11894055D01*
X3527128Y-11845088D01*
X3514459Y-11832419D01*
X5396500Y-11832419D01*
X5396500Y-11867581D01*
X5403360Y-11902066D01*
X5416815Y-11934551D01*
X5436350Y-11963787D01*
X5461213Y-11988650D01*
X5490449Y-12008185D01*
X5522934Y-12021640D01*
X5557419Y-12028500D01*
X5592581Y-12028500D01*
X5627066Y-12021640D01*
X5659551Y-12008185D01*
X5688787Y-11988650D01*
X5713650Y-11963787D01*
X5733185Y-11934551D01*
X5746640Y-11902066D01*
X5753500Y-11867581D01*
X5753500Y-11832419D01*
X5746640Y-11797933D01*
X5733185Y-11765448D01*
X5713650Y-11736213D01*
X5709856Y-11732419D01*
X6721500Y-11732419D01*
X6721500Y-11767581D01*
X6728360Y-11802066D01*
X6741815Y-11834551D01*
X6761350Y-11863787D01*
X6786213Y-11888650D01*
X6815448Y-11908185D01*
X6847933Y-11921640D01*
X6882419Y-11928500D01*
X6917581Y-11928500D01*
X6952066Y-11921640D01*
X6984551Y-11908185D01*
X7013787Y-11888650D01*
X7038650Y-11863787D01*
X7058185Y-11834551D01*
X7071640Y-11802066D01*
X7078500Y-11767581D01*
X7078500Y-11732419D01*
X7071640Y-11697933D01*
X7058185Y-11665448D01*
X7038650Y-11636213D01*
X7013787Y-11611350D01*
X6984551Y-11591815D01*
X6952066Y-11578360D01*
X6917581Y-11571500D01*
X6882419Y-11571500D01*
X6847933Y-11578360D01*
X6815448Y-11591815D01*
X6786213Y-11611350D01*
X6761350Y-11636213D01*
X6741815Y-11665448D01*
X6728360Y-11697933D01*
X6721500Y-11732419D01*
X5709856Y-11732419D01*
X5688787Y-11711350D01*
X5659551Y-11691815D01*
X5627066Y-11678360D01*
X5592581Y-11671500D01*
X5557419Y-11671500D01*
X5522934Y-11678360D01*
X5490449Y-11691815D01*
X5461213Y-11711350D01*
X5436350Y-11736213D01*
X5416815Y-11765448D01*
X5403360Y-11797933D01*
X5396500Y-11832419D01*
X3514459Y-11832419D01*
X3275000Y-11592960D01*
X3022872Y-11845088D01*
X2962700Y-11845088D01*
X2962700Y-11796077D01*
X3004912Y-11827128D01*
X3257039Y-11575000D01*
X3292960Y-11575000D01*
X3545088Y-11827128D01*
X3594055Y-11791109D01*
X3630085Y-11724712D01*
X3652469Y-11652561D01*
X3660348Y-11577430D01*
X3653418Y-11502206D01*
X3631945Y-11429779D01*
X3596755Y-11362933D01*
X3594055Y-11358891D01*
X3545088Y-11322872D01*
X3292960Y-11575000D01*
X3257039Y-11575000D01*
X3004912Y-11322872D01*
X2962700Y-11353922D01*
X2962700Y-11262700D01*
X3053922Y-11262700D01*
X3022872Y-11304912D01*
G36*
X8810700Y-28112300D02*
G01*
X8812700Y-28112300D01*
X8812700Y-28137700D01*
X8810700Y-28137700D01*
X8810700Y-28139700D01*
X8785300Y-28139700D01*
X8785300Y-28137700D01*
X8783300Y-28137700D01*
X8783300Y-28112300D01*
X8785300Y-28112300D01*
X8785300Y-28110300D01*
X8810700Y-28110300D01*
X8810700Y-28112300D01*
X8810700Y-28112300D01*
G37*
X8810700Y-28112300D02*
X8812700Y-28112300D01*
X8812700Y-28137700D01*
X8810700Y-28137700D01*
X8810700Y-28139700D01*
X8785300Y-28139700D01*
X8785300Y-28137700D01*
X8783300Y-28137700D01*
X8783300Y-28112300D01*
X8785300Y-28112300D01*
X8785300Y-28110300D01*
X8810700Y-28110300D01*
X8810700Y-28112300D01*
G36*
X6778700Y-28112300D02*
G01*
X6780700Y-28112300D01*
X6780700Y-28137700D01*
X6778700Y-28137700D01*
X6778700Y-28139700D01*
X6753300Y-28139700D01*
X6753300Y-28137700D01*
X6751300Y-28137700D01*
X6751300Y-28112300D01*
X6753300Y-28112300D01*
X6753300Y-28110300D01*
X6778700Y-28110300D01*
X6778700Y-28112300D01*
X6778700Y-28112300D01*
G37*
X6778700Y-28112300D02*
X6780700Y-28112300D01*
X6780700Y-28137700D01*
X6778700Y-28137700D01*
X6778700Y-28139700D01*
X6753300Y-28139700D01*
X6753300Y-28137700D01*
X6751300Y-28137700D01*
X6751300Y-28112300D01*
X6753300Y-28112300D01*
X6753300Y-28110300D01*
X6778700Y-28110300D01*
X6778700Y-28112300D01*
G36*
X6895929Y-27953901D02*
G01*
X6914487Y-27976513D01*
X6937099Y-27995071D01*
X6942579Y-27998000D01*
X6937099Y-28000929D01*
X6914487Y-28019487D01*
X6895929Y-28042099D01*
X6892480Y-28048552D01*
X6885518Y-28036864D01*
X6866027Y-28015241D01*
X6843124Y-27998158D01*
X6848901Y-27995071D01*
X6871513Y-27976513D01*
X6890071Y-27953901D01*
X6893000Y-27948421D01*
X6895929Y-27953901D01*
X6895929Y-27953901D01*
G37*
X6895929Y-27953901D02*
X6914487Y-27976513D01*
X6937099Y-27995071D01*
X6942579Y-27998000D01*
X6937099Y-28000929D01*
X6914487Y-28019487D01*
X6895929Y-28042099D01*
X6892480Y-28048552D01*
X6885518Y-28036864D01*
X6866027Y-28015241D01*
X6843124Y-27998158D01*
X6848901Y-27995071D01*
X6871513Y-27976513D01*
X6890071Y-27953901D01*
X6893000Y-27948421D01*
X6895929Y-27953901D01*
G36*
X7154482Y-27959135D02*
G01*
X7173973Y-27980759D01*
X7196876Y-27997842D01*
X7191099Y-28000929D01*
X7168487Y-28019487D01*
X7149929Y-28042099D01*
X7147000Y-28047579D01*
X7144071Y-28042099D01*
X7125513Y-28019487D01*
X7102901Y-28000929D01*
X7097421Y-27998000D01*
X7102901Y-27995071D01*
X7125513Y-27976513D01*
X7144071Y-27953901D01*
X7147520Y-27947448D01*
X7154482Y-27959135D01*
X7154482Y-27959135D01*
G37*
X7154482Y-27959135D02*
X7173973Y-27980759D01*
X7196876Y-27997842D01*
X7191099Y-28000929D01*
X7168487Y-28019487D01*
X7149929Y-28042099D01*
X7147000Y-28047579D01*
X7144071Y-28042099D01*
X7125513Y-28019487D01*
X7102901Y-28000929D01*
X7097421Y-27998000D01*
X7102901Y-27995071D01*
X7125513Y-27976513D01*
X7144071Y-27953901D01*
X7147520Y-27947448D01*
X7154482Y-27959135D01*
M02*
