M48
; DRILL file {KiCad (5.1.4)-1} date 5/13/2020 12:34:12 PM
; FORMAT={3:3/ absolute / metric / suppress trailing zeros}
; #@! TF.CreationDate,2020-05-13T12:34:12-04:00
; #@! TF.GenerationSoftware,Kicad,Pcbnew,(5.1.4)-1
; #@! TF.FileFunction,Plated,1,2,PTH
FMAT,2
METRIC,LZ
T1C0.260
T2C0.400
T3C0.410
T4C0.500
T5C0.850
T6C1.000
T7C2.500
T8C3.200
%
G90
G05
T1
X0355Y-1575
X0365Y-1575
X0375Y-1575
X04875Y-1505
X04925Y-15325
X05125Y-1505
X06825Y-1885
X0705Y-18925
X071Y-185457
X071528Y-193722
X07175Y-20075
X072688Y-190813
X07475Y-18775
X077Y-185457
X08Y-19025
X08065Y-18275
T2
X032Y-1221
X03525Y-15025
X0365Y-20175
X0366Y-1267
X03695Y-1974
X03705Y-1923
X0392Y-1263
X0395Y-20125
X04Y-1403
X04Y-1425
X0405Y-2075
X0412Y-1363
X0422Y-1371
X0422Y-1331
X0456Y-1225
X0472Y-1451
X0476Y-1275
X04925Y-18725
X051Y-1687
X05115Y-1589
X05325Y-1945
X05715Y-13965
X05755Y-13685
X058985Y-176926
X0594Y-168805
X060075Y-176775
X06125Y-17535
X061728Y-176775
X063Y-156
X063Y-1575
X06375Y-15675
X0638Y-13395
X06575Y-1545
X06875Y-1425
X06975Y-156
X07265Y-17435
X07365Y-18135
X0768Y-1373
X0785Y-16275
X08225Y-27606
X0835Y-27606
X085Y-15575
X085Y-27606
X0865Y-27675
X08825Y-275
X09225Y-27475
X0925Y-27
X092715Y-25075
X0929Y-1551
X0929Y-1801
X0929Y-2051
X0929Y-2301
X09325Y-27575
X09563Y-15217
X09563Y-17717
X09563Y-20217
X09563Y-22717
X09675Y-276
X099Y-1465
X099Y-1715
X099Y-1965
X099Y-2215
X101Y-158
X101Y-183
X101Y-208
X101Y-233
X102Y-2455
X104Y-14075
X10625Y-1325
X11095Y-1198
X1134Y-13285
X11425Y-1337
X12895Y-14165
X12895Y-14345
X12895Y-16665
X12895Y-16845
X12895Y-19165
X12895Y-19345
X12895Y-21665
X12895Y-21845
T3
X034Y-16175
X034Y-16675
X035Y-1545
X04575Y-27825
X046Y-158
X0625Y-188
X066Y-15
X071Y-229
X077Y-16775
X08175Y-27225
X08425Y-2725
X09394Y-16
X09394Y-185
X09394Y-21
X09394Y-235
X10575Y-1415
X107Y-15825
X107Y-18325
X107Y-20825
X107Y-23325
X10725Y-16025
X10725Y-18525
X10725Y-21025
X10725Y-23525
X10775Y-1645
X10775Y-1895
X10775Y-2145
X1155Y-24985
X1155Y-25745
X11715Y-2479
T4
X03035Y-27925
X031053Y-277553
X031053Y-280947
X03275Y-27685
X03275Y-28165
X034447Y-277553
X034447Y-280947
X03515Y-27925
X12585Y-11575
X126553Y-114053
X126553Y-117447
X12825Y-11335
X12825Y-11815
X129947Y-114053
X129947Y-117447
X13065Y-11575
X12585Y-271
X126553Y-269303
X126553Y-272697
X12825Y-2686
X12825Y-2734
X129947Y-269303
X129947Y-272697
X13065Y-271
X03035Y-11575
X031053Y-114053
X031053Y-117447
X03275Y-11335
X03275Y-11815
X034447Y-114053
X034447Y-117447
X03515Y-11575
T5
X11475Y-26725
X11602Y-26471
X11729Y-26725
X11856Y-26471
X11983Y-26725
X1211Y-26471
T6
X0655Y-1225
X069Y-1175
X03975Y-183
X04475Y-1865
X0315Y-20675
X0315Y-20929
X0315Y-21183
X0315Y-21437
X0315Y-21691
X0315Y-21945
X0315Y-22199
X0315Y-22453
X0315Y-22707
X0315Y-22961
X0315Y-23215
X0315Y-23469
X0315Y-23723
X0315Y-23977
X0315Y-24231
X0315Y-24485
X0315Y-24739
X0315Y-24993
X0315Y-25247
X0315Y-25501
X03404Y-20675
X03404Y-20929
X03404Y-21183
X03404Y-21437
X03404Y-21691
X03404Y-21945
X03404Y-22199
X03404Y-22453
X03404Y-22707
X03404Y-22961
X03404Y-23215
X03404Y-23469
X03404Y-23723
X03404Y-23977
X03404Y-24231
X03404Y-24485
X03404Y-24739
X03404Y-24993
X03404Y-25247
X03404Y-25501
X1205Y-22975
X1255Y-23325
X0575Y-27871
X0575Y-28125
X06004Y-27871
X06004Y-28125
X06258Y-27871
X06258Y-28125
X06512Y-27871
X06512Y-28125
X06766Y-27871
X06766Y-28125
X0702Y-27871
X0702Y-28125
X07274Y-27871
X07274Y-28125
X07528Y-27871
X07528Y-28125
X07782Y-27871
X07782Y-28125
X08036Y-27871
X08036Y-28125
X0829Y-27871
X0829Y-28125
X08544Y-27871
X08544Y-28125
X08798Y-27871
X08798Y-28125
X09052Y-27871
X09052Y-28125
X09306Y-27871
X09306Y-28125
X0956Y-27871
X0956Y-28125
X09814Y-27871
X09814Y-28125
X10068Y-27871
X10068Y-28125
X10322Y-27871
X10322Y-28125
X10576Y-27871
X10576Y-28125
X04Y-27775
X0435Y-27275
X05182Y-20675
X05182Y-20929
X05182Y-21183
X05182Y-21437
X05182Y-21691
X05182Y-21945
X05182Y-22199
X05182Y-22453
X05182Y-22707
X05182Y-22961
X05182Y-23215
X05182Y-23469
X05182Y-23723
X05182Y-23977
X05182Y-24231
X05182Y-24485
X05182Y-24739
X05182Y-24993
X05182Y-25247
X05182Y-25501
X05436Y-20675
X05436Y-20929
X05436Y-21183
X05436Y-21437
X05436Y-21691
X05436Y-21945
X05436Y-22199
X05436Y-22453
X05436Y-22707
X05436Y-22961
X05436Y-23215
X05436Y-23469
X05436Y-23723
X05436Y-23977
X05436Y-24231
X05436Y-24485
X05436Y-24739
X05436Y-24993
X05436Y-25247
X05436Y-25501
X1205Y-18
X1255Y-1835
X03975Y-1735
X04475Y-177
X1205Y-155
X1255Y-1585
X05225Y-1235
X05575Y-1185
X08425Y-126
X08775Y-121
X09125Y-126
X09475Y-121
X1205Y-205
X1255Y-2085
X12928Y-24852
X12928Y-25106
X12928Y-2536
X12928Y-25614
X12928Y-25868
X12928Y-26122
T7
X11175Y-14875
X11175Y-17375
X11175Y-19875
X11175Y-22375
T8
X12825Y-11575
X03275Y-11575
X03275Y-27925
X12825Y-271
T0
M30
