G04 #@! TF.GenerationSoftware,KiCad,Pcbnew,(5.1.4)-1*
G04 #@! TF.CreationDate,2020-07-05T13:48:23-04:00*
G04 #@! TF.ProjectId,Pressure_sensor_daughterboard-MS5607-MS5803,50726573-7375-4726-955f-73656e736f72,1.2*
G04 #@! TF.SameCoordinates,Original*
G04 #@! TF.FileFunction,Copper,L2,Bot*
G04 #@! TF.FilePolarity,Positive*
%FSLAX46Y46*%
G04 Gerber Fmt 4.6, Leading zero omitted, Abs format (unit mm)*
G04 Created by KiCad (PCBNEW (5.1.4)-1) date 2020-07-05 13:48:23*
%MOMM*%
%LPD*%
G04 APERTURE LIST*
%ADD10C,0.800000*%
%ADD11C,7.400000*%
%ADD12C,0.200000*%
%ADD13C,0.254000*%
G04 APERTURE END LIST*
D10*
X165462221Y-103287779D03*
X163500000Y-102475000D03*
X161537779Y-103287779D03*
X160725000Y-105250000D03*
X161537779Y-107212221D03*
X163500000Y-108025000D03*
X165462221Y-107212221D03*
X166275000Y-105250000D03*
D11*
X163500000Y-105250000D03*
D10*
X120962221Y-103287779D03*
X119000000Y-102475000D03*
X117037779Y-103287779D03*
X116225000Y-105250000D03*
X117037779Y-107212221D03*
X119000000Y-108025000D03*
X120962221Y-107212221D03*
X121775000Y-105250000D03*
D11*
X119000000Y-105250000D03*
D10*
X165462221Y-31537779D03*
X163500000Y-30725000D03*
X161537779Y-31537779D03*
X160725000Y-33500000D03*
X161537779Y-35462221D03*
X163500000Y-36275000D03*
X165462221Y-35462221D03*
X166275000Y-33500000D03*
D11*
X163500000Y-33500000D03*
D10*
X120962221Y-31537779D03*
X119000000Y-30725000D03*
X117037779Y-31537779D03*
X116225000Y-33500000D03*
X117037779Y-35462221D03*
X119000000Y-36275000D03*
X120962221Y-35462221D03*
X121775000Y-33500000D03*
D11*
X119000000Y-33500000D03*
D10*
X133000000Y-65750000D03*
X123000000Y-64250000D03*
X131000000Y-64250000D03*
X127500000Y-64250000D03*
X130750000Y-74250000D03*
X128000000Y-74500000D03*
X157250000Y-64250000D03*
X149500000Y-64250000D03*
X153500000Y-64250000D03*
X157250000Y-74250000D03*
X154500000Y-74500000D03*
X138000000Y-71250000D03*
X135500000Y-74750000D03*
X164750000Y-70500000D03*
X162000000Y-74500000D03*
X159500000Y-65500000D03*
X132500000Y-63500000D03*
X136000000Y-64500000D03*
X137500000Y-75000000D03*
X126500000Y-74500000D03*
X152625000Y-74375000D03*
X163750000Y-74500000D03*
X159000000Y-63500000D03*
X162500000Y-64250000D03*
D12*
X133500000Y-64500000D02*
X136000000Y-64500000D01*
X132500000Y-63500000D02*
X133500000Y-64500000D01*
X137500000Y-75000000D02*
X136250000Y-76250000D01*
X128250000Y-76250000D02*
X126500000Y-74500000D01*
X136250000Y-76250000D02*
X128250000Y-76250000D01*
X152625000Y-74375000D02*
X152625000Y-74625000D01*
X152625000Y-74625000D02*
X153750000Y-75750000D01*
X153750000Y-75750000D02*
X162500000Y-75750000D01*
X162500000Y-75750000D02*
X163750000Y-74500000D01*
X159750000Y-64250000D02*
X162500000Y-64250000D01*
X159000000Y-63500000D02*
X159750000Y-64250000D01*
D13*
G36*
X116946608Y-37341627D02*
G01*
X117735527Y-37668408D01*
X118573040Y-37835000D01*
X119426960Y-37835000D01*
X120264473Y-37668408D01*
X121053392Y-37341627D01*
X121748755Y-36877000D01*
X140123000Y-36877000D01*
X140123000Y-60300701D01*
X139872756Y-60197047D01*
X139460279Y-60115000D01*
X139039721Y-60115000D01*
X138627244Y-60197047D01*
X138238698Y-60357988D01*
X137889017Y-60591637D01*
X137591637Y-60889017D01*
X137357988Y-61238698D01*
X137197047Y-61627244D01*
X137115000Y-62039721D01*
X137115000Y-62460279D01*
X137197047Y-62872756D01*
X137357988Y-63261302D01*
X137591637Y-63610983D01*
X137889017Y-63908363D01*
X138238698Y-64142012D01*
X138627244Y-64302953D01*
X139039721Y-64385000D01*
X139460279Y-64385000D01*
X139872756Y-64302953D01*
X140123000Y-64199299D01*
X140123000Y-97050701D01*
X139872756Y-96947047D01*
X139460279Y-96865000D01*
X139039721Y-96865000D01*
X138627244Y-96947047D01*
X138238698Y-97107988D01*
X137889017Y-97341637D01*
X137591637Y-97639017D01*
X137357988Y-97988698D01*
X137197047Y-98377244D01*
X137115000Y-98789721D01*
X137115000Y-99210279D01*
X137197047Y-99622756D01*
X137357988Y-100011302D01*
X137591637Y-100360983D01*
X137889017Y-100658363D01*
X138238698Y-100892012D01*
X138627244Y-101052953D01*
X139039721Y-101135000D01*
X139460279Y-101135000D01*
X139872756Y-101052953D01*
X140123000Y-100949299D01*
X140123000Y-101873000D01*
X121748755Y-101873000D01*
X121053392Y-101408373D01*
X120264473Y-101081592D01*
X119426960Y-100915000D01*
X118573040Y-100915000D01*
X117735527Y-101081592D01*
X116946608Y-101408373D01*
X116251245Y-101873000D01*
X115877000Y-101873000D01*
X115877000Y-78449299D01*
X116127244Y-78552953D01*
X116539721Y-78635000D01*
X116960279Y-78635000D01*
X117372756Y-78552953D01*
X117761302Y-78392012D01*
X118110983Y-78158363D01*
X118408363Y-77860983D01*
X118642012Y-77511302D01*
X118802953Y-77122756D01*
X118885000Y-76710279D01*
X118885000Y-76289721D01*
X118802953Y-75877244D01*
X118642012Y-75488698D01*
X118408363Y-75139017D01*
X118110983Y-74841637D01*
X117761302Y-74607988D01*
X117372756Y-74447047D01*
X117126488Y-74398061D01*
X125465000Y-74398061D01*
X125465000Y-74601939D01*
X125504774Y-74801898D01*
X125582795Y-74990256D01*
X125696063Y-75159774D01*
X125840226Y-75303937D01*
X126009744Y-75417205D01*
X126198102Y-75495226D01*
X126398061Y-75535000D01*
X126495554Y-75535000D01*
X127704746Y-76744193D01*
X127727762Y-76772238D01*
X127755806Y-76795253D01*
X127839680Y-76864087D01*
X127967366Y-76932337D01*
X128105915Y-76974365D01*
X128250000Y-76988556D01*
X128286105Y-76985000D01*
X136213895Y-76985000D01*
X136250000Y-76988556D01*
X136286105Y-76985000D01*
X136394085Y-76974365D01*
X136532633Y-76932337D01*
X136660320Y-76864087D01*
X136772238Y-76772238D01*
X136795258Y-76744188D01*
X137504447Y-76035000D01*
X137601939Y-76035000D01*
X137801898Y-75995226D01*
X137990256Y-75917205D01*
X138159774Y-75803937D01*
X138303937Y-75659774D01*
X138417205Y-75490256D01*
X138495226Y-75301898D01*
X138535000Y-75101939D01*
X138535000Y-74898061D01*
X138495226Y-74698102D01*
X138417205Y-74509744D01*
X138303937Y-74340226D01*
X138159774Y-74196063D01*
X137990256Y-74082795D01*
X137801898Y-74004774D01*
X137601939Y-73965000D01*
X137398061Y-73965000D01*
X137198102Y-74004774D01*
X137009744Y-74082795D01*
X136840226Y-74196063D01*
X136696063Y-74340226D01*
X136582795Y-74509744D01*
X136504774Y-74698102D01*
X136465000Y-74898061D01*
X136465000Y-74995553D01*
X135945554Y-75515000D01*
X128554447Y-75515000D01*
X127535000Y-74495554D01*
X127535000Y-74398061D01*
X127495226Y-74198102D01*
X127417205Y-74009744D01*
X127303937Y-73840226D01*
X127159774Y-73696063D01*
X126990256Y-73582795D01*
X126801898Y-73504774D01*
X126601939Y-73465000D01*
X126398061Y-73465000D01*
X126198102Y-73504774D01*
X126009744Y-73582795D01*
X125840226Y-73696063D01*
X125696063Y-73840226D01*
X125582795Y-74009744D01*
X125504774Y-74198102D01*
X125465000Y-74398061D01*
X117126488Y-74398061D01*
X116960279Y-74365000D01*
X116539721Y-74365000D01*
X116127244Y-74447047D01*
X115877000Y-74550701D01*
X115877000Y-71929690D01*
X125610000Y-71929690D01*
X125610000Y-72150310D01*
X125653041Y-72366692D01*
X125737469Y-72570519D01*
X125860039Y-72753958D01*
X126016042Y-72909961D01*
X126199481Y-73032531D01*
X126403308Y-73116959D01*
X126619690Y-73160000D01*
X126840310Y-73160000D01*
X127056692Y-73116959D01*
X127260519Y-73032531D01*
X127443958Y-72909961D01*
X127599961Y-72753958D01*
X127722531Y-72570519D01*
X127806959Y-72366692D01*
X127850000Y-72150310D01*
X127850000Y-71929690D01*
X128150000Y-71929690D01*
X128150000Y-72150310D01*
X128193041Y-72366692D01*
X128277469Y-72570519D01*
X128400039Y-72753958D01*
X128556042Y-72909961D01*
X128739481Y-73032531D01*
X128943308Y-73116959D01*
X129159690Y-73160000D01*
X129380310Y-73160000D01*
X129596692Y-73116959D01*
X129800519Y-73032531D01*
X129983958Y-72909961D01*
X130139961Y-72753958D01*
X130262531Y-72570519D01*
X130346959Y-72366692D01*
X130390000Y-72150310D01*
X130390000Y-71929690D01*
X130346959Y-71713308D01*
X130262531Y-71509481D01*
X130139961Y-71326042D01*
X129983958Y-71170039D01*
X129800519Y-71047469D01*
X129596692Y-70963041D01*
X129380310Y-70920000D01*
X129159690Y-70920000D01*
X128943308Y-70963041D01*
X128739481Y-71047469D01*
X128556042Y-71170039D01*
X128400039Y-71326042D01*
X128277469Y-71509481D01*
X128193041Y-71713308D01*
X128150000Y-71929690D01*
X127850000Y-71929690D01*
X127806959Y-71713308D01*
X127722531Y-71509481D01*
X127599961Y-71326042D01*
X127443958Y-71170039D01*
X127260519Y-71047469D01*
X127056692Y-70963041D01*
X126840310Y-70920000D01*
X126619690Y-70920000D01*
X126403308Y-70963041D01*
X126199481Y-71047469D01*
X126016042Y-71170039D01*
X125860039Y-71326042D01*
X125737469Y-71509481D01*
X125653041Y-71713308D01*
X125610000Y-71929690D01*
X115877000Y-71929690D01*
X115877000Y-69389690D01*
X125610000Y-69389690D01*
X125610000Y-69610310D01*
X125653041Y-69826692D01*
X125737469Y-70030519D01*
X125860039Y-70213958D01*
X126016042Y-70369961D01*
X126199481Y-70492531D01*
X126403308Y-70576959D01*
X126619690Y-70620000D01*
X126840310Y-70620000D01*
X127056692Y-70576959D01*
X127260519Y-70492531D01*
X127443958Y-70369961D01*
X127599961Y-70213958D01*
X127722531Y-70030519D01*
X127806959Y-69826692D01*
X127850000Y-69610310D01*
X127850000Y-69389690D01*
X128150000Y-69389690D01*
X128150000Y-69610310D01*
X128193041Y-69826692D01*
X128277469Y-70030519D01*
X128400039Y-70213958D01*
X128556042Y-70369961D01*
X128739481Y-70492531D01*
X128943308Y-70576959D01*
X129159690Y-70620000D01*
X129380310Y-70620000D01*
X129596692Y-70576959D01*
X129800519Y-70492531D01*
X129983958Y-70369961D01*
X130139961Y-70213958D01*
X130262531Y-70030519D01*
X130346959Y-69826692D01*
X130390000Y-69610310D01*
X130390000Y-69389690D01*
X130346959Y-69173308D01*
X130262531Y-68969481D01*
X130139961Y-68786042D01*
X129983958Y-68630039D01*
X129800519Y-68507469D01*
X129596692Y-68423041D01*
X129380310Y-68380000D01*
X129159690Y-68380000D01*
X128943308Y-68423041D01*
X128739481Y-68507469D01*
X128556042Y-68630039D01*
X128400039Y-68786042D01*
X128277469Y-68969481D01*
X128193041Y-69173308D01*
X128150000Y-69389690D01*
X127850000Y-69389690D01*
X127806959Y-69173308D01*
X127722531Y-68969481D01*
X127599961Y-68786042D01*
X127443958Y-68630039D01*
X127260519Y-68507469D01*
X127056692Y-68423041D01*
X126840310Y-68380000D01*
X126619690Y-68380000D01*
X126403308Y-68423041D01*
X126199481Y-68507469D01*
X126016042Y-68630039D01*
X125860039Y-68786042D01*
X125737469Y-68969481D01*
X125653041Y-69173308D01*
X125610000Y-69389690D01*
X115877000Y-69389690D01*
X115877000Y-66849690D01*
X125610000Y-66849690D01*
X125610000Y-67070310D01*
X125653041Y-67286692D01*
X125737469Y-67490519D01*
X125860039Y-67673958D01*
X126016042Y-67829961D01*
X126199481Y-67952531D01*
X126403308Y-68036959D01*
X126619690Y-68080000D01*
X126840310Y-68080000D01*
X127056692Y-68036959D01*
X127260519Y-67952531D01*
X127443958Y-67829961D01*
X127599961Y-67673958D01*
X127722531Y-67490519D01*
X127806959Y-67286692D01*
X127850000Y-67070310D01*
X127850000Y-66849690D01*
X128150000Y-66849690D01*
X128150000Y-67070310D01*
X128193041Y-67286692D01*
X128277469Y-67490519D01*
X128400039Y-67673958D01*
X128556042Y-67829961D01*
X128739481Y-67952531D01*
X128943308Y-68036959D01*
X129159690Y-68080000D01*
X129380310Y-68080000D01*
X129596692Y-68036959D01*
X129800519Y-67952531D01*
X129983958Y-67829961D01*
X130139961Y-67673958D01*
X130262531Y-67490519D01*
X130346959Y-67286692D01*
X130390000Y-67070310D01*
X130390000Y-66849690D01*
X130346959Y-66633308D01*
X130262531Y-66429481D01*
X130139961Y-66246042D01*
X129983958Y-66090039D01*
X129800519Y-65967469D01*
X129596692Y-65883041D01*
X129380310Y-65840000D01*
X129159690Y-65840000D01*
X128943308Y-65883041D01*
X128739481Y-65967469D01*
X128556042Y-66090039D01*
X128400039Y-66246042D01*
X128277469Y-66429481D01*
X128193041Y-66633308D01*
X128150000Y-66849690D01*
X127850000Y-66849690D01*
X127806959Y-66633308D01*
X127722531Y-66429481D01*
X127599961Y-66246042D01*
X127443958Y-66090039D01*
X127260519Y-65967469D01*
X127056692Y-65883041D01*
X126840310Y-65840000D01*
X126619690Y-65840000D01*
X126403308Y-65883041D01*
X126199481Y-65967469D01*
X126016042Y-66090039D01*
X125860039Y-66246042D01*
X125737469Y-66429481D01*
X125653041Y-66633308D01*
X125610000Y-66849690D01*
X115877000Y-66849690D01*
X115877000Y-63398061D01*
X131465000Y-63398061D01*
X131465000Y-63601939D01*
X131504774Y-63801898D01*
X131582795Y-63990256D01*
X131696063Y-64159774D01*
X131840226Y-64303937D01*
X132009744Y-64417205D01*
X132198102Y-64495226D01*
X132398061Y-64535000D01*
X132495553Y-64535000D01*
X132954746Y-64994193D01*
X132977762Y-65022238D01*
X133005806Y-65045253D01*
X133089680Y-65114087D01*
X133217366Y-65182337D01*
X133355915Y-65224365D01*
X133500000Y-65238556D01*
X133536105Y-65235000D01*
X135271289Y-65235000D01*
X135340226Y-65303937D01*
X135509744Y-65417205D01*
X135698102Y-65495226D01*
X135898061Y-65535000D01*
X136101939Y-65535000D01*
X136301898Y-65495226D01*
X136490256Y-65417205D01*
X136659774Y-65303937D01*
X136803937Y-65159774D01*
X136917205Y-64990256D01*
X136995226Y-64801898D01*
X137035000Y-64601939D01*
X137035000Y-64398061D01*
X136995226Y-64198102D01*
X136917205Y-64009744D01*
X136803937Y-63840226D01*
X136659774Y-63696063D01*
X136490256Y-63582795D01*
X136301898Y-63504774D01*
X136101939Y-63465000D01*
X135898061Y-63465000D01*
X135698102Y-63504774D01*
X135509744Y-63582795D01*
X135340226Y-63696063D01*
X135271289Y-63765000D01*
X133804447Y-63765000D01*
X133535000Y-63495553D01*
X133535000Y-63398061D01*
X133495226Y-63198102D01*
X133417205Y-63009744D01*
X133303937Y-62840226D01*
X133159774Y-62696063D01*
X132990256Y-62582795D01*
X132801898Y-62504774D01*
X132601939Y-62465000D01*
X132398061Y-62465000D01*
X132198102Y-62504774D01*
X132009744Y-62582795D01*
X131840226Y-62696063D01*
X131696063Y-62840226D01*
X131582795Y-63009744D01*
X131504774Y-63198102D01*
X131465000Y-63398061D01*
X115877000Y-63398061D01*
X115877000Y-41699299D01*
X116127244Y-41802953D01*
X116539721Y-41885000D01*
X116960279Y-41885000D01*
X117372756Y-41802953D01*
X117761302Y-41642012D01*
X118110983Y-41408363D01*
X118408363Y-41110983D01*
X118642012Y-40761302D01*
X118802953Y-40372756D01*
X118885000Y-39960279D01*
X118885000Y-39539721D01*
X118802953Y-39127244D01*
X118642012Y-38738698D01*
X118408363Y-38389017D01*
X118110983Y-38091637D01*
X117761302Y-37857988D01*
X117372756Y-37697047D01*
X116960279Y-37615000D01*
X116539721Y-37615000D01*
X116127244Y-37697047D01*
X115877000Y-37800701D01*
X115877000Y-36877000D01*
X116251245Y-36877000D01*
X116946608Y-37341627D01*
X116946608Y-37341627D01*
G37*
X116946608Y-37341627D02*
X117735527Y-37668408D01*
X118573040Y-37835000D01*
X119426960Y-37835000D01*
X120264473Y-37668408D01*
X121053392Y-37341627D01*
X121748755Y-36877000D01*
X140123000Y-36877000D01*
X140123000Y-60300701D01*
X139872756Y-60197047D01*
X139460279Y-60115000D01*
X139039721Y-60115000D01*
X138627244Y-60197047D01*
X138238698Y-60357988D01*
X137889017Y-60591637D01*
X137591637Y-60889017D01*
X137357988Y-61238698D01*
X137197047Y-61627244D01*
X137115000Y-62039721D01*
X137115000Y-62460279D01*
X137197047Y-62872756D01*
X137357988Y-63261302D01*
X137591637Y-63610983D01*
X137889017Y-63908363D01*
X138238698Y-64142012D01*
X138627244Y-64302953D01*
X139039721Y-64385000D01*
X139460279Y-64385000D01*
X139872756Y-64302953D01*
X140123000Y-64199299D01*
X140123000Y-97050701D01*
X139872756Y-96947047D01*
X139460279Y-96865000D01*
X139039721Y-96865000D01*
X138627244Y-96947047D01*
X138238698Y-97107988D01*
X137889017Y-97341637D01*
X137591637Y-97639017D01*
X137357988Y-97988698D01*
X137197047Y-98377244D01*
X137115000Y-98789721D01*
X137115000Y-99210279D01*
X137197047Y-99622756D01*
X137357988Y-100011302D01*
X137591637Y-100360983D01*
X137889017Y-100658363D01*
X138238698Y-100892012D01*
X138627244Y-101052953D01*
X139039721Y-101135000D01*
X139460279Y-101135000D01*
X139872756Y-101052953D01*
X140123000Y-100949299D01*
X140123000Y-101873000D01*
X121748755Y-101873000D01*
X121053392Y-101408373D01*
X120264473Y-101081592D01*
X119426960Y-100915000D01*
X118573040Y-100915000D01*
X117735527Y-101081592D01*
X116946608Y-101408373D01*
X116251245Y-101873000D01*
X115877000Y-101873000D01*
X115877000Y-78449299D01*
X116127244Y-78552953D01*
X116539721Y-78635000D01*
X116960279Y-78635000D01*
X117372756Y-78552953D01*
X117761302Y-78392012D01*
X118110983Y-78158363D01*
X118408363Y-77860983D01*
X118642012Y-77511302D01*
X118802953Y-77122756D01*
X118885000Y-76710279D01*
X118885000Y-76289721D01*
X118802953Y-75877244D01*
X118642012Y-75488698D01*
X118408363Y-75139017D01*
X118110983Y-74841637D01*
X117761302Y-74607988D01*
X117372756Y-74447047D01*
X117126488Y-74398061D01*
X125465000Y-74398061D01*
X125465000Y-74601939D01*
X125504774Y-74801898D01*
X125582795Y-74990256D01*
X125696063Y-75159774D01*
X125840226Y-75303937D01*
X126009744Y-75417205D01*
X126198102Y-75495226D01*
X126398061Y-75535000D01*
X126495554Y-75535000D01*
X127704746Y-76744193D01*
X127727762Y-76772238D01*
X127755806Y-76795253D01*
X127839680Y-76864087D01*
X127967366Y-76932337D01*
X128105915Y-76974365D01*
X128250000Y-76988556D01*
X128286105Y-76985000D01*
X136213895Y-76985000D01*
X136250000Y-76988556D01*
X136286105Y-76985000D01*
X136394085Y-76974365D01*
X136532633Y-76932337D01*
X136660320Y-76864087D01*
X136772238Y-76772238D01*
X136795258Y-76744188D01*
X137504447Y-76035000D01*
X137601939Y-76035000D01*
X137801898Y-75995226D01*
X137990256Y-75917205D01*
X138159774Y-75803937D01*
X138303937Y-75659774D01*
X138417205Y-75490256D01*
X138495226Y-75301898D01*
X138535000Y-75101939D01*
X138535000Y-74898061D01*
X138495226Y-74698102D01*
X138417205Y-74509744D01*
X138303937Y-74340226D01*
X138159774Y-74196063D01*
X137990256Y-74082795D01*
X137801898Y-74004774D01*
X137601939Y-73965000D01*
X137398061Y-73965000D01*
X137198102Y-74004774D01*
X137009744Y-74082795D01*
X136840226Y-74196063D01*
X136696063Y-74340226D01*
X136582795Y-74509744D01*
X136504774Y-74698102D01*
X136465000Y-74898061D01*
X136465000Y-74995553D01*
X135945554Y-75515000D01*
X128554447Y-75515000D01*
X127535000Y-74495554D01*
X127535000Y-74398061D01*
X127495226Y-74198102D01*
X127417205Y-74009744D01*
X127303937Y-73840226D01*
X127159774Y-73696063D01*
X126990256Y-73582795D01*
X126801898Y-73504774D01*
X126601939Y-73465000D01*
X126398061Y-73465000D01*
X126198102Y-73504774D01*
X126009744Y-73582795D01*
X125840226Y-73696063D01*
X125696063Y-73840226D01*
X125582795Y-74009744D01*
X125504774Y-74198102D01*
X125465000Y-74398061D01*
X117126488Y-74398061D01*
X116960279Y-74365000D01*
X116539721Y-74365000D01*
X116127244Y-74447047D01*
X115877000Y-74550701D01*
X115877000Y-71929690D01*
X125610000Y-71929690D01*
X125610000Y-72150310D01*
X125653041Y-72366692D01*
X125737469Y-72570519D01*
X125860039Y-72753958D01*
X126016042Y-72909961D01*
X126199481Y-73032531D01*
X126403308Y-73116959D01*
X126619690Y-73160000D01*
X126840310Y-73160000D01*
X127056692Y-73116959D01*
X127260519Y-73032531D01*
X127443958Y-72909961D01*
X127599961Y-72753958D01*
X127722531Y-72570519D01*
X127806959Y-72366692D01*
X127850000Y-72150310D01*
X127850000Y-71929690D01*
X128150000Y-71929690D01*
X128150000Y-72150310D01*
X128193041Y-72366692D01*
X128277469Y-72570519D01*
X128400039Y-72753958D01*
X128556042Y-72909961D01*
X128739481Y-73032531D01*
X128943308Y-73116959D01*
X129159690Y-73160000D01*
X129380310Y-73160000D01*
X129596692Y-73116959D01*
X129800519Y-73032531D01*
X129983958Y-72909961D01*
X130139961Y-72753958D01*
X130262531Y-72570519D01*
X130346959Y-72366692D01*
X130390000Y-72150310D01*
X130390000Y-71929690D01*
X130346959Y-71713308D01*
X130262531Y-71509481D01*
X130139961Y-71326042D01*
X129983958Y-71170039D01*
X129800519Y-71047469D01*
X129596692Y-70963041D01*
X129380310Y-70920000D01*
X129159690Y-70920000D01*
X128943308Y-70963041D01*
X128739481Y-71047469D01*
X128556042Y-71170039D01*
X128400039Y-71326042D01*
X128277469Y-71509481D01*
X128193041Y-71713308D01*
X128150000Y-71929690D01*
X127850000Y-71929690D01*
X127806959Y-71713308D01*
X127722531Y-71509481D01*
X127599961Y-71326042D01*
X127443958Y-71170039D01*
X127260519Y-71047469D01*
X127056692Y-70963041D01*
X126840310Y-70920000D01*
X126619690Y-70920000D01*
X126403308Y-70963041D01*
X126199481Y-71047469D01*
X126016042Y-71170039D01*
X125860039Y-71326042D01*
X125737469Y-71509481D01*
X125653041Y-71713308D01*
X125610000Y-71929690D01*
X115877000Y-71929690D01*
X115877000Y-69389690D01*
X125610000Y-69389690D01*
X125610000Y-69610310D01*
X125653041Y-69826692D01*
X125737469Y-70030519D01*
X125860039Y-70213958D01*
X126016042Y-70369961D01*
X126199481Y-70492531D01*
X126403308Y-70576959D01*
X126619690Y-70620000D01*
X126840310Y-70620000D01*
X127056692Y-70576959D01*
X127260519Y-70492531D01*
X127443958Y-70369961D01*
X127599961Y-70213958D01*
X127722531Y-70030519D01*
X127806959Y-69826692D01*
X127850000Y-69610310D01*
X127850000Y-69389690D01*
X128150000Y-69389690D01*
X128150000Y-69610310D01*
X128193041Y-69826692D01*
X128277469Y-70030519D01*
X128400039Y-70213958D01*
X128556042Y-70369961D01*
X128739481Y-70492531D01*
X128943308Y-70576959D01*
X129159690Y-70620000D01*
X129380310Y-70620000D01*
X129596692Y-70576959D01*
X129800519Y-70492531D01*
X129983958Y-70369961D01*
X130139961Y-70213958D01*
X130262531Y-70030519D01*
X130346959Y-69826692D01*
X130390000Y-69610310D01*
X130390000Y-69389690D01*
X130346959Y-69173308D01*
X130262531Y-68969481D01*
X130139961Y-68786042D01*
X129983958Y-68630039D01*
X129800519Y-68507469D01*
X129596692Y-68423041D01*
X129380310Y-68380000D01*
X129159690Y-68380000D01*
X128943308Y-68423041D01*
X128739481Y-68507469D01*
X128556042Y-68630039D01*
X128400039Y-68786042D01*
X128277469Y-68969481D01*
X128193041Y-69173308D01*
X128150000Y-69389690D01*
X127850000Y-69389690D01*
X127806959Y-69173308D01*
X127722531Y-68969481D01*
X127599961Y-68786042D01*
X127443958Y-68630039D01*
X127260519Y-68507469D01*
X127056692Y-68423041D01*
X126840310Y-68380000D01*
X126619690Y-68380000D01*
X126403308Y-68423041D01*
X126199481Y-68507469D01*
X126016042Y-68630039D01*
X125860039Y-68786042D01*
X125737469Y-68969481D01*
X125653041Y-69173308D01*
X125610000Y-69389690D01*
X115877000Y-69389690D01*
X115877000Y-66849690D01*
X125610000Y-66849690D01*
X125610000Y-67070310D01*
X125653041Y-67286692D01*
X125737469Y-67490519D01*
X125860039Y-67673958D01*
X126016042Y-67829961D01*
X126199481Y-67952531D01*
X126403308Y-68036959D01*
X126619690Y-68080000D01*
X126840310Y-68080000D01*
X127056692Y-68036959D01*
X127260519Y-67952531D01*
X127443958Y-67829961D01*
X127599961Y-67673958D01*
X127722531Y-67490519D01*
X127806959Y-67286692D01*
X127850000Y-67070310D01*
X127850000Y-66849690D01*
X128150000Y-66849690D01*
X128150000Y-67070310D01*
X128193041Y-67286692D01*
X128277469Y-67490519D01*
X128400039Y-67673958D01*
X128556042Y-67829961D01*
X128739481Y-67952531D01*
X128943308Y-68036959D01*
X129159690Y-68080000D01*
X129380310Y-68080000D01*
X129596692Y-68036959D01*
X129800519Y-67952531D01*
X129983958Y-67829961D01*
X130139961Y-67673958D01*
X130262531Y-67490519D01*
X130346959Y-67286692D01*
X130390000Y-67070310D01*
X130390000Y-66849690D01*
X130346959Y-66633308D01*
X130262531Y-66429481D01*
X130139961Y-66246042D01*
X129983958Y-66090039D01*
X129800519Y-65967469D01*
X129596692Y-65883041D01*
X129380310Y-65840000D01*
X129159690Y-65840000D01*
X128943308Y-65883041D01*
X128739481Y-65967469D01*
X128556042Y-66090039D01*
X128400039Y-66246042D01*
X128277469Y-66429481D01*
X128193041Y-66633308D01*
X128150000Y-66849690D01*
X127850000Y-66849690D01*
X127806959Y-66633308D01*
X127722531Y-66429481D01*
X127599961Y-66246042D01*
X127443958Y-66090039D01*
X127260519Y-65967469D01*
X127056692Y-65883041D01*
X126840310Y-65840000D01*
X126619690Y-65840000D01*
X126403308Y-65883041D01*
X126199481Y-65967469D01*
X126016042Y-66090039D01*
X125860039Y-66246042D01*
X125737469Y-66429481D01*
X125653041Y-66633308D01*
X125610000Y-66849690D01*
X115877000Y-66849690D01*
X115877000Y-63398061D01*
X131465000Y-63398061D01*
X131465000Y-63601939D01*
X131504774Y-63801898D01*
X131582795Y-63990256D01*
X131696063Y-64159774D01*
X131840226Y-64303937D01*
X132009744Y-64417205D01*
X132198102Y-64495226D01*
X132398061Y-64535000D01*
X132495553Y-64535000D01*
X132954746Y-64994193D01*
X132977762Y-65022238D01*
X133005806Y-65045253D01*
X133089680Y-65114087D01*
X133217366Y-65182337D01*
X133355915Y-65224365D01*
X133500000Y-65238556D01*
X133536105Y-65235000D01*
X135271289Y-65235000D01*
X135340226Y-65303937D01*
X135509744Y-65417205D01*
X135698102Y-65495226D01*
X135898061Y-65535000D01*
X136101939Y-65535000D01*
X136301898Y-65495226D01*
X136490256Y-65417205D01*
X136659774Y-65303937D01*
X136803937Y-65159774D01*
X136917205Y-64990256D01*
X136995226Y-64801898D01*
X137035000Y-64601939D01*
X137035000Y-64398061D01*
X136995226Y-64198102D01*
X136917205Y-64009744D01*
X136803937Y-63840226D01*
X136659774Y-63696063D01*
X136490256Y-63582795D01*
X136301898Y-63504774D01*
X136101939Y-63465000D01*
X135898061Y-63465000D01*
X135698102Y-63504774D01*
X135509744Y-63582795D01*
X135340226Y-63696063D01*
X135271289Y-63765000D01*
X133804447Y-63765000D01*
X133535000Y-63495553D01*
X133535000Y-63398061D01*
X133495226Y-63198102D01*
X133417205Y-63009744D01*
X133303937Y-62840226D01*
X133159774Y-62696063D01*
X132990256Y-62582795D01*
X132801898Y-62504774D01*
X132601939Y-62465000D01*
X132398061Y-62465000D01*
X132198102Y-62504774D01*
X132009744Y-62582795D01*
X131840226Y-62696063D01*
X131696063Y-62840226D01*
X131582795Y-63009744D01*
X131504774Y-63198102D01*
X131465000Y-63398061D01*
X115877000Y-63398061D01*
X115877000Y-41699299D01*
X116127244Y-41802953D01*
X116539721Y-41885000D01*
X116960279Y-41885000D01*
X117372756Y-41802953D01*
X117761302Y-41642012D01*
X118110983Y-41408363D01*
X118408363Y-41110983D01*
X118642012Y-40761302D01*
X118802953Y-40372756D01*
X118885000Y-39960279D01*
X118885000Y-39539721D01*
X118802953Y-39127244D01*
X118642012Y-38738698D01*
X118408363Y-38389017D01*
X118110983Y-38091637D01*
X117761302Y-37857988D01*
X117372756Y-37697047D01*
X116960279Y-37615000D01*
X116539721Y-37615000D01*
X116127244Y-37697047D01*
X115877000Y-37800701D01*
X115877000Y-36877000D01*
X116251245Y-36877000D01*
X116946608Y-37341627D01*
G36*
X161446608Y-37341627D02*
G01*
X162235527Y-37668408D01*
X163073040Y-37835000D01*
X163926960Y-37835000D01*
X164764473Y-37668408D01*
X165553392Y-37341627D01*
X166248755Y-36877000D01*
X166623000Y-36877000D01*
X166623000Y-60300701D01*
X166372756Y-60197047D01*
X165960279Y-60115000D01*
X165539721Y-60115000D01*
X165127244Y-60197047D01*
X164738698Y-60357988D01*
X164389017Y-60591637D01*
X164091637Y-60889017D01*
X163857988Y-61238698D01*
X163697047Y-61627244D01*
X163615000Y-62039721D01*
X163615000Y-62460279D01*
X163697047Y-62872756D01*
X163857988Y-63261302D01*
X164091637Y-63610983D01*
X164389017Y-63908363D01*
X164738698Y-64142012D01*
X165127244Y-64302953D01*
X165539721Y-64385000D01*
X165960279Y-64385000D01*
X166372756Y-64302953D01*
X166623000Y-64199299D01*
X166623000Y-97050701D01*
X166372756Y-96947047D01*
X165960279Y-96865000D01*
X165539721Y-96865000D01*
X165127244Y-96947047D01*
X164738698Y-97107988D01*
X164389017Y-97341637D01*
X164091637Y-97639017D01*
X163857988Y-97988698D01*
X163697047Y-98377244D01*
X163615000Y-98789721D01*
X163615000Y-99210279D01*
X163697047Y-99622756D01*
X163857988Y-100011302D01*
X164091637Y-100360983D01*
X164389017Y-100658363D01*
X164738698Y-100892012D01*
X165127244Y-101052953D01*
X165539721Y-101135000D01*
X165960279Y-101135000D01*
X166372756Y-101052953D01*
X166623000Y-100949299D01*
X166623000Y-101873000D01*
X166248755Y-101873000D01*
X165553392Y-101408373D01*
X164764473Y-101081592D01*
X163926960Y-100915000D01*
X163073040Y-100915000D01*
X162235527Y-101081592D01*
X161446608Y-101408373D01*
X160751245Y-101873000D01*
X142377000Y-101873000D01*
X142377000Y-78449299D01*
X142627244Y-78552953D01*
X143039721Y-78635000D01*
X143460279Y-78635000D01*
X143872756Y-78552953D01*
X144261302Y-78392012D01*
X144610983Y-78158363D01*
X144908363Y-77860983D01*
X145142012Y-77511302D01*
X145302953Y-77122756D01*
X145385000Y-76710279D01*
X145385000Y-76289721D01*
X145302953Y-75877244D01*
X145142012Y-75488698D01*
X144908363Y-75139017D01*
X144610983Y-74841637D01*
X144261302Y-74607988D01*
X143872756Y-74447047D01*
X143460279Y-74365000D01*
X143039721Y-74365000D01*
X142627244Y-74447047D01*
X142377000Y-74550701D01*
X142377000Y-74273061D01*
X151590000Y-74273061D01*
X151590000Y-74476939D01*
X151629774Y-74676898D01*
X151707795Y-74865256D01*
X151821063Y-75034774D01*
X151965226Y-75178937D01*
X152134744Y-75292205D01*
X152323102Y-75370226D01*
X152332686Y-75372132D01*
X153204746Y-76244193D01*
X153227762Y-76272238D01*
X153339680Y-76364087D01*
X153467367Y-76432337D01*
X153605915Y-76474365D01*
X153713895Y-76485000D01*
X153713904Y-76485000D01*
X153749999Y-76488555D01*
X153786094Y-76485000D01*
X162463895Y-76485000D01*
X162500000Y-76488556D01*
X162536105Y-76485000D01*
X162644085Y-76474365D01*
X162782633Y-76432337D01*
X162910320Y-76364087D01*
X163022238Y-76272238D01*
X163045258Y-76244188D01*
X163754447Y-75535000D01*
X163851939Y-75535000D01*
X164051898Y-75495226D01*
X164240256Y-75417205D01*
X164409774Y-75303937D01*
X164553937Y-75159774D01*
X164667205Y-74990256D01*
X164745226Y-74801898D01*
X164785000Y-74601939D01*
X164785000Y-74398061D01*
X164745226Y-74198102D01*
X164667205Y-74009744D01*
X164553937Y-73840226D01*
X164409774Y-73696063D01*
X164240256Y-73582795D01*
X164051898Y-73504774D01*
X163851939Y-73465000D01*
X163648061Y-73465000D01*
X163448102Y-73504774D01*
X163259744Y-73582795D01*
X163090226Y-73696063D01*
X162946063Y-73840226D01*
X162832795Y-74009744D01*
X162754774Y-74198102D01*
X162715000Y-74398061D01*
X162715000Y-74495553D01*
X162195554Y-75015000D01*
X154054447Y-75015000D01*
X153636173Y-74596727D01*
X153660000Y-74476939D01*
X153660000Y-74273061D01*
X153620226Y-74073102D01*
X153542205Y-73884744D01*
X153428937Y-73715226D01*
X153284774Y-73571063D01*
X153115256Y-73457795D01*
X152926898Y-73379774D01*
X152726939Y-73340000D01*
X152523061Y-73340000D01*
X152323102Y-73379774D01*
X152134744Y-73457795D01*
X151965226Y-73571063D01*
X151821063Y-73715226D01*
X151707795Y-73884744D01*
X151629774Y-74073102D01*
X151590000Y-74273061D01*
X142377000Y-74273061D01*
X142377000Y-71929690D01*
X152110000Y-71929690D01*
X152110000Y-72150310D01*
X152153041Y-72366692D01*
X152237469Y-72570519D01*
X152360039Y-72753958D01*
X152516042Y-72909961D01*
X152699481Y-73032531D01*
X152903308Y-73116959D01*
X153119690Y-73160000D01*
X153340310Y-73160000D01*
X153556692Y-73116959D01*
X153760519Y-73032531D01*
X153943958Y-72909961D01*
X154099961Y-72753958D01*
X154222531Y-72570519D01*
X154306959Y-72366692D01*
X154350000Y-72150310D01*
X154350000Y-71929690D01*
X154650000Y-71929690D01*
X154650000Y-72150310D01*
X154693041Y-72366692D01*
X154777469Y-72570519D01*
X154900039Y-72753958D01*
X155056042Y-72909961D01*
X155239481Y-73032531D01*
X155443308Y-73116959D01*
X155659690Y-73160000D01*
X155880310Y-73160000D01*
X156096692Y-73116959D01*
X156300519Y-73032531D01*
X156483958Y-72909961D01*
X156639961Y-72753958D01*
X156762531Y-72570519D01*
X156846959Y-72366692D01*
X156890000Y-72150310D01*
X156890000Y-71929690D01*
X156846959Y-71713308D01*
X156762531Y-71509481D01*
X156639961Y-71326042D01*
X156483958Y-71170039D01*
X156300519Y-71047469D01*
X156096692Y-70963041D01*
X155880310Y-70920000D01*
X155659690Y-70920000D01*
X155443308Y-70963041D01*
X155239481Y-71047469D01*
X155056042Y-71170039D01*
X154900039Y-71326042D01*
X154777469Y-71509481D01*
X154693041Y-71713308D01*
X154650000Y-71929690D01*
X154350000Y-71929690D01*
X154306959Y-71713308D01*
X154222531Y-71509481D01*
X154099961Y-71326042D01*
X153943958Y-71170039D01*
X153760519Y-71047469D01*
X153556692Y-70963041D01*
X153340310Y-70920000D01*
X153119690Y-70920000D01*
X152903308Y-70963041D01*
X152699481Y-71047469D01*
X152516042Y-71170039D01*
X152360039Y-71326042D01*
X152237469Y-71509481D01*
X152153041Y-71713308D01*
X152110000Y-71929690D01*
X142377000Y-71929690D01*
X142377000Y-69389690D01*
X152110000Y-69389690D01*
X152110000Y-69610310D01*
X152153041Y-69826692D01*
X152237469Y-70030519D01*
X152360039Y-70213958D01*
X152516042Y-70369961D01*
X152699481Y-70492531D01*
X152903308Y-70576959D01*
X153119690Y-70620000D01*
X153340310Y-70620000D01*
X153556692Y-70576959D01*
X153760519Y-70492531D01*
X153943958Y-70369961D01*
X154099961Y-70213958D01*
X154222531Y-70030519D01*
X154306959Y-69826692D01*
X154350000Y-69610310D01*
X154350000Y-69389690D01*
X154650000Y-69389690D01*
X154650000Y-69610310D01*
X154693041Y-69826692D01*
X154777469Y-70030519D01*
X154900039Y-70213958D01*
X155056042Y-70369961D01*
X155239481Y-70492531D01*
X155443308Y-70576959D01*
X155659690Y-70620000D01*
X155880310Y-70620000D01*
X156096692Y-70576959D01*
X156300519Y-70492531D01*
X156483958Y-70369961D01*
X156639961Y-70213958D01*
X156762531Y-70030519D01*
X156846959Y-69826692D01*
X156890000Y-69610310D01*
X156890000Y-69389690D01*
X156846959Y-69173308D01*
X156762531Y-68969481D01*
X156639961Y-68786042D01*
X156483958Y-68630039D01*
X156300519Y-68507469D01*
X156096692Y-68423041D01*
X155880310Y-68380000D01*
X155659690Y-68380000D01*
X155443308Y-68423041D01*
X155239481Y-68507469D01*
X155056042Y-68630039D01*
X154900039Y-68786042D01*
X154777469Y-68969481D01*
X154693041Y-69173308D01*
X154650000Y-69389690D01*
X154350000Y-69389690D01*
X154306959Y-69173308D01*
X154222531Y-68969481D01*
X154099961Y-68786042D01*
X153943958Y-68630039D01*
X153760519Y-68507469D01*
X153556692Y-68423041D01*
X153340310Y-68380000D01*
X153119690Y-68380000D01*
X152903308Y-68423041D01*
X152699481Y-68507469D01*
X152516042Y-68630039D01*
X152360039Y-68786042D01*
X152237469Y-68969481D01*
X152153041Y-69173308D01*
X152110000Y-69389690D01*
X142377000Y-69389690D01*
X142377000Y-66849690D01*
X152110000Y-66849690D01*
X152110000Y-67070310D01*
X152153041Y-67286692D01*
X152237469Y-67490519D01*
X152360039Y-67673958D01*
X152516042Y-67829961D01*
X152699481Y-67952531D01*
X152903308Y-68036959D01*
X153119690Y-68080000D01*
X153340310Y-68080000D01*
X153556692Y-68036959D01*
X153760519Y-67952531D01*
X153943958Y-67829961D01*
X154099961Y-67673958D01*
X154222531Y-67490519D01*
X154306959Y-67286692D01*
X154350000Y-67070310D01*
X154350000Y-66849690D01*
X154650000Y-66849690D01*
X154650000Y-67070310D01*
X154693041Y-67286692D01*
X154777469Y-67490519D01*
X154900039Y-67673958D01*
X155056042Y-67829961D01*
X155239481Y-67952531D01*
X155443308Y-68036959D01*
X155659690Y-68080000D01*
X155880310Y-68080000D01*
X156096692Y-68036959D01*
X156300519Y-67952531D01*
X156483958Y-67829961D01*
X156639961Y-67673958D01*
X156762531Y-67490519D01*
X156846959Y-67286692D01*
X156890000Y-67070310D01*
X156890000Y-66849690D01*
X156846959Y-66633308D01*
X156762531Y-66429481D01*
X156639961Y-66246042D01*
X156483958Y-66090039D01*
X156300519Y-65967469D01*
X156096692Y-65883041D01*
X155880310Y-65840000D01*
X155659690Y-65840000D01*
X155443308Y-65883041D01*
X155239481Y-65967469D01*
X155056042Y-66090039D01*
X154900039Y-66246042D01*
X154777469Y-66429481D01*
X154693041Y-66633308D01*
X154650000Y-66849690D01*
X154350000Y-66849690D01*
X154306959Y-66633308D01*
X154222531Y-66429481D01*
X154099961Y-66246042D01*
X153943958Y-66090039D01*
X153760519Y-65967469D01*
X153556692Y-65883041D01*
X153340310Y-65840000D01*
X153119690Y-65840000D01*
X152903308Y-65883041D01*
X152699481Y-65967469D01*
X152516042Y-66090039D01*
X152360039Y-66246042D01*
X152237469Y-66429481D01*
X152153041Y-66633308D01*
X152110000Y-66849690D01*
X142377000Y-66849690D01*
X142377000Y-63398061D01*
X157965000Y-63398061D01*
X157965000Y-63601939D01*
X158004774Y-63801898D01*
X158082795Y-63990256D01*
X158196063Y-64159774D01*
X158340226Y-64303937D01*
X158509744Y-64417205D01*
X158698102Y-64495226D01*
X158898061Y-64535000D01*
X158995553Y-64535000D01*
X159204746Y-64744193D01*
X159227762Y-64772238D01*
X159339680Y-64864087D01*
X159467367Y-64932337D01*
X159563886Y-64961616D01*
X159605914Y-64974365D01*
X159620132Y-64975765D01*
X159713895Y-64985000D01*
X159713902Y-64985000D01*
X159749999Y-64988555D01*
X159786096Y-64985000D01*
X161771289Y-64985000D01*
X161840226Y-65053937D01*
X162009744Y-65167205D01*
X162198102Y-65245226D01*
X162398061Y-65285000D01*
X162601939Y-65285000D01*
X162801898Y-65245226D01*
X162990256Y-65167205D01*
X163159774Y-65053937D01*
X163303937Y-64909774D01*
X163417205Y-64740256D01*
X163495226Y-64551898D01*
X163535000Y-64351939D01*
X163535000Y-64148061D01*
X163495226Y-63948102D01*
X163417205Y-63759744D01*
X163303937Y-63590226D01*
X163159774Y-63446063D01*
X162990256Y-63332795D01*
X162801898Y-63254774D01*
X162601939Y-63215000D01*
X162398061Y-63215000D01*
X162198102Y-63254774D01*
X162009744Y-63332795D01*
X161840226Y-63446063D01*
X161771289Y-63515000D01*
X160054447Y-63515000D01*
X160035000Y-63495553D01*
X160035000Y-63398061D01*
X159995226Y-63198102D01*
X159917205Y-63009744D01*
X159803937Y-62840226D01*
X159659774Y-62696063D01*
X159490256Y-62582795D01*
X159301898Y-62504774D01*
X159101939Y-62465000D01*
X158898061Y-62465000D01*
X158698102Y-62504774D01*
X158509744Y-62582795D01*
X158340226Y-62696063D01*
X158196063Y-62840226D01*
X158082795Y-63009744D01*
X158004774Y-63198102D01*
X157965000Y-63398061D01*
X142377000Y-63398061D01*
X142377000Y-41699299D01*
X142627244Y-41802953D01*
X143039721Y-41885000D01*
X143460279Y-41885000D01*
X143872756Y-41802953D01*
X144261302Y-41642012D01*
X144610983Y-41408363D01*
X144908363Y-41110983D01*
X145142012Y-40761302D01*
X145302953Y-40372756D01*
X145385000Y-39960279D01*
X145385000Y-39539721D01*
X145302953Y-39127244D01*
X145142012Y-38738698D01*
X144908363Y-38389017D01*
X144610983Y-38091637D01*
X144261302Y-37857988D01*
X143872756Y-37697047D01*
X143460279Y-37615000D01*
X143039721Y-37615000D01*
X142627244Y-37697047D01*
X142377000Y-37800701D01*
X142377000Y-36877000D01*
X160751245Y-36877000D01*
X161446608Y-37341627D01*
X161446608Y-37341627D01*
G37*
X161446608Y-37341627D02*
X162235527Y-37668408D01*
X163073040Y-37835000D01*
X163926960Y-37835000D01*
X164764473Y-37668408D01*
X165553392Y-37341627D01*
X166248755Y-36877000D01*
X166623000Y-36877000D01*
X166623000Y-60300701D01*
X166372756Y-60197047D01*
X165960279Y-60115000D01*
X165539721Y-60115000D01*
X165127244Y-60197047D01*
X164738698Y-60357988D01*
X164389017Y-60591637D01*
X164091637Y-60889017D01*
X163857988Y-61238698D01*
X163697047Y-61627244D01*
X163615000Y-62039721D01*
X163615000Y-62460279D01*
X163697047Y-62872756D01*
X163857988Y-63261302D01*
X164091637Y-63610983D01*
X164389017Y-63908363D01*
X164738698Y-64142012D01*
X165127244Y-64302953D01*
X165539721Y-64385000D01*
X165960279Y-64385000D01*
X166372756Y-64302953D01*
X166623000Y-64199299D01*
X166623000Y-97050701D01*
X166372756Y-96947047D01*
X165960279Y-96865000D01*
X165539721Y-96865000D01*
X165127244Y-96947047D01*
X164738698Y-97107988D01*
X164389017Y-97341637D01*
X164091637Y-97639017D01*
X163857988Y-97988698D01*
X163697047Y-98377244D01*
X163615000Y-98789721D01*
X163615000Y-99210279D01*
X163697047Y-99622756D01*
X163857988Y-100011302D01*
X164091637Y-100360983D01*
X164389017Y-100658363D01*
X164738698Y-100892012D01*
X165127244Y-101052953D01*
X165539721Y-101135000D01*
X165960279Y-101135000D01*
X166372756Y-101052953D01*
X166623000Y-100949299D01*
X166623000Y-101873000D01*
X166248755Y-101873000D01*
X165553392Y-101408373D01*
X164764473Y-101081592D01*
X163926960Y-100915000D01*
X163073040Y-100915000D01*
X162235527Y-101081592D01*
X161446608Y-101408373D01*
X160751245Y-101873000D01*
X142377000Y-101873000D01*
X142377000Y-78449299D01*
X142627244Y-78552953D01*
X143039721Y-78635000D01*
X143460279Y-78635000D01*
X143872756Y-78552953D01*
X144261302Y-78392012D01*
X144610983Y-78158363D01*
X144908363Y-77860983D01*
X145142012Y-77511302D01*
X145302953Y-77122756D01*
X145385000Y-76710279D01*
X145385000Y-76289721D01*
X145302953Y-75877244D01*
X145142012Y-75488698D01*
X144908363Y-75139017D01*
X144610983Y-74841637D01*
X144261302Y-74607988D01*
X143872756Y-74447047D01*
X143460279Y-74365000D01*
X143039721Y-74365000D01*
X142627244Y-74447047D01*
X142377000Y-74550701D01*
X142377000Y-74273061D01*
X151590000Y-74273061D01*
X151590000Y-74476939D01*
X151629774Y-74676898D01*
X151707795Y-74865256D01*
X151821063Y-75034774D01*
X151965226Y-75178937D01*
X152134744Y-75292205D01*
X152323102Y-75370226D01*
X152332686Y-75372132D01*
X153204746Y-76244193D01*
X153227762Y-76272238D01*
X153339680Y-76364087D01*
X153467367Y-76432337D01*
X153605915Y-76474365D01*
X153713895Y-76485000D01*
X153713904Y-76485000D01*
X153749999Y-76488555D01*
X153786094Y-76485000D01*
X162463895Y-76485000D01*
X162500000Y-76488556D01*
X162536105Y-76485000D01*
X162644085Y-76474365D01*
X162782633Y-76432337D01*
X162910320Y-76364087D01*
X163022238Y-76272238D01*
X163045258Y-76244188D01*
X163754447Y-75535000D01*
X163851939Y-75535000D01*
X164051898Y-75495226D01*
X164240256Y-75417205D01*
X164409774Y-75303937D01*
X164553937Y-75159774D01*
X164667205Y-74990256D01*
X164745226Y-74801898D01*
X164785000Y-74601939D01*
X164785000Y-74398061D01*
X164745226Y-74198102D01*
X164667205Y-74009744D01*
X164553937Y-73840226D01*
X164409774Y-73696063D01*
X164240256Y-73582795D01*
X164051898Y-73504774D01*
X163851939Y-73465000D01*
X163648061Y-73465000D01*
X163448102Y-73504774D01*
X163259744Y-73582795D01*
X163090226Y-73696063D01*
X162946063Y-73840226D01*
X162832795Y-74009744D01*
X162754774Y-74198102D01*
X162715000Y-74398061D01*
X162715000Y-74495553D01*
X162195554Y-75015000D01*
X154054447Y-75015000D01*
X153636173Y-74596727D01*
X153660000Y-74476939D01*
X153660000Y-74273061D01*
X153620226Y-74073102D01*
X153542205Y-73884744D01*
X153428937Y-73715226D01*
X153284774Y-73571063D01*
X153115256Y-73457795D01*
X152926898Y-73379774D01*
X152726939Y-73340000D01*
X152523061Y-73340000D01*
X152323102Y-73379774D01*
X152134744Y-73457795D01*
X151965226Y-73571063D01*
X151821063Y-73715226D01*
X151707795Y-73884744D01*
X151629774Y-74073102D01*
X151590000Y-74273061D01*
X142377000Y-74273061D01*
X142377000Y-71929690D01*
X152110000Y-71929690D01*
X152110000Y-72150310D01*
X152153041Y-72366692D01*
X152237469Y-72570519D01*
X152360039Y-72753958D01*
X152516042Y-72909961D01*
X152699481Y-73032531D01*
X152903308Y-73116959D01*
X153119690Y-73160000D01*
X153340310Y-73160000D01*
X153556692Y-73116959D01*
X153760519Y-73032531D01*
X153943958Y-72909961D01*
X154099961Y-72753958D01*
X154222531Y-72570519D01*
X154306959Y-72366692D01*
X154350000Y-72150310D01*
X154350000Y-71929690D01*
X154650000Y-71929690D01*
X154650000Y-72150310D01*
X154693041Y-72366692D01*
X154777469Y-72570519D01*
X154900039Y-72753958D01*
X155056042Y-72909961D01*
X155239481Y-73032531D01*
X155443308Y-73116959D01*
X155659690Y-73160000D01*
X155880310Y-73160000D01*
X156096692Y-73116959D01*
X156300519Y-73032531D01*
X156483958Y-72909961D01*
X156639961Y-72753958D01*
X156762531Y-72570519D01*
X156846959Y-72366692D01*
X156890000Y-72150310D01*
X156890000Y-71929690D01*
X156846959Y-71713308D01*
X156762531Y-71509481D01*
X156639961Y-71326042D01*
X156483958Y-71170039D01*
X156300519Y-71047469D01*
X156096692Y-70963041D01*
X155880310Y-70920000D01*
X155659690Y-70920000D01*
X155443308Y-70963041D01*
X155239481Y-71047469D01*
X155056042Y-71170039D01*
X154900039Y-71326042D01*
X154777469Y-71509481D01*
X154693041Y-71713308D01*
X154650000Y-71929690D01*
X154350000Y-71929690D01*
X154306959Y-71713308D01*
X154222531Y-71509481D01*
X154099961Y-71326042D01*
X153943958Y-71170039D01*
X153760519Y-71047469D01*
X153556692Y-70963041D01*
X153340310Y-70920000D01*
X153119690Y-70920000D01*
X152903308Y-70963041D01*
X152699481Y-71047469D01*
X152516042Y-71170039D01*
X152360039Y-71326042D01*
X152237469Y-71509481D01*
X152153041Y-71713308D01*
X152110000Y-71929690D01*
X142377000Y-71929690D01*
X142377000Y-69389690D01*
X152110000Y-69389690D01*
X152110000Y-69610310D01*
X152153041Y-69826692D01*
X152237469Y-70030519D01*
X152360039Y-70213958D01*
X152516042Y-70369961D01*
X152699481Y-70492531D01*
X152903308Y-70576959D01*
X153119690Y-70620000D01*
X153340310Y-70620000D01*
X153556692Y-70576959D01*
X153760519Y-70492531D01*
X153943958Y-70369961D01*
X154099961Y-70213958D01*
X154222531Y-70030519D01*
X154306959Y-69826692D01*
X154350000Y-69610310D01*
X154350000Y-69389690D01*
X154650000Y-69389690D01*
X154650000Y-69610310D01*
X154693041Y-69826692D01*
X154777469Y-70030519D01*
X154900039Y-70213958D01*
X155056042Y-70369961D01*
X155239481Y-70492531D01*
X155443308Y-70576959D01*
X155659690Y-70620000D01*
X155880310Y-70620000D01*
X156096692Y-70576959D01*
X156300519Y-70492531D01*
X156483958Y-70369961D01*
X156639961Y-70213958D01*
X156762531Y-70030519D01*
X156846959Y-69826692D01*
X156890000Y-69610310D01*
X156890000Y-69389690D01*
X156846959Y-69173308D01*
X156762531Y-68969481D01*
X156639961Y-68786042D01*
X156483958Y-68630039D01*
X156300519Y-68507469D01*
X156096692Y-68423041D01*
X155880310Y-68380000D01*
X155659690Y-68380000D01*
X155443308Y-68423041D01*
X155239481Y-68507469D01*
X155056042Y-68630039D01*
X154900039Y-68786042D01*
X154777469Y-68969481D01*
X154693041Y-69173308D01*
X154650000Y-69389690D01*
X154350000Y-69389690D01*
X154306959Y-69173308D01*
X154222531Y-68969481D01*
X154099961Y-68786042D01*
X153943958Y-68630039D01*
X153760519Y-68507469D01*
X153556692Y-68423041D01*
X153340310Y-68380000D01*
X153119690Y-68380000D01*
X152903308Y-68423041D01*
X152699481Y-68507469D01*
X152516042Y-68630039D01*
X152360039Y-68786042D01*
X152237469Y-68969481D01*
X152153041Y-69173308D01*
X152110000Y-69389690D01*
X142377000Y-69389690D01*
X142377000Y-66849690D01*
X152110000Y-66849690D01*
X152110000Y-67070310D01*
X152153041Y-67286692D01*
X152237469Y-67490519D01*
X152360039Y-67673958D01*
X152516042Y-67829961D01*
X152699481Y-67952531D01*
X152903308Y-68036959D01*
X153119690Y-68080000D01*
X153340310Y-68080000D01*
X153556692Y-68036959D01*
X153760519Y-67952531D01*
X153943958Y-67829961D01*
X154099961Y-67673958D01*
X154222531Y-67490519D01*
X154306959Y-67286692D01*
X154350000Y-67070310D01*
X154350000Y-66849690D01*
X154650000Y-66849690D01*
X154650000Y-67070310D01*
X154693041Y-67286692D01*
X154777469Y-67490519D01*
X154900039Y-67673958D01*
X155056042Y-67829961D01*
X155239481Y-67952531D01*
X155443308Y-68036959D01*
X155659690Y-68080000D01*
X155880310Y-68080000D01*
X156096692Y-68036959D01*
X156300519Y-67952531D01*
X156483958Y-67829961D01*
X156639961Y-67673958D01*
X156762531Y-67490519D01*
X156846959Y-67286692D01*
X156890000Y-67070310D01*
X156890000Y-66849690D01*
X156846959Y-66633308D01*
X156762531Y-66429481D01*
X156639961Y-66246042D01*
X156483958Y-66090039D01*
X156300519Y-65967469D01*
X156096692Y-65883041D01*
X155880310Y-65840000D01*
X155659690Y-65840000D01*
X155443308Y-65883041D01*
X155239481Y-65967469D01*
X155056042Y-66090039D01*
X154900039Y-66246042D01*
X154777469Y-66429481D01*
X154693041Y-66633308D01*
X154650000Y-66849690D01*
X154350000Y-66849690D01*
X154306959Y-66633308D01*
X154222531Y-66429481D01*
X154099961Y-66246042D01*
X153943958Y-66090039D01*
X153760519Y-65967469D01*
X153556692Y-65883041D01*
X153340310Y-65840000D01*
X153119690Y-65840000D01*
X152903308Y-65883041D01*
X152699481Y-65967469D01*
X152516042Y-66090039D01*
X152360039Y-66246042D01*
X152237469Y-66429481D01*
X152153041Y-66633308D01*
X152110000Y-66849690D01*
X142377000Y-66849690D01*
X142377000Y-63398061D01*
X157965000Y-63398061D01*
X157965000Y-63601939D01*
X158004774Y-63801898D01*
X158082795Y-63990256D01*
X158196063Y-64159774D01*
X158340226Y-64303937D01*
X158509744Y-64417205D01*
X158698102Y-64495226D01*
X158898061Y-64535000D01*
X158995553Y-64535000D01*
X159204746Y-64744193D01*
X159227762Y-64772238D01*
X159339680Y-64864087D01*
X159467367Y-64932337D01*
X159563886Y-64961616D01*
X159605914Y-64974365D01*
X159620132Y-64975765D01*
X159713895Y-64985000D01*
X159713902Y-64985000D01*
X159749999Y-64988555D01*
X159786096Y-64985000D01*
X161771289Y-64985000D01*
X161840226Y-65053937D01*
X162009744Y-65167205D01*
X162198102Y-65245226D01*
X162398061Y-65285000D01*
X162601939Y-65285000D01*
X162801898Y-65245226D01*
X162990256Y-65167205D01*
X163159774Y-65053937D01*
X163303937Y-64909774D01*
X163417205Y-64740256D01*
X163495226Y-64551898D01*
X163535000Y-64351939D01*
X163535000Y-64148061D01*
X163495226Y-63948102D01*
X163417205Y-63759744D01*
X163303937Y-63590226D01*
X163159774Y-63446063D01*
X162990256Y-63332795D01*
X162801898Y-63254774D01*
X162601939Y-63215000D01*
X162398061Y-63215000D01*
X162198102Y-63254774D01*
X162009744Y-63332795D01*
X161840226Y-63446063D01*
X161771289Y-63515000D01*
X160054447Y-63515000D01*
X160035000Y-63495553D01*
X160035000Y-63398061D01*
X159995226Y-63198102D01*
X159917205Y-63009744D01*
X159803937Y-62840226D01*
X159659774Y-62696063D01*
X159490256Y-62582795D01*
X159301898Y-62504774D01*
X159101939Y-62465000D01*
X158898061Y-62465000D01*
X158698102Y-62504774D01*
X158509744Y-62582795D01*
X158340226Y-62696063D01*
X158196063Y-62840226D01*
X158082795Y-63009744D01*
X158004774Y-63198102D01*
X157965000Y-63398061D01*
X142377000Y-63398061D01*
X142377000Y-41699299D01*
X142627244Y-41802953D01*
X143039721Y-41885000D01*
X143460279Y-41885000D01*
X143872756Y-41802953D01*
X144261302Y-41642012D01*
X144610983Y-41408363D01*
X144908363Y-41110983D01*
X145142012Y-40761302D01*
X145302953Y-40372756D01*
X145385000Y-39960279D01*
X145385000Y-39539721D01*
X145302953Y-39127244D01*
X145142012Y-38738698D01*
X144908363Y-38389017D01*
X144610983Y-38091637D01*
X144261302Y-37857988D01*
X143872756Y-37697047D01*
X143460279Y-37615000D01*
X143039721Y-37615000D01*
X142627244Y-37697047D01*
X142377000Y-37800701D01*
X142377000Y-36877000D01*
X160751245Y-36877000D01*
X161446608Y-37341627D01*
M02*
