M48
; DRILL file {KiCad (5.1.4)-1} date 7/5/2020 1:48:32 PM
; FORMAT={3:3/ absolute / metric / suppress trailing zeros}
; #@! TF.CreationDate,2020-07-05T13:48:32-04:00
; #@! TF.GenerationSoftware,Kicad,Pcbnew,(5.1.4)-1
; #@! TF.FileFunction,NonPlated,1,2,NPTH
FMAT,2
METRIC,LZ
T1C0.970
T2C3.000
%
G90
G05
T1
X15323Y-06696
X15323Y-0695
X15323Y-07204
X15577Y-06696
X15577Y-0695
X15577Y-07204
X12673Y-06696
X12673Y-0695
X12673Y-07204
X12927Y-06696
X12927Y-0695
X12927Y-07204
T2
X11675Y-03975
X13925Y-06225
X11675Y-0765
X13925Y-099
X14325Y-03975
X16575Y-06225
X14325Y-0765
X16575Y-099
T0
M30
