G04 #@! TF.GenerationSoftware,KiCad,Pcbnew,(5.1.4)-1*
G04 #@! TF.CreationDate,2020-07-05T13:48:23-04:00*
G04 #@! TF.ProjectId,Pressure_sensor_daughterboard-MS5607-MS5803,50726573-7375-4726-955f-73656e736f72,1.2*
G04 #@! TF.SameCoordinates,Original*
G04 #@! TF.FileFunction,Soldermask,Bot*
G04 #@! TF.FilePolarity,Negative*
%FSLAX46Y46*%
G04 Gerber Fmt 4.6, Leading zero omitted, Abs format (unit mm)*
G04 Created by KiCad (PCBNEW (5.1.4)-1) date 2020-07-05 13:48:23*
%MOMM*%
%LPD*%
G04 APERTURE LIST*
%ADD10C,0.100000*%
G04 APERTURE END LIST*
D10*
G36*
X164352564Y-101595099D02*
G01*
X164594126Y-101643149D01*
X165276765Y-101925907D01*
X165891123Y-102336408D01*
X166413592Y-102858877D01*
X166824093Y-103473235D01*
X167106851Y-104155874D01*
X167106851Y-104155875D01*
X167251000Y-104880557D01*
X167251000Y-105619443D01*
X167234777Y-105701000D01*
X167106851Y-106344126D01*
X166824093Y-107026765D01*
X166413592Y-107641123D01*
X165891123Y-108163592D01*
X165276765Y-108574093D01*
X164594126Y-108856851D01*
X164352564Y-108904901D01*
X163869443Y-109001000D01*
X163130557Y-109001000D01*
X162647436Y-108904901D01*
X162405874Y-108856851D01*
X161723235Y-108574093D01*
X161108877Y-108163592D01*
X160586408Y-107641123D01*
X160175907Y-107026765D01*
X159893149Y-106344126D01*
X159765223Y-105701000D01*
X159749000Y-105619443D01*
X159749000Y-104880557D01*
X159893149Y-104155875D01*
X159893149Y-104155874D01*
X160175907Y-103473235D01*
X160586408Y-102858877D01*
X161108877Y-102336408D01*
X161723235Y-101925907D01*
X162405874Y-101643149D01*
X162647436Y-101595099D01*
X163130557Y-101499000D01*
X163869443Y-101499000D01*
X164352564Y-101595099D01*
X164352564Y-101595099D01*
G37*
G36*
X119852564Y-101595099D02*
G01*
X120094126Y-101643149D01*
X120776765Y-101925907D01*
X121391123Y-102336408D01*
X121913592Y-102858877D01*
X122324093Y-103473235D01*
X122606851Y-104155874D01*
X122606851Y-104155875D01*
X122751000Y-104880557D01*
X122751000Y-105619443D01*
X122734777Y-105701000D01*
X122606851Y-106344126D01*
X122324093Y-107026765D01*
X121913592Y-107641123D01*
X121391123Y-108163592D01*
X120776765Y-108574093D01*
X120094126Y-108856851D01*
X119852564Y-108904901D01*
X119369443Y-109001000D01*
X118630557Y-109001000D01*
X118147436Y-108904901D01*
X117905874Y-108856851D01*
X117223235Y-108574093D01*
X116608877Y-108163592D01*
X116086408Y-107641123D01*
X115675907Y-107026765D01*
X115393149Y-106344126D01*
X115265223Y-105701000D01*
X115249000Y-105619443D01*
X115249000Y-104880557D01*
X115393149Y-104155875D01*
X115393149Y-104155874D01*
X115675907Y-103473235D01*
X116086408Y-102858877D01*
X116608877Y-102336408D01*
X117223235Y-101925907D01*
X117905874Y-101643149D01*
X118147436Y-101595099D01*
X118630557Y-101499000D01*
X119369443Y-101499000D01*
X119852564Y-101595099D01*
X119852564Y-101595099D01*
G37*
G36*
X166052585Y-97478802D02*
G01*
X166202410Y-97508604D01*
X166484674Y-97625521D01*
X166738705Y-97795259D01*
X166954741Y-98011295D01*
X167124479Y-98265326D01*
X167241396Y-98547590D01*
X167301000Y-98847240D01*
X167301000Y-99152760D01*
X167241396Y-99452410D01*
X167124479Y-99734674D01*
X166954741Y-99988705D01*
X166738705Y-100204741D01*
X166484674Y-100374479D01*
X166202410Y-100491396D01*
X166052585Y-100521198D01*
X165902761Y-100551000D01*
X165597239Y-100551000D01*
X165447415Y-100521198D01*
X165297590Y-100491396D01*
X165015326Y-100374479D01*
X164761295Y-100204741D01*
X164545259Y-99988705D01*
X164375521Y-99734674D01*
X164258604Y-99452410D01*
X164199000Y-99152760D01*
X164199000Y-98847240D01*
X164258604Y-98547590D01*
X164375521Y-98265326D01*
X164545259Y-98011295D01*
X164761295Y-97795259D01*
X165015326Y-97625521D01*
X165297590Y-97508604D01*
X165447415Y-97478802D01*
X165597239Y-97449000D01*
X165902761Y-97449000D01*
X166052585Y-97478802D01*
X166052585Y-97478802D01*
G37*
G36*
X139552585Y-97478802D02*
G01*
X139702410Y-97508604D01*
X139984674Y-97625521D01*
X140238705Y-97795259D01*
X140454741Y-98011295D01*
X140624479Y-98265326D01*
X140741396Y-98547590D01*
X140801000Y-98847240D01*
X140801000Y-99152760D01*
X140741396Y-99452410D01*
X140624479Y-99734674D01*
X140454741Y-99988705D01*
X140238705Y-100204741D01*
X139984674Y-100374479D01*
X139702410Y-100491396D01*
X139552585Y-100521198D01*
X139402761Y-100551000D01*
X139097239Y-100551000D01*
X138947415Y-100521198D01*
X138797590Y-100491396D01*
X138515326Y-100374479D01*
X138261295Y-100204741D01*
X138045259Y-99988705D01*
X137875521Y-99734674D01*
X137758604Y-99452410D01*
X137699000Y-99152760D01*
X137699000Y-98847240D01*
X137758604Y-98547590D01*
X137875521Y-98265326D01*
X138045259Y-98011295D01*
X138261295Y-97795259D01*
X138515326Y-97625521D01*
X138797590Y-97508604D01*
X138947415Y-97478802D01*
X139097239Y-97449000D01*
X139402761Y-97449000D01*
X139552585Y-97478802D01*
X139552585Y-97478802D01*
G37*
G36*
X117052585Y-74978802D02*
G01*
X117202410Y-75008604D01*
X117484674Y-75125521D01*
X117738705Y-75295259D01*
X117954741Y-75511295D01*
X118124479Y-75765326D01*
X118241396Y-76047590D01*
X118301000Y-76347240D01*
X118301000Y-76652760D01*
X118241396Y-76952410D01*
X118124479Y-77234674D01*
X117954741Y-77488705D01*
X117738705Y-77704741D01*
X117484674Y-77874479D01*
X117202410Y-77991396D01*
X117052585Y-78021198D01*
X116902761Y-78051000D01*
X116597239Y-78051000D01*
X116447415Y-78021198D01*
X116297590Y-77991396D01*
X116015326Y-77874479D01*
X115761295Y-77704741D01*
X115545259Y-77488705D01*
X115375521Y-77234674D01*
X115258604Y-76952410D01*
X115199000Y-76652760D01*
X115199000Y-76347240D01*
X115258604Y-76047590D01*
X115375521Y-75765326D01*
X115545259Y-75511295D01*
X115761295Y-75295259D01*
X116015326Y-75125521D01*
X116297590Y-75008604D01*
X116447415Y-74978802D01*
X116597239Y-74949000D01*
X116902761Y-74949000D01*
X117052585Y-74978802D01*
X117052585Y-74978802D01*
G37*
G36*
X143552585Y-74978802D02*
G01*
X143702410Y-75008604D01*
X143984674Y-75125521D01*
X144238705Y-75295259D01*
X144454741Y-75511295D01*
X144624479Y-75765326D01*
X144741396Y-76047590D01*
X144801000Y-76347240D01*
X144801000Y-76652760D01*
X144741396Y-76952410D01*
X144624479Y-77234674D01*
X144454741Y-77488705D01*
X144238705Y-77704741D01*
X143984674Y-77874479D01*
X143702410Y-77991396D01*
X143552585Y-78021198D01*
X143402761Y-78051000D01*
X143097239Y-78051000D01*
X142947415Y-78021198D01*
X142797590Y-77991396D01*
X142515326Y-77874479D01*
X142261295Y-77704741D01*
X142045259Y-77488705D01*
X141875521Y-77234674D01*
X141758604Y-76952410D01*
X141699000Y-76652760D01*
X141699000Y-76347240D01*
X141758604Y-76047590D01*
X141875521Y-75765326D01*
X142045259Y-75511295D01*
X142261295Y-75295259D01*
X142515326Y-75125521D01*
X142797590Y-75008604D01*
X142947415Y-74978802D01*
X143097239Y-74949000D01*
X143402761Y-74949000D01*
X143552585Y-74978802D01*
X143552585Y-74978802D01*
G37*
G36*
X137631552Y-74566331D02*
G01*
X137713627Y-74600328D01*
X137713629Y-74600329D01*
X137740746Y-74618448D01*
X137787495Y-74649685D01*
X137850315Y-74712505D01*
X137899672Y-74786373D01*
X137933669Y-74868448D01*
X137951000Y-74955579D01*
X137951000Y-75044421D01*
X137933669Y-75131552D01*
X137912081Y-75183669D01*
X137899671Y-75213629D01*
X137850314Y-75287496D01*
X137787496Y-75350314D01*
X137713629Y-75399671D01*
X137713628Y-75399672D01*
X137713627Y-75399672D01*
X137631552Y-75433669D01*
X137544421Y-75451000D01*
X137455579Y-75451000D01*
X137368448Y-75433669D01*
X137286373Y-75399672D01*
X137286372Y-75399672D01*
X137286371Y-75399671D01*
X137212504Y-75350314D01*
X137149686Y-75287496D01*
X137100329Y-75213629D01*
X137087919Y-75183669D01*
X137066331Y-75131552D01*
X137049000Y-75044421D01*
X137049000Y-74955579D01*
X137066331Y-74868448D01*
X137100328Y-74786373D01*
X137149685Y-74712505D01*
X137212505Y-74649685D01*
X137259254Y-74618448D01*
X137286371Y-74600329D01*
X137286373Y-74600328D01*
X137368448Y-74566331D01*
X137455579Y-74549000D01*
X137544421Y-74549000D01*
X137631552Y-74566331D01*
X137631552Y-74566331D01*
G37*
G36*
X135631552Y-74316331D02*
G01*
X135713627Y-74350328D01*
X135713629Y-74350329D01*
X135740746Y-74368448D01*
X135787495Y-74399685D01*
X135850315Y-74462505D01*
X135899672Y-74536373D01*
X135933669Y-74618448D01*
X135951000Y-74705579D01*
X135951000Y-74794421D01*
X135933669Y-74881552D01*
X135903005Y-74955580D01*
X135899671Y-74963629D01*
X135850314Y-75037496D01*
X135787496Y-75100314D01*
X135713629Y-75149671D01*
X135713628Y-75149672D01*
X135713627Y-75149672D01*
X135631552Y-75183669D01*
X135544421Y-75201000D01*
X135455579Y-75201000D01*
X135368448Y-75183669D01*
X135286373Y-75149672D01*
X135286372Y-75149672D01*
X135286371Y-75149671D01*
X135212504Y-75100314D01*
X135149686Y-75037496D01*
X135100329Y-74963629D01*
X135096995Y-74955580D01*
X135066331Y-74881552D01*
X135049000Y-74794421D01*
X135049000Y-74705579D01*
X135066331Y-74618448D01*
X135100328Y-74536373D01*
X135149685Y-74462505D01*
X135212505Y-74399685D01*
X135259254Y-74368448D01*
X135286371Y-74350329D01*
X135286373Y-74350328D01*
X135368448Y-74316331D01*
X135455579Y-74299000D01*
X135544421Y-74299000D01*
X135631552Y-74316331D01*
X135631552Y-74316331D01*
G37*
G36*
X128131552Y-74066331D02*
G01*
X128213627Y-74100328D01*
X128213629Y-74100329D01*
X128240746Y-74118448D01*
X128287495Y-74149685D01*
X128350315Y-74212505D01*
X128399672Y-74286373D01*
X128433669Y-74368448D01*
X128451000Y-74455579D01*
X128451000Y-74544421D01*
X128433669Y-74631552D01*
X128403005Y-74705580D01*
X128399671Y-74713629D01*
X128374825Y-74750813D01*
X128351065Y-74786373D01*
X128350314Y-74787496D01*
X128287496Y-74850314D01*
X128213629Y-74899671D01*
X128213628Y-74899672D01*
X128213627Y-74899672D01*
X128131552Y-74933669D01*
X128044421Y-74951000D01*
X127955579Y-74951000D01*
X127868448Y-74933669D01*
X127786373Y-74899672D01*
X127786372Y-74899672D01*
X127786371Y-74899671D01*
X127712504Y-74850314D01*
X127649686Y-74787496D01*
X127648936Y-74786373D01*
X127625175Y-74750813D01*
X127600329Y-74713629D01*
X127596995Y-74705580D01*
X127566331Y-74631552D01*
X127549000Y-74544421D01*
X127549000Y-74455579D01*
X127566331Y-74368448D01*
X127600328Y-74286373D01*
X127649685Y-74212505D01*
X127712505Y-74149685D01*
X127759254Y-74118448D01*
X127786371Y-74100329D01*
X127786373Y-74100328D01*
X127868448Y-74066331D01*
X127955579Y-74049000D01*
X128044421Y-74049000D01*
X128131552Y-74066331D01*
X128131552Y-74066331D01*
G37*
G36*
X126631552Y-74066331D02*
G01*
X126713627Y-74100328D01*
X126713629Y-74100329D01*
X126740746Y-74118448D01*
X126787495Y-74149685D01*
X126850315Y-74212505D01*
X126899672Y-74286373D01*
X126933669Y-74368448D01*
X126951000Y-74455579D01*
X126951000Y-74544421D01*
X126933669Y-74631552D01*
X126903005Y-74705580D01*
X126899671Y-74713629D01*
X126874825Y-74750813D01*
X126851065Y-74786373D01*
X126850314Y-74787496D01*
X126787496Y-74850314D01*
X126713629Y-74899671D01*
X126713628Y-74899672D01*
X126713627Y-74899672D01*
X126631552Y-74933669D01*
X126544421Y-74951000D01*
X126455579Y-74951000D01*
X126368448Y-74933669D01*
X126286373Y-74899672D01*
X126286372Y-74899672D01*
X126286371Y-74899671D01*
X126212504Y-74850314D01*
X126149686Y-74787496D01*
X126148936Y-74786373D01*
X126125175Y-74750813D01*
X126100329Y-74713629D01*
X126096995Y-74705580D01*
X126066331Y-74631552D01*
X126049000Y-74544421D01*
X126049000Y-74455579D01*
X126066331Y-74368448D01*
X126100328Y-74286373D01*
X126149685Y-74212505D01*
X126212505Y-74149685D01*
X126259254Y-74118448D01*
X126286371Y-74100329D01*
X126286373Y-74100328D01*
X126368448Y-74066331D01*
X126455579Y-74049000D01*
X126544421Y-74049000D01*
X126631552Y-74066331D01*
X126631552Y-74066331D01*
G37*
G36*
X154631552Y-74066331D02*
G01*
X154713627Y-74100328D01*
X154713629Y-74100329D01*
X154740746Y-74118448D01*
X154787495Y-74149685D01*
X154850315Y-74212505D01*
X154899672Y-74286373D01*
X154933669Y-74368448D01*
X154951000Y-74455579D01*
X154951000Y-74544421D01*
X154933669Y-74631552D01*
X154903005Y-74705580D01*
X154899671Y-74713629D01*
X154874825Y-74750813D01*
X154851065Y-74786373D01*
X154850314Y-74787496D01*
X154787496Y-74850314D01*
X154713629Y-74899671D01*
X154713628Y-74899672D01*
X154713627Y-74899672D01*
X154631552Y-74933669D01*
X154544421Y-74951000D01*
X154455579Y-74951000D01*
X154368448Y-74933669D01*
X154286373Y-74899672D01*
X154286372Y-74899672D01*
X154286371Y-74899671D01*
X154212504Y-74850314D01*
X154149686Y-74787496D01*
X154148936Y-74786373D01*
X154125175Y-74750813D01*
X154100329Y-74713629D01*
X154096995Y-74705580D01*
X154066331Y-74631552D01*
X154049000Y-74544421D01*
X154049000Y-74455579D01*
X154066331Y-74368448D01*
X154100328Y-74286373D01*
X154149685Y-74212505D01*
X154212505Y-74149685D01*
X154259254Y-74118448D01*
X154286371Y-74100329D01*
X154286373Y-74100328D01*
X154368448Y-74066331D01*
X154455579Y-74049000D01*
X154544421Y-74049000D01*
X154631552Y-74066331D01*
X154631552Y-74066331D01*
G37*
G36*
X162131552Y-74066331D02*
G01*
X162213627Y-74100328D01*
X162213629Y-74100329D01*
X162240746Y-74118448D01*
X162287495Y-74149685D01*
X162350315Y-74212505D01*
X162399672Y-74286373D01*
X162433669Y-74368448D01*
X162451000Y-74455579D01*
X162451000Y-74544421D01*
X162433669Y-74631552D01*
X162403005Y-74705580D01*
X162399671Y-74713629D01*
X162374825Y-74750813D01*
X162351065Y-74786373D01*
X162350314Y-74787496D01*
X162287496Y-74850314D01*
X162213629Y-74899671D01*
X162213628Y-74899672D01*
X162213627Y-74899672D01*
X162131552Y-74933669D01*
X162044421Y-74951000D01*
X161955579Y-74951000D01*
X161868448Y-74933669D01*
X161786373Y-74899672D01*
X161786372Y-74899672D01*
X161786371Y-74899671D01*
X161712504Y-74850314D01*
X161649686Y-74787496D01*
X161648936Y-74786373D01*
X161625175Y-74750813D01*
X161600329Y-74713629D01*
X161596995Y-74705580D01*
X161566331Y-74631552D01*
X161549000Y-74544421D01*
X161549000Y-74455579D01*
X161566331Y-74368448D01*
X161600328Y-74286373D01*
X161649685Y-74212505D01*
X161712505Y-74149685D01*
X161759254Y-74118448D01*
X161786371Y-74100329D01*
X161786373Y-74100328D01*
X161868448Y-74066331D01*
X161955579Y-74049000D01*
X162044421Y-74049000D01*
X162131552Y-74066331D01*
X162131552Y-74066331D01*
G37*
G36*
X163881552Y-74066331D02*
G01*
X163963627Y-74100328D01*
X163963629Y-74100329D01*
X163990746Y-74118448D01*
X164037495Y-74149685D01*
X164100315Y-74212505D01*
X164149672Y-74286373D01*
X164183669Y-74368448D01*
X164201000Y-74455579D01*
X164201000Y-74544421D01*
X164183669Y-74631552D01*
X164153005Y-74705580D01*
X164149671Y-74713629D01*
X164124825Y-74750813D01*
X164101065Y-74786373D01*
X164100314Y-74787496D01*
X164037496Y-74850314D01*
X163963629Y-74899671D01*
X163963628Y-74899672D01*
X163963627Y-74899672D01*
X163881552Y-74933669D01*
X163794421Y-74951000D01*
X163705579Y-74951000D01*
X163618448Y-74933669D01*
X163536373Y-74899672D01*
X163536372Y-74899672D01*
X163536371Y-74899671D01*
X163462504Y-74850314D01*
X163399686Y-74787496D01*
X163398936Y-74786373D01*
X163375175Y-74750813D01*
X163350329Y-74713629D01*
X163346995Y-74705580D01*
X163316331Y-74631552D01*
X163299000Y-74544421D01*
X163299000Y-74455579D01*
X163316331Y-74368448D01*
X163350328Y-74286373D01*
X163399685Y-74212505D01*
X163462505Y-74149685D01*
X163509254Y-74118448D01*
X163536371Y-74100329D01*
X163536373Y-74100328D01*
X163618448Y-74066331D01*
X163705579Y-74049000D01*
X163794421Y-74049000D01*
X163881552Y-74066331D01*
X163881552Y-74066331D01*
G37*
G36*
X152756552Y-73941331D02*
G01*
X152838627Y-73975328D01*
X152838629Y-73975329D01*
X152912496Y-74024686D01*
X152975314Y-74087504D01*
X153016863Y-74149685D01*
X153024672Y-74161373D01*
X153058669Y-74243448D01*
X153076000Y-74330579D01*
X153076000Y-74419421D01*
X153058669Y-74506552D01*
X153041086Y-74549000D01*
X153024671Y-74588629D01*
X153016854Y-74600328D01*
X152983874Y-74649686D01*
X152975314Y-74662496D01*
X152912496Y-74725314D01*
X152838629Y-74774671D01*
X152838628Y-74774672D01*
X152838627Y-74774672D01*
X152756552Y-74808669D01*
X152669421Y-74826000D01*
X152580579Y-74826000D01*
X152493448Y-74808669D01*
X152411373Y-74774672D01*
X152411372Y-74774672D01*
X152411371Y-74774671D01*
X152337504Y-74725314D01*
X152274686Y-74662496D01*
X152266127Y-74649686D01*
X152233146Y-74600328D01*
X152225329Y-74588629D01*
X152208914Y-74549000D01*
X152191331Y-74506552D01*
X152174000Y-74419421D01*
X152174000Y-74330579D01*
X152191331Y-74243448D01*
X152225328Y-74161373D01*
X152233138Y-74149685D01*
X152274686Y-74087504D01*
X152337504Y-74024686D01*
X152411371Y-73975329D01*
X152411373Y-73975328D01*
X152493448Y-73941331D01*
X152580579Y-73924000D01*
X152669421Y-73924000D01*
X152756552Y-73941331D01*
X152756552Y-73941331D01*
G37*
G36*
X157381552Y-73816331D02*
G01*
X157463627Y-73850328D01*
X157463629Y-73850329D01*
X157537496Y-73899686D01*
X157600314Y-73962504D01*
X157641863Y-74024685D01*
X157649672Y-74036373D01*
X157683669Y-74118448D01*
X157701000Y-74205579D01*
X157701000Y-74294421D01*
X157683669Y-74381552D01*
X157649672Y-74463627D01*
X157600315Y-74537495D01*
X157537495Y-74600315D01*
X157537474Y-74600329D01*
X157463629Y-74649671D01*
X157463628Y-74649672D01*
X157463627Y-74649672D01*
X157381552Y-74683669D01*
X157294421Y-74701000D01*
X157205579Y-74701000D01*
X157118448Y-74683669D01*
X157036373Y-74649672D01*
X157036372Y-74649672D01*
X157036371Y-74649671D01*
X156962526Y-74600329D01*
X156962505Y-74600315D01*
X156899685Y-74537495D01*
X156850328Y-74463627D01*
X156816331Y-74381552D01*
X156799000Y-74294421D01*
X156799000Y-74205579D01*
X156816331Y-74118448D01*
X156850328Y-74036373D01*
X156858138Y-74024685D01*
X156899686Y-73962504D01*
X156962504Y-73899686D01*
X157036371Y-73850329D01*
X157036373Y-73850328D01*
X157118448Y-73816331D01*
X157205579Y-73799000D01*
X157294421Y-73799000D01*
X157381552Y-73816331D01*
X157381552Y-73816331D01*
G37*
G36*
X130881552Y-73816331D02*
G01*
X130963627Y-73850328D01*
X130963629Y-73850329D01*
X131037496Y-73899686D01*
X131100314Y-73962504D01*
X131141863Y-74024685D01*
X131149672Y-74036373D01*
X131183669Y-74118448D01*
X131201000Y-74205579D01*
X131201000Y-74294421D01*
X131183669Y-74381552D01*
X131149672Y-74463627D01*
X131100315Y-74537495D01*
X131037495Y-74600315D01*
X131037474Y-74600329D01*
X130963629Y-74649671D01*
X130963628Y-74649672D01*
X130963627Y-74649672D01*
X130881552Y-74683669D01*
X130794421Y-74701000D01*
X130705579Y-74701000D01*
X130618448Y-74683669D01*
X130536373Y-74649672D01*
X130536372Y-74649672D01*
X130536371Y-74649671D01*
X130462526Y-74600329D01*
X130462505Y-74600315D01*
X130399685Y-74537495D01*
X130350328Y-74463627D01*
X130316331Y-74381552D01*
X130299000Y-74294421D01*
X130299000Y-74205579D01*
X130316331Y-74118448D01*
X130350328Y-74036373D01*
X130358138Y-74024685D01*
X130399686Y-73962504D01*
X130462504Y-73899686D01*
X130536371Y-73850329D01*
X130536373Y-73850328D01*
X130618448Y-73816331D01*
X130705579Y-73799000D01*
X130794421Y-73799000D01*
X130881552Y-73816331D01*
X130881552Y-73816331D01*
G37*
G36*
X155926342Y-71524598D02*
G01*
X155926344Y-71524599D01*
X155926345Y-71524599D01*
X156023891Y-71565003D01*
X156111680Y-71623662D01*
X156186338Y-71698320D01*
X156244997Y-71786109D01*
X156285401Y-71883655D01*
X156306000Y-71987209D01*
X156306000Y-72092791D01*
X156285401Y-72196345D01*
X156244997Y-72293891D01*
X156186338Y-72381680D01*
X156111680Y-72456338D01*
X156023891Y-72514997D01*
X155926345Y-72555401D01*
X155926344Y-72555401D01*
X155926342Y-72555402D01*
X155822793Y-72576000D01*
X155717207Y-72576000D01*
X155613658Y-72555402D01*
X155613656Y-72555401D01*
X155613655Y-72555401D01*
X155516109Y-72514997D01*
X155428320Y-72456338D01*
X155353662Y-72381680D01*
X155295003Y-72293891D01*
X155254599Y-72196345D01*
X155234000Y-72092791D01*
X155234000Y-71987209D01*
X155254599Y-71883655D01*
X155295003Y-71786109D01*
X155353662Y-71698320D01*
X155428320Y-71623662D01*
X155516109Y-71565003D01*
X155613655Y-71524599D01*
X155613656Y-71524599D01*
X155613658Y-71524598D01*
X155717207Y-71504000D01*
X155822793Y-71504000D01*
X155926342Y-71524598D01*
X155926342Y-71524598D01*
G37*
G36*
X153386342Y-71524598D02*
G01*
X153386344Y-71524599D01*
X153386345Y-71524599D01*
X153483891Y-71565003D01*
X153571680Y-71623662D01*
X153646338Y-71698320D01*
X153704997Y-71786109D01*
X153745401Y-71883655D01*
X153766000Y-71987209D01*
X153766000Y-72092791D01*
X153745401Y-72196345D01*
X153704997Y-72293891D01*
X153646338Y-72381680D01*
X153571680Y-72456338D01*
X153483891Y-72514997D01*
X153386345Y-72555401D01*
X153386344Y-72555401D01*
X153386342Y-72555402D01*
X153282793Y-72576000D01*
X153177207Y-72576000D01*
X153073658Y-72555402D01*
X153073656Y-72555401D01*
X153073655Y-72555401D01*
X152976109Y-72514997D01*
X152888320Y-72456338D01*
X152813662Y-72381680D01*
X152755003Y-72293891D01*
X152714599Y-72196345D01*
X152694000Y-72092791D01*
X152694000Y-71987209D01*
X152714599Y-71883655D01*
X152755003Y-71786109D01*
X152813662Y-71698320D01*
X152888320Y-71623662D01*
X152976109Y-71565003D01*
X153073655Y-71524599D01*
X153073656Y-71524599D01*
X153073658Y-71524598D01*
X153177207Y-71504000D01*
X153282793Y-71504000D01*
X153386342Y-71524598D01*
X153386342Y-71524598D01*
G37*
G36*
X129426342Y-71524598D02*
G01*
X129426344Y-71524599D01*
X129426345Y-71524599D01*
X129523891Y-71565003D01*
X129611680Y-71623662D01*
X129686338Y-71698320D01*
X129744997Y-71786109D01*
X129785401Y-71883655D01*
X129806000Y-71987209D01*
X129806000Y-72092791D01*
X129785401Y-72196345D01*
X129744997Y-72293891D01*
X129686338Y-72381680D01*
X129611680Y-72456338D01*
X129523891Y-72514997D01*
X129426345Y-72555401D01*
X129426344Y-72555401D01*
X129426342Y-72555402D01*
X129322793Y-72576000D01*
X129217207Y-72576000D01*
X129113658Y-72555402D01*
X129113656Y-72555401D01*
X129113655Y-72555401D01*
X129016109Y-72514997D01*
X128928320Y-72456338D01*
X128853662Y-72381680D01*
X128795003Y-72293891D01*
X128754599Y-72196345D01*
X128734000Y-72092791D01*
X128734000Y-71987209D01*
X128754599Y-71883655D01*
X128795003Y-71786109D01*
X128853662Y-71698320D01*
X128928320Y-71623662D01*
X129016109Y-71565003D01*
X129113655Y-71524599D01*
X129113656Y-71524599D01*
X129113658Y-71524598D01*
X129217207Y-71504000D01*
X129322793Y-71504000D01*
X129426342Y-71524598D01*
X129426342Y-71524598D01*
G37*
G36*
X126886342Y-71524598D02*
G01*
X126886344Y-71524599D01*
X126886345Y-71524599D01*
X126983891Y-71565003D01*
X127071680Y-71623662D01*
X127146338Y-71698320D01*
X127204997Y-71786109D01*
X127245401Y-71883655D01*
X127266000Y-71987209D01*
X127266000Y-72092791D01*
X127245401Y-72196345D01*
X127204997Y-72293891D01*
X127146338Y-72381680D01*
X127071680Y-72456338D01*
X126983891Y-72514997D01*
X126886345Y-72555401D01*
X126886344Y-72555401D01*
X126886342Y-72555402D01*
X126782793Y-72576000D01*
X126677207Y-72576000D01*
X126573658Y-72555402D01*
X126573656Y-72555401D01*
X126573655Y-72555401D01*
X126476109Y-72514997D01*
X126388320Y-72456338D01*
X126313662Y-72381680D01*
X126255003Y-72293891D01*
X126214599Y-72196345D01*
X126194000Y-72092791D01*
X126194000Y-71987209D01*
X126214599Y-71883655D01*
X126255003Y-71786109D01*
X126313662Y-71698320D01*
X126388320Y-71623662D01*
X126476109Y-71565003D01*
X126573655Y-71524599D01*
X126573656Y-71524599D01*
X126573658Y-71524598D01*
X126677207Y-71504000D01*
X126782793Y-71504000D01*
X126886342Y-71524598D01*
X126886342Y-71524598D01*
G37*
G36*
X138131552Y-70816331D02*
G01*
X138213627Y-70850328D01*
X138213629Y-70850329D01*
X138250813Y-70875175D01*
X138287495Y-70899685D01*
X138350315Y-70962505D01*
X138399672Y-71036373D01*
X138433669Y-71118448D01*
X138451000Y-71205579D01*
X138451000Y-71294421D01*
X138433669Y-71381552D01*
X138399672Y-71463627D01*
X138399671Y-71463629D01*
X138350314Y-71537496D01*
X138287496Y-71600314D01*
X138213629Y-71649671D01*
X138213628Y-71649672D01*
X138213627Y-71649672D01*
X138131552Y-71683669D01*
X138044421Y-71701000D01*
X137955579Y-71701000D01*
X137868448Y-71683669D01*
X137786373Y-71649672D01*
X137786372Y-71649672D01*
X137786371Y-71649671D01*
X137712504Y-71600314D01*
X137649686Y-71537496D01*
X137600329Y-71463629D01*
X137600328Y-71463627D01*
X137566331Y-71381552D01*
X137549000Y-71294421D01*
X137549000Y-71205579D01*
X137566331Y-71118448D01*
X137600328Y-71036373D01*
X137649685Y-70962505D01*
X137712505Y-70899685D01*
X137749187Y-70875175D01*
X137786371Y-70850329D01*
X137786373Y-70850328D01*
X137868448Y-70816331D01*
X137955579Y-70799000D01*
X138044421Y-70799000D01*
X138131552Y-70816331D01*
X138131552Y-70816331D01*
G37*
G36*
X164881552Y-70066331D02*
G01*
X164963627Y-70100328D01*
X164963629Y-70100329D01*
X165000813Y-70125175D01*
X165037495Y-70149685D01*
X165100315Y-70212505D01*
X165149672Y-70286373D01*
X165183669Y-70368448D01*
X165201000Y-70455579D01*
X165201000Y-70544421D01*
X165183669Y-70631552D01*
X165149672Y-70713627D01*
X165100315Y-70787495D01*
X165037495Y-70850315D01*
X165037474Y-70850329D01*
X164963629Y-70899671D01*
X164963628Y-70899672D01*
X164963627Y-70899672D01*
X164881552Y-70933669D01*
X164794421Y-70951000D01*
X164705579Y-70951000D01*
X164618448Y-70933669D01*
X164536373Y-70899672D01*
X164536372Y-70899672D01*
X164536371Y-70899671D01*
X164462526Y-70850329D01*
X164462505Y-70850315D01*
X164399685Y-70787495D01*
X164350328Y-70713627D01*
X164316331Y-70631552D01*
X164299000Y-70544421D01*
X164299000Y-70455579D01*
X164316331Y-70368448D01*
X164350328Y-70286373D01*
X164399685Y-70212505D01*
X164462505Y-70149685D01*
X164499187Y-70125175D01*
X164536371Y-70100329D01*
X164536373Y-70100328D01*
X164618448Y-70066331D01*
X164705579Y-70049000D01*
X164794421Y-70049000D01*
X164881552Y-70066331D01*
X164881552Y-70066331D01*
G37*
G36*
X153386342Y-68984598D02*
G01*
X153386344Y-68984599D01*
X153386345Y-68984599D01*
X153483891Y-69025003D01*
X153571680Y-69083662D01*
X153646338Y-69158320D01*
X153704997Y-69246109D01*
X153745401Y-69343655D01*
X153766000Y-69447209D01*
X153766000Y-69552791D01*
X153745401Y-69656345D01*
X153704997Y-69753891D01*
X153646338Y-69841680D01*
X153571680Y-69916338D01*
X153483891Y-69974997D01*
X153386345Y-70015401D01*
X153386344Y-70015401D01*
X153386342Y-70015402D01*
X153282793Y-70036000D01*
X153177207Y-70036000D01*
X153073658Y-70015402D01*
X153073656Y-70015401D01*
X153073655Y-70015401D01*
X152976109Y-69974997D01*
X152888320Y-69916338D01*
X152813662Y-69841680D01*
X152755003Y-69753891D01*
X152714599Y-69656345D01*
X152694000Y-69552791D01*
X152694000Y-69447209D01*
X152714599Y-69343655D01*
X152755003Y-69246109D01*
X152813662Y-69158320D01*
X152888320Y-69083662D01*
X152976109Y-69025003D01*
X153073655Y-68984599D01*
X153073656Y-68984599D01*
X153073658Y-68984598D01*
X153177207Y-68964000D01*
X153282793Y-68964000D01*
X153386342Y-68984598D01*
X153386342Y-68984598D01*
G37*
G36*
X155926342Y-68984598D02*
G01*
X155926344Y-68984599D01*
X155926345Y-68984599D01*
X156023891Y-69025003D01*
X156111680Y-69083662D01*
X156186338Y-69158320D01*
X156244997Y-69246109D01*
X156285401Y-69343655D01*
X156306000Y-69447209D01*
X156306000Y-69552791D01*
X156285401Y-69656345D01*
X156244997Y-69753891D01*
X156186338Y-69841680D01*
X156111680Y-69916338D01*
X156023891Y-69974997D01*
X155926345Y-70015401D01*
X155926344Y-70015401D01*
X155926342Y-70015402D01*
X155822793Y-70036000D01*
X155717207Y-70036000D01*
X155613658Y-70015402D01*
X155613656Y-70015401D01*
X155613655Y-70015401D01*
X155516109Y-69974997D01*
X155428320Y-69916338D01*
X155353662Y-69841680D01*
X155295003Y-69753891D01*
X155254599Y-69656345D01*
X155234000Y-69552791D01*
X155234000Y-69447209D01*
X155254599Y-69343655D01*
X155295003Y-69246109D01*
X155353662Y-69158320D01*
X155428320Y-69083662D01*
X155516109Y-69025003D01*
X155613655Y-68984599D01*
X155613656Y-68984599D01*
X155613658Y-68984598D01*
X155717207Y-68964000D01*
X155822793Y-68964000D01*
X155926342Y-68984598D01*
X155926342Y-68984598D01*
G37*
G36*
X129426342Y-68984598D02*
G01*
X129426344Y-68984599D01*
X129426345Y-68984599D01*
X129523891Y-69025003D01*
X129611680Y-69083662D01*
X129686338Y-69158320D01*
X129744997Y-69246109D01*
X129785401Y-69343655D01*
X129806000Y-69447209D01*
X129806000Y-69552791D01*
X129785401Y-69656345D01*
X129744997Y-69753891D01*
X129686338Y-69841680D01*
X129611680Y-69916338D01*
X129523891Y-69974997D01*
X129426345Y-70015401D01*
X129426344Y-70015401D01*
X129426342Y-70015402D01*
X129322793Y-70036000D01*
X129217207Y-70036000D01*
X129113658Y-70015402D01*
X129113656Y-70015401D01*
X129113655Y-70015401D01*
X129016109Y-69974997D01*
X128928320Y-69916338D01*
X128853662Y-69841680D01*
X128795003Y-69753891D01*
X128754599Y-69656345D01*
X128734000Y-69552791D01*
X128734000Y-69447209D01*
X128754599Y-69343655D01*
X128795003Y-69246109D01*
X128853662Y-69158320D01*
X128928320Y-69083662D01*
X129016109Y-69025003D01*
X129113655Y-68984599D01*
X129113656Y-68984599D01*
X129113658Y-68984598D01*
X129217207Y-68964000D01*
X129322793Y-68964000D01*
X129426342Y-68984598D01*
X129426342Y-68984598D01*
G37*
G36*
X126886342Y-68984598D02*
G01*
X126886344Y-68984599D01*
X126886345Y-68984599D01*
X126983891Y-69025003D01*
X127071680Y-69083662D01*
X127146338Y-69158320D01*
X127204997Y-69246109D01*
X127245401Y-69343655D01*
X127266000Y-69447209D01*
X127266000Y-69552791D01*
X127245401Y-69656345D01*
X127204997Y-69753891D01*
X127146338Y-69841680D01*
X127071680Y-69916338D01*
X126983891Y-69974997D01*
X126886345Y-70015401D01*
X126886344Y-70015401D01*
X126886342Y-70015402D01*
X126782793Y-70036000D01*
X126677207Y-70036000D01*
X126573658Y-70015402D01*
X126573656Y-70015401D01*
X126573655Y-70015401D01*
X126476109Y-69974997D01*
X126388320Y-69916338D01*
X126313662Y-69841680D01*
X126255003Y-69753891D01*
X126214599Y-69656345D01*
X126194000Y-69552791D01*
X126194000Y-69447209D01*
X126214599Y-69343655D01*
X126255003Y-69246109D01*
X126313662Y-69158320D01*
X126388320Y-69083662D01*
X126476109Y-69025003D01*
X126573655Y-68984599D01*
X126573656Y-68984599D01*
X126573658Y-68984598D01*
X126677207Y-68964000D01*
X126782793Y-68964000D01*
X126886342Y-68984598D01*
X126886342Y-68984598D01*
G37*
G36*
X155926342Y-66444598D02*
G01*
X155926344Y-66444599D01*
X155926345Y-66444599D01*
X156023891Y-66485003D01*
X156111680Y-66543662D01*
X156186338Y-66618320D01*
X156244997Y-66706109D01*
X156285401Y-66803655D01*
X156306000Y-66907209D01*
X156306000Y-67012791D01*
X156285401Y-67116345D01*
X156244997Y-67213891D01*
X156186338Y-67301680D01*
X156111680Y-67376338D01*
X156023891Y-67434997D01*
X155926345Y-67475401D01*
X155926344Y-67475401D01*
X155926342Y-67475402D01*
X155822793Y-67496000D01*
X155717207Y-67496000D01*
X155613658Y-67475402D01*
X155613656Y-67475401D01*
X155613655Y-67475401D01*
X155516109Y-67434997D01*
X155428320Y-67376338D01*
X155353662Y-67301680D01*
X155295003Y-67213891D01*
X155254599Y-67116345D01*
X155234000Y-67012791D01*
X155234000Y-66907209D01*
X155254599Y-66803655D01*
X155295003Y-66706109D01*
X155353662Y-66618320D01*
X155428320Y-66543662D01*
X155516109Y-66485003D01*
X155613655Y-66444599D01*
X155613656Y-66444599D01*
X155613658Y-66444598D01*
X155717207Y-66424000D01*
X155822793Y-66424000D01*
X155926342Y-66444598D01*
X155926342Y-66444598D01*
G37*
G36*
X126886342Y-66444598D02*
G01*
X126886344Y-66444599D01*
X126886345Y-66444599D01*
X126983891Y-66485003D01*
X127071680Y-66543662D01*
X127146338Y-66618320D01*
X127204997Y-66706109D01*
X127245401Y-66803655D01*
X127266000Y-66907209D01*
X127266000Y-67012791D01*
X127245401Y-67116345D01*
X127204997Y-67213891D01*
X127146338Y-67301680D01*
X127071680Y-67376338D01*
X126983891Y-67434997D01*
X126886345Y-67475401D01*
X126886344Y-67475401D01*
X126886342Y-67475402D01*
X126782793Y-67496000D01*
X126677207Y-67496000D01*
X126573658Y-67475402D01*
X126573656Y-67475401D01*
X126573655Y-67475401D01*
X126476109Y-67434997D01*
X126388320Y-67376338D01*
X126313662Y-67301680D01*
X126255003Y-67213891D01*
X126214599Y-67116345D01*
X126194000Y-67012791D01*
X126194000Y-66907209D01*
X126214599Y-66803655D01*
X126255003Y-66706109D01*
X126313662Y-66618320D01*
X126388320Y-66543662D01*
X126476109Y-66485003D01*
X126573655Y-66444599D01*
X126573656Y-66444599D01*
X126573658Y-66444598D01*
X126677207Y-66424000D01*
X126782793Y-66424000D01*
X126886342Y-66444598D01*
X126886342Y-66444598D01*
G37*
G36*
X129426342Y-66444598D02*
G01*
X129426344Y-66444599D01*
X129426345Y-66444599D01*
X129523891Y-66485003D01*
X129611680Y-66543662D01*
X129686338Y-66618320D01*
X129744997Y-66706109D01*
X129785401Y-66803655D01*
X129806000Y-66907209D01*
X129806000Y-67012791D01*
X129785401Y-67116345D01*
X129744997Y-67213891D01*
X129686338Y-67301680D01*
X129611680Y-67376338D01*
X129523891Y-67434997D01*
X129426345Y-67475401D01*
X129426344Y-67475401D01*
X129426342Y-67475402D01*
X129322793Y-67496000D01*
X129217207Y-67496000D01*
X129113658Y-67475402D01*
X129113656Y-67475401D01*
X129113655Y-67475401D01*
X129016109Y-67434997D01*
X128928320Y-67376338D01*
X128853662Y-67301680D01*
X128795003Y-67213891D01*
X128754599Y-67116345D01*
X128734000Y-67012791D01*
X128734000Y-66907209D01*
X128754599Y-66803655D01*
X128795003Y-66706109D01*
X128853662Y-66618320D01*
X128928320Y-66543662D01*
X129016109Y-66485003D01*
X129113655Y-66444599D01*
X129113656Y-66444599D01*
X129113658Y-66444598D01*
X129217207Y-66424000D01*
X129322793Y-66424000D01*
X129426342Y-66444598D01*
X129426342Y-66444598D01*
G37*
G36*
X153386342Y-66444598D02*
G01*
X153386344Y-66444599D01*
X153386345Y-66444599D01*
X153483891Y-66485003D01*
X153571680Y-66543662D01*
X153646338Y-66618320D01*
X153704997Y-66706109D01*
X153745401Y-66803655D01*
X153766000Y-66907209D01*
X153766000Y-67012791D01*
X153745401Y-67116345D01*
X153704997Y-67213891D01*
X153646338Y-67301680D01*
X153571680Y-67376338D01*
X153483891Y-67434997D01*
X153386345Y-67475401D01*
X153386344Y-67475401D01*
X153386342Y-67475402D01*
X153282793Y-67496000D01*
X153177207Y-67496000D01*
X153073658Y-67475402D01*
X153073656Y-67475401D01*
X153073655Y-67475401D01*
X152976109Y-67434997D01*
X152888320Y-67376338D01*
X152813662Y-67301680D01*
X152755003Y-67213891D01*
X152714599Y-67116345D01*
X152694000Y-67012791D01*
X152694000Y-66907209D01*
X152714599Y-66803655D01*
X152755003Y-66706109D01*
X152813662Y-66618320D01*
X152888320Y-66543662D01*
X152976109Y-66485003D01*
X153073655Y-66444599D01*
X153073656Y-66444599D01*
X153073658Y-66444598D01*
X153177207Y-66424000D01*
X153282793Y-66424000D01*
X153386342Y-66444598D01*
X153386342Y-66444598D01*
G37*
G36*
X133131552Y-65316331D02*
G01*
X133213627Y-65350328D01*
X133213629Y-65350329D01*
X133240746Y-65368448D01*
X133287495Y-65399685D01*
X133350315Y-65462505D01*
X133399672Y-65536373D01*
X133433669Y-65618448D01*
X133451000Y-65705579D01*
X133451000Y-65794421D01*
X133433669Y-65881552D01*
X133412081Y-65933669D01*
X133399671Y-65963629D01*
X133350314Y-66037496D01*
X133287496Y-66100314D01*
X133213629Y-66149671D01*
X133213628Y-66149672D01*
X133213627Y-66149672D01*
X133131552Y-66183669D01*
X133044421Y-66201000D01*
X132955579Y-66201000D01*
X132868448Y-66183669D01*
X132786373Y-66149672D01*
X132786372Y-66149672D01*
X132786371Y-66149671D01*
X132712504Y-66100314D01*
X132649686Y-66037496D01*
X132600329Y-65963629D01*
X132587919Y-65933669D01*
X132566331Y-65881552D01*
X132549000Y-65794421D01*
X132549000Y-65705579D01*
X132566331Y-65618448D01*
X132600328Y-65536373D01*
X132649685Y-65462505D01*
X132712505Y-65399685D01*
X132759254Y-65368448D01*
X132786371Y-65350329D01*
X132786373Y-65350328D01*
X132868448Y-65316331D01*
X132955579Y-65299000D01*
X133044421Y-65299000D01*
X133131552Y-65316331D01*
X133131552Y-65316331D01*
G37*
G36*
X159631552Y-65066331D02*
G01*
X159713627Y-65100328D01*
X159713629Y-65100329D01*
X159750813Y-65125175D01*
X159787495Y-65149685D01*
X159850315Y-65212505D01*
X159899672Y-65286373D01*
X159933669Y-65368448D01*
X159951000Y-65455579D01*
X159951000Y-65544421D01*
X159933669Y-65631552D01*
X159903005Y-65705580D01*
X159899671Y-65713629D01*
X159850314Y-65787496D01*
X159787496Y-65850314D01*
X159713629Y-65899671D01*
X159713628Y-65899672D01*
X159713627Y-65899672D01*
X159631552Y-65933669D01*
X159544421Y-65951000D01*
X159455579Y-65951000D01*
X159368448Y-65933669D01*
X159286373Y-65899672D01*
X159286372Y-65899672D01*
X159286371Y-65899671D01*
X159212504Y-65850314D01*
X159149686Y-65787496D01*
X159100329Y-65713629D01*
X159096995Y-65705580D01*
X159066331Y-65631552D01*
X159049000Y-65544421D01*
X159049000Y-65455579D01*
X159066331Y-65368448D01*
X159100328Y-65286373D01*
X159149685Y-65212505D01*
X159212505Y-65149685D01*
X159249187Y-65125175D01*
X159286371Y-65100329D01*
X159286373Y-65100328D01*
X159368448Y-65066331D01*
X159455579Y-65049000D01*
X159544421Y-65049000D01*
X159631552Y-65066331D01*
X159631552Y-65066331D01*
G37*
G36*
X136131552Y-64066331D02*
G01*
X136213627Y-64100328D01*
X136213629Y-64100329D01*
X136240746Y-64118448D01*
X136287495Y-64149685D01*
X136350315Y-64212505D01*
X136399672Y-64286373D01*
X136433669Y-64368448D01*
X136451000Y-64455579D01*
X136451000Y-64544421D01*
X136433669Y-64631552D01*
X136412081Y-64683669D01*
X136399671Y-64713629D01*
X136350314Y-64787496D01*
X136287496Y-64850314D01*
X136213629Y-64899671D01*
X136213628Y-64899672D01*
X136213627Y-64899672D01*
X136131552Y-64933669D01*
X136044421Y-64951000D01*
X135955579Y-64951000D01*
X135868448Y-64933669D01*
X135786373Y-64899672D01*
X135786372Y-64899672D01*
X135786371Y-64899671D01*
X135712504Y-64850314D01*
X135649686Y-64787496D01*
X135600329Y-64713629D01*
X135587919Y-64683669D01*
X135566331Y-64631552D01*
X135549000Y-64544421D01*
X135549000Y-64455579D01*
X135566331Y-64368448D01*
X135600328Y-64286373D01*
X135649685Y-64212505D01*
X135712505Y-64149685D01*
X135759254Y-64118448D01*
X135786371Y-64100329D01*
X135786373Y-64100328D01*
X135868448Y-64066331D01*
X135955579Y-64049000D01*
X136044421Y-64049000D01*
X136131552Y-64066331D01*
X136131552Y-64066331D01*
G37*
G36*
X162631552Y-63816331D02*
G01*
X162713627Y-63850328D01*
X162713629Y-63850329D01*
X162750813Y-63875175D01*
X162787495Y-63899685D01*
X162850315Y-63962505D01*
X162899672Y-64036373D01*
X162933669Y-64118448D01*
X162951000Y-64205579D01*
X162951000Y-64294421D01*
X162933669Y-64381552D01*
X162903005Y-64455580D01*
X162899671Y-64463629D01*
X162850314Y-64537496D01*
X162787496Y-64600314D01*
X162713629Y-64649671D01*
X162713628Y-64649672D01*
X162713627Y-64649672D01*
X162631552Y-64683669D01*
X162544421Y-64701000D01*
X162455579Y-64701000D01*
X162368448Y-64683669D01*
X162286373Y-64649672D01*
X162286372Y-64649672D01*
X162286371Y-64649671D01*
X162212504Y-64600314D01*
X162149686Y-64537496D01*
X162100329Y-64463629D01*
X162096995Y-64455580D01*
X162066331Y-64381552D01*
X162049000Y-64294421D01*
X162049000Y-64205579D01*
X162066331Y-64118448D01*
X162100328Y-64036373D01*
X162149685Y-63962505D01*
X162212505Y-63899685D01*
X162249187Y-63875175D01*
X162286371Y-63850329D01*
X162286373Y-63850328D01*
X162368448Y-63816331D01*
X162455579Y-63799000D01*
X162544421Y-63799000D01*
X162631552Y-63816331D01*
X162631552Y-63816331D01*
G37*
G36*
X123131552Y-63816331D02*
G01*
X123213627Y-63850328D01*
X123213629Y-63850329D01*
X123250813Y-63875175D01*
X123287495Y-63899685D01*
X123350315Y-63962505D01*
X123399672Y-64036373D01*
X123433669Y-64118448D01*
X123451000Y-64205579D01*
X123451000Y-64294421D01*
X123433669Y-64381552D01*
X123403005Y-64455580D01*
X123399671Y-64463629D01*
X123350314Y-64537496D01*
X123287496Y-64600314D01*
X123213629Y-64649671D01*
X123213628Y-64649672D01*
X123213627Y-64649672D01*
X123131552Y-64683669D01*
X123044421Y-64701000D01*
X122955579Y-64701000D01*
X122868448Y-64683669D01*
X122786373Y-64649672D01*
X122786372Y-64649672D01*
X122786371Y-64649671D01*
X122712504Y-64600314D01*
X122649686Y-64537496D01*
X122600329Y-64463629D01*
X122596995Y-64455580D01*
X122566331Y-64381552D01*
X122549000Y-64294421D01*
X122549000Y-64205579D01*
X122566331Y-64118448D01*
X122600328Y-64036373D01*
X122649685Y-63962505D01*
X122712505Y-63899685D01*
X122749187Y-63875175D01*
X122786371Y-63850329D01*
X122786373Y-63850328D01*
X122868448Y-63816331D01*
X122955579Y-63799000D01*
X123044421Y-63799000D01*
X123131552Y-63816331D01*
X123131552Y-63816331D01*
G37*
G36*
X131131552Y-63816331D02*
G01*
X131213627Y-63850328D01*
X131213629Y-63850329D01*
X131250813Y-63875175D01*
X131287495Y-63899685D01*
X131350315Y-63962505D01*
X131399672Y-64036373D01*
X131433669Y-64118448D01*
X131451000Y-64205579D01*
X131451000Y-64294421D01*
X131433669Y-64381552D01*
X131403005Y-64455580D01*
X131399671Y-64463629D01*
X131350314Y-64537496D01*
X131287496Y-64600314D01*
X131213629Y-64649671D01*
X131213628Y-64649672D01*
X131213627Y-64649672D01*
X131131552Y-64683669D01*
X131044421Y-64701000D01*
X130955579Y-64701000D01*
X130868448Y-64683669D01*
X130786373Y-64649672D01*
X130786372Y-64649672D01*
X130786371Y-64649671D01*
X130712504Y-64600314D01*
X130649686Y-64537496D01*
X130600329Y-64463629D01*
X130596995Y-64455580D01*
X130566331Y-64381552D01*
X130549000Y-64294421D01*
X130549000Y-64205579D01*
X130566331Y-64118448D01*
X130600328Y-64036373D01*
X130649685Y-63962505D01*
X130712505Y-63899685D01*
X130749187Y-63875175D01*
X130786371Y-63850329D01*
X130786373Y-63850328D01*
X130868448Y-63816331D01*
X130955579Y-63799000D01*
X131044421Y-63799000D01*
X131131552Y-63816331D01*
X131131552Y-63816331D01*
G37*
G36*
X127631552Y-63816331D02*
G01*
X127713627Y-63850328D01*
X127713629Y-63850329D01*
X127750813Y-63875175D01*
X127787495Y-63899685D01*
X127850315Y-63962505D01*
X127899672Y-64036373D01*
X127933669Y-64118448D01*
X127951000Y-64205579D01*
X127951000Y-64294421D01*
X127933669Y-64381552D01*
X127903005Y-64455580D01*
X127899671Y-64463629D01*
X127850314Y-64537496D01*
X127787496Y-64600314D01*
X127713629Y-64649671D01*
X127713628Y-64649672D01*
X127713627Y-64649672D01*
X127631552Y-64683669D01*
X127544421Y-64701000D01*
X127455579Y-64701000D01*
X127368448Y-64683669D01*
X127286373Y-64649672D01*
X127286372Y-64649672D01*
X127286371Y-64649671D01*
X127212504Y-64600314D01*
X127149686Y-64537496D01*
X127100329Y-64463629D01*
X127096995Y-64455580D01*
X127066331Y-64381552D01*
X127049000Y-64294421D01*
X127049000Y-64205579D01*
X127066331Y-64118448D01*
X127100328Y-64036373D01*
X127149685Y-63962505D01*
X127212505Y-63899685D01*
X127249187Y-63875175D01*
X127286371Y-63850329D01*
X127286373Y-63850328D01*
X127368448Y-63816331D01*
X127455579Y-63799000D01*
X127544421Y-63799000D01*
X127631552Y-63816331D01*
X127631552Y-63816331D01*
G37*
G36*
X157381552Y-63816331D02*
G01*
X157463627Y-63850328D01*
X157463629Y-63850329D01*
X157500813Y-63875175D01*
X157537495Y-63899685D01*
X157600315Y-63962505D01*
X157649672Y-64036373D01*
X157683669Y-64118448D01*
X157701000Y-64205579D01*
X157701000Y-64294421D01*
X157683669Y-64381552D01*
X157653005Y-64455580D01*
X157649671Y-64463629D01*
X157600314Y-64537496D01*
X157537496Y-64600314D01*
X157463629Y-64649671D01*
X157463628Y-64649672D01*
X157463627Y-64649672D01*
X157381552Y-64683669D01*
X157294421Y-64701000D01*
X157205579Y-64701000D01*
X157118448Y-64683669D01*
X157036373Y-64649672D01*
X157036372Y-64649672D01*
X157036371Y-64649671D01*
X156962504Y-64600314D01*
X156899686Y-64537496D01*
X156850329Y-64463629D01*
X156846995Y-64455580D01*
X156816331Y-64381552D01*
X156799000Y-64294421D01*
X156799000Y-64205579D01*
X156816331Y-64118448D01*
X156850328Y-64036373D01*
X156899685Y-63962505D01*
X156962505Y-63899685D01*
X156999187Y-63875175D01*
X157036371Y-63850329D01*
X157036373Y-63850328D01*
X157118448Y-63816331D01*
X157205579Y-63799000D01*
X157294421Y-63799000D01*
X157381552Y-63816331D01*
X157381552Y-63816331D01*
G37*
G36*
X149631552Y-63816331D02*
G01*
X149713627Y-63850328D01*
X149713629Y-63850329D01*
X149750813Y-63875175D01*
X149787495Y-63899685D01*
X149850315Y-63962505D01*
X149899672Y-64036373D01*
X149933669Y-64118448D01*
X149951000Y-64205579D01*
X149951000Y-64294421D01*
X149933669Y-64381552D01*
X149903005Y-64455580D01*
X149899671Y-64463629D01*
X149850314Y-64537496D01*
X149787496Y-64600314D01*
X149713629Y-64649671D01*
X149713628Y-64649672D01*
X149713627Y-64649672D01*
X149631552Y-64683669D01*
X149544421Y-64701000D01*
X149455579Y-64701000D01*
X149368448Y-64683669D01*
X149286373Y-64649672D01*
X149286372Y-64649672D01*
X149286371Y-64649671D01*
X149212504Y-64600314D01*
X149149686Y-64537496D01*
X149100329Y-64463629D01*
X149096995Y-64455580D01*
X149066331Y-64381552D01*
X149049000Y-64294421D01*
X149049000Y-64205579D01*
X149066331Y-64118448D01*
X149100328Y-64036373D01*
X149149685Y-63962505D01*
X149212505Y-63899685D01*
X149249187Y-63875175D01*
X149286371Y-63850329D01*
X149286373Y-63850328D01*
X149368448Y-63816331D01*
X149455579Y-63799000D01*
X149544421Y-63799000D01*
X149631552Y-63816331D01*
X149631552Y-63816331D01*
G37*
G36*
X153631552Y-63816331D02*
G01*
X153713627Y-63850328D01*
X153713629Y-63850329D01*
X153750813Y-63875175D01*
X153787495Y-63899685D01*
X153850315Y-63962505D01*
X153899672Y-64036373D01*
X153933669Y-64118448D01*
X153951000Y-64205579D01*
X153951000Y-64294421D01*
X153933669Y-64381552D01*
X153903005Y-64455580D01*
X153899671Y-64463629D01*
X153850314Y-64537496D01*
X153787496Y-64600314D01*
X153713629Y-64649671D01*
X153713628Y-64649672D01*
X153713627Y-64649672D01*
X153631552Y-64683669D01*
X153544421Y-64701000D01*
X153455579Y-64701000D01*
X153368448Y-64683669D01*
X153286373Y-64649672D01*
X153286372Y-64649672D01*
X153286371Y-64649671D01*
X153212504Y-64600314D01*
X153149686Y-64537496D01*
X153100329Y-64463629D01*
X153096995Y-64455580D01*
X153066331Y-64381552D01*
X153049000Y-64294421D01*
X153049000Y-64205579D01*
X153066331Y-64118448D01*
X153100328Y-64036373D01*
X153149685Y-63962505D01*
X153212505Y-63899685D01*
X153249187Y-63875175D01*
X153286371Y-63850329D01*
X153286373Y-63850328D01*
X153368448Y-63816331D01*
X153455579Y-63799000D01*
X153544421Y-63799000D01*
X153631552Y-63816331D01*
X153631552Y-63816331D01*
G37*
G36*
X132631552Y-63066331D02*
G01*
X132713627Y-63100328D01*
X132713629Y-63100329D01*
X132750813Y-63125175D01*
X132787495Y-63149685D01*
X132850315Y-63212505D01*
X132899672Y-63286373D01*
X132933669Y-63368448D01*
X132951000Y-63455579D01*
X132951000Y-63544421D01*
X132933669Y-63631552D01*
X132899672Y-63713627D01*
X132850315Y-63787495D01*
X132787495Y-63850315D01*
X132787474Y-63850329D01*
X132713629Y-63899671D01*
X132713628Y-63899672D01*
X132713627Y-63899672D01*
X132631552Y-63933669D01*
X132544421Y-63951000D01*
X132455579Y-63951000D01*
X132368448Y-63933669D01*
X132286373Y-63899672D01*
X132286372Y-63899672D01*
X132286371Y-63899671D01*
X132212526Y-63850329D01*
X132212505Y-63850315D01*
X132149685Y-63787495D01*
X132100328Y-63713627D01*
X132066331Y-63631552D01*
X132049000Y-63544421D01*
X132049000Y-63455579D01*
X132066331Y-63368448D01*
X132100328Y-63286373D01*
X132149685Y-63212505D01*
X132212505Y-63149685D01*
X132249187Y-63125175D01*
X132286371Y-63100329D01*
X132286373Y-63100328D01*
X132368448Y-63066331D01*
X132455579Y-63049000D01*
X132544421Y-63049000D01*
X132631552Y-63066331D01*
X132631552Y-63066331D01*
G37*
G36*
X159131552Y-63066331D02*
G01*
X159213627Y-63100328D01*
X159213629Y-63100329D01*
X159250813Y-63125175D01*
X159287495Y-63149685D01*
X159350315Y-63212505D01*
X159399672Y-63286373D01*
X159433669Y-63368448D01*
X159451000Y-63455579D01*
X159451000Y-63544421D01*
X159433669Y-63631552D01*
X159399672Y-63713627D01*
X159350315Y-63787495D01*
X159287495Y-63850315D01*
X159287474Y-63850329D01*
X159213629Y-63899671D01*
X159213628Y-63899672D01*
X159213627Y-63899672D01*
X159131552Y-63933669D01*
X159044421Y-63951000D01*
X158955579Y-63951000D01*
X158868448Y-63933669D01*
X158786373Y-63899672D01*
X158786372Y-63899672D01*
X158786371Y-63899671D01*
X158712526Y-63850329D01*
X158712505Y-63850315D01*
X158649685Y-63787495D01*
X158600328Y-63713627D01*
X158566331Y-63631552D01*
X158549000Y-63544421D01*
X158549000Y-63455579D01*
X158566331Y-63368448D01*
X158600328Y-63286373D01*
X158649685Y-63212505D01*
X158712505Y-63149685D01*
X158749187Y-63125175D01*
X158786371Y-63100329D01*
X158786373Y-63100328D01*
X158868448Y-63066331D01*
X158955579Y-63049000D01*
X159044421Y-63049000D01*
X159131552Y-63066331D01*
X159131552Y-63066331D01*
G37*
G36*
X166052585Y-60728802D02*
G01*
X166202410Y-60758604D01*
X166484674Y-60875521D01*
X166738705Y-61045259D01*
X166954741Y-61261295D01*
X167124479Y-61515326D01*
X167241396Y-61797590D01*
X167301000Y-62097240D01*
X167301000Y-62402760D01*
X167241396Y-62702410D01*
X167124479Y-62984674D01*
X166954741Y-63238705D01*
X166738705Y-63454741D01*
X166484674Y-63624479D01*
X166202410Y-63741396D01*
X166052585Y-63771198D01*
X165902761Y-63801000D01*
X165597239Y-63801000D01*
X165447415Y-63771198D01*
X165297590Y-63741396D01*
X165015326Y-63624479D01*
X164761295Y-63454741D01*
X164545259Y-63238705D01*
X164375521Y-62984674D01*
X164258604Y-62702410D01*
X164199000Y-62402760D01*
X164199000Y-62097240D01*
X164258604Y-61797590D01*
X164375521Y-61515326D01*
X164545259Y-61261295D01*
X164761295Y-61045259D01*
X165015326Y-60875521D01*
X165297590Y-60758604D01*
X165447415Y-60728802D01*
X165597239Y-60699000D01*
X165902761Y-60699000D01*
X166052585Y-60728802D01*
X166052585Y-60728802D01*
G37*
G36*
X139552585Y-60728802D02*
G01*
X139702410Y-60758604D01*
X139984674Y-60875521D01*
X140238705Y-61045259D01*
X140454741Y-61261295D01*
X140624479Y-61515326D01*
X140741396Y-61797590D01*
X140801000Y-62097240D01*
X140801000Y-62402760D01*
X140741396Y-62702410D01*
X140624479Y-62984674D01*
X140454741Y-63238705D01*
X140238705Y-63454741D01*
X139984674Y-63624479D01*
X139702410Y-63741396D01*
X139552585Y-63771198D01*
X139402761Y-63801000D01*
X139097239Y-63801000D01*
X138947415Y-63771198D01*
X138797590Y-63741396D01*
X138515326Y-63624479D01*
X138261295Y-63454741D01*
X138045259Y-63238705D01*
X137875521Y-62984674D01*
X137758604Y-62702410D01*
X137699000Y-62402760D01*
X137699000Y-62097240D01*
X137758604Y-61797590D01*
X137875521Y-61515326D01*
X138045259Y-61261295D01*
X138261295Y-61045259D01*
X138515326Y-60875521D01*
X138797590Y-60758604D01*
X138947415Y-60728802D01*
X139097239Y-60699000D01*
X139402761Y-60699000D01*
X139552585Y-60728802D01*
X139552585Y-60728802D01*
G37*
G36*
X117052585Y-38228802D02*
G01*
X117202410Y-38258604D01*
X117484674Y-38375521D01*
X117738705Y-38545259D01*
X117954741Y-38761295D01*
X118124479Y-39015326D01*
X118241396Y-39297590D01*
X118301000Y-39597240D01*
X118301000Y-39902760D01*
X118241396Y-40202410D01*
X118124479Y-40484674D01*
X117954741Y-40738705D01*
X117738705Y-40954741D01*
X117484674Y-41124479D01*
X117202410Y-41241396D01*
X117052585Y-41271198D01*
X116902761Y-41301000D01*
X116597239Y-41301000D01*
X116447415Y-41271198D01*
X116297590Y-41241396D01*
X116015326Y-41124479D01*
X115761295Y-40954741D01*
X115545259Y-40738705D01*
X115375521Y-40484674D01*
X115258604Y-40202410D01*
X115199000Y-39902760D01*
X115199000Y-39597240D01*
X115258604Y-39297590D01*
X115375521Y-39015326D01*
X115545259Y-38761295D01*
X115761295Y-38545259D01*
X116015326Y-38375521D01*
X116297590Y-38258604D01*
X116447415Y-38228802D01*
X116597239Y-38199000D01*
X116902761Y-38199000D01*
X117052585Y-38228802D01*
X117052585Y-38228802D01*
G37*
G36*
X143552585Y-38228802D02*
G01*
X143702410Y-38258604D01*
X143984674Y-38375521D01*
X144238705Y-38545259D01*
X144454741Y-38761295D01*
X144624479Y-39015326D01*
X144741396Y-39297590D01*
X144801000Y-39597240D01*
X144801000Y-39902760D01*
X144741396Y-40202410D01*
X144624479Y-40484674D01*
X144454741Y-40738705D01*
X144238705Y-40954741D01*
X143984674Y-41124479D01*
X143702410Y-41241396D01*
X143552585Y-41271198D01*
X143402761Y-41301000D01*
X143097239Y-41301000D01*
X142947415Y-41271198D01*
X142797590Y-41241396D01*
X142515326Y-41124479D01*
X142261295Y-40954741D01*
X142045259Y-40738705D01*
X141875521Y-40484674D01*
X141758604Y-40202410D01*
X141699000Y-39902760D01*
X141699000Y-39597240D01*
X141758604Y-39297590D01*
X141875521Y-39015326D01*
X142045259Y-38761295D01*
X142261295Y-38545259D01*
X142515326Y-38375521D01*
X142797590Y-38258604D01*
X142947415Y-38228802D01*
X143097239Y-38199000D01*
X143402761Y-38199000D01*
X143552585Y-38228802D01*
X143552585Y-38228802D01*
G37*
G36*
X119852564Y-29845099D02*
G01*
X120094126Y-29893149D01*
X120776765Y-30175907D01*
X121391123Y-30586408D01*
X121913592Y-31108877D01*
X122324093Y-31723235D01*
X122606851Y-32405874D01*
X122606851Y-32405875D01*
X122751000Y-33130557D01*
X122751000Y-33869443D01*
X122734777Y-33951000D01*
X122606851Y-34594126D01*
X122324093Y-35276765D01*
X121913592Y-35891123D01*
X121391123Y-36413592D01*
X120776765Y-36824093D01*
X120094126Y-37106851D01*
X119852564Y-37154901D01*
X119369443Y-37251000D01*
X118630557Y-37251000D01*
X118147436Y-37154901D01*
X117905874Y-37106851D01*
X117223235Y-36824093D01*
X116608877Y-36413592D01*
X116086408Y-35891123D01*
X115675907Y-35276765D01*
X115393149Y-34594126D01*
X115265223Y-33951000D01*
X115249000Y-33869443D01*
X115249000Y-33130557D01*
X115393149Y-32405875D01*
X115393149Y-32405874D01*
X115675907Y-31723235D01*
X116086408Y-31108877D01*
X116608877Y-30586408D01*
X117223235Y-30175907D01*
X117905874Y-29893149D01*
X118147436Y-29845099D01*
X118630557Y-29749000D01*
X119369443Y-29749000D01*
X119852564Y-29845099D01*
X119852564Y-29845099D01*
G37*
G36*
X164352564Y-29845099D02*
G01*
X164594126Y-29893149D01*
X165276765Y-30175907D01*
X165891123Y-30586408D01*
X166413592Y-31108877D01*
X166824093Y-31723235D01*
X167106851Y-32405874D01*
X167106851Y-32405875D01*
X167251000Y-33130557D01*
X167251000Y-33869443D01*
X167234777Y-33951000D01*
X167106851Y-34594126D01*
X166824093Y-35276765D01*
X166413592Y-35891123D01*
X165891123Y-36413592D01*
X165276765Y-36824093D01*
X164594126Y-37106851D01*
X164352564Y-37154901D01*
X163869443Y-37251000D01*
X163130557Y-37251000D01*
X162647436Y-37154901D01*
X162405874Y-37106851D01*
X161723235Y-36824093D01*
X161108877Y-36413592D01*
X160586408Y-35891123D01*
X160175907Y-35276765D01*
X159893149Y-34594126D01*
X159765223Y-33951000D01*
X159749000Y-33869443D01*
X159749000Y-33130557D01*
X159893149Y-32405875D01*
X159893149Y-32405874D01*
X160175907Y-31723235D01*
X160586408Y-31108877D01*
X161108877Y-30586408D01*
X161723235Y-30175907D01*
X162405874Y-29893149D01*
X162647436Y-29845099D01*
X163130557Y-29749000D01*
X163869443Y-29749000D01*
X164352564Y-29845099D01*
X164352564Y-29845099D01*
G37*
M02*
