G04 #@! TF.GenerationSoftware,KiCad,Pcbnew,(5.1.4)-1*
G04 #@! TF.CreationDate,2020-07-05T13:48:23-04:00*
G04 #@! TF.ProjectId,Pressure_sensor_daughterboard-MS5607-MS5803,50726573-7375-4726-955f-73656e736f72,1.2*
G04 #@! TF.SameCoordinates,Original*
G04 #@! TF.FileFunction,Copper,L1,Top*
G04 #@! TF.FilePolarity,Positive*
%FSLAX46Y46*%
G04 Gerber Fmt 4.6, Leading zero omitted, Abs format (unit mm)*
G04 Created by KiCad (PCBNEW (5.1.4)-1) date 2020-07-05 13:48:23*
%MOMM*%
%LPD*%
G04 APERTURE LIST*
%ADD10R,1.100000X0.600000*%
%ADD11R,2.250000X0.900000*%
%ADD12R,2.800000X0.900000*%
%ADD13C,0.100000*%
%ADD14C,1.250000*%
%ADD15R,1.680000X1.270000*%
%ADD16C,0.875000*%
%ADD17C,0.800000*%
%ADD18C,7.400000*%
%ADD19C,0.600000*%
%ADD20C,0.900000*%
%ADD21C,0.200000*%
%ADD22C,0.254000*%
G04 APERTURE END LIST*
D10*
X156600000Y-86125000D03*
X156600000Y-87375000D03*
X156600000Y-88625000D03*
X156600000Y-89875000D03*
X154400000Y-89875000D03*
X154400000Y-88625000D03*
X154400000Y-87375000D03*
X154400000Y-86125000D03*
D11*
X157180000Y-48350000D03*
X157180000Y-49600000D03*
X157180000Y-50900000D03*
X157180000Y-52150000D03*
X151820000Y-52150000D03*
D12*
X152090000Y-50900000D03*
D11*
X151820000Y-49600000D03*
X151820000Y-48350000D03*
D13*
G36*
X166899504Y-68026204D02*
G01*
X166923773Y-68029804D01*
X166947571Y-68035765D01*
X166970671Y-68044030D01*
X166992849Y-68054520D01*
X167013893Y-68067133D01*
X167033598Y-68081747D01*
X167051777Y-68098223D01*
X167068253Y-68116402D01*
X167082867Y-68136107D01*
X167095480Y-68157151D01*
X167105970Y-68179329D01*
X167114235Y-68202429D01*
X167120196Y-68226227D01*
X167123796Y-68250496D01*
X167125000Y-68275000D01*
X167125000Y-69025000D01*
X167123796Y-69049504D01*
X167120196Y-69073773D01*
X167114235Y-69097571D01*
X167105970Y-69120671D01*
X167095480Y-69142849D01*
X167082867Y-69163893D01*
X167068253Y-69183598D01*
X167051777Y-69201777D01*
X167033598Y-69218253D01*
X167013893Y-69232867D01*
X166992849Y-69245480D01*
X166970671Y-69255970D01*
X166947571Y-69264235D01*
X166923773Y-69270196D01*
X166899504Y-69273796D01*
X166875000Y-69275000D01*
X165625000Y-69275000D01*
X165600496Y-69273796D01*
X165576227Y-69270196D01*
X165552429Y-69264235D01*
X165529329Y-69255970D01*
X165507151Y-69245480D01*
X165486107Y-69232867D01*
X165466402Y-69218253D01*
X165448223Y-69201777D01*
X165431747Y-69183598D01*
X165417133Y-69163893D01*
X165404520Y-69142849D01*
X165394030Y-69120671D01*
X165385765Y-69097571D01*
X165379804Y-69073773D01*
X165376204Y-69049504D01*
X165375000Y-69025000D01*
X165375000Y-68275000D01*
X165376204Y-68250496D01*
X165379804Y-68226227D01*
X165385765Y-68202429D01*
X165394030Y-68179329D01*
X165404520Y-68157151D01*
X165417133Y-68136107D01*
X165431747Y-68116402D01*
X165448223Y-68098223D01*
X165466402Y-68081747D01*
X165486107Y-68067133D01*
X165507151Y-68054520D01*
X165529329Y-68044030D01*
X165552429Y-68035765D01*
X165576227Y-68029804D01*
X165600496Y-68026204D01*
X165625000Y-68025000D01*
X166875000Y-68025000D01*
X166899504Y-68026204D01*
X166899504Y-68026204D01*
G37*
D14*
X166250000Y-68650000D03*
D13*
G36*
X166899504Y-65226204D02*
G01*
X166923773Y-65229804D01*
X166947571Y-65235765D01*
X166970671Y-65244030D01*
X166992849Y-65254520D01*
X167013893Y-65267133D01*
X167033598Y-65281747D01*
X167051777Y-65298223D01*
X167068253Y-65316402D01*
X167082867Y-65336107D01*
X167095480Y-65357151D01*
X167105970Y-65379329D01*
X167114235Y-65402429D01*
X167120196Y-65426227D01*
X167123796Y-65450496D01*
X167125000Y-65475000D01*
X167125000Y-66225000D01*
X167123796Y-66249504D01*
X167120196Y-66273773D01*
X167114235Y-66297571D01*
X167105970Y-66320671D01*
X167095480Y-66342849D01*
X167082867Y-66363893D01*
X167068253Y-66383598D01*
X167051777Y-66401777D01*
X167033598Y-66418253D01*
X167013893Y-66432867D01*
X166992849Y-66445480D01*
X166970671Y-66455970D01*
X166947571Y-66464235D01*
X166923773Y-66470196D01*
X166899504Y-66473796D01*
X166875000Y-66475000D01*
X165625000Y-66475000D01*
X165600496Y-66473796D01*
X165576227Y-66470196D01*
X165552429Y-66464235D01*
X165529329Y-66455970D01*
X165507151Y-66445480D01*
X165486107Y-66432867D01*
X165466402Y-66418253D01*
X165448223Y-66401777D01*
X165431747Y-66383598D01*
X165417133Y-66363893D01*
X165404520Y-66342849D01*
X165394030Y-66320671D01*
X165385765Y-66297571D01*
X165379804Y-66273773D01*
X165376204Y-66249504D01*
X165375000Y-66225000D01*
X165375000Y-65475000D01*
X165376204Y-65450496D01*
X165379804Y-65426227D01*
X165385765Y-65402429D01*
X165394030Y-65379329D01*
X165404520Y-65357151D01*
X165417133Y-65336107D01*
X165431747Y-65316402D01*
X165448223Y-65298223D01*
X165466402Y-65281747D01*
X165486107Y-65267133D01*
X165507151Y-65254520D01*
X165529329Y-65244030D01*
X165552429Y-65235765D01*
X165576227Y-65229804D01*
X165600496Y-65226204D01*
X165625000Y-65225000D01*
X166875000Y-65225000D01*
X166899504Y-65226204D01*
X166899504Y-65226204D01*
G37*
D14*
X166250000Y-65850000D03*
D13*
G36*
X164149504Y-67776204D02*
G01*
X164173773Y-67779804D01*
X164197571Y-67785765D01*
X164220671Y-67794030D01*
X164242849Y-67804520D01*
X164263893Y-67817133D01*
X164283598Y-67831747D01*
X164301777Y-67848223D01*
X164318253Y-67866402D01*
X164332867Y-67886107D01*
X164345480Y-67907151D01*
X164355970Y-67929329D01*
X164364235Y-67952429D01*
X164370196Y-67976227D01*
X164373796Y-68000496D01*
X164375000Y-68025000D01*
X164375000Y-68775000D01*
X164373796Y-68799504D01*
X164370196Y-68823773D01*
X164364235Y-68847571D01*
X164355970Y-68870671D01*
X164345480Y-68892849D01*
X164332867Y-68913893D01*
X164318253Y-68933598D01*
X164301777Y-68951777D01*
X164283598Y-68968253D01*
X164263893Y-68982867D01*
X164242849Y-68995480D01*
X164220671Y-69005970D01*
X164197571Y-69014235D01*
X164173773Y-69020196D01*
X164149504Y-69023796D01*
X164125000Y-69025000D01*
X162875000Y-69025000D01*
X162850496Y-69023796D01*
X162826227Y-69020196D01*
X162802429Y-69014235D01*
X162779329Y-69005970D01*
X162757151Y-68995480D01*
X162736107Y-68982867D01*
X162716402Y-68968253D01*
X162698223Y-68951777D01*
X162681747Y-68933598D01*
X162667133Y-68913893D01*
X162654520Y-68892849D01*
X162644030Y-68870671D01*
X162635765Y-68847571D01*
X162629804Y-68823773D01*
X162626204Y-68799504D01*
X162625000Y-68775000D01*
X162625000Y-68025000D01*
X162626204Y-68000496D01*
X162629804Y-67976227D01*
X162635765Y-67952429D01*
X162644030Y-67929329D01*
X162654520Y-67907151D01*
X162667133Y-67886107D01*
X162681747Y-67866402D01*
X162698223Y-67848223D01*
X162716402Y-67831747D01*
X162736107Y-67817133D01*
X162757151Y-67804520D01*
X162779329Y-67794030D01*
X162802429Y-67785765D01*
X162826227Y-67779804D01*
X162850496Y-67776204D01*
X162875000Y-67775000D01*
X164125000Y-67775000D01*
X164149504Y-67776204D01*
X164149504Y-67776204D01*
G37*
D14*
X163500000Y-68400000D03*
D13*
G36*
X164149504Y-64976204D02*
G01*
X164173773Y-64979804D01*
X164197571Y-64985765D01*
X164220671Y-64994030D01*
X164242849Y-65004520D01*
X164263893Y-65017133D01*
X164283598Y-65031747D01*
X164301777Y-65048223D01*
X164318253Y-65066402D01*
X164332867Y-65086107D01*
X164345480Y-65107151D01*
X164355970Y-65129329D01*
X164364235Y-65152429D01*
X164370196Y-65176227D01*
X164373796Y-65200496D01*
X164375000Y-65225000D01*
X164375000Y-65975000D01*
X164373796Y-65999504D01*
X164370196Y-66023773D01*
X164364235Y-66047571D01*
X164355970Y-66070671D01*
X164345480Y-66092849D01*
X164332867Y-66113893D01*
X164318253Y-66133598D01*
X164301777Y-66151777D01*
X164283598Y-66168253D01*
X164263893Y-66182867D01*
X164242849Y-66195480D01*
X164220671Y-66205970D01*
X164197571Y-66214235D01*
X164173773Y-66220196D01*
X164149504Y-66223796D01*
X164125000Y-66225000D01*
X162875000Y-66225000D01*
X162850496Y-66223796D01*
X162826227Y-66220196D01*
X162802429Y-66214235D01*
X162779329Y-66205970D01*
X162757151Y-66195480D01*
X162736107Y-66182867D01*
X162716402Y-66168253D01*
X162698223Y-66151777D01*
X162681747Y-66133598D01*
X162667133Y-66113893D01*
X162654520Y-66092849D01*
X162644030Y-66070671D01*
X162635765Y-66047571D01*
X162629804Y-66023773D01*
X162626204Y-65999504D01*
X162625000Y-65975000D01*
X162625000Y-65225000D01*
X162626204Y-65200496D01*
X162629804Y-65176227D01*
X162635765Y-65152429D01*
X162644030Y-65129329D01*
X162654520Y-65107151D01*
X162667133Y-65086107D01*
X162681747Y-65066402D01*
X162698223Y-65048223D01*
X162716402Y-65031747D01*
X162736107Y-65017133D01*
X162757151Y-65004520D01*
X162779329Y-64994030D01*
X162802429Y-64985765D01*
X162826227Y-64979804D01*
X162850496Y-64976204D01*
X162875000Y-64975000D01*
X164125000Y-64975000D01*
X164149504Y-64976204D01*
X164149504Y-64976204D01*
G37*
D14*
X163500000Y-65600000D03*
D15*
X151780000Y-72040000D03*
X151780000Y-69500000D03*
X151780000Y-66960000D03*
X157220000Y-72040000D03*
X157220000Y-69500000D03*
X157220000Y-66960000D03*
D13*
G36*
X153027691Y-86276053D02*
G01*
X153048926Y-86279203D01*
X153069750Y-86284419D01*
X153089962Y-86291651D01*
X153109368Y-86300830D01*
X153127781Y-86311866D01*
X153145024Y-86324654D01*
X153160930Y-86339070D01*
X153175346Y-86354976D01*
X153188134Y-86372219D01*
X153199170Y-86390632D01*
X153208349Y-86410038D01*
X153215581Y-86430250D01*
X153220797Y-86451074D01*
X153223947Y-86472309D01*
X153225000Y-86493750D01*
X153225000Y-86931250D01*
X153223947Y-86952691D01*
X153220797Y-86973926D01*
X153215581Y-86994750D01*
X153208349Y-87014962D01*
X153199170Y-87034368D01*
X153188134Y-87052781D01*
X153175346Y-87070024D01*
X153160930Y-87085930D01*
X153145024Y-87100346D01*
X153127781Y-87113134D01*
X153109368Y-87124170D01*
X153089962Y-87133349D01*
X153069750Y-87140581D01*
X153048926Y-87145797D01*
X153027691Y-87148947D01*
X153006250Y-87150000D01*
X152493750Y-87150000D01*
X152472309Y-87148947D01*
X152451074Y-87145797D01*
X152430250Y-87140581D01*
X152410038Y-87133349D01*
X152390632Y-87124170D01*
X152372219Y-87113134D01*
X152354976Y-87100346D01*
X152339070Y-87085930D01*
X152324654Y-87070024D01*
X152311866Y-87052781D01*
X152300830Y-87034368D01*
X152291651Y-87014962D01*
X152284419Y-86994750D01*
X152279203Y-86973926D01*
X152276053Y-86952691D01*
X152275000Y-86931250D01*
X152275000Y-86493750D01*
X152276053Y-86472309D01*
X152279203Y-86451074D01*
X152284419Y-86430250D01*
X152291651Y-86410038D01*
X152300830Y-86390632D01*
X152311866Y-86372219D01*
X152324654Y-86354976D01*
X152339070Y-86339070D01*
X152354976Y-86324654D01*
X152372219Y-86311866D01*
X152390632Y-86300830D01*
X152410038Y-86291651D01*
X152430250Y-86284419D01*
X152451074Y-86279203D01*
X152472309Y-86276053D01*
X152493750Y-86275000D01*
X153006250Y-86275000D01*
X153027691Y-86276053D01*
X153027691Y-86276053D01*
G37*
D16*
X152750000Y-86712500D03*
D13*
G36*
X153027691Y-87851053D02*
G01*
X153048926Y-87854203D01*
X153069750Y-87859419D01*
X153089962Y-87866651D01*
X153109368Y-87875830D01*
X153127781Y-87886866D01*
X153145024Y-87899654D01*
X153160930Y-87914070D01*
X153175346Y-87929976D01*
X153188134Y-87947219D01*
X153199170Y-87965632D01*
X153208349Y-87985038D01*
X153215581Y-88005250D01*
X153220797Y-88026074D01*
X153223947Y-88047309D01*
X153225000Y-88068750D01*
X153225000Y-88506250D01*
X153223947Y-88527691D01*
X153220797Y-88548926D01*
X153215581Y-88569750D01*
X153208349Y-88589962D01*
X153199170Y-88609368D01*
X153188134Y-88627781D01*
X153175346Y-88645024D01*
X153160930Y-88660930D01*
X153145024Y-88675346D01*
X153127781Y-88688134D01*
X153109368Y-88699170D01*
X153089962Y-88708349D01*
X153069750Y-88715581D01*
X153048926Y-88720797D01*
X153027691Y-88723947D01*
X153006250Y-88725000D01*
X152493750Y-88725000D01*
X152472309Y-88723947D01*
X152451074Y-88720797D01*
X152430250Y-88715581D01*
X152410038Y-88708349D01*
X152390632Y-88699170D01*
X152372219Y-88688134D01*
X152354976Y-88675346D01*
X152339070Y-88660930D01*
X152324654Y-88645024D01*
X152311866Y-88627781D01*
X152300830Y-88609368D01*
X152291651Y-88589962D01*
X152284419Y-88569750D01*
X152279203Y-88548926D01*
X152276053Y-88527691D01*
X152275000Y-88506250D01*
X152275000Y-88068750D01*
X152276053Y-88047309D01*
X152279203Y-88026074D01*
X152284419Y-88005250D01*
X152291651Y-87985038D01*
X152300830Y-87965632D01*
X152311866Y-87947219D01*
X152324654Y-87929976D01*
X152339070Y-87914070D01*
X152354976Y-87899654D01*
X152372219Y-87886866D01*
X152390632Y-87875830D01*
X152410038Y-87866651D01*
X152430250Y-87859419D01*
X152451074Y-87854203D01*
X152472309Y-87851053D01*
X152493750Y-87850000D01*
X153006250Y-87850000D01*
X153027691Y-87851053D01*
X153027691Y-87851053D01*
G37*
D16*
X152750000Y-88287500D03*
D13*
G36*
X157277691Y-53776053D02*
G01*
X157298926Y-53779203D01*
X157319750Y-53784419D01*
X157339962Y-53791651D01*
X157359368Y-53800830D01*
X157377781Y-53811866D01*
X157395024Y-53824654D01*
X157410930Y-53839070D01*
X157425346Y-53854976D01*
X157438134Y-53872219D01*
X157449170Y-53890632D01*
X157458349Y-53910038D01*
X157465581Y-53930250D01*
X157470797Y-53951074D01*
X157473947Y-53972309D01*
X157475000Y-53993750D01*
X157475000Y-54506250D01*
X157473947Y-54527691D01*
X157470797Y-54548926D01*
X157465581Y-54569750D01*
X157458349Y-54589962D01*
X157449170Y-54609368D01*
X157438134Y-54627781D01*
X157425346Y-54645024D01*
X157410930Y-54660930D01*
X157395024Y-54675346D01*
X157377781Y-54688134D01*
X157359368Y-54699170D01*
X157339962Y-54708349D01*
X157319750Y-54715581D01*
X157298926Y-54720797D01*
X157277691Y-54723947D01*
X157256250Y-54725000D01*
X156818750Y-54725000D01*
X156797309Y-54723947D01*
X156776074Y-54720797D01*
X156755250Y-54715581D01*
X156735038Y-54708349D01*
X156715632Y-54699170D01*
X156697219Y-54688134D01*
X156679976Y-54675346D01*
X156664070Y-54660930D01*
X156649654Y-54645024D01*
X156636866Y-54627781D01*
X156625830Y-54609368D01*
X156616651Y-54589962D01*
X156609419Y-54569750D01*
X156604203Y-54548926D01*
X156601053Y-54527691D01*
X156600000Y-54506250D01*
X156600000Y-53993750D01*
X156601053Y-53972309D01*
X156604203Y-53951074D01*
X156609419Y-53930250D01*
X156616651Y-53910038D01*
X156625830Y-53890632D01*
X156636866Y-53872219D01*
X156649654Y-53854976D01*
X156664070Y-53839070D01*
X156679976Y-53824654D01*
X156697219Y-53811866D01*
X156715632Y-53800830D01*
X156735038Y-53791651D01*
X156755250Y-53784419D01*
X156776074Y-53779203D01*
X156797309Y-53776053D01*
X156818750Y-53775000D01*
X157256250Y-53775000D01*
X157277691Y-53776053D01*
X157277691Y-53776053D01*
G37*
D16*
X157037500Y-54250000D03*
D13*
G36*
X155702691Y-53776053D02*
G01*
X155723926Y-53779203D01*
X155744750Y-53784419D01*
X155764962Y-53791651D01*
X155784368Y-53800830D01*
X155802781Y-53811866D01*
X155820024Y-53824654D01*
X155835930Y-53839070D01*
X155850346Y-53854976D01*
X155863134Y-53872219D01*
X155874170Y-53890632D01*
X155883349Y-53910038D01*
X155890581Y-53930250D01*
X155895797Y-53951074D01*
X155898947Y-53972309D01*
X155900000Y-53993750D01*
X155900000Y-54506250D01*
X155898947Y-54527691D01*
X155895797Y-54548926D01*
X155890581Y-54569750D01*
X155883349Y-54589962D01*
X155874170Y-54609368D01*
X155863134Y-54627781D01*
X155850346Y-54645024D01*
X155835930Y-54660930D01*
X155820024Y-54675346D01*
X155802781Y-54688134D01*
X155784368Y-54699170D01*
X155764962Y-54708349D01*
X155744750Y-54715581D01*
X155723926Y-54720797D01*
X155702691Y-54723947D01*
X155681250Y-54725000D01*
X155243750Y-54725000D01*
X155222309Y-54723947D01*
X155201074Y-54720797D01*
X155180250Y-54715581D01*
X155160038Y-54708349D01*
X155140632Y-54699170D01*
X155122219Y-54688134D01*
X155104976Y-54675346D01*
X155089070Y-54660930D01*
X155074654Y-54645024D01*
X155061866Y-54627781D01*
X155050830Y-54609368D01*
X155041651Y-54589962D01*
X155034419Y-54569750D01*
X155029203Y-54548926D01*
X155026053Y-54527691D01*
X155025000Y-54506250D01*
X155025000Y-53993750D01*
X155026053Y-53972309D01*
X155029203Y-53951074D01*
X155034419Y-53930250D01*
X155041651Y-53910038D01*
X155050830Y-53890632D01*
X155061866Y-53872219D01*
X155074654Y-53854976D01*
X155089070Y-53839070D01*
X155104976Y-53824654D01*
X155122219Y-53811866D01*
X155140632Y-53800830D01*
X155160038Y-53791651D01*
X155180250Y-53784419D01*
X155201074Y-53779203D01*
X155222309Y-53776053D01*
X155243750Y-53775000D01*
X155681250Y-53775000D01*
X155702691Y-53776053D01*
X155702691Y-53776053D01*
G37*
D16*
X155462500Y-54250000D03*
D15*
X125280000Y-72040000D03*
X125280000Y-69500000D03*
X125280000Y-66960000D03*
X130720000Y-72040000D03*
X130720000Y-69500000D03*
X130720000Y-66960000D03*
D13*
G36*
X130777691Y-53776053D02*
G01*
X130798926Y-53779203D01*
X130819750Y-53784419D01*
X130839962Y-53791651D01*
X130859368Y-53800830D01*
X130877781Y-53811866D01*
X130895024Y-53824654D01*
X130910930Y-53839070D01*
X130925346Y-53854976D01*
X130938134Y-53872219D01*
X130949170Y-53890632D01*
X130958349Y-53910038D01*
X130965581Y-53930250D01*
X130970797Y-53951074D01*
X130973947Y-53972309D01*
X130975000Y-53993750D01*
X130975000Y-54506250D01*
X130973947Y-54527691D01*
X130970797Y-54548926D01*
X130965581Y-54569750D01*
X130958349Y-54589962D01*
X130949170Y-54609368D01*
X130938134Y-54627781D01*
X130925346Y-54645024D01*
X130910930Y-54660930D01*
X130895024Y-54675346D01*
X130877781Y-54688134D01*
X130859368Y-54699170D01*
X130839962Y-54708349D01*
X130819750Y-54715581D01*
X130798926Y-54720797D01*
X130777691Y-54723947D01*
X130756250Y-54725000D01*
X130318750Y-54725000D01*
X130297309Y-54723947D01*
X130276074Y-54720797D01*
X130255250Y-54715581D01*
X130235038Y-54708349D01*
X130215632Y-54699170D01*
X130197219Y-54688134D01*
X130179976Y-54675346D01*
X130164070Y-54660930D01*
X130149654Y-54645024D01*
X130136866Y-54627781D01*
X130125830Y-54609368D01*
X130116651Y-54589962D01*
X130109419Y-54569750D01*
X130104203Y-54548926D01*
X130101053Y-54527691D01*
X130100000Y-54506250D01*
X130100000Y-53993750D01*
X130101053Y-53972309D01*
X130104203Y-53951074D01*
X130109419Y-53930250D01*
X130116651Y-53910038D01*
X130125830Y-53890632D01*
X130136866Y-53872219D01*
X130149654Y-53854976D01*
X130164070Y-53839070D01*
X130179976Y-53824654D01*
X130197219Y-53811866D01*
X130215632Y-53800830D01*
X130235038Y-53791651D01*
X130255250Y-53784419D01*
X130276074Y-53779203D01*
X130297309Y-53776053D01*
X130318750Y-53775000D01*
X130756250Y-53775000D01*
X130777691Y-53776053D01*
X130777691Y-53776053D01*
G37*
D16*
X130537500Y-54250000D03*
D13*
G36*
X129202691Y-53776053D02*
G01*
X129223926Y-53779203D01*
X129244750Y-53784419D01*
X129264962Y-53791651D01*
X129284368Y-53800830D01*
X129302781Y-53811866D01*
X129320024Y-53824654D01*
X129335930Y-53839070D01*
X129350346Y-53854976D01*
X129363134Y-53872219D01*
X129374170Y-53890632D01*
X129383349Y-53910038D01*
X129390581Y-53930250D01*
X129395797Y-53951074D01*
X129398947Y-53972309D01*
X129400000Y-53993750D01*
X129400000Y-54506250D01*
X129398947Y-54527691D01*
X129395797Y-54548926D01*
X129390581Y-54569750D01*
X129383349Y-54589962D01*
X129374170Y-54609368D01*
X129363134Y-54627781D01*
X129350346Y-54645024D01*
X129335930Y-54660930D01*
X129320024Y-54675346D01*
X129302781Y-54688134D01*
X129284368Y-54699170D01*
X129264962Y-54708349D01*
X129244750Y-54715581D01*
X129223926Y-54720797D01*
X129202691Y-54723947D01*
X129181250Y-54725000D01*
X128743750Y-54725000D01*
X128722309Y-54723947D01*
X128701074Y-54720797D01*
X128680250Y-54715581D01*
X128660038Y-54708349D01*
X128640632Y-54699170D01*
X128622219Y-54688134D01*
X128604976Y-54675346D01*
X128589070Y-54660930D01*
X128574654Y-54645024D01*
X128561866Y-54627781D01*
X128550830Y-54609368D01*
X128541651Y-54589962D01*
X128534419Y-54569750D01*
X128529203Y-54548926D01*
X128526053Y-54527691D01*
X128525000Y-54506250D01*
X128525000Y-53993750D01*
X128526053Y-53972309D01*
X128529203Y-53951074D01*
X128534419Y-53930250D01*
X128541651Y-53910038D01*
X128550830Y-53890632D01*
X128561866Y-53872219D01*
X128574654Y-53854976D01*
X128589070Y-53839070D01*
X128604976Y-53824654D01*
X128622219Y-53811866D01*
X128640632Y-53800830D01*
X128660038Y-53791651D01*
X128680250Y-53784419D01*
X128701074Y-53779203D01*
X128722309Y-53776053D01*
X128743750Y-53775000D01*
X129181250Y-53775000D01*
X129202691Y-53776053D01*
X129202691Y-53776053D01*
G37*
D16*
X128962500Y-54250000D03*
D11*
X130680000Y-48350000D03*
X130680000Y-49600000D03*
X130680000Y-50900000D03*
X130680000Y-52150000D03*
X125320000Y-52150000D03*
D12*
X125590000Y-50900000D03*
D11*
X125320000Y-49600000D03*
X125320000Y-48350000D03*
D10*
X130100000Y-86125000D03*
X130100000Y-87375000D03*
X130100000Y-88625000D03*
X130100000Y-89875000D03*
X127900000Y-89875000D03*
X127900000Y-88625000D03*
X127900000Y-87375000D03*
X127900000Y-86125000D03*
D13*
G36*
X140399504Y-68176204D02*
G01*
X140423773Y-68179804D01*
X140447571Y-68185765D01*
X140470671Y-68194030D01*
X140492849Y-68204520D01*
X140513893Y-68217133D01*
X140533598Y-68231747D01*
X140551777Y-68248223D01*
X140568253Y-68266402D01*
X140582867Y-68286107D01*
X140595480Y-68307151D01*
X140605970Y-68329329D01*
X140614235Y-68352429D01*
X140620196Y-68376227D01*
X140623796Y-68400496D01*
X140625000Y-68425000D01*
X140625000Y-69175000D01*
X140623796Y-69199504D01*
X140620196Y-69223773D01*
X140614235Y-69247571D01*
X140605970Y-69270671D01*
X140595480Y-69292849D01*
X140582867Y-69313893D01*
X140568253Y-69333598D01*
X140551777Y-69351777D01*
X140533598Y-69368253D01*
X140513893Y-69382867D01*
X140492849Y-69395480D01*
X140470671Y-69405970D01*
X140447571Y-69414235D01*
X140423773Y-69420196D01*
X140399504Y-69423796D01*
X140375000Y-69425000D01*
X139125000Y-69425000D01*
X139100496Y-69423796D01*
X139076227Y-69420196D01*
X139052429Y-69414235D01*
X139029329Y-69405970D01*
X139007151Y-69395480D01*
X138986107Y-69382867D01*
X138966402Y-69368253D01*
X138948223Y-69351777D01*
X138931747Y-69333598D01*
X138917133Y-69313893D01*
X138904520Y-69292849D01*
X138894030Y-69270671D01*
X138885765Y-69247571D01*
X138879804Y-69223773D01*
X138876204Y-69199504D01*
X138875000Y-69175000D01*
X138875000Y-68425000D01*
X138876204Y-68400496D01*
X138879804Y-68376227D01*
X138885765Y-68352429D01*
X138894030Y-68329329D01*
X138904520Y-68307151D01*
X138917133Y-68286107D01*
X138931747Y-68266402D01*
X138948223Y-68248223D01*
X138966402Y-68231747D01*
X138986107Y-68217133D01*
X139007151Y-68204520D01*
X139029329Y-68194030D01*
X139052429Y-68185765D01*
X139076227Y-68179804D01*
X139100496Y-68176204D01*
X139125000Y-68175000D01*
X140375000Y-68175000D01*
X140399504Y-68176204D01*
X140399504Y-68176204D01*
G37*
D14*
X139750000Y-68800000D03*
D13*
G36*
X140399504Y-65376204D02*
G01*
X140423773Y-65379804D01*
X140447571Y-65385765D01*
X140470671Y-65394030D01*
X140492849Y-65404520D01*
X140513893Y-65417133D01*
X140533598Y-65431747D01*
X140551777Y-65448223D01*
X140568253Y-65466402D01*
X140582867Y-65486107D01*
X140595480Y-65507151D01*
X140605970Y-65529329D01*
X140614235Y-65552429D01*
X140620196Y-65576227D01*
X140623796Y-65600496D01*
X140625000Y-65625000D01*
X140625000Y-66375000D01*
X140623796Y-66399504D01*
X140620196Y-66423773D01*
X140614235Y-66447571D01*
X140605970Y-66470671D01*
X140595480Y-66492849D01*
X140582867Y-66513893D01*
X140568253Y-66533598D01*
X140551777Y-66551777D01*
X140533598Y-66568253D01*
X140513893Y-66582867D01*
X140492849Y-66595480D01*
X140470671Y-66605970D01*
X140447571Y-66614235D01*
X140423773Y-66620196D01*
X140399504Y-66623796D01*
X140375000Y-66625000D01*
X139125000Y-66625000D01*
X139100496Y-66623796D01*
X139076227Y-66620196D01*
X139052429Y-66614235D01*
X139029329Y-66605970D01*
X139007151Y-66595480D01*
X138986107Y-66582867D01*
X138966402Y-66568253D01*
X138948223Y-66551777D01*
X138931747Y-66533598D01*
X138917133Y-66513893D01*
X138904520Y-66492849D01*
X138894030Y-66470671D01*
X138885765Y-66447571D01*
X138879804Y-66423773D01*
X138876204Y-66399504D01*
X138875000Y-66375000D01*
X138875000Y-65625000D01*
X138876204Y-65600496D01*
X138879804Y-65576227D01*
X138885765Y-65552429D01*
X138894030Y-65529329D01*
X138904520Y-65507151D01*
X138917133Y-65486107D01*
X138931747Y-65466402D01*
X138948223Y-65448223D01*
X138966402Y-65431747D01*
X138986107Y-65417133D01*
X139007151Y-65404520D01*
X139029329Y-65394030D01*
X139052429Y-65385765D01*
X139076227Y-65379804D01*
X139100496Y-65376204D01*
X139125000Y-65375000D01*
X140375000Y-65375000D01*
X140399504Y-65376204D01*
X140399504Y-65376204D01*
G37*
D14*
X139750000Y-66000000D03*
D13*
G36*
X137649504Y-68176204D02*
G01*
X137673773Y-68179804D01*
X137697571Y-68185765D01*
X137720671Y-68194030D01*
X137742849Y-68204520D01*
X137763893Y-68217133D01*
X137783598Y-68231747D01*
X137801777Y-68248223D01*
X137818253Y-68266402D01*
X137832867Y-68286107D01*
X137845480Y-68307151D01*
X137855970Y-68329329D01*
X137864235Y-68352429D01*
X137870196Y-68376227D01*
X137873796Y-68400496D01*
X137875000Y-68425000D01*
X137875000Y-69175000D01*
X137873796Y-69199504D01*
X137870196Y-69223773D01*
X137864235Y-69247571D01*
X137855970Y-69270671D01*
X137845480Y-69292849D01*
X137832867Y-69313893D01*
X137818253Y-69333598D01*
X137801777Y-69351777D01*
X137783598Y-69368253D01*
X137763893Y-69382867D01*
X137742849Y-69395480D01*
X137720671Y-69405970D01*
X137697571Y-69414235D01*
X137673773Y-69420196D01*
X137649504Y-69423796D01*
X137625000Y-69425000D01*
X136375000Y-69425000D01*
X136350496Y-69423796D01*
X136326227Y-69420196D01*
X136302429Y-69414235D01*
X136279329Y-69405970D01*
X136257151Y-69395480D01*
X136236107Y-69382867D01*
X136216402Y-69368253D01*
X136198223Y-69351777D01*
X136181747Y-69333598D01*
X136167133Y-69313893D01*
X136154520Y-69292849D01*
X136144030Y-69270671D01*
X136135765Y-69247571D01*
X136129804Y-69223773D01*
X136126204Y-69199504D01*
X136125000Y-69175000D01*
X136125000Y-68425000D01*
X136126204Y-68400496D01*
X136129804Y-68376227D01*
X136135765Y-68352429D01*
X136144030Y-68329329D01*
X136154520Y-68307151D01*
X136167133Y-68286107D01*
X136181747Y-68266402D01*
X136198223Y-68248223D01*
X136216402Y-68231747D01*
X136236107Y-68217133D01*
X136257151Y-68204520D01*
X136279329Y-68194030D01*
X136302429Y-68185765D01*
X136326227Y-68179804D01*
X136350496Y-68176204D01*
X136375000Y-68175000D01*
X137625000Y-68175000D01*
X137649504Y-68176204D01*
X137649504Y-68176204D01*
G37*
D14*
X137000000Y-68800000D03*
D13*
G36*
X137649504Y-65376204D02*
G01*
X137673773Y-65379804D01*
X137697571Y-65385765D01*
X137720671Y-65394030D01*
X137742849Y-65404520D01*
X137763893Y-65417133D01*
X137783598Y-65431747D01*
X137801777Y-65448223D01*
X137818253Y-65466402D01*
X137832867Y-65486107D01*
X137845480Y-65507151D01*
X137855970Y-65529329D01*
X137864235Y-65552429D01*
X137870196Y-65576227D01*
X137873796Y-65600496D01*
X137875000Y-65625000D01*
X137875000Y-66375000D01*
X137873796Y-66399504D01*
X137870196Y-66423773D01*
X137864235Y-66447571D01*
X137855970Y-66470671D01*
X137845480Y-66492849D01*
X137832867Y-66513893D01*
X137818253Y-66533598D01*
X137801777Y-66551777D01*
X137783598Y-66568253D01*
X137763893Y-66582867D01*
X137742849Y-66595480D01*
X137720671Y-66605970D01*
X137697571Y-66614235D01*
X137673773Y-66620196D01*
X137649504Y-66623796D01*
X137625000Y-66625000D01*
X136375000Y-66625000D01*
X136350496Y-66623796D01*
X136326227Y-66620196D01*
X136302429Y-66614235D01*
X136279329Y-66605970D01*
X136257151Y-66595480D01*
X136236107Y-66582867D01*
X136216402Y-66568253D01*
X136198223Y-66551777D01*
X136181747Y-66533598D01*
X136167133Y-66513893D01*
X136154520Y-66492849D01*
X136144030Y-66470671D01*
X136135765Y-66447571D01*
X136129804Y-66423773D01*
X136126204Y-66399504D01*
X136125000Y-66375000D01*
X136125000Y-65625000D01*
X136126204Y-65600496D01*
X136129804Y-65576227D01*
X136135765Y-65552429D01*
X136144030Y-65529329D01*
X136154520Y-65507151D01*
X136167133Y-65486107D01*
X136181747Y-65466402D01*
X136198223Y-65448223D01*
X136216402Y-65431747D01*
X136236107Y-65417133D01*
X136257151Y-65404520D01*
X136279329Y-65394030D01*
X136302429Y-65385765D01*
X136326227Y-65379804D01*
X136350496Y-65376204D01*
X136375000Y-65375000D01*
X137625000Y-65375000D01*
X137649504Y-65376204D01*
X137649504Y-65376204D01*
G37*
D14*
X137000000Y-66000000D03*
D17*
X165462221Y-103287779D03*
X163500000Y-102475000D03*
X161537779Y-103287779D03*
X160725000Y-105250000D03*
X161537779Y-107212221D03*
X163500000Y-108025000D03*
X165462221Y-107212221D03*
X166275000Y-105250000D03*
D18*
X163500000Y-105250000D03*
D17*
X120962221Y-103287779D03*
X119000000Y-102475000D03*
X117037779Y-103287779D03*
X116225000Y-105250000D03*
X117037779Y-107212221D03*
X119000000Y-108025000D03*
X120962221Y-107212221D03*
X121775000Y-105250000D03*
D18*
X119000000Y-105250000D03*
D17*
X165462221Y-31537779D03*
X163500000Y-30725000D03*
X161537779Y-31537779D03*
X160725000Y-33500000D03*
X161537779Y-35462221D03*
X163500000Y-36275000D03*
X165462221Y-35462221D03*
X166275000Y-33500000D03*
D18*
X163500000Y-33500000D03*
D17*
X120962221Y-31537779D03*
X119000000Y-30725000D03*
X117037779Y-31537779D03*
X116225000Y-33500000D03*
X117037779Y-35462221D03*
X119000000Y-36275000D03*
X120962221Y-35462221D03*
X121775000Y-33500000D03*
D18*
X119000000Y-33500000D03*
D13*
G36*
X126527691Y-86276053D02*
G01*
X126548926Y-86279203D01*
X126569750Y-86284419D01*
X126589962Y-86291651D01*
X126609368Y-86300830D01*
X126627781Y-86311866D01*
X126645024Y-86324654D01*
X126660930Y-86339070D01*
X126675346Y-86354976D01*
X126688134Y-86372219D01*
X126699170Y-86390632D01*
X126708349Y-86410038D01*
X126715581Y-86430250D01*
X126720797Y-86451074D01*
X126723947Y-86472309D01*
X126725000Y-86493750D01*
X126725000Y-86931250D01*
X126723947Y-86952691D01*
X126720797Y-86973926D01*
X126715581Y-86994750D01*
X126708349Y-87014962D01*
X126699170Y-87034368D01*
X126688134Y-87052781D01*
X126675346Y-87070024D01*
X126660930Y-87085930D01*
X126645024Y-87100346D01*
X126627781Y-87113134D01*
X126609368Y-87124170D01*
X126589962Y-87133349D01*
X126569750Y-87140581D01*
X126548926Y-87145797D01*
X126527691Y-87148947D01*
X126506250Y-87150000D01*
X125993750Y-87150000D01*
X125972309Y-87148947D01*
X125951074Y-87145797D01*
X125930250Y-87140581D01*
X125910038Y-87133349D01*
X125890632Y-87124170D01*
X125872219Y-87113134D01*
X125854976Y-87100346D01*
X125839070Y-87085930D01*
X125824654Y-87070024D01*
X125811866Y-87052781D01*
X125800830Y-87034368D01*
X125791651Y-87014962D01*
X125784419Y-86994750D01*
X125779203Y-86973926D01*
X125776053Y-86952691D01*
X125775000Y-86931250D01*
X125775000Y-86493750D01*
X125776053Y-86472309D01*
X125779203Y-86451074D01*
X125784419Y-86430250D01*
X125791651Y-86410038D01*
X125800830Y-86390632D01*
X125811866Y-86372219D01*
X125824654Y-86354976D01*
X125839070Y-86339070D01*
X125854976Y-86324654D01*
X125872219Y-86311866D01*
X125890632Y-86300830D01*
X125910038Y-86291651D01*
X125930250Y-86284419D01*
X125951074Y-86279203D01*
X125972309Y-86276053D01*
X125993750Y-86275000D01*
X126506250Y-86275000D01*
X126527691Y-86276053D01*
X126527691Y-86276053D01*
G37*
D16*
X126250000Y-86712500D03*
D13*
G36*
X126527691Y-87851053D02*
G01*
X126548926Y-87854203D01*
X126569750Y-87859419D01*
X126589962Y-87866651D01*
X126609368Y-87875830D01*
X126627781Y-87886866D01*
X126645024Y-87899654D01*
X126660930Y-87914070D01*
X126675346Y-87929976D01*
X126688134Y-87947219D01*
X126699170Y-87965632D01*
X126708349Y-87985038D01*
X126715581Y-88005250D01*
X126720797Y-88026074D01*
X126723947Y-88047309D01*
X126725000Y-88068750D01*
X126725000Y-88506250D01*
X126723947Y-88527691D01*
X126720797Y-88548926D01*
X126715581Y-88569750D01*
X126708349Y-88589962D01*
X126699170Y-88609368D01*
X126688134Y-88627781D01*
X126675346Y-88645024D01*
X126660930Y-88660930D01*
X126645024Y-88675346D01*
X126627781Y-88688134D01*
X126609368Y-88699170D01*
X126589962Y-88708349D01*
X126569750Y-88715581D01*
X126548926Y-88720797D01*
X126527691Y-88723947D01*
X126506250Y-88725000D01*
X125993750Y-88725000D01*
X125972309Y-88723947D01*
X125951074Y-88720797D01*
X125930250Y-88715581D01*
X125910038Y-88708349D01*
X125890632Y-88699170D01*
X125872219Y-88688134D01*
X125854976Y-88675346D01*
X125839070Y-88660930D01*
X125824654Y-88645024D01*
X125811866Y-88627781D01*
X125800830Y-88609368D01*
X125791651Y-88589962D01*
X125784419Y-88569750D01*
X125779203Y-88548926D01*
X125776053Y-88527691D01*
X125775000Y-88506250D01*
X125775000Y-88068750D01*
X125776053Y-88047309D01*
X125779203Y-88026074D01*
X125784419Y-88005250D01*
X125791651Y-87985038D01*
X125800830Y-87965632D01*
X125811866Y-87947219D01*
X125824654Y-87929976D01*
X125839070Y-87914070D01*
X125854976Y-87899654D01*
X125872219Y-87886866D01*
X125890632Y-87875830D01*
X125910038Y-87866651D01*
X125930250Y-87859419D01*
X125951074Y-87854203D01*
X125972309Y-87851053D01*
X125993750Y-87850000D01*
X126506250Y-87850000D01*
X126527691Y-87851053D01*
X126527691Y-87851053D01*
G37*
D16*
X126250000Y-88287500D03*
D17*
X133000000Y-65750000D03*
X123000000Y-64250000D03*
X131000000Y-64250000D03*
X127500000Y-64250000D03*
X130750000Y-74250000D03*
X128000000Y-74500000D03*
X157250000Y-64250000D03*
X149500000Y-64250000D03*
X153500000Y-64250000D03*
X157250000Y-74250000D03*
X154500000Y-74500000D03*
X138000000Y-71250000D03*
X135500000Y-74750000D03*
X164750000Y-70500000D03*
X162000000Y-74500000D03*
X159500000Y-65500000D03*
X132500000Y-63500000D03*
X136000000Y-64500000D03*
X137500000Y-75000000D03*
X126500000Y-74500000D03*
X152625000Y-74375000D03*
X163750000Y-74500000D03*
X159000000Y-63500000D03*
X162500000Y-64250000D03*
D19*
X155500000Y-85500000D02*
X155500000Y-88000000D01*
D20*
X130537500Y-52292500D02*
X130680000Y-52150000D01*
X130537500Y-54250000D02*
X130537500Y-52292500D01*
X130680000Y-50900000D02*
X130680000Y-52150000D01*
X132500000Y-69500000D02*
X130720000Y-69500000D01*
X134750000Y-58462500D02*
X130537500Y-54250000D01*
X132500000Y-69500000D02*
X134750000Y-67250000D01*
D19*
X126837500Y-86125000D02*
X126250000Y-86712500D01*
X127900000Y-86125000D02*
X126837500Y-86125000D01*
X126250000Y-86712500D02*
X126250000Y-84500000D01*
D20*
X126250000Y-84500000D02*
X129250000Y-81500000D01*
X129250000Y-81500000D02*
X129250000Y-78250000D01*
X129250000Y-78250000D02*
X133750000Y-73750000D01*
D21*
X126912500Y-87375000D02*
X126250000Y-86712500D01*
X127900000Y-87375000D02*
X126912500Y-87375000D01*
D20*
X157037500Y-52292500D02*
X157180000Y-52150000D01*
X157037500Y-54250000D02*
X157037500Y-52292500D01*
X157180000Y-50900000D02*
X157180000Y-52150000D01*
X159000000Y-69500000D02*
X157220000Y-69500000D01*
X161250000Y-58462500D02*
X157037500Y-54250000D01*
X159000000Y-69500000D02*
X161250000Y-67250000D01*
D19*
X153337500Y-86125000D02*
X152750000Y-86712500D01*
X154400000Y-86125000D02*
X153337500Y-86125000D01*
X152750000Y-86712500D02*
X152750000Y-84500000D01*
D20*
X152750000Y-84500000D02*
X155750000Y-81500000D01*
X155750000Y-81500000D02*
X155750000Y-78250000D01*
X155750000Y-78250000D02*
X160250000Y-73750000D01*
D21*
X153412500Y-87375000D02*
X152750000Y-86712500D01*
X154400000Y-87375000D02*
X153412500Y-87375000D01*
D20*
X133750000Y-70750000D02*
X132500000Y-69500000D01*
X133750000Y-73750000D02*
X133750000Y-70750000D01*
X160250000Y-70750000D02*
X159000000Y-69500000D01*
X160250000Y-73750000D02*
X160250000Y-70750000D01*
D21*
X165100000Y-67000000D02*
X166250000Y-65850000D01*
X161250000Y-67250000D02*
X161500000Y-67000000D01*
X161500000Y-67000000D02*
X165100000Y-67000000D01*
X138250000Y-67250000D02*
X134750000Y-67250000D01*
X139750000Y-66000000D02*
X139500000Y-66000000D01*
X139500000Y-66000000D02*
X138250000Y-67250000D01*
D20*
X161250000Y-66500000D02*
X161250000Y-58500000D01*
X161250000Y-67250000D02*
X161250000Y-66500000D01*
X134750000Y-61500000D02*
X134750000Y-58500000D01*
X134750000Y-67250000D02*
X134750000Y-61500000D01*
D19*
X127562500Y-88287500D02*
X127900000Y-88625000D01*
X126250000Y-88287500D02*
X127562500Y-88287500D01*
X154062500Y-88287500D02*
X154400000Y-88625000D01*
X152750000Y-88287500D02*
X154062500Y-88287500D01*
X154875000Y-88625000D02*
X155500000Y-88000000D01*
X154400000Y-88625000D02*
X154875000Y-88625000D01*
X127900000Y-88625000D02*
X128375000Y-88625000D01*
X129049999Y-87950001D02*
X129049999Y-85049999D01*
X128375000Y-88625000D02*
X129049999Y-87950001D01*
D21*
X125320000Y-48350000D02*
X123400000Y-48350000D01*
X123400000Y-48350000D02*
X121750000Y-50000000D01*
X125280000Y-80970000D02*
X123500000Y-82750000D01*
X123500000Y-82750000D02*
X123500000Y-88250000D01*
X125125000Y-89875000D02*
X127900000Y-89875000D01*
X123500000Y-88250000D02*
X125125000Y-89875000D01*
X126650000Y-50900000D02*
X125590000Y-50900000D01*
X127000000Y-51250000D02*
X126650000Y-50900000D01*
X127000000Y-56750000D02*
X127000000Y-51250000D01*
X132500000Y-62250000D02*
X127000000Y-56750000D01*
X137000000Y-66000000D02*
X137000000Y-65500000D01*
X137000000Y-65500000D02*
X136000000Y-64500000D01*
X132500000Y-63500000D02*
X132500000Y-62250000D01*
X139750000Y-81750000D02*
X139750000Y-68800000D01*
X130100000Y-89875000D02*
X131625000Y-89875000D01*
X131625000Y-89875000D02*
X139750000Y-81750000D01*
X125280000Y-72040000D02*
X125280000Y-80970000D01*
X128850000Y-49600000D02*
X130680000Y-49600000D01*
X128250000Y-49000000D02*
X128850000Y-49600000D01*
X128250000Y-48000000D02*
X128250000Y-49000000D01*
X125280000Y-72030000D02*
X121000000Y-67750000D01*
X125280000Y-72040000D02*
X125280000Y-72030000D01*
X121000000Y-67750000D02*
X121000000Y-49750000D01*
X121000000Y-49750000D02*
X123500000Y-47250000D01*
X123500000Y-47250000D02*
X127500000Y-47250000D01*
X127500000Y-47250000D02*
X128250000Y-48000000D01*
X123750000Y-69500000D02*
X125280000Y-69500000D01*
X121750000Y-50000000D02*
X121750000Y-67500000D01*
X121750000Y-67500000D02*
X123750000Y-69500000D01*
X137500000Y-78725000D02*
X130100000Y-86125000D01*
X137500000Y-75000000D02*
X137500000Y-78725000D01*
X127250000Y-70750000D02*
X127750000Y-71250000D01*
X127750000Y-71250000D02*
X127750000Y-73250000D01*
X125280000Y-69500000D02*
X126530000Y-70750000D01*
X127750000Y-73250000D02*
X126500000Y-74500000D01*
X126530000Y-70750000D02*
X127250000Y-70750000D01*
X151780000Y-80970000D02*
X150000000Y-82750000D01*
X150000000Y-82750000D02*
X150000000Y-88250000D01*
X151625000Y-89875000D02*
X154400000Y-89875000D01*
X150000000Y-88250000D02*
X151625000Y-89875000D01*
X151780000Y-80970000D02*
X151780000Y-72040000D01*
X155350000Y-49600000D02*
X157180000Y-49600000D01*
X154750000Y-49000000D02*
X155350000Y-49600000D01*
X154750000Y-48000000D02*
X154750000Y-49000000D01*
X151780000Y-72040000D02*
X151780000Y-72030000D01*
X147500000Y-67750000D02*
X147500000Y-49750000D01*
X147500000Y-49750000D02*
X150000000Y-47250000D01*
X151780000Y-72030000D02*
X147500000Y-67750000D01*
X150000000Y-47250000D02*
X154000000Y-47250000D01*
X154000000Y-47250000D02*
X154750000Y-48000000D01*
X151820000Y-48350000D02*
X149900000Y-48350000D01*
X149900000Y-48350000D02*
X148250000Y-50000000D01*
X151780000Y-69780000D02*
X152750000Y-70750000D01*
X151780000Y-69500000D02*
X151780000Y-69780000D01*
X152750000Y-70750000D02*
X153750000Y-70750000D01*
X153750000Y-70750000D02*
X154250000Y-71250000D01*
X154250000Y-71250000D02*
X154250000Y-72750000D01*
X150250000Y-69500000D02*
X151780000Y-69500000D01*
X148250000Y-50000000D02*
X148250000Y-67500000D01*
X148250000Y-67500000D02*
X150250000Y-69500000D01*
X152625000Y-74375000D02*
X152500000Y-74500000D01*
X154250000Y-72750000D02*
X152625000Y-74375000D01*
X163750000Y-78975000D02*
X156600000Y-86125000D01*
X163750000Y-74500000D02*
X163750000Y-78975000D01*
X153150000Y-50900000D02*
X152090000Y-50900000D01*
X153500000Y-51250000D02*
X153150000Y-50900000D01*
X153500000Y-56750000D02*
X153500000Y-51250000D01*
X159000000Y-62250000D02*
X153500000Y-56750000D01*
X163500000Y-65600000D02*
X163500000Y-65250000D01*
X163500000Y-65250000D02*
X162500000Y-64250000D01*
X159000000Y-63500000D02*
X159000000Y-62250000D01*
X166250000Y-81750000D02*
X166250000Y-68650000D01*
X156600000Y-89875000D02*
X158125000Y-89875000D01*
X158125000Y-89875000D02*
X166250000Y-81750000D01*
D22*
G36*
X135499188Y-68050518D02*
G01*
X135486928Y-68175000D01*
X135490000Y-68514250D01*
X135648750Y-68673000D01*
X136873000Y-68673000D01*
X136873000Y-68653000D01*
X137127000Y-68653000D01*
X137127000Y-68673000D01*
X137147000Y-68673000D01*
X137147000Y-68927000D01*
X137127000Y-68927000D01*
X137127000Y-69901250D01*
X137285750Y-70060000D01*
X137875000Y-70063072D01*
X137999482Y-70050812D01*
X138119180Y-70014502D01*
X138229494Y-69955537D01*
X138326185Y-69876185D01*
X138405537Y-69779494D01*
X138434031Y-69726187D01*
X138497038Y-69802962D01*
X138631614Y-69913405D01*
X138785150Y-69995472D01*
X138951746Y-70046008D01*
X139015001Y-70052238D01*
X139015000Y-81445553D01*
X131320554Y-89140000D01*
X131248354Y-89140000D01*
X131275812Y-89049482D01*
X131288072Y-88925000D01*
X131288072Y-88325000D01*
X131275812Y-88200518D01*
X131239502Y-88080820D01*
X131196302Y-88000000D01*
X131239502Y-87919180D01*
X131275812Y-87799482D01*
X131288072Y-87675000D01*
X131288072Y-87075000D01*
X131275812Y-86950518D01*
X131239502Y-86830820D01*
X131196302Y-86750000D01*
X131239502Y-86669180D01*
X131275812Y-86549482D01*
X131288072Y-86425000D01*
X131288072Y-85976374D01*
X137994193Y-79270254D01*
X138022238Y-79247238D01*
X138114087Y-79135320D01*
X138182337Y-79007633D01*
X138224365Y-78869085D01*
X138235000Y-78761105D01*
X138235000Y-78761096D01*
X138238555Y-78725001D01*
X138235000Y-78688906D01*
X138235000Y-75728711D01*
X138303937Y-75659774D01*
X138417205Y-75490256D01*
X138495226Y-75301898D01*
X138535000Y-75101939D01*
X138535000Y-74898061D01*
X138495226Y-74698102D01*
X138417205Y-74509744D01*
X138303937Y-74340226D01*
X138159774Y-74196063D01*
X137990256Y-74082795D01*
X137801898Y-74004774D01*
X137601939Y-73965000D01*
X137398061Y-73965000D01*
X137198102Y-74004774D01*
X137009744Y-74082795D01*
X136840226Y-74196063D01*
X136696063Y-74340226D01*
X136582795Y-74509744D01*
X136504774Y-74698102D01*
X136465000Y-74898061D01*
X136465000Y-75101939D01*
X136504774Y-75301898D01*
X136582795Y-75490256D01*
X136696063Y-75659774D01*
X136765000Y-75728711D01*
X136765001Y-78420552D01*
X129998626Y-85186928D01*
X129550000Y-85186928D01*
X129425518Y-85199188D01*
X129305820Y-85235498D01*
X129195506Y-85294463D01*
X129098815Y-85373815D01*
X129019463Y-85470506D01*
X129000000Y-85506918D01*
X128980537Y-85470506D01*
X128901185Y-85373815D01*
X128804494Y-85294463D01*
X128694180Y-85235498D01*
X128574482Y-85199188D01*
X128450000Y-85186928D01*
X127350000Y-85186928D01*
X127318808Y-85190000D01*
X127185000Y-85190000D01*
X127185000Y-85099421D01*
X129979531Y-82304891D01*
X130020922Y-82270922D01*
X130054891Y-82229531D01*
X130054895Y-82229527D01*
X130098343Y-82176585D01*
X130156509Y-82105710D01*
X130257259Y-81917220D01*
X130319300Y-81712697D01*
X130335000Y-81553294D01*
X130335000Y-81553286D01*
X130340248Y-81500000D01*
X130335000Y-81446714D01*
X130335000Y-78699421D01*
X134479531Y-74554891D01*
X134520922Y-74520922D01*
X134554891Y-74479531D01*
X134554895Y-74479527D01*
X134621752Y-74398061D01*
X134656509Y-74355710D01*
X134757259Y-74167220D01*
X134815761Y-73974365D01*
X134819300Y-73962698D01*
X134831362Y-73840226D01*
X134835000Y-73803294D01*
X134835000Y-73803287D01*
X134840248Y-73750001D01*
X134835000Y-73696715D01*
X134835000Y-70803286D01*
X134840248Y-70750000D01*
X134835000Y-70696714D01*
X134835000Y-70696706D01*
X134819300Y-70537303D01*
X134757259Y-70332780D01*
X134656509Y-70144290D01*
X134589855Y-70063072D01*
X134554895Y-70020473D01*
X134554891Y-70020469D01*
X134520922Y-69979078D01*
X134479531Y-69945109D01*
X134034421Y-69500000D01*
X134109421Y-69425000D01*
X135486928Y-69425000D01*
X135499188Y-69549482D01*
X135535498Y-69669180D01*
X135594463Y-69779494D01*
X135673815Y-69876185D01*
X135770506Y-69955537D01*
X135880820Y-70014502D01*
X136000518Y-70050812D01*
X136125000Y-70063072D01*
X136714250Y-70060000D01*
X136873000Y-69901250D01*
X136873000Y-68927000D01*
X135648750Y-68927000D01*
X135490000Y-69085750D01*
X135486928Y-69425000D01*
X134109421Y-69425000D01*
X135479526Y-68054895D01*
X135503938Y-68034861D01*
X135499188Y-68050518D01*
X135499188Y-68050518D01*
G37*
X135499188Y-68050518D02*
X135486928Y-68175000D01*
X135490000Y-68514250D01*
X135648750Y-68673000D01*
X136873000Y-68673000D01*
X136873000Y-68653000D01*
X137127000Y-68653000D01*
X137127000Y-68673000D01*
X137147000Y-68673000D01*
X137147000Y-68927000D01*
X137127000Y-68927000D01*
X137127000Y-69901250D01*
X137285750Y-70060000D01*
X137875000Y-70063072D01*
X137999482Y-70050812D01*
X138119180Y-70014502D01*
X138229494Y-69955537D01*
X138326185Y-69876185D01*
X138405537Y-69779494D01*
X138434031Y-69726187D01*
X138497038Y-69802962D01*
X138631614Y-69913405D01*
X138785150Y-69995472D01*
X138951746Y-70046008D01*
X139015001Y-70052238D01*
X139015000Y-81445553D01*
X131320554Y-89140000D01*
X131248354Y-89140000D01*
X131275812Y-89049482D01*
X131288072Y-88925000D01*
X131288072Y-88325000D01*
X131275812Y-88200518D01*
X131239502Y-88080820D01*
X131196302Y-88000000D01*
X131239502Y-87919180D01*
X131275812Y-87799482D01*
X131288072Y-87675000D01*
X131288072Y-87075000D01*
X131275812Y-86950518D01*
X131239502Y-86830820D01*
X131196302Y-86750000D01*
X131239502Y-86669180D01*
X131275812Y-86549482D01*
X131288072Y-86425000D01*
X131288072Y-85976374D01*
X137994193Y-79270254D01*
X138022238Y-79247238D01*
X138114087Y-79135320D01*
X138182337Y-79007633D01*
X138224365Y-78869085D01*
X138235000Y-78761105D01*
X138235000Y-78761096D01*
X138238555Y-78725001D01*
X138235000Y-78688906D01*
X138235000Y-75728711D01*
X138303937Y-75659774D01*
X138417205Y-75490256D01*
X138495226Y-75301898D01*
X138535000Y-75101939D01*
X138535000Y-74898061D01*
X138495226Y-74698102D01*
X138417205Y-74509744D01*
X138303937Y-74340226D01*
X138159774Y-74196063D01*
X137990256Y-74082795D01*
X137801898Y-74004774D01*
X137601939Y-73965000D01*
X137398061Y-73965000D01*
X137198102Y-74004774D01*
X137009744Y-74082795D01*
X136840226Y-74196063D01*
X136696063Y-74340226D01*
X136582795Y-74509744D01*
X136504774Y-74698102D01*
X136465000Y-74898061D01*
X136465000Y-75101939D01*
X136504774Y-75301898D01*
X136582795Y-75490256D01*
X136696063Y-75659774D01*
X136765000Y-75728711D01*
X136765001Y-78420552D01*
X129998626Y-85186928D01*
X129550000Y-85186928D01*
X129425518Y-85199188D01*
X129305820Y-85235498D01*
X129195506Y-85294463D01*
X129098815Y-85373815D01*
X129019463Y-85470506D01*
X129000000Y-85506918D01*
X128980537Y-85470506D01*
X128901185Y-85373815D01*
X128804494Y-85294463D01*
X128694180Y-85235498D01*
X128574482Y-85199188D01*
X128450000Y-85186928D01*
X127350000Y-85186928D01*
X127318808Y-85190000D01*
X127185000Y-85190000D01*
X127185000Y-85099421D01*
X129979531Y-82304891D01*
X130020922Y-82270922D01*
X130054891Y-82229531D01*
X130054895Y-82229527D01*
X130098343Y-82176585D01*
X130156509Y-82105710D01*
X130257259Y-81917220D01*
X130319300Y-81712697D01*
X130335000Y-81553294D01*
X130335000Y-81553286D01*
X130340248Y-81500000D01*
X130335000Y-81446714D01*
X130335000Y-78699421D01*
X134479531Y-74554891D01*
X134520922Y-74520922D01*
X134554891Y-74479531D01*
X134554895Y-74479527D01*
X134621752Y-74398061D01*
X134656509Y-74355710D01*
X134757259Y-74167220D01*
X134815761Y-73974365D01*
X134819300Y-73962698D01*
X134831362Y-73840226D01*
X134835000Y-73803294D01*
X134835000Y-73803287D01*
X134840248Y-73750001D01*
X134835000Y-73696715D01*
X134835000Y-70803286D01*
X134840248Y-70750000D01*
X134835000Y-70696714D01*
X134835000Y-70696706D01*
X134819300Y-70537303D01*
X134757259Y-70332780D01*
X134656509Y-70144290D01*
X134589855Y-70063072D01*
X134554895Y-70020473D01*
X134554891Y-70020469D01*
X134520922Y-69979078D01*
X134479531Y-69945109D01*
X134034421Y-69500000D01*
X134109421Y-69425000D01*
X135486928Y-69425000D01*
X135499188Y-69549482D01*
X135535498Y-69669180D01*
X135594463Y-69779494D01*
X135673815Y-69876185D01*
X135770506Y-69955537D01*
X135880820Y-70014502D01*
X136000518Y-70050812D01*
X136125000Y-70063072D01*
X136714250Y-70060000D01*
X136873000Y-69901250D01*
X136873000Y-68927000D01*
X135648750Y-68927000D01*
X135490000Y-69085750D01*
X135486928Y-69425000D01*
X134109421Y-69425000D01*
X135479526Y-68054895D01*
X135503938Y-68034861D01*
X135499188Y-68050518D01*
G36*
X132665001Y-71199423D02*
G01*
X132665000Y-73300578D01*
X128520470Y-77445109D01*
X128479079Y-77479078D01*
X128445110Y-77520469D01*
X128445105Y-77520474D01*
X128391227Y-77586125D01*
X128343492Y-77644290D01*
X128242742Y-77832780D01*
X128180700Y-78037303D01*
X128159752Y-78250000D01*
X128165001Y-78303296D01*
X128165000Y-81050578D01*
X125445105Y-83770474D01*
X125343492Y-83894291D01*
X125242742Y-84082780D01*
X125180700Y-84287303D01*
X125159752Y-84500000D01*
X125180700Y-84712697D01*
X125242742Y-84917220D01*
X125315001Y-85052406D01*
X125315000Y-85976696D01*
X125281329Y-86017725D01*
X125202150Y-86165858D01*
X125153392Y-86326592D01*
X125136928Y-86493750D01*
X125136928Y-86931250D01*
X125153392Y-87098408D01*
X125202150Y-87259142D01*
X125281329Y-87407275D01*
X125299100Y-87428930D01*
X125244463Y-87495506D01*
X125185498Y-87605820D01*
X125149188Y-87725518D01*
X125136928Y-87850000D01*
X125140000Y-88001750D01*
X125298750Y-88160500D01*
X126123000Y-88160500D01*
X126123000Y-88140500D01*
X126377000Y-88140500D01*
X126377000Y-88160500D01*
X126397000Y-88160500D01*
X126397000Y-88414500D01*
X126377000Y-88414500D01*
X126377000Y-88434500D01*
X126123000Y-88434500D01*
X126123000Y-88414500D01*
X125298750Y-88414500D01*
X125140000Y-88573250D01*
X125136928Y-88725000D01*
X125149188Y-88849482D01*
X125153655Y-88864209D01*
X124235000Y-87945554D01*
X124235000Y-83054446D01*
X125774193Y-81515254D01*
X125802238Y-81492238D01*
X125894087Y-81380320D01*
X125962337Y-81252633D01*
X126004365Y-81114085D01*
X126015000Y-81006105D01*
X126015000Y-81006098D01*
X126018555Y-80970001D01*
X126015000Y-80933904D01*
X126015000Y-75419382D01*
X126198102Y-75495226D01*
X126398061Y-75535000D01*
X126601939Y-75535000D01*
X126801898Y-75495226D01*
X126990256Y-75417205D01*
X127159774Y-75303937D01*
X127303937Y-75159774D01*
X127417205Y-74990256D01*
X127495226Y-74801898D01*
X127535000Y-74601939D01*
X127535000Y-74504446D01*
X128244193Y-73795254D01*
X128272238Y-73772238D01*
X128364087Y-73660320D01*
X128432337Y-73532633D01*
X128474365Y-73394085D01*
X128485000Y-73286105D01*
X128488556Y-73250000D01*
X128485000Y-73213895D01*
X128485000Y-72838919D01*
X128556042Y-72909961D01*
X128739481Y-73032531D01*
X128943308Y-73116959D01*
X129159690Y-73160000D01*
X129380310Y-73160000D01*
X129452517Y-73145637D01*
X129525506Y-73205537D01*
X129635820Y-73264502D01*
X129755518Y-73300812D01*
X129880000Y-73313072D01*
X130434250Y-73310000D01*
X130593000Y-73151250D01*
X130593000Y-72167000D01*
X130847000Y-72167000D01*
X130847000Y-73151250D01*
X131005750Y-73310000D01*
X131560000Y-73313072D01*
X131684482Y-73300812D01*
X131804180Y-73264502D01*
X131914494Y-73205537D01*
X132011185Y-73126185D01*
X132090537Y-73029494D01*
X132149502Y-72919180D01*
X132185812Y-72799482D01*
X132198072Y-72675000D01*
X132195000Y-72325750D01*
X132036250Y-72167000D01*
X130847000Y-72167000D01*
X130593000Y-72167000D01*
X130573000Y-72167000D01*
X130573000Y-71913000D01*
X130593000Y-71913000D01*
X130593000Y-71893000D01*
X130847000Y-71893000D01*
X130847000Y-71913000D01*
X132036250Y-71913000D01*
X132195000Y-71754250D01*
X132198072Y-71405000D01*
X132185812Y-71280518D01*
X132149502Y-71160820D01*
X132090537Y-71050506D01*
X132011185Y-70953815D01*
X131914494Y-70874463D01*
X131804180Y-70815498D01*
X131684482Y-70779188D01*
X131591192Y-70770000D01*
X131684482Y-70760812D01*
X131804180Y-70724502D01*
X131914494Y-70665537D01*
X132011185Y-70586185D01*
X132012158Y-70585000D01*
X132050579Y-70585000D01*
X132665001Y-71199423D01*
X132665001Y-71199423D01*
G37*
X132665001Y-71199423D02*
X132665000Y-73300578D01*
X128520470Y-77445109D01*
X128479079Y-77479078D01*
X128445110Y-77520469D01*
X128445105Y-77520474D01*
X128391227Y-77586125D01*
X128343492Y-77644290D01*
X128242742Y-77832780D01*
X128180700Y-78037303D01*
X128159752Y-78250000D01*
X128165001Y-78303296D01*
X128165000Y-81050578D01*
X125445105Y-83770474D01*
X125343492Y-83894291D01*
X125242742Y-84082780D01*
X125180700Y-84287303D01*
X125159752Y-84500000D01*
X125180700Y-84712697D01*
X125242742Y-84917220D01*
X125315001Y-85052406D01*
X125315000Y-85976696D01*
X125281329Y-86017725D01*
X125202150Y-86165858D01*
X125153392Y-86326592D01*
X125136928Y-86493750D01*
X125136928Y-86931250D01*
X125153392Y-87098408D01*
X125202150Y-87259142D01*
X125281329Y-87407275D01*
X125299100Y-87428930D01*
X125244463Y-87495506D01*
X125185498Y-87605820D01*
X125149188Y-87725518D01*
X125136928Y-87850000D01*
X125140000Y-88001750D01*
X125298750Y-88160500D01*
X126123000Y-88160500D01*
X126123000Y-88140500D01*
X126377000Y-88140500D01*
X126377000Y-88160500D01*
X126397000Y-88160500D01*
X126397000Y-88414500D01*
X126377000Y-88414500D01*
X126377000Y-88434500D01*
X126123000Y-88434500D01*
X126123000Y-88414500D01*
X125298750Y-88414500D01*
X125140000Y-88573250D01*
X125136928Y-88725000D01*
X125149188Y-88849482D01*
X125153655Y-88864209D01*
X124235000Y-87945554D01*
X124235000Y-83054446D01*
X125774193Y-81515254D01*
X125802238Y-81492238D01*
X125894087Y-81380320D01*
X125962337Y-81252633D01*
X126004365Y-81114085D01*
X126015000Y-81006105D01*
X126015000Y-81006098D01*
X126018555Y-80970001D01*
X126015000Y-80933904D01*
X126015000Y-75419382D01*
X126198102Y-75495226D01*
X126398061Y-75535000D01*
X126601939Y-75535000D01*
X126801898Y-75495226D01*
X126990256Y-75417205D01*
X127159774Y-75303937D01*
X127303937Y-75159774D01*
X127417205Y-74990256D01*
X127495226Y-74801898D01*
X127535000Y-74601939D01*
X127535000Y-74504446D01*
X128244193Y-73795254D01*
X128272238Y-73772238D01*
X128364087Y-73660320D01*
X128432337Y-73532633D01*
X128474365Y-73394085D01*
X128485000Y-73286105D01*
X128488556Y-73250000D01*
X128485000Y-73213895D01*
X128485000Y-72838919D01*
X128556042Y-72909961D01*
X128739481Y-73032531D01*
X128943308Y-73116959D01*
X129159690Y-73160000D01*
X129380310Y-73160000D01*
X129452517Y-73145637D01*
X129525506Y-73205537D01*
X129635820Y-73264502D01*
X129755518Y-73300812D01*
X129880000Y-73313072D01*
X130434250Y-73310000D01*
X130593000Y-73151250D01*
X130593000Y-72167000D01*
X130847000Y-72167000D01*
X130847000Y-73151250D01*
X131005750Y-73310000D01*
X131560000Y-73313072D01*
X131684482Y-73300812D01*
X131804180Y-73264502D01*
X131914494Y-73205537D01*
X132011185Y-73126185D01*
X132090537Y-73029494D01*
X132149502Y-72919180D01*
X132185812Y-72799482D01*
X132198072Y-72675000D01*
X132195000Y-72325750D01*
X132036250Y-72167000D01*
X130847000Y-72167000D01*
X130593000Y-72167000D01*
X130573000Y-72167000D01*
X130573000Y-71913000D01*
X130593000Y-71913000D01*
X130593000Y-71893000D01*
X130847000Y-71893000D01*
X130847000Y-71913000D01*
X132036250Y-71913000D01*
X132195000Y-71754250D01*
X132198072Y-71405000D01*
X132185812Y-71280518D01*
X132149502Y-71160820D01*
X132090537Y-71050506D01*
X132011185Y-70953815D01*
X131914494Y-70874463D01*
X131804180Y-70815498D01*
X131684482Y-70779188D01*
X131591192Y-70770000D01*
X131684482Y-70760812D01*
X131804180Y-70724502D01*
X131914494Y-70665537D01*
X132011185Y-70586185D01*
X132012158Y-70585000D01*
X132050579Y-70585000D01*
X132665001Y-71199423D01*
G36*
X128027000Y-88498000D02*
G01*
X128047000Y-88498000D01*
X128047000Y-88752000D01*
X128027000Y-88752000D01*
X128027000Y-88772000D01*
X127773000Y-88772000D01*
X127773000Y-88752000D01*
X127753000Y-88752000D01*
X127753000Y-88498000D01*
X127773000Y-88498000D01*
X127773000Y-88478000D01*
X128027000Y-88478000D01*
X128027000Y-88498000D01*
X128027000Y-88498000D01*
G37*
X128027000Y-88498000D02*
X128047000Y-88498000D01*
X128047000Y-88752000D01*
X128027000Y-88752000D01*
X128027000Y-88772000D01*
X127773000Y-88772000D01*
X127773000Y-88752000D01*
X127753000Y-88752000D01*
X127753000Y-88498000D01*
X127773000Y-88498000D01*
X127773000Y-88478000D01*
X128027000Y-88478000D01*
X128027000Y-88498000D01*
G36*
X129003698Y-88000000D02*
G01*
X129000000Y-88006918D01*
X128996302Y-88000000D01*
X129000000Y-87993082D01*
X129003698Y-88000000D01*
X129003698Y-88000000D01*
G37*
X129003698Y-88000000D02*
X129000000Y-88006918D01*
X128996302Y-88000000D01*
X129000000Y-87993082D01*
X129003698Y-88000000D01*
G36*
X127515000Y-48304447D02*
G01*
X127515001Y-48963886D01*
X127511444Y-49000000D01*
X127525635Y-49144085D01*
X127551019Y-49227762D01*
X127567664Y-49282633D01*
X127635914Y-49410320D01*
X127727763Y-49522238D01*
X127755808Y-49545254D01*
X128304746Y-50094193D01*
X128327762Y-50122238D01*
X128439680Y-50214087D01*
X128567367Y-50282337D01*
X128663886Y-50311616D01*
X128705914Y-50324365D01*
X128717622Y-50325518D01*
X128813895Y-50335000D01*
X128813902Y-50335000D01*
X128849999Y-50338555D01*
X128886096Y-50335000D01*
X128928254Y-50335000D01*
X128916928Y-50450000D01*
X128916928Y-51350000D01*
X128929188Y-51474482D01*
X128944512Y-51525000D01*
X128929188Y-51575518D01*
X128916928Y-51700000D01*
X128916928Y-52600000D01*
X128929188Y-52724482D01*
X128965498Y-52844180D01*
X129024463Y-52954494D01*
X129103815Y-53051185D01*
X129200506Y-53130537D01*
X129237786Y-53150464D01*
X129089500Y-53298750D01*
X129089500Y-54123000D01*
X129109500Y-54123000D01*
X129109500Y-54377000D01*
X129089500Y-54377000D01*
X129089500Y-55201250D01*
X129248250Y-55360000D01*
X129400000Y-55363072D01*
X129524482Y-55350812D01*
X129644180Y-55314502D01*
X129754494Y-55255537D01*
X129821070Y-55200900D01*
X129842725Y-55218671D01*
X129990858Y-55297850D01*
X130077086Y-55324007D01*
X133665001Y-58911923D01*
X133665000Y-61553293D01*
X133665001Y-61553303D01*
X133665000Y-66800579D01*
X132050579Y-68415000D01*
X132012158Y-68415000D01*
X132011185Y-68413815D01*
X131914494Y-68334463D01*
X131804180Y-68275498D01*
X131684482Y-68239188D01*
X131591192Y-68230000D01*
X131684482Y-68220812D01*
X131804180Y-68184502D01*
X131914494Y-68125537D01*
X132011185Y-68046185D01*
X132090537Y-67949494D01*
X132149502Y-67839180D01*
X132185812Y-67719482D01*
X132198072Y-67595000D01*
X132195000Y-67245750D01*
X132036250Y-67087000D01*
X130847000Y-67087000D01*
X130847000Y-67107000D01*
X130593000Y-67107000D01*
X130593000Y-67087000D01*
X130573000Y-67087000D01*
X130573000Y-66833000D01*
X130593000Y-66833000D01*
X130593000Y-65848750D01*
X130847000Y-65848750D01*
X130847000Y-66833000D01*
X132036250Y-66833000D01*
X132195000Y-66674250D01*
X132198072Y-66325000D01*
X132185812Y-66200518D01*
X132149502Y-66080820D01*
X132090537Y-65970506D01*
X132011185Y-65873815D01*
X131914494Y-65794463D01*
X131804180Y-65735498D01*
X131684482Y-65699188D01*
X131560000Y-65686928D01*
X131005750Y-65690000D01*
X130847000Y-65848750D01*
X130593000Y-65848750D01*
X130434250Y-65690000D01*
X129880000Y-65686928D01*
X129755518Y-65699188D01*
X129635820Y-65735498D01*
X129525506Y-65794463D01*
X129452517Y-65854363D01*
X129380310Y-65840000D01*
X129159690Y-65840000D01*
X128943308Y-65883041D01*
X128739481Y-65967469D01*
X128556042Y-66090039D01*
X128400039Y-66246042D01*
X128277469Y-66429481D01*
X128193041Y-66633308D01*
X128150000Y-66849690D01*
X128150000Y-67070310D01*
X128193041Y-67286692D01*
X128277469Y-67490519D01*
X128400039Y-67673958D01*
X128556042Y-67829961D01*
X128739481Y-67952531D01*
X128943308Y-68036959D01*
X129159690Y-68080000D01*
X129380310Y-68080000D01*
X129452517Y-68065637D01*
X129525506Y-68125537D01*
X129635820Y-68184502D01*
X129755518Y-68220812D01*
X129848808Y-68230000D01*
X129755518Y-68239188D01*
X129635820Y-68275498D01*
X129525506Y-68334463D01*
X129452517Y-68394363D01*
X129380310Y-68380000D01*
X129159690Y-68380000D01*
X128943308Y-68423041D01*
X128739481Y-68507469D01*
X128556042Y-68630039D01*
X128400039Y-68786042D01*
X128277469Y-68969481D01*
X128193041Y-69173308D01*
X128150000Y-69389690D01*
X128150000Y-69610310D01*
X128193041Y-69826692D01*
X128277469Y-70030519D01*
X128400039Y-70213958D01*
X128556042Y-70369961D01*
X128739481Y-70492531D01*
X128943308Y-70576959D01*
X129159690Y-70620000D01*
X129380310Y-70620000D01*
X129452517Y-70605637D01*
X129525506Y-70665537D01*
X129635820Y-70724502D01*
X129755518Y-70760812D01*
X129848808Y-70770000D01*
X129755518Y-70779188D01*
X129635820Y-70815498D01*
X129525506Y-70874463D01*
X129452517Y-70934363D01*
X129380310Y-70920000D01*
X129159690Y-70920000D01*
X128943308Y-70963041D01*
X128739481Y-71047469D01*
X128556042Y-71170039D01*
X128487437Y-71238644D01*
X128474365Y-71105915D01*
X128457557Y-71050506D01*
X128432337Y-70967367D01*
X128364087Y-70839680D01*
X128314442Y-70779188D01*
X128295253Y-70755806D01*
X128295250Y-70755803D01*
X128272237Y-70727762D01*
X128244197Y-70704750D01*
X127795258Y-70255812D01*
X127772238Y-70227762D01*
X127660320Y-70135913D01*
X127654270Y-70132679D01*
X127722531Y-70030519D01*
X127806959Y-69826692D01*
X127850000Y-69610310D01*
X127850000Y-69389690D01*
X127806959Y-69173308D01*
X127722531Y-68969481D01*
X127599961Y-68786042D01*
X127443958Y-68630039D01*
X127260519Y-68507469D01*
X127056692Y-68423041D01*
X126840310Y-68380000D01*
X126619690Y-68380000D01*
X126547483Y-68394363D01*
X126474494Y-68334463D01*
X126364180Y-68275498D01*
X126244482Y-68239188D01*
X126151192Y-68230000D01*
X126244482Y-68220812D01*
X126364180Y-68184502D01*
X126474494Y-68125537D01*
X126547483Y-68065637D01*
X126619690Y-68080000D01*
X126840310Y-68080000D01*
X127056692Y-68036959D01*
X127260519Y-67952531D01*
X127443958Y-67829961D01*
X127599961Y-67673958D01*
X127722531Y-67490519D01*
X127806959Y-67286692D01*
X127850000Y-67070310D01*
X127850000Y-66849690D01*
X127806959Y-66633308D01*
X127722531Y-66429481D01*
X127599961Y-66246042D01*
X127443958Y-66090039D01*
X127260519Y-65967469D01*
X127056692Y-65883041D01*
X126840310Y-65840000D01*
X126619690Y-65840000D01*
X126547483Y-65854363D01*
X126474494Y-65794463D01*
X126364180Y-65735498D01*
X126244482Y-65699188D01*
X126120000Y-65686928D01*
X125565750Y-65690000D01*
X125407000Y-65848750D01*
X125407000Y-66833000D01*
X125427000Y-66833000D01*
X125427000Y-67087000D01*
X125407000Y-67087000D01*
X125407000Y-67107000D01*
X125153000Y-67107000D01*
X125153000Y-67087000D01*
X123963750Y-67087000D01*
X123805000Y-67245750D01*
X123801928Y-67595000D01*
X123814188Y-67719482D01*
X123850498Y-67839180D01*
X123909463Y-67949494D01*
X123988815Y-68046185D01*
X124085506Y-68125537D01*
X124195820Y-68184502D01*
X124315518Y-68220812D01*
X124408808Y-68230000D01*
X124315518Y-68239188D01*
X124195820Y-68275498D01*
X124085506Y-68334463D01*
X123988815Y-68413815D01*
X123909463Y-68510506D01*
X123871317Y-68581870D01*
X122485000Y-67195554D01*
X122485000Y-66325000D01*
X123801928Y-66325000D01*
X123805000Y-66674250D01*
X123963750Y-66833000D01*
X125153000Y-66833000D01*
X125153000Y-65848750D01*
X124994250Y-65690000D01*
X124440000Y-65686928D01*
X124315518Y-65699188D01*
X124195820Y-65735498D01*
X124085506Y-65794463D01*
X123988815Y-65873815D01*
X123909463Y-65970506D01*
X123850498Y-66080820D01*
X123814188Y-66200518D01*
X123801928Y-66325000D01*
X122485000Y-66325000D01*
X122485000Y-50450000D01*
X123551928Y-50450000D01*
X123551928Y-51350000D01*
X123564188Y-51474482D01*
X123582012Y-51533241D01*
X123569188Y-51575518D01*
X123556928Y-51700000D01*
X123556928Y-52600000D01*
X123569188Y-52724482D01*
X123605498Y-52844180D01*
X123664463Y-52954494D01*
X123743815Y-53051185D01*
X123840506Y-53130537D01*
X123950820Y-53189502D01*
X124070518Y-53225812D01*
X124195000Y-53238072D01*
X126265001Y-53238072D01*
X126265000Y-56713895D01*
X126261444Y-56750000D01*
X126265000Y-56786104D01*
X126275635Y-56894084D01*
X126317663Y-57032632D01*
X126385913Y-57160319D01*
X126477762Y-57272237D01*
X126505808Y-57295254D01*
X131765001Y-62554448D01*
X131765001Y-62771288D01*
X131696063Y-62840226D01*
X131582795Y-63009744D01*
X131504774Y-63198102D01*
X131465000Y-63398061D01*
X131465000Y-63601939D01*
X131504774Y-63801898D01*
X131582795Y-63990256D01*
X131696063Y-64159774D01*
X131840226Y-64303937D01*
X132009744Y-64417205D01*
X132198102Y-64495226D01*
X132398061Y-64535000D01*
X132601939Y-64535000D01*
X132801898Y-64495226D01*
X132990256Y-64417205D01*
X133159774Y-64303937D01*
X133303937Y-64159774D01*
X133417205Y-63990256D01*
X133495226Y-63801898D01*
X133535000Y-63601939D01*
X133535000Y-63398061D01*
X133495226Y-63198102D01*
X133417205Y-63009744D01*
X133303937Y-62840226D01*
X133235000Y-62771289D01*
X133235000Y-62286105D01*
X133238556Y-62250000D01*
X133224365Y-62105915D01*
X133182337Y-61967366D01*
X133114087Y-61839680D01*
X133045253Y-61755806D01*
X133022238Y-61727762D01*
X132994193Y-61704746D01*
X127735000Y-56445554D01*
X127735000Y-54725000D01*
X127886928Y-54725000D01*
X127899188Y-54849482D01*
X127935498Y-54969180D01*
X127994463Y-55079494D01*
X128073815Y-55176185D01*
X128170506Y-55255537D01*
X128280820Y-55314502D01*
X128400518Y-55350812D01*
X128525000Y-55363072D01*
X128676750Y-55360000D01*
X128835500Y-55201250D01*
X128835500Y-54377000D01*
X128048750Y-54377000D01*
X127890000Y-54535750D01*
X127886928Y-54725000D01*
X127735000Y-54725000D01*
X127735000Y-53775000D01*
X127886928Y-53775000D01*
X127890000Y-53964250D01*
X128048750Y-54123000D01*
X128835500Y-54123000D01*
X128835500Y-53298750D01*
X128676750Y-53140000D01*
X128525000Y-53136928D01*
X128400518Y-53149188D01*
X128280820Y-53185498D01*
X128170506Y-53244463D01*
X128073815Y-53323815D01*
X127994463Y-53420506D01*
X127935498Y-53530820D01*
X127899188Y-53650518D01*
X127886928Y-53775000D01*
X127735000Y-53775000D01*
X127735000Y-51286105D01*
X127738556Y-51250000D01*
X127724365Y-51105915D01*
X127682337Y-50967366D01*
X127628072Y-50865845D01*
X127628072Y-50450000D01*
X127615812Y-50325518D01*
X127579502Y-50205820D01*
X127520537Y-50095506D01*
X127441185Y-49998815D01*
X127344494Y-49919463D01*
X127234180Y-49860498D01*
X127114482Y-49824188D01*
X127007945Y-49813695D01*
X126921250Y-49727000D01*
X125447000Y-49727000D01*
X125447000Y-49747000D01*
X125193000Y-49747000D01*
X125193000Y-49727000D01*
X123718750Y-49727000D01*
X123560000Y-49885750D01*
X123556928Y-50050000D01*
X123569188Y-50174482D01*
X123589596Y-50241759D01*
X123564188Y-50325518D01*
X123551928Y-50450000D01*
X122485000Y-50450000D01*
X122485000Y-50304446D01*
X123558443Y-49231004D01*
X123560000Y-49314250D01*
X123718750Y-49473000D01*
X125193000Y-49473000D01*
X125193000Y-49453000D01*
X125447000Y-49453000D01*
X125447000Y-49473000D01*
X126921250Y-49473000D01*
X127080000Y-49314250D01*
X127083072Y-49150000D01*
X127070812Y-49025518D01*
X127055488Y-48975000D01*
X127070812Y-48924482D01*
X127083072Y-48800000D01*
X127083072Y-47985000D01*
X127195554Y-47985000D01*
X127515000Y-48304447D01*
X127515000Y-48304447D01*
G37*
X127515000Y-48304447D02*
X127515001Y-48963886D01*
X127511444Y-49000000D01*
X127525635Y-49144085D01*
X127551019Y-49227762D01*
X127567664Y-49282633D01*
X127635914Y-49410320D01*
X127727763Y-49522238D01*
X127755808Y-49545254D01*
X128304746Y-50094193D01*
X128327762Y-50122238D01*
X128439680Y-50214087D01*
X128567367Y-50282337D01*
X128663886Y-50311616D01*
X128705914Y-50324365D01*
X128717622Y-50325518D01*
X128813895Y-50335000D01*
X128813902Y-50335000D01*
X128849999Y-50338555D01*
X128886096Y-50335000D01*
X128928254Y-50335000D01*
X128916928Y-50450000D01*
X128916928Y-51350000D01*
X128929188Y-51474482D01*
X128944512Y-51525000D01*
X128929188Y-51575518D01*
X128916928Y-51700000D01*
X128916928Y-52600000D01*
X128929188Y-52724482D01*
X128965498Y-52844180D01*
X129024463Y-52954494D01*
X129103815Y-53051185D01*
X129200506Y-53130537D01*
X129237786Y-53150464D01*
X129089500Y-53298750D01*
X129089500Y-54123000D01*
X129109500Y-54123000D01*
X129109500Y-54377000D01*
X129089500Y-54377000D01*
X129089500Y-55201250D01*
X129248250Y-55360000D01*
X129400000Y-55363072D01*
X129524482Y-55350812D01*
X129644180Y-55314502D01*
X129754494Y-55255537D01*
X129821070Y-55200900D01*
X129842725Y-55218671D01*
X129990858Y-55297850D01*
X130077086Y-55324007D01*
X133665001Y-58911923D01*
X133665000Y-61553293D01*
X133665001Y-61553303D01*
X133665000Y-66800579D01*
X132050579Y-68415000D01*
X132012158Y-68415000D01*
X132011185Y-68413815D01*
X131914494Y-68334463D01*
X131804180Y-68275498D01*
X131684482Y-68239188D01*
X131591192Y-68230000D01*
X131684482Y-68220812D01*
X131804180Y-68184502D01*
X131914494Y-68125537D01*
X132011185Y-68046185D01*
X132090537Y-67949494D01*
X132149502Y-67839180D01*
X132185812Y-67719482D01*
X132198072Y-67595000D01*
X132195000Y-67245750D01*
X132036250Y-67087000D01*
X130847000Y-67087000D01*
X130847000Y-67107000D01*
X130593000Y-67107000D01*
X130593000Y-67087000D01*
X130573000Y-67087000D01*
X130573000Y-66833000D01*
X130593000Y-66833000D01*
X130593000Y-65848750D01*
X130847000Y-65848750D01*
X130847000Y-66833000D01*
X132036250Y-66833000D01*
X132195000Y-66674250D01*
X132198072Y-66325000D01*
X132185812Y-66200518D01*
X132149502Y-66080820D01*
X132090537Y-65970506D01*
X132011185Y-65873815D01*
X131914494Y-65794463D01*
X131804180Y-65735498D01*
X131684482Y-65699188D01*
X131560000Y-65686928D01*
X131005750Y-65690000D01*
X130847000Y-65848750D01*
X130593000Y-65848750D01*
X130434250Y-65690000D01*
X129880000Y-65686928D01*
X129755518Y-65699188D01*
X129635820Y-65735498D01*
X129525506Y-65794463D01*
X129452517Y-65854363D01*
X129380310Y-65840000D01*
X129159690Y-65840000D01*
X128943308Y-65883041D01*
X128739481Y-65967469D01*
X128556042Y-66090039D01*
X128400039Y-66246042D01*
X128277469Y-66429481D01*
X128193041Y-66633308D01*
X128150000Y-66849690D01*
X128150000Y-67070310D01*
X128193041Y-67286692D01*
X128277469Y-67490519D01*
X128400039Y-67673958D01*
X128556042Y-67829961D01*
X128739481Y-67952531D01*
X128943308Y-68036959D01*
X129159690Y-68080000D01*
X129380310Y-68080000D01*
X129452517Y-68065637D01*
X129525506Y-68125537D01*
X129635820Y-68184502D01*
X129755518Y-68220812D01*
X129848808Y-68230000D01*
X129755518Y-68239188D01*
X129635820Y-68275498D01*
X129525506Y-68334463D01*
X129452517Y-68394363D01*
X129380310Y-68380000D01*
X129159690Y-68380000D01*
X128943308Y-68423041D01*
X128739481Y-68507469D01*
X128556042Y-68630039D01*
X128400039Y-68786042D01*
X128277469Y-68969481D01*
X128193041Y-69173308D01*
X128150000Y-69389690D01*
X128150000Y-69610310D01*
X128193041Y-69826692D01*
X128277469Y-70030519D01*
X128400039Y-70213958D01*
X128556042Y-70369961D01*
X128739481Y-70492531D01*
X128943308Y-70576959D01*
X129159690Y-70620000D01*
X129380310Y-70620000D01*
X129452517Y-70605637D01*
X129525506Y-70665537D01*
X129635820Y-70724502D01*
X129755518Y-70760812D01*
X129848808Y-70770000D01*
X129755518Y-70779188D01*
X129635820Y-70815498D01*
X129525506Y-70874463D01*
X129452517Y-70934363D01*
X129380310Y-70920000D01*
X129159690Y-70920000D01*
X128943308Y-70963041D01*
X128739481Y-71047469D01*
X128556042Y-71170039D01*
X128487437Y-71238644D01*
X128474365Y-71105915D01*
X128457557Y-71050506D01*
X128432337Y-70967367D01*
X128364087Y-70839680D01*
X128314442Y-70779188D01*
X128295253Y-70755806D01*
X128295250Y-70755803D01*
X128272237Y-70727762D01*
X128244197Y-70704750D01*
X127795258Y-70255812D01*
X127772238Y-70227762D01*
X127660320Y-70135913D01*
X127654270Y-70132679D01*
X127722531Y-70030519D01*
X127806959Y-69826692D01*
X127850000Y-69610310D01*
X127850000Y-69389690D01*
X127806959Y-69173308D01*
X127722531Y-68969481D01*
X127599961Y-68786042D01*
X127443958Y-68630039D01*
X127260519Y-68507469D01*
X127056692Y-68423041D01*
X126840310Y-68380000D01*
X126619690Y-68380000D01*
X126547483Y-68394363D01*
X126474494Y-68334463D01*
X126364180Y-68275498D01*
X126244482Y-68239188D01*
X126151192Y-68230000D01*
X126244482Y-68220812D01*
X126364180Y-68184502D01*
X126474494Y-68125537D01*
X126547483Y-68065637D01*
X126619690Y-68080000D01*
X126840310Y-68080000D01*
X127056692Y-68036959D01*
X127260519Y-67952531D01*
X127443958Y-67829961D01*
X127599961Y-67673958D01*
X127722531Y-67490519D01*
X127806959Y-67286692D01*
X127850000Y-67070310D01*
X127850000Y-66849690D01*
X127806959Y-66633308D01*
X127722531Y-66429481D01*
X127599961Y-66246042D01*
X127443958Y-66090039D01*
X127260519Y-65967469D01*
X127056692Y-65883041D01*
X126840310Y-65840000D01*
X126619690Y-65840000D01*
X126547483Y-65854363D01*
X126474494Y-65794463D01*
X126364180Y-65735498D01*
X126244482Y-65699188D01*
X126120000Y-65686928D01*
X125565750Y-65690000D01*
X125407000Y-65848750D01*
X125407000Y-66833000D01*
X125427000Y-66833000D01*
X125427000Y-67087000D01*
X125407000Y-67087000D01*
X125407000Y-67107000D01*
X125153000Y-67107000D01*
X125153000Y-67087000D01*
X123963750Y-67087000D01*
X123805000Y-67245750D01*
X123801928Y-67595000D01*
X123814188Y-67719482D01*
X123850498Y-67839180D01*
X123909463Y-67949494D01*
X123988815Y-68046185D01*
X124085506Y-68125537D01*
X124195820Y-68184502D01*
X124315518Y-68220812D01*
X124408808Y-68230000D01*
X124315518Y-68239188D01*
X124195820Y-68275498D01*
X124085506Y-68334463D01*
X123988815Y-68413815D01*
X123909463Y-68510506D01*
X123871317Y-68581870D01*
X122485000Y-67195554D01*
X122485000Y-66325000D01*
X123801928Y-66325000D01*
X123805000Y-66674250D01*
X123963750Y-66833000D01*
X125153000Y-66833000D01*
X125153000Y-65848750D01*
X124994250Y-65690000D01*
X124440000Y-65686928D01*
X124315518Y-65699188D01*
X124195820Y-65735498D01*
X124085506Y-65794463D01*
X123988815Y-65873815D01*
X123909463Y-65970506D01*
X123850498Y-66080820D01*
X123814188Y-66200518D01*
X123801928Y-66325000D01*
X122485000Y-66325000D01*
X122485000Y-50450000D01*
X123551928Y-50450000D01*
X123551928Y-51350000D01*
X123564188Y-51474482D01*
X123582012Y-51533241D01*
X123569188Y-51575518D01*
X123556928Y-51700000D01*
X123556928Y-52600000D01*
X123569188Y-52724482D01*
X123605498Y-52844180D01*
X123664463Y-52954494D01*
X123743815Y-53051185D01*
X123840506Y-53130537D01*
X123950820Y-53189502D01*
X124070518Y-53225812D01*
X124195000Y-53238072D01*
X126265001Y-53238072D01*
X126265000Y-56713895D01*
X126261444Y-56750000D01*
X126265000Y-56786104D01*
X126275635Y-56894084D01*
X126317663Y-57032632D01*
X126385913Y-57160319D01*
X126477762Y-57272237D01*
X126505808Y-57295254D01*
X131765001Y-62554448D01*
X131765001Y-62771288D01*
X131696063Y-62840226D01*
X131582795Y-63009744D01*
X131504774Y-63198102D01*
X131465000Y-63398061D01*
X131465000Y-63601939D01*
X131504774Y-63801898D01*
X131582795Y-63990256D01*
X131696063Y-64159774D01*
X131840226Y-64303937D01*
X132009744Y-64417205D01*
X132198102Y-64495226D01*
X132398061Y-64535000D01*
X132601939Y-64535000D01*
X132801898Y-64495226D01*
X132990256Y-64417205D01*
X133159774Y-64303937D01*
X133303937Y-64159774D01*
X133417205Y-63990256D01*
X133495226Y-63801898D01*
X133535000Y-63601939D01*
X133535000Y-63398061D01*
X133495226Y-63198102D01*
X133417205Y-63009744D01*
X133303937Y-62840226D01*
X133235000Y-62771289D01*
X133235000Y-62286105D01*
X133238556Y-62250000D01*
X133224365Y-62105915D01*
X133182337Y-61967366D01*
X133114087Y-61839680D01*
X133045253Y-61755806D01*
X133022238Y-61727762D01*
X132994193Y-61704746D01*
X127735000Y-56445554D01*
X127735000Y-54725000D01*
X127886928Y-54725000D01*
X127899188Y-54849482D01*
X127935498Y-54969180D01*
X127994463Y-55079494D01*
X128073815Y-55176185D01*
X128170506Y-55255537D01*
X128280820Y-55314502D01*
X128400518Y-55350812D01*
X128525000Y-55363072D01*
X128676750Y-55360000D01*
X128835500Y-55201250D01*
X128835500Y-54377000D01*
X128048750Y-54377000D01*
X127890000Y-54535750D01*
X127886928Y-54725000D01*
X127735000Y-54725000D01*
X127735000Y-53775000D01*
X127886928Y-53775000D01*
X127890000Y-53964250D01*
X128048750Y-54123000D01*
X128835500Y-54123000D01*
X128835500Y-53298750D01*
X128676750Y-53140000D01*
X128525000Y-53136928D01*
X128400518Y-53149188D01*
X128280820Y-53185498D01*
X128170506Y-53244463D01*
X128073815Y-53323815D01*
X127994463Y-53420506D01*
X127935498Y-53530820D01*
X127899188Y-53650518D01*
X127886928Y-53775000D01*
X127735000Y-53775000D01*
X127735000Y-51286105D01*
X127738556Y-51250000D01*
X127724365Y-51105915D01*
X127682337Y-50967366D01*
X127628072Y-50865845D01*
X127628072Y-50450000D01*
X127615812Y-50325518D01*
X127579502Y-50205820D01*
X127520537Y-50095506D01*
X127441185Y-49998815D01*
X127344494Y-49919463D01*
X127234180Y-49860498D01*
X127114482Y-49824188D01*
X127007945Y-49813695D01*
X126921250Y-49727000D01*
X125447000Y-49727000D01*
X125447000Y-49747000D01*
X125193000Y-49747000D01*
X125193000Y-49727000D01*
X123718750Y-49727000D01*
X123560000Y-49885750D01*
X123556928Y-50050000D01*
X123569188Y-50174482D01*
X123589596Y-50241759D01*
X123564188Y-50325518D01*
X123551928Y-50450000D01*
X122485000Y-50450000D01*
X122485000Y-50304446D01*
X123558443Y-49231004D01*
X123560000Y-49314250D01*
X123718750Y-49473000D01*
X125193000Y-49473000D01*
X125193000Y-49453000D01*
X125447000Y-49453000D01*
X125447000Y-49473000D01*
X126921250Y-49473000D01*
X127080000Y-49314250D01*
X127083072Y-49150000D01*
X127070812Y-49025518D01*
X127055488Y-48975000D01*
X127070812Y-48924482D01*
X127083072Y-48800000D01*
X127083072Y-47985000D01*
X127195554Y-47985000D01*
X127515000Y-48304447D01*
G36*
X161990000Y-68114250D02*
G01*
X162148750Y-68273000D01*
X163373000Y-68273000D01*
X163373000Y-68253000D01*
X163627000Y-68253000D01*
X163627000Y-68273000D01*
X163647000Y-68273000D01*
X163647000Y-68527000D01*
X163627000Y-68527000D01*
X163627000Y-69501250D01*
X163785750Y-69660000D01*
X164375000Y-69663072D01*
X164499482Y-69650812D01*
X164619180Y-69614502D01*
X164729494Y-69555537D01*
X164826185Y-69476185D01*
X164849108Y-69448253D01*
X164886595Y-69518386D01*
X164997038Y-69652962D01*
X165131614Y-69763405D01*
X165285150Y-69845472D01*
X165451746Y-69896008D01*
X165515001Y-69902238D01*
X165515000Y-81445553D01*
X157820554Y-89140000D01*
X157748354Y-89140000D01*
X157775812Y-89049482D01*
X157788072Y-88925000D01*
X157788072Y-88325000D01*
X157775812Y-88200518D01*
X157739502Y-88080820D01*
X157696302Y-88000000D01*
X157739502Y-87919180D01*
X157775812Y-87799482D01*
X157788072Y-87675000D01*
X157788072Y-87075000D01*
X157775812Y-86950518D01*
X157739502Y-86830820D01*
X157696302Y-86750000D01*
X157739502Y-86669180D01*
X157775812Y-86549482D01*
X157788072Y-86425000D01*
X157788072Y-85976374D01*
X164244193Y-79520254D01*
X164272238Y-79497238D01*
X164364087Y-79385320D01*
X164432337Y-79257633D01*
X164474365Y-79119085D01*
X164485000Y-79011105D01*
X164488556Y-78975000D01*
X164485000Y-78938895D01*
X164485000Y-75228711D01*
X164553937Y-75159774D01*
X164667205Y-74990256D01*
X164745226Y-74801898D01*
X164785000Y-74601939D01*
X164785000Y-74398061D01*
X164745226Y-74198102D01*
X164667205Y-74009744D01*
X164553937Y-73840226D01*
X164409774Y-73696063D01*
X164240256Y-73582795D01*
X164051898Y-73504774D01*
X163851939Y-73465000D01*
X163648061Y-73465000D01*
X163448102Y-73504774D01*
X163259744Y-73582795D01*
X163090226Y-73696063D01*
X162946063Y-73840226D01*
X162832795Y-74009744D01*
X162754774Y-74198102D01*
X162715000Y-74398061D01*
X162715000Y-74601939D01*
X162754774Y-74801898D01*
X162832795Y-74990256D01*
X162946063Y-75159774D01*
X163015000Y-75228711D01*
X163015001Y-78670552D01*
X156498626Y-85186928D01*
X156050000Y-85186928D01*
X155925518Y-85199188D01*
X155805820Y-85235498D01*
X155695506Y-85294463D01*
X155598815Y-85373815D01*
X155519463Y-85470506D01*
X155500000Y-85506918D01*
X155480537Y-85470506D01*
X155401185Y-85373815D01*
X155304494Y-85294463D01*
X155194180Y-85235498D01*
X155074482Y-85199188D01*
X154950000Y-85186928D01*
X153850000Y-85186928D01*
X153818808Y-85190000D01*
X153685000Y-85190000D01*
X153685000Y-85099421D01*
X156479531Y-82304891D01*
X156520922Y-82270922D01*
X156554891Y-82229531D01*
X156554895Y-82229527D01*
X156598343Y-82176585D01*
X156656509Y-82105710D01*
X156757259Y-81917220D01*
X156819300Y-81712697D01*
X156835000Y-81553294D01*
X156835000Y-81553286D01*
X156840248Y-81500000D01*
X156835000Y-81446714D01*
X156835000Y-78699421D01*
X160979531Y-74554891D01*
X161020922Y-74520922D01*
X161054891Y-74479531D01*
X161054895Y-74479527D01*
X161121752Y-74398061D01*
X161156509Y-74355710D01*
X161257259Y-74167220D01*
X161318698Y-73964681D01*
X161319300Y-73962698D01*
X161321248Y-73942922D01*
X161335000Y-73803294D01*
X161335000Y-73803287D01*
X161340248Y-73750001D01*
X161335000Y-73696715D01*
X161335000Y-70803286D01*
X161340248Y-70750000D01*
X161335000Y-70696714D01*
X161335000Y-70696706D01*
X161319300Y-70537303D01*
X161257259Y-70332780D01*
X161156509Y-70144290D01*
X161056343Y-70022238D01*
X161054895Y-70020473D01*
X161054891Y-70020469D01*
X161020922Y-69979078D01*
X160979531Y-69945109D01*
X160534421Y-69500000D01*
X161009421Y-69025000D01*
X161986928Y-69025000D01*
X161999188Y-69149482D01*
X162035498Y-69269180D01*
X162094463Y-69379494D01*
X162173815Y-69476185D01*
X162270506Y-69555537D01*
X162380820Y-69614502D01*
X162500518Y-69650812D01*
X162625000Y-69663072D01*
X163214250Y-69660000D01*
X163373000Y-69501250D01*
X163373000Y-68527000D01*
X162148750Y-68527000D01*
X161990000Y-68685750D01*
X161986928Y-69025000D01*
X161009421Y-69025000D01*
X161979526Y-68054895D01*
X161989389Y-68046800D01*
X161990000Y-68114250D01*
X161990000Y-68114250D01*
G37*
X161990000Y-68114250D02*
X162148750Y-68273000D01*
X163373000Y-68273000D01*
X163373000Y-68253000D01*
X163627000Y-68253000D01*
X163627000Y-68273000D01*
X163647000Y-68273000D01*
X163647000Y-68527000D01*
X163627000Y-68527000D01*
X163627000Y-69501250D01*
X163785750Y-69660000D01*
X164375000Y-69663072D01*
X164499482Y-69650812D01*
X164619180Y-69614502D01*
X164729494Y-69555537D01*
X164826185Y-69476185D01*
X164849108Y-69448253D01*
X164886595Y-69518386D01*
X164997038Y-69652962D01*
X165131614Y-69763405D01*
X165285150Y-69845472D01*
X165451746Y-69896008D01*
X165515001Y-69902238D01*
X165515000Y-81445553D01*
X157820554Y-89140000D01*
X157748354Y-89140000D01*
X157775812Y-89049482D01*
X157788072Y-88925000D01*
X157788072Y-88325000D01*
X157775812Y-88200518D01*
X157739502Y-88080820D01*
X157696302Y-88000000D01*
X157739502Y-87919180D01*
X157775812Y-87799482D01*
X157788072Y-87675000D01*
X157788072Y-87075000D01*
X157775812Y-86950518D01*
X157739502Y-86830820D01*
X157696302Y-86750000D01*
X157739502Y-86669180D01*
X157775812Y-86549482D01*
X157788072Y-86425000D01*
X157788072Y-85976374D01*
X164244193Y-79520254D01*
X164272238Y-79497238D01*
X164364087Y-79385320D01*
X164432337Y-79257633D01*
X164474365Y-79119085D01*
X164485000Y-79011105D01*
X164488556Y-78975000D01*
X164485000Y-78938895D01*
X164485000Y-75228711D01*
X164553937Y-75159774D01*
X164667205Y-74990256D01*
X164745226Y-74801898D01*
X164785000Y-74601939D01*
X164785000Y-74398061D01*
X164745226Y-74198102D01*
X164667205Y-74009744D01*
X164553937Y-73840226D01*
X164409774Y-73696063D01*
X164240256Y-73582795D01*
X164051898Y-73504774D01*
X163851939Y-73465000D01*
X163648061Y-73465000D01*
X163448102Y-73504774D01*
X163259744Y-73582795D01*
X163090226Y-73696063D01*
X162946063Y-73840226D01*
X162832795Y-74009744D01*
X162754774Y-74198102D01*
X162715000Y-74398061D01*
X162715000Y-74601939D01*
X162754774Y-74801898D01*
X162832795Y-74990256D01*
X162946063Y-75159774D01*
X163015000Y-75228711D01*
X163015001Y-78670552D01*
X156498626Y-85186928D01*
X156050000Y-85186928D01*
X155925518Y-85199188D01*
X155805820Y-85235498D01*
X155695506Y-85294463D01*
X155598815Y-85373815D01*
X155519463Y-85470506D01*
X155500000Y-85506918D01*
X155480537Y-85470506D01*
X155401185Y-85373815D01*
X155304494Y-85294463D01*
X155194180Y-85235498D01*
X155074482Y-85199188D01*
X154950000Y-85186928D01*
X153850000Y-85186928D01*
X153818808Y-85190000D01*
X153685000Y-85190000D01*
X153685000Y-85099421D01*
X156479531Y-82304891D01*
X156520922Y-82270922D01*
X156554891Y-82229531D01*
X156554895Y-82229527D01*
X156598343Y-82176585D01*
X156656509Y-82105710D01*
X156757259Y-81917220D01*
X156819300Y-81712697D01*
X156835000Y-81553294D01*
X156835000Y-81553286D01*
X156840248Y-81500000D01*
X156835000Y-81446714D01*
X156835000Y-78699421D01*
X160979531Y-74554891D01*
X161020922Y-74520922D01*
X161054891Y-74479531D01*
X161054895Y-74479527D01*
X161121752Y-74398061D01*
X161156509Y-74355710D01*
X161257259Y-74167220D01*
X161318698Y-73964681D01*
X161319300Y-73962698D01*
X161321248Y-73942922D01*
X161335000Y-73803294D01*
X161335000Y-73803287D01*
X161340248Y-73750001D01*
X161335000Y-73696715D01*
X161335000Y-70803286D01*
X161340248Y-70750000D01*
X161335000Y-70696714D01*
X161335000Y-70696706D01*
X161319300Y-70537303D01*
X161257259Y-70332780D01*
X161156509Y-70144290D01*
X161056343Y-70022238D01*
X161054895Y-70020473D01*
X161054891Y-70020469D01*
X161020922Y-69979078D01*
X160979531Y-69945109D01*
X160534421Y-69500000D01*
X161009421Y-69025000D01*
X161986928Y-69025000D01*
X161999188Y-69149482D01*
X162035498Y-69269180D01*
X162094463Y-69379494D01*
X162173815Y-69476185D01*
X162270506Y-69555537D01*
X162380820Y-69614502D01*
X162500518Y-69650812D01*
X162625000Y-69663072D01*
X163214250Y-69660000D01*
X163373000Y-69501250D01*
X163373000Y-68527000D01*
X162148750Y-68527000D01*
X161990000Y-68685750D01*
X161986928Y-69025000D01*
X161009421Y-69025000D01*
X161979526Y-68054895D01*
X161989389Y-68046800D01*
X161990000Y-68114250D01*
G36*
X159165001Y-71199423D02*
G01*
X159165000Y-73300578D01*
X155020470Y-77445109D01*
X154979079Y-77479078D01*
X154945110Y-77520469D01*
X154945105Y-77520474D01*
X154891227Y-77586125D01*
X154843492Y-77644290D01*
X154742742Y-77832780D01*
X154680700Y-78037303D01*
X154659752Y-78250000D01*
X154665001Y-78303296D01*
X154665000Y-81050578D01*
X151945105Y-83770474D01*
X151843492Y-83894291D01*
X151742742Y-84082780D01*
X151680700Y-84287303D01*
X151659752Y-84500000D01*
X151680700Y-84712697D01*
X151742742Y-84917220D01*
X151815001Y-85052406D01*
X151815000Y-85976696D01*
X151781329Y-86017725D01*
X151702150Y-86165858D01*
X151653392Y-86326592D01*
X151636928Y-86493750D01*
X151636928Y-86931250D01*
X151653392Y-87098408D01*
X151702150Y-87259142D01*
X151781329Y-87407275D01*
X151799100Y-87428930D01*
X151744463Y-87495506D01*
X151685498Y-87605820D01*
X151649188Y-87725518D01*
X151636928Y-87850000D01*
X151640000Y-88001750D01*
X151798750Y-88160500D01*
X152623000Y-88160500D01*
X152623000Y-88140500D01*
X152877000Y-88140500D01*
X152877000Y-88160500D01*
X152897000Y-88160500D01*
X152897000Y-88414500D01*
X152877000Y-88414500D01*
X152877000Y-88434500D01*
X152623000Y-88434500D01*
X152623000Y-88414500D01*
X151798750Y-88414500D01*
X151640000Y-88573250D01*
X151636928Y-88725000D01*
X151649188Y-88849482D01*
X151653655Y-88864209D01*
X150735000Y-87945554D01*
X150735000Y-83054446D01*
X152274197Y-81515250D01*
X152302237Y-81492238D01*
X152325250Y-81464197D01*
X152325253Y-81464194D01*
X152394086Y-81380321D01*
X152394087Y-81380320D01*
X152462337Y-81252633D01*
X152504365Y-81114085D01*
X152515000Y-81006105D01*
X152515000Y-81006098D01*
X152518555Y-80970001D01*
X152515000Y-80933904D01*
X152515000Y-75408397D01*
X152523061Y-75410000D01*
X152726939Y-75410000D01*
X152926898Y-75370226D01*
X153115256Y-75292205D01*
X153284774Y-75178937D01*
X153428937Y-75034774D01*
X153542205Y-74865256D01*
X153620226Y-74676898D01*
X153660000Y-74476939D01*
X153660000Y-74379446D01*
X154744193Y-73295254D01*
X154772238Y-73272238D01*
X154864087Y-73160320D01*
X154932337Y-73032633D01*
X154974365Y-72894085D01*
X154979348Y-72843492D01*
X154980265Y-72834184D01*
X155056042Y-72909961D01*
X155239481Y-73032531D01*
X155443308Y-73116959D01*
X155659690Y-73160000D01*
X155880310Y-73160000D01*
X155952517Y-73145637D01*
X156025506Y-73205537D01*
X156135820Y-73264502D01*
X156255518Y-73300812D01*
X156380000Y-73313072D01*
X156934250Y-73310000D01*
X157093000Y-73151250D01*
X157093000Y-72167000D01*
X157347000Y-72167000D01*
X157347000Y-73151250D01*
X157505750Y-73310000D01*
X158060000Y-73313072D01*
X158184482Y-73300812D01*
X158304180Y-73264502D01*
X158414494Y-73205537D01*
X158511185Y-73126185D01*
X158590537Y-73029494D01*
X158649502Y-72919180D01*
X158685812Y-72799482D01*
X158698072Y-72675000D01*
X158695000Y-72325750D01*
X158536250Y-72167000D01*
X157347000Y-72167000D01*
X157093000Y-72167000D01*
X157073000Y-72167000D01*
X157073000Y-71913000D01*
X157093000Y-71913000D01*
X157093000Y-71893000D01*
X157347000Y-71893000D01*
X157347000Y-71913000D01*
X158536250Y-71913000D01*
X158695000Y-71754250D01*
X158698072Y-71405000D01*
X158685812Y-71280518D01*
X158649502Y-71160820D01*
X158590537Y-71050506D01*
X158511185Y-70953815D01*
X158414494Y-70874463D01*
X158304180Y-70815498D01*
X158184482Y-70779188D01*
X158091192Y-70770000D01*
X158184482Y-70760812D01*
X158304180Y-70724502D01*
X158414494Y-70665537D01*
X158511185Y-70586185D01*
X158512158Y-70585000D01*
X158550579Y-70585000D01*
X159165001Y-71199423D01*
X159165001Y-71199423D01*
G37*
X159165001Y-71199423D02*
X159165000Y-73300578D01*
X155020470Y-77445109D01*
X154979079Y-77479078D01*
X154945110Y-77520469D01*
X154945105Y-77520474D01*
X154891227Y-77586125D01*
X154843492Y-77644290D01*
X154742742Y-77832780D01*
X154680700Y-78037303D01*
X154659752Y-78250000D01*
X154665001Y-78303296D01*
X154665000Y-81050578D01*
X151945105Y-83770474D01*
X151843492Y-83894291D01*
X151742742Y-84082780D01*
X151680700Y-84287303D01*
X151659752Y-84500000D01*
X151680700Y-84712697D01*
X151742742Y-84917220D01*
X151815001Y-85052406D01*
X151815000Y-85976696D01*
X151781329Y-86017725D01*
X151702150Y-86165858D01*
X151653392Y-86326592D01*
X151636928Y-86493750D01*
X151636928Y-86931250D01*
X151653392Y-87098408D01*
X151702150Y-87259142D01*
X151781329Y-87407275D01*
X151799100Y-87428930D01*
X151744463Y-87495506D01*
X151685498Y-87605820D01*
X151649188Y-87725518D01*
X151636928Y-87850000D01*
X151640000Y-88001750D01*
X151798750Y-88160500D01*
X152623000Y-88160500D01*
X152623000Y-88140500D01*
X152877000Y-88140500D01*
X152877000Y-88160500D01*
X152897000Y-88160500D01*
X152897000Y-88414500D01*
X152877000Y-88414500D01*
X152877000Y-88434500D01*
X152623000Y-88434500D01*
X152623000Y-88414500D01*
X151798750Y-88414500D01*
X151640000Y-88573250D01*
X151636928Y-88725000D01*
X151649188Y-88849482D01*
X151653655Y-88864209D01*
X150735000Y-87945554D01*
X150735000Y-83054446D01*
X152274197Y-81515250D01*
X152302237Y-81492238D01*
X152325250Y-81464197D01*
X152325253Y-81464194D01*
X152394086Y-81380321D01*
X152394087Y-81380320D01*
X152462337Y-81252633D01*
X152504365Y-81114085D01*
X152515000Y-81006105D01*
X152515000Y-81006098D01*
X152518555Y-80970001D01*
X152515000Y-80933904D01*
X152515000Y-75408397D01*
X152523061Y-75410000D01*
X152726939Y-75410000D01*
X152926898Y-75370226D01*
X153115256Y-75292205D01*
X153284774Y-75178937D01*
X153428937Y-75034774D01*
X153542205Y-74865256D01*
X153620226Y-74676898D01*
X153660000Y-74476939D01*
X153660000Y-74379446D01*
X154744193Y-73295254D01*
X154772238Y-73272238D01*
X154864087Y-73160320D01*
X154932337Y-73032633D01*
X154974365Y-72894085D01*
X154979348Y-72843492D01*
X154980265Y-72834184D01*
X155056042Y-72909961D01*
X155239481Y-73032531D01*
X155443308Y-73116959D01*
X155659690Y-73160000D01*
X155880310Y-73160000D01*
X155952517Y-73145637D01*
X156025506Y-73205537D01*
X156135820Y-73264502D01*
X156255518Y-73300812D01*
X156380000Y-73313072D01*
X156934250Y-73310000D01*
X157093000Y-73151250D01*
X157093000Y-72167000D01*
X157347000Y-72167000D01*
X157347000Y-73151250D01*
X157505750Y-73310000D01*
X158060000Y-73313072D01*
X158184482Y-73300812D01*
X158304180Y-73264502D01*
X158414494Y-73205537D01*
X158511185Y-73126185D01*
X158590537Y-73029494D01*
X158649502Y-72919180D01*
X158685812Y-72799482D01*
X158698072Y-72675000D01*
X158695000Y-72325750D01*
X158536250Y-72167000D01*
X157347000Y-72167000D01*
X157093000Y-72167000D01*
X157073000Y-72167000D01*
X157073000Y-71913000D01*
X157093000Y-71913000D01*
X157093000Y-71893000D01*
X157347000Y-71893000D01*
X157347000Y-71913000D01*
X158536250Y-71913000D01*
X158695000Y-71754250D01*
X158698072Y-71405000D01*
X158685812Y-71280518D01*
X158649502Y-71160820D01*
X158590537Y-71050506D01*
X158511185Y-70953815D01*
X158414494Y-70874463D01*
X158304180Y-70815498D01*
X158184482Y-70779188D01*
X158091192Y-70770000D01*
X158184482Y-70760812D01*
X158304180Y-70724502D01*
X158414494Y-70665537D01*
X158511185Y-70586185D01*
X158512158Y-70585000D01*
X158550579Y-70585000D01*
X159165001Y-71199423D01*
G36*
X154527000Y-88498000D02*
G01*
X154547000Y-88498000D01*
X154547000Y-88752000D01*
X154527000Y-88752000D01*
X154527000Y-88772000D01*
X154273000Y-88772000D01*
X154273000Y-88752000D01*
X154253000Y-88752000D01*
X154253000Y-88498000D01*
X154273000Y-88498000D01*
X154273000Y-88478000D01*
X154527000Y-88478000D01*
X154527000Y-88498000D01*
X154527000Y-88498000D01*
G37*
X154527000Y-88498000D02*
X154547000Y-88498000D01*
X154547000Y-88752000D01*
X154527000Y-88752000D01*
X154527000Y-88772000D01*
X154273000Y-88772000D01*
X154273000Y-88752000D01*
X154253000Y-88752000D01*
X154253000Y-88498000D01*
X154273000Y-88498000D01*
X154273000Y-88478000D01*
X154527000Y-88478000D01*
X154527000Y-88498000D01*
G36*
X155503698Y-88000000D02*
G01*
X155500000Y-88006918D01*
X155496302Y-88000000D01*
X155500000Y-87993082D01*
X155503698Y-88000000D01*
X155503698Y-88000000D01*
G37*
X155503698Y-88000000D02*
X155500000Y-88006918D01*
X155496302Y-88000000D01*
X155500000Y-87993082D01*
X155503698Y-88000000D01*
G36*
X154015000Y-48304447D02*
G01*
X154015001Y-48963886D01*
X154011444Y-49000000D01*
X154025635Y-49144085D01*
X154051019Y-49227762D01*
X154067664Y-49282633D01*
X154135914Y-49410320D01*
X154227763Y-49522238D01*
X154255808Y-49545254D01*
X154804746Y-50094193D01*
X154827762Y-50122238D01*
X154939680Y-50214087D01*
X155067367Y-50282337D01*
X155163886Y-50311616D01*
X155205914Y-50324365D01*
X155217622Y-50325518D01*
X155313895Y-50335000D01*
X155313902Y-50335000D01*
X155349999Y-50338555D01*
X155386096Y-50335000D01*
X155428254Y-50335000D01*
X155416928Y-50450000D01*
X155416928Y-51350000D01*
X155429188Y-51474482D01*
X155444512Y-51525000D01*
X155429188Y-51575518D01*
X155416928Y-51700000D01*
X155416928Y-52600000D01*
X155429188Y-52724482D01*
X155465498Y-52844180D01*
X155524463Y-52954494D01*
X155603815Y-53051185D01*
X155700506Y-53130537D01*
X155737786Y-53150464D01*
X155589500Y-53298750D01*
X155589500Y-54123000D01*
X155609500Y-54123000D01*
X155609500Y-54377000D01*
X155589500Y-54377000D01*
X155589500Y-55201250D01*
X155748250Y-55360000D01*
X155900000Y-55363072D01*
X156024482Y-55350812D01*
X156144180Y-55314502D01*
X156254494Y-55255537D01*
X156321070Y-55200900D01*
X156342725Y-55218671D01*
X156490858Y-55297850D01*
X156577086Y-55324007D01*
X160165001Y-58911923D01*
X160165000Y-66446706D01*
X160165000Y-66800579D01*
X158550579Y-68415000D01*
X158512158Y-68415000D01*
X158511185Y-68413815D01*
X158414494Y-68334463D01*
X158304180Y-68275498D01*
X158184482Y-68239188D01*
X158091192Y-68230000D01*
X158184482Y-68220812D01*
X158304180Y-68184502D01*
X158414494Y-68125537D01*
X158511185Y-68046185D01*
X158590537Y-67949494D01*
X158649502Y-67839180D01*
X158685812Y-67719482D01*
X158698072Y-67595000D01*
X158695000Y-67245750D01*
X158536250Y-67087000D01*
X157347000Y-67087000D01*
X157347000Y-67107000D01*
X157093000Y-67107000D01*
X157093000Y-67087000D01*
X157073000Y-67087000D01*
X157073000Y-66833000D01*
X157093000Y-66833000D01*
X157093000Y-65848750D01*
X157347000Y-65848750D01*
X157347000Y-66833000D01*
X158536250Y-66833000D01*
X158695000Y-66674250D01*
X158698072Y-66325000D01*
X158685812Y-66200518D01*
X158649502Y-66080820D01*
X158590537Y-65970506D01*
X158511185Y-65873815D01*
X158414494Y-65794463D01*
X158304180Y-65735498D01*
X158184482Y-65699188D01*
X158060000Y-65686928D01*
X157505750Y-65690000D01*
X157347000Y-65848750D01*
X157093000Y-65848750D01*
X156934250Y-65690000D01*
X156380000Y-65686928D01*
X156255518Y-65699188D01*
X156135820Y-65735498D01*
X156025506Y-65794463D01*
X155952517Y-65854363D01*
X155880310Y-65840000D01*
X155659690Y-65840000D01*
X155443308Y-65883041D01*
X155239481Y-65967469D01*
X155056042Y-66090039D01*
X154900039Y-66246042D01*
X154777469Y-66429481D01*
X154693041Y-66633308D01*
X154650000Y-66849690D01*
X154650000Y-67070310D01*
X154693041Y-67286692D01*
X154777469Y-67490519D01*
X154900039Y-67673958D01*
X155056042Y-67829961D01*
X155239481Y-67952531D01*
X155443308Y-68036959D01*
X155659690Y-68080000D01*
X155880310Y-68080000D01*
X155952517Y-68065637D01*
X156025506Y-68125537D01*
X156135820Y-68184502D01*
X156255518Y-68220812D01*
X156348808Y-68230000D01*
X156255518Y-68239188D01*
X156135820Y-68275498D01*
X156025506Y-68334463D01*
X155952517Y-68394363D01*
X155880310Y-68380000D01*
X155659690Y-68380000D01*
X155443308Y-68423041D01*
X155239481Y-68507469D01*
X155056042Y-68630039D01*
X154900039Y-68786042D01*
X154777469Y-68969481D01*
X154693041Y-69173308D01*
X154650000Y-69389690D01*
X154650000Y-69610310D01*
X154693041Y-69826692D01*
X154777469Y-70030519D01*
X154900039Y-70213958D01*
X155056042Y-70369961D01*
X155239481Y-70492531D01*
X155443308Y-70576959D01*
X155659690Y-70620000D01*
X155880310Y-70620000D01*
X155952517Y-70605637D01*
X156025506Y-70665537D01*
X156135820Y-70724502D01*
X156255518Y-70760812D01*
X156348808Y-70770000D01*
X156255518Y-70779188D01*
X156135820Y-70815498D01*
X156025506Y-70874463D01*
X155952517Y-70934363D01*
X155880310Y-70920000D01*
X155659690Y-70920000D01*
X155443308Y-70963041D01*
X155239481Y-71047469D01*
X155056042Y-71170039D01*
X154987437Y-71238644D01*
X154974365Y-71105915D01*
X154957557Y-71050506D01*
X154932337Y-70967367D01*
X154864087Y-70839680D01*
X154814442Y-70779188D01*
X154795253Y-70755806D01*
X154795250Y-70755803D01*
X154772237Y-70727762D01*
X154744197Y-70704750D01*
X154295258Y-70255812D01*
X154272238Y-70227762D01*
X154160320Y-70135913D01*
X154154270Y-70132679D01*
X154222531Y-70030519D01*
X154306959Y-69826692D01*
X154350000Y-69610310D01*
X154350000Y-69389690D01*
X154306959Y-69173308D01*
X154222531Y-68969481D01*
X154099961Y-68786042D01*
X153943958Y-68630039D01*
X153760519Y-68507469D01*
X153556692Y-68423041D01*
X153340310Y-68380000D01*
X153119690Y-68380000D01*
X153047483Y-68394363D01*
X152974494Y-68334463D01*
X152864180Y-68275498D01*
X152744482Y-68239188D01*
X152651192Y-68230000D01*
X152744482Y-68220812D01*
X152864180Y-68184502D01*
X152974494Y-68125537D01*
X153047483Y-68065637D01*
X153119690Y-68080000D01*
X153340310Y-68080000D01*
X153556692Y-68036959D01*
X153760519Y-67952531D01*
X153943958Y-67829961D01*
X154099961Y-67673958D01*
X154222531Y-67490519D01*
X154306959Y-67286692D01*
X154350000Y-67070310D01*
X154350000Y-66849690D01*
X154306959Y-66633308D01*
X154222531Y-66429481D01*
X154099961Y-66246042D01*
X153943958Y-66090039D01*
X153760519Y-65967469D01*
X153556692Y-65883041D01*
X153340310Y-65840000D01*
X153119690Y-65840000D01*
X153047483Y-65854363D01*
X152974494Y-65794463D01*
X152864180Y-65735498D01*
X152744482Y-65699188D01*
X152620000Y-65686928D01*
X152065750Y-65690000D01*
X151907000Y-65848750D01*
X151907000Y-66833000D01*
X151927000Y-66833000D01*
X151927000Y-67087000D01*
X151907000Y-67087000D01*
X151907000Y-67107000D01*
X151653000Y-67107000D01*
X151653000Y-67087000D01*
X150463750Y-67087000D01*
X150305000Y-67245750D01*
X150301928Y-67595000D01*
X150314188Y-67719482D01*
X150350498Y-67839180D01*
X150409463Y-67949494D01*
X150488815Y-68046185D01*
X150585506Y-68125537D01*
X150695820Y-68184502D01*
X150815518Y-68220812D01*
X150908808Y-68230000D01*
X150815518Y-68239188D01*
X150695820Y-68275498D01*
X150585506Y-68334463D01*
X150488815Y-68413815D01*
X150409463Y-68510506D01*
X150371317Y-68581870D01*
X148985000Y-67195554D01*
X148985000Y-66325000D01*
X150301928Y-66325000D01*
X150305000Y-66674250D01*
X150463750Y-66833000D01*
X151653000Y-66833000D01*
X151653000Y-65848750D01*
X151494250Y-65690000D01*
X150940000Y-65686928D01*
X150815518Y-65699188D01*
X150695820Y-65735498D01*
X150585506Y-65794463D01*
X150488815Y-65873815D01*
X150409463Y-65970506D01*
X150350498Y-66080820D01*
X150314188Y-66200518D01*
X150301928Y-66325000D01*
X148985000Y-66325000D01*
X148985000Y-50450000D01*
X150051928Y-50450000D01*
X150051928Y-51350000D01*
X150064188Y-51474482D01*
X150082012Y-51533241D01*
X150069188Y-51575518D01*
X150056928Y-51700000D01*
X150056928Y-52600000D01*
X150069188Y-52724482D01*
X150105498Y-52844180D01*
X150164463Y-52954494D01*
X150243815Y-53051185D01*
X150340506Y-53130537D01*
X150450820Y-53189502D01*
X150570518Y-53225812D01*
X150695000Y-53238072D01*
X152765001Y-53238072D01*
X152765000Y-56713895D01*
X152761444Y-56750000D01*
X152765000Y-56786104D01*
X152775635Y-56894084D01*
X152817663Y-57032632D01*
X152885913Y-57160319D01*
X152977762Y-57272237D01*
X153005808Y-57295254D01*
X158265001Y-62554448D01*
X158265001Y-62771288D01*
X158196063Y-62840226D01*
X158082795Y-63009744D01*
X158004774Y-63198102D01*
X157965000Y-63398061D01*
X157965000Y-63601939D01*
X158004774Y-63801898D01*
X158082795Y-63990256D01*
X158196063Y-64159774D01*
X158340226Y-64303937D01*
X158509744Y-64417205D01*
X158698102Y-64495226D01*
X158898061Y-64535000D01*
X159101939Y-64535000D01*
X159301898Y-64495226D01*
X159490256Y-64417205D01*
X159659774Y-64303937D01*
X159803937Y-64159774D01*
X159917205Y-63990256D01*
X159995226Y-63801898D01*
X160035000Y-63601939D01*
X160035000Y-63398061D01*
X159995226Y-63198102D01*
X159917205Y-63009744D01*
X159803937Y-62840226D01*
X159735000Y-62771289D01*
X159735000Y-62286105D01*
X159738556Y-62250000D01*
X159724365Y-62105915D01*
X159682337Y-61967366D01*
X159614087Y-61839680D01*
X159545253Y-61755806D01*
X159522238Y-61727762D01*
X159494193Y-61704746D01*
X154235000Y-56445554D01*
X154235000Y-54725000D01*
X154386928Y-54725000D01*
X154399188Y-54849482D01*
X154435498Y-54969180D01*
X154494463Y-55079494D01*
X154573815Y-55176185D01*
X154670506Y-55255537D01*
X154780820Y-55314502D01*
X154900518Y-55350812D01*
X155025000Y-55363072D01*
X155176750Y-55360000D01*
X155335500Y-55201250D01*
X155335500Y-54377000D01*
X154548750Y-54377000D01*
X154390000Y-54535750D01*
X154386928Y-54725000D01*
X154235000Y-54725000D01*
X154235000Y-53775000D01*
X154386928Y-53775000D01*
X154390000Y-53964250D01*
X154548750Y-54123000D01*
X155335500Y-54123000D01*
X155335500Y-53298750D01*
X155176750Y-53140000D01*
X155025000Y-53136928D01*
X154900518Y-53149188D01*
X154780820Y-53185498D01*
X154670506Y-53244463D01*
X154573815Y-53323815D01*
X154494463Y-53420506D01*
X154435498Y-53530820D01*
X154399188Y-53650518D01*
X154386928Y-53775000D01*
X154235000Y-53775000D01*
X154235000Y-51286105D01*
X154238556Y-51250000D01*
X154224365Y-51105915D01*
X154182337Y-50967366D01*
X154128072Y-50865845D01*
X154128072Y-50450000D01*
X154115812Y-50325518D01*
X154079502Y-50205820D01*
X154020537Y-50095506D01*
X153941185Y-49998815D01*
X153844494Y-49919463D01*
X153734180Y-49860498D01*
X153614482Y-49824188D01*
X153507945Y-49813695D01*
X153421250Y-49727000D01*
X151947000Y-49727000D01*
X151947000Y-49747000D01*
X151693000Y-49747000D01*
X151693000Y-49727000D01*
X150218750Y-49727000D01*
X150060000Y-49885750D01*
X150056928Y-50050000D01*
X150069188Y-50174482D01*
X150089596Y-50241759D01*
X150064188Y-50325518D01*
X150051928Y-50450000D01*
X148985000Y-50450000D01*
X148985000Y-50304446D01*
X150058443Y-49231004D01*
X150060000Y-49314250D01*
X150218750Y-49473000D01*
X151693000Y-49473000D01*
X151693000Y-49453000D01*
X151947000Y-49453000D01*
X151947000Y-49473000D01*
X153421250Y-49473000D01*
X153580000Y-49314250D01*
X153583072Y-49150000D01*
X153570812Y-49025518D01*
X153555488Y-48975000D01*
X153570812Y-48924482D01*
X153583072Y-48800000D01*
X153583072Y-47985000D01*
X153695554Y-47985000D01*
X154015000Y-48304447D01*
X154015000Y-48304447D01*
G37*
X154015000Y-48304447D02*
X154015001Y-48963886D01*
X154011444Y-49000000D01*
X154025635Y-49144085D01*
X154051019Y-49227762D01*
X154067664Y-49282633D01*
X154135914Y-49410320D01*
X154227763Y-49522238D01*
X154255808Y-49545254D01*
X154804746Y-50094193D01*
X154827762Y-50122238D01*
X154939680Y-50214087D01*
X155067367Y-50282337D01*
X155163886Y-50311616D01*
X155205914Y-50324365D01*
X155217622Y-50325518D01*
X155313895Y-50335000D01*
X155313902Y-50335000D01*
X155349999Y-50338555D01*
X155386096Y-50335000D01*
X155428254Y-50335000D01*
X155416928Y-50450000D01*
X155416928Y-51350000D01*
X155429188Y-51474482D01*
X155444512Y-51525000D01*
X155429188Y-51575518D01*
X155416928Y-51700000D01*
X155416928Y-52600000D01*
X155429188Y-52724482D01*
X155465498Y-52844180D01*
X155524463Y-52954494D01*
X155603815Y-53051185D01*
X155700506Y-53130537D01*
X155737786Y-53150464D01*
X155589500Y-53298750D01*
X155589500Y-54123000D01*
X155609500Y-54123000D01*
X155609500Y-54377000D01*
X155589500Y-54377000D01*
X155589500Y-55201250D01*
X155748250Y-55360000D01*
X155900000Y-55363072D01*
X156024482Y-55350812D01*
X156144180Y-55314502D01*
X156254494Y-55255537D01*
X156321070Y-55200900D01*
X156342725Y-55218671D01*
X156490858Y-55297850D01*
X156577086Y-55324007D01*
X160165001Y-58911923D01*
X160165000Y-66446706D01*
X160165000Y-66800579D01*
X158550579Y-68415000D01*
X158512158Y-68415000D01*
X158511185Y-68413815D01*
X158414494Y-68334463D01*
X158304180Y-68275498D01*
X158184482Y-68239188D01*
X158091192Y-68230000D01*
X158184482Y-68220812D01*
X158304180Y-68184502D01*
X158414494Y-68125537D01*
X158511185Y-68046185D01*
X158590537Y-67949494D01*
X158649502Y-67839180D01*
X158685812Y-67719482D01*
X158698072Y-67595000D01*
X158695000Y-67245750D01*
X158536250Y-67087000D01*
X157347000Y-67087000D01*
X157347000Y-67107000D01*
X157093000Y-67107000D01*
X157093000Y-67087000D01*
X157073000Y-67087000D01*
X157073000Y-66833000D01*
X157093000Y-66833000D01*
X157093000Y-65848750D01*
X157347000Y-65848750D01*
X157347000Y-66833000D01*
X158536250Y-66833000D01*
X158695000Y-66674250D01*
X158698072Y-66325000D01*
X158685812Y-66200518D01*
X158649502Y-66080820D01*
X158590537Y-65970506D01*
X158511185Y-65873815D01*
X158414494Y-65794463D01*
X158304180Y-65735498D01*
X158184482Y-65699188D01*
X158060000Y-65686928D01*
X157505750Y-65690000D01*
X157347000Y-65848750D01*
X157093000Y-65848750D01*
X156934250Y-65690000D01*
X156380000Y-65686928D01*
X156255518Y-65699188D01*
X156135820Y-65735498D01*
X156025506Y-65794463D01*
X155952517Y-65854363D01*
X155880310Y-65840000D01*
X155659690Y-65840000D01*
X155443308Y-65883041D01*
X155239481Y-65967469D01*
X155056042Y-66090039D01*
X154900039Y-66246042D01*
X154777469Y-66429481D01*
X154693041Y-66633308D01*
X154650000Y-66849690D01*
X154650000Y-67070310D01*
X154693041Y-67286692D01*
X154777469Y-67490519D01*
X154900039Y-67673958D01*
X155056042Y-67829961D01*
X155239481Y-67952531D01*
X155443308Y-68036959D01*
X155659690Y-68080000D01*
X155880310Y-68080000D01*
X155952517Y-68065637D01*
X156025506Y-68125537D01*
X156135820Y-68184502D01*
X156255518Y-68220812D01*
X156348808Y-68230000D01*
X156255518Y-68239188D01*
X156135820Y-68275498D01*
X156025506Y-68334463D01*
X155952517Y-68394363D01*
X155880310Y-68380000D01*
X155659690Y-68380000D01*
X155443308Y-68423041D01*
X155239481Y-68507469D01*
X155056042Y-68630039D01*
X154900039Y-68786042D01*
X154777469Y-68969481D01*
X154693041Y-69173308D01*
X154650000Y-69389690D01*
X154650000Y-69610310D01*
X154693041Y-69826692D01*
X154777469Y-70030519D01*
X154900039Y-70213958D01*
X155056042Y-70369961D01*
X155239481Y-70492531D01*
X155443308Y-70576959D01*
X155659690Y-70620000D01*
X155880310Y-70620000D01*
X155952517Y-70605637D01*
X156025506Y-70665537D01*
X156135820Y-70724502D01*
X156255518Y-70760812D01*
X156348808Y-70770000D01*
X156255518Y-70779188D01*
X156135820Y-70815498D01*
X156025506Y-70874463D01*
X155952517Y-70934363D01*
X155880310Y-70920000D01*
X155659690Y-70920000D01*
X155443308Y-70963041D01*
X155239481Y-71047469D01*
X155056042Y-71170039D01*
X154987437Y-71238644D01*
X154974365Y-71105915D01*
X154957557Y-71050506D01*
X154932337Y-70967367D01*
X154864087Y-70839680D01*
X154814442Y-70779188D01*
X154795253Y-70755806D01*
X154795250Y-70755803D01*
X154772237Y-70727762D01*
X154744197Y-70704750D01*
X154295258Y-70255812D01*
X154272238Y-70227762D01*
X154160320Y-70135913D01*
X154154270Y-70132679D01*
X154222531Y-70030519D01*
X154306959Y-69826692D01*
X154350000Y-69610310D01*
X154350000Y-69389690D01*
X154306959Y-69173308D01*
X154222531Y-68969481D01*
X154099961Y-68786042D01*
X153943958Y-68630039D01*
X153760519Y-68507469D01*
X153556692Y-68423041D01*
X153340310Y-68380000D01*
X153119690Y-68380000D01*
X153047483Y-68394363D01*
X152974494Y-68334463D01*
X152864180Y-68275498D01*
X152744482Y-68239188D01*
X152651192Y-68230000D01*
X152744482Y-68220812D01*
X152864180Y-68184502D01*
X152974494Y-68125537D01*
X153047483Y-68065637D01*
X153119690Y-68080000D01*
X153340310Y-68080000D01*
X153556692Y-68036959D01*
X153760519Y-67952531D01*
X153943958Y-67829961D01*
X154099961Y-67673958D01*
X154222531Y-67490519D01*
X154306959Y-67286692D01*
X154350000Y-67070310D01*
X154350000Y-66849690D01*
X154306959Y-66633308D01*
X154222531Y-66429481D01*
X154099961Y-66246042D01*
X153943958Y-66090039D01*
X153760519Y-65967469D01*
X153556692Y-65883041D01*
X153340310Y-65840000D01*
X153119690Y-65840000D01*
X153047483Y-65854363D01*
X152974494Y-65794463D01*
X152864180Y-65735498D01*
X152744482Y-65699188D01*
X152620000Y-65686928D01*
X152065750Y-65690000D01*
X151907000Y-65848750D01*
X151907000Y-66833000D01*
X151927000Y-66833000D01*
X151927000Y-67087000D01*
X151907000Y-67087000D01*
X151907000Y-67107000D01*
X151653000Y-67107000D01*
X151653000Y-67087000D01*
X150463750Y-67087000D01*
X150305000Y-67245750D01*
X150301928Y-67595000D01*
X150314188Y-67719482D01*
X150350498Y-67839180D01*
X150409463Y-67949494D01*
X150488815Y-68046185D01*
X150585506Y-68125537D01*
X150695820Y-68184502D01*
X150815518Y-68220812D01*
X150908808Y-68230000D01*
X150815518Y-68239188D01*
X150695820Y-68275498D01*
X150585506Y-68334463D01*
X150488815Y-68413815D01*
X150409463Y-68510506D01*
X150371317Y-68581870D01*
X148985000Y-67195554D01*
X148985000Y-66325000D01*
X150301928Y-66325000D01*
X150305000Y-66674250D01*
X150463750Y-66833000D01*
X151653000Y-66833000D01*
X151653000Y-65848750D01*
X151494250Y-65690000D01*
X150940000Y-65686928D01*
X150815518Y-65699188D01*
X150695820Y-65735498D01*
X150585506Y-65794463D01*
X150488815Y-65873815D01*
X150409463Y-65970506D01*
X150350498Y-66080820D01*
X150314188Y-66200518D01*
X150301928Y-66325000D01*
X148985000Y-66325000D01*
X148985000Y-50450000D01*
X150051928Y-50450000D01*
X150051928Y-51350000D01*
X150064188Y-51474482D01*
X150082012Y-51533241D01*
X150069188Y-51575518D01*
X150056928Y-51700000D01*
X150056928Y-52600000D01*
X150069188Y-52724482D01*
X150105498Y-52844180D01*
X150164463Y-52954494D01*
X150243815Y-53051185D01*
X150340506Y-53130537D01*
X150450820Y-53189502D01*
X150570518Y-53225812D01*
X150695000Y-53238072D01*
X152765001Y-53238072D01*
X152765000Y-56713895D01*
X152761444Y-56750000D01*
X152765000Y-56786104D01*
X152775635Y-56894084D01*
X152817663Y-57032632D01*
X152885913Y-57160319D01*
X152977762Y-57272237D01*
X153005808Y-57295254D01*
X158265001Y-62554448D01*
X158265001Y-62771288D01*
X158196063Y-62840226D01*
X158082795Y-63009744D01*
X158004774Y-63198102D01*
X157965000Y-63398061D01*
X157965000Y-63601939D01*
X158004774Y-63801898D01*
X158082795Y-63990256D01*
X158196063Y-64159774D01*
X158340226Y-64303937D01*
X158509744Y-64417205D01*
X158698102Y-64495226D01*
X158898061Y-64535000D01*
X159101939Y-64535000D01*
X159301898Y-64495226D01*
X159490256Y-64417205D01*
X159659774Y-64303937D01*
X159803937Y-64159774D01*
X159917205Y-63990256D01*
X159995226Y-63801898D01*
X160035000Y-63601939D01*
X160035000Y-63398061D01*
X159995226Y-63198102D01*
X159917205Y-63009744D01*
X159803937Y-62840226D01*
X159735000Y-62771289D01*
X159735000Y-62286105D01*
X159738556Y-62250000D01*
X159724365Y-62105915D01*
X159682337Y-61967366D01*
X159614087Y-61839680D01*
X159545253Y-61755806D01*
X159522238Y-61727762D01*
X159494193Y-61704746D01*
X154235000Y-56445554D01*
X154235000Y-54725000D01*
X154386928Y-54725000D01*
X154399188Y-54849482D01*
X154435498Y-54969180D01*
X154494463Y-55079494D01*
X154573815Y-55176185D01*
X154670506Y-55255537D01*
X154780820Y-55314502D01*
X154900518Y-55350812D01*
X155025000Y-55363072D01*
X155176750Y-55360000D01*
X155335500Y-55201250D01*
X155335500Y-54377000D01*
X154548750Y-54377000D01*
X154390000Y-54535750D01*
X154386928Y-54725000D01*
X154235000Y-54725000D01*
X154235000Y-53775000D01*
X154386928Y-53775000D01*
X154390000Y-53964250D01*
X154548750Y-54123000D01*
X155335500Y-54123000D01*
X155335500Y-53298750D01*
X155176750Y-53140000D01*
X155025000Y-53136928D01*
X154900518Y-53149188D01*
X154780820Y-53185498D01*
X154670506Y-53244463D01*
X154573815Y-53323815D01*
X154494463Y-53420506D01*
X154435498Y-53530820D01*
X154399188Y-53650518D01*
X154386928Y-53775000D01*
X154235000Y-53775000D01*
X154235000Y-51286105D01*
X154238556Y-51250000D01*
X154224365Y-51105915D01*
X154182337Y-50967366D01*
X154128072Y-50865845D01*
X154128072Y-50450000D01*
X154115812Y-50325518D01*
X154079502Y-50205820D01*
X154020537Y-50095506D01*
X153941185Y-49998815D01*
X153844494Y-49919463D01*
X153734180Y-49860498D01*
X153614482Y-49824188D01*
X153507945Y-49813695D01*
X153421250Y-49727000D01*
X151947000Y-49727000D01*
X151947000Y-49747000D01*
X151693000Y-49747000D01*
X151693000Y-49727000D01*
X150218750Y-49727000D01*
X150060000Y-49885750D01*
X150056928Y-50050000D01*
X150069188Y-50174482D01*
X150089596Y-50241759D01*
X150064188Y-50325518D01*
X150051928Y-50450000D01*
X148985000Y-50450000D01*
X148985000Y-50304446D01*
X150058443Y-49231004D01*
X150060000Y-49314250D01*
X150218750Y-49473000D01*
X151693000Y-49473000D01*
X151693000Y-49453000D01*
X151947000Y-49453000D01*
X151947000Y-49473000D01*
X153421250Y-49473000D01*
X153580000Y-49314250D01*
X153583072Y-49150000D01*
X153570812Y-49025518D01*
X153555488Y-48975000D01*
X153570812Y-48924482D01*
X153583072Y-48800000D01*
X153583072Y-47985000D01*
X153695554Y-47985000D01*
X154015000Y-48304447D01*
M02*
