M48
; DRILL file {KiCad (5.1.4)-1} date 7/5/2020 1:48:32 PM
; FORMAT={3:3/ absolute / metric / suppress trailing zeros}
; #@! TF.CreationDate,2020-07-05T13:48:32-04:00
; #@! TF.GenerationSoftware,Kicad,Pcbnew,(5.1.4)-1
; #@! TF.FileFunction,Plated,1,2,PTH
FMAT,2
METRIC,LZ
T1C0.400
T2C0.500
T3C3.700
%
G90
G05
T1
X123Y-06425
X1265Y-0745
X1275Y-06425
X128Y-0745
X13075Y-07425
X131Y-06425
X1325Y-0635
X133Y-06575
X1355Y-07475
X136Y-0645
X1375Y-075
X138Y-07125
X1495Y-06425
X152625Y-074375
X1535Y-06425
X1545Y-0745
X15725Y-06425
X15725Y-07425
X159Y-0635
X1595Y-0655
X162Y-0745
X1625Y-06425
X16375Y-0745
X16475Y-0705
T2
X160725Y-0335
X161538Y-031538
X161538Y-035462
X1635Y-030725
X1635Y-036275
X165462Y-031538
X165462Y-035462
X166275Y-0335
X116225Y-10525
X117038Y-103288
X117038Y-107212
X119Y-102475
X119Y-108025
X120962Y-103288
X120962Y-107212
X121775Y-10525
X116225Y-0335
X117038Y-031538
X117038Y-035462
X119Y-030725
X119Y-036275
X120962Y-031538
X120962Y-035462
X121775Y-0335
X160725Y-10525
X161538Y-103288
X161538Y-107212
X1635Y-102475
X1635Y-108025
X165462Y-103288
X165462Y-107212
X166275Y-10525
T3
X1635Y-0335
X119Y-10525
X119Y-0335
X1635Y-10525
T0
M30
