G04 #@! TF.GenerationSoftware,KiCad,Pcbnew,(5.1.4)-1*
G04 #@! TF.CreationDate,2020-04-19T13:58:18-04:00*
G04 #@! TF.ProjectId,RPi_cape,5250695f-6361-4706-952e-6b696361645f,1.6*
G04 #@! TF.SameCoordinates,Original*
G04 #@! TF.FileFunction,Profile,NP*
%FSLAX45Y45*%
G04 Gerber Fmt 4.5, Leading zero omitted, Abs format (unit mm)*
G04 Created by KiCad (PCBNEW (5.1.4)-1) date 2020-04-19 13:58:18*
%MOMM*%
%LPD*%
G04 APERTURE LIST*
%ADD10C,0.050000*%
G04 APERTURE END LIST*
D10*
X5250000Y-13325000D02*
G75*
G03X5575000Y-13650000I325000J0D01*
G01*
X6650000Y-13325000D02*
X6650000Y-12450000D01*
X6625000Y-13650000D02*
X5575000Y-13650000D01*
X5550000Y-12450000D02*
X5550000Y-13325000D01*
X5250000Y-12450000D02*
G75*
G02X5550000Y-12450000I150000J0D01*
G01*
X5250000Y-12450000D02*
X5250000Y-13325000D01*
X6950000Y-13325000D02*
G75*
G02X6625000Y-13650000I-325000J0D01*
G01*
X6650000Y-13325000D02*
G75*
G02X6625000Y-13350000I-25000J0D01*
G01*
X6950000Y-12450000D02*
X6950000Y-13325000D01*
X5575000Y-13350000D02*
X6625000Y-13350000D01*
X5575000Y-13350000D02*
G75*
G02X5550000Y-13325000I0J25000D01*
G01*
X6650000Y-12450000D02*
G75*
G02X6950000Y-12450000I150000J0D01*
G01*
X5250000Y-15450000D02*
G75*
G03X5575000Y-15775000I325000J0D01*
G01*
X5250000Y-14575000D02*
X5250000Y-15450000D01*
X5250000Y-14575000D02*
G75*
G02X5550000Y-14575000I150000J0D01*
G01*
X6625000Y-15775000D02*
X5575000Y-15775000D01*
X6650000Y-14575000D02*
G75*
G02X6950000Y-14575000I150000J0D01*
G01*
X6950000Y-15450000D02*
G75*
G02X6625000Y-15775000I-325000J0D01*
G01*
X6650000Y-15450000D02*
G75*
G02X6625000Y-15475000I-25000J0D01*
G01*
X6950000Y-14575000D02*
X6950000Y-15450000D01*
X6650000Y-15450000D02*
X6650000Y-14575000D01*
X5575000Y-15475000D02*
X6625000Y-15475000D01*
X5550000Y-14575000D02*
X5550000Y-15450000D01*
X5575000Y-15475000D02*
G75*
G02X5550000Y-15450000I0J25000D01*
G01*
X6450000Y-14075000D02*
G75*
G02X6450000Y-14375000I0J-150000D01*
G01*
X5750000Y-14075000D02*
X6450000Y-14075000D01*
X5750000Y-14375000D02*
G75*
G02X5750000Y-14075000I0J150000D01*
G01*
X5750000Y-14375000D02*
X6450000Y-14375000D01*
X2850000Y-13775000D02*
X2850000Y-14375000D01*
X3300000Y-12275000D02*
X4000000Y-12275000D01*
X4000000Y-11975000D02*
G75*
G02X4000000Y-12275000I0J-150000D01*
G01*
X3300000Y-11975000D02*
X4000000Y-11975000D01*
X3300000Y-12275000D02*
G75*
G02X3300000Y-11975000I0J150000D01*
G01*
X2850000Y-12225000D02*
G75*
G03X2950000Y-12325000I100000J0D01*
G01*
X2950000Y-12325000D02*
G75*
G02X3100000Y-12475000I0J-150000D01*
G01*
X2850000Y-13775000D02*
G75*
G02X2950000Y-13675000I100000J0D01*
G01*
X4175000Y-13675000D02*
X2950000Y-13675000D01*
X4200000Y-12475000D02*
G75*
G02X4500000Y-12475000I150000J0D01*
G01*
X4500000Y-13350000D02*
G75*
G02X4175000Y-13675000I-325000J0D01*
G01*
X4200000Y-13350000D02*
G75*
G02X4175000Y-13375000I-25000J0D01*
G01*
X4500000Y-12475000D02*
X4500000Y-13350000D01*
X4200000Y-13350000D02*
X4200000Y-12475000D01*
X3125000Y-13375000D02*
X4175000Y-13375000D01*
X3100000Y-12475000D02*
X3100000Y-13350000D01*
X3125000Y-13375000D02*
G75*
G02X3100000Y-13350000I0J25000D01*
G01*
X6450000Y-11950000D02*
G75*
G02X6450000Y-12250000I0J-150000D01*
G01*
X5750000Y-11950000D02*
X6450000Y-11950000D01*
X5750000Y-12250000D02*
G75*
G02X5750000Y-11950000I0J150000D01*
G01*
X5750000Y-12250000D02*
X6450000Y-12250000D01*
X3300000Y-14425000D02*
G75*
G02X3300000Y-14125000I0J150000D01*
G01*
X4000000Y-14125000D02*
G75*
G02X4000000Y-14425000I0J-150000D01*
G01*
X3300000Y-14425000D02*
X4000000Y-14425000D01*
X3300000Y-14125000D02*
X4000000Y-14125000D01*
X3125000Y-15525000D02*
G75*
G02X3100000Y-15500000I0J25000D01*
G01*
X2850000Y-15925000D02*
X2850000Y-28350000D01*
X4200000Y-14625000D02*
G75*
G02X4500000Y-14625000I150000J0D01*
G01*
X4500000Y-15500000D02*
G75*
G02X4175000Y-15825000I-325000J0D01*
G01*
X4200000Y-15500000D02*
G75*
G02X4175000Y-15525000I-25000J0D01*
G01*
X2850000Y-15925000D02*
G75*
G02X2950000Y-15825000I100000J0D01*
G01*
X4175000Y-15825000D02*
X2950000Y-15825000D01*
X4500000Y-14625000D02*
X4500000Y-15500000D01*
X4200000Y-15500000D02*
X4200000Y-14625000D01*
X3125000Y-15525000D02*
X4175000Y-15525000D01*
X3100000Y-14625000D02*
X3100000Y-15500000D01*
X2850000Y-14375000D02*
G75*
G03X2950000Y-14475000I100000J0D01*
G01*
X2950000Y-14475000D02*
G75*
G02X3100000Y-14625000I0J-150000D01*
G01*
X13250000Y-28350000D02*
X13250000Y-2850000D01*
X2850000Y-2850000D02*
X2850000Y-12225000D01*
X2850000Y-2850000D02*
X13250000Y-2850000D01*
X2850000Y-28350000D02*
X13250000Y-28350000D01*
M02*
