M48
; DRILL file {KiCad (5.1.4)-1} date 7/5/2020 12:22:27 PM
; FORMAT={3:3/ absolute / metric / suppress trailing zeros}
; #@! TF.CreationDate,2020-07-05T12:22:27-04:00
; #@! TF.GenerationSoftware,Kicad,Pcbnew,(5.1.4)-1
; #@! TF.FileFunction,Plated,1,4,PTH
FMAT,2
METRIC,LZ
T1C0.260
T2C0.400
T3C0.410
T4C0.500
T5C0.850
T6C1.000
T7C3.700
%
G90
G05
T1
X04Y-238
X04075Y-2375
X0415Y-237
X04225Y-2365
X043Y-236
X04355Y-0913
X04375Y-2355
X0445Y-09775
X0455Y-104
X0465Y-104
X04725Y-247
X04843Y-112198
X0485Y-24
X048991Y-11274
X049Y-0955
X04955Y-08595
X04975Y-11299
X05025Y-2595
X05025Y-25175
X0504Y-274
X051625Y-254875
X05175Y-08582
X05225Y-25825
X0535Y-07325
X053614Y-251136
X054Y-25825
X0545Y-08625
X0545Y-2485
X0546Y-0921
X056Y-0919
X05625Y-266
X05675Y-2545
X057Y-07675
X05768Y-1045
X05775Y-228
X058Y-07325
X058Y-084
X0585Y-07975
X0585Y-23875
X0585Y-266
X05875Y-0705
X05875Y-236
X05925Y-1065
X0595Y-22325
X05975Y-26175
X0598Y-2717
X06Y-11075
X06025Y-106
X06025Y-1075
X0605Y-07475
X06075Y-11
X061Y-26625
X06125Y-22775
X06175Y-254
X06175Y-258
X061788Y-265463
X062Y-24375
X062Y-24475
X062Y-256
X0625Y-1045
X06275Y-07325
X063249Y-246073
X063249Y-248573
X06325Y-0705
X06325Y-2425
X06325Y-2445
X06325Y-247
X063263Y-245293
X063263Y-247793
X0635Y-10875
X06375Y-22425
X06375Y-23625
X06375Y-261
X06375Y-266
X06425Y-10675
X06425Y-2315
X064462Y-238038
X06475Y-261
X064975Y-110225
X065Y-24325
X06575Y-2425
X06625Y-111
X06625Y-24325
X0665Y-115
X0665Y-10525
X067Y-0735
X06703Y-24325
X06725Y-2705
X0675Y-2695
X067725Y-111525
X06775Y-2425
X068Y-26875
X06825Y-193
X06825Y-261
X06875Y-26825
X069Y-26543
X069212Y-114788
X0695Y-25025
X0695Y-25175
X0695Y-25325
X06975Y-24325
X07025Y-261
X0705Y-184
X071Y-23825
X071Y-24325
X071Y-25025
X071Y-25175
X071Y-25325
X071Y-21975
X07125Y-0735
X07175Y-2425
X072Y-07075
X0725Y-25025
X0725Y-25175
X0725Y-25325
X07275Y-11407
X073Y-11825
X07325Y-2425
X073313Y-075188
X07343Y-1145
X07375Y-24325
X074Y-11519
X074Y-23075
X074725Y-17615
X07525Y-261
X0755Y-21875
X07625Y-0735
X07625Y-2425
X0765Y-18925
X07675Y-2605
X07675Y-2675
X077Y-07075
X077Y-24275
X0775Y-26825
X077672Y-228078
X07775Y-261
X078Y-20625
X07875Y-27525
X07875Y-276552
X079Y-2065
X07925Y-258
X07925Y-25925
X0795Y-24575
X07975Y-2765
X07975Y-24425
X07975Y-27525
X079842Y-266842
X08Y-2425
X08Y-2575
X08Y-25975
X08025Y-2465
X08025Y-2495
X08025Y-2555
X08025Y-245
X08075Y-200543
X080962Y-2655
X080975Y-180591
X081Y-21075
X081028Y-207722
X082Y-1865
X082188Y-204813
X08225Y-12125
X08225Y-26825
X08275Y-11825
X083Y-122
X083Y-19825
X08325Y-1245
X08325Y-18675
X0835Y-2595
X084Y-19725
X08425Y-1235
X08425Y-20275
X08425Y-2645
X0845Y-2505
X08475Y-24075
X08475Y-2455
X08475Y-257
X085Y-207
X08725Y-18025
X08725Y-205
X08775Y-238
X0885Y-18025
X08875Y-20225
X0895Y-2105
X08975Y-207
X09025Y-211
X09025Y-23425
X09025Y-23525
X09025Y-23625
X09025Y-23725
X0904Y-20275
X09455Y-2358
X09475Y-17775
X095Y-19975
X09525Y-2255
X09643Y-27618
X09725Y-2755
X098Y-27475
X09875Y-274
X09925Y-1665
X1137Y-1027
X1137Y-1043
X1137Y-1059
X1137Y-1075
X1137Y-1091
X1137Y-1107
X1139Y-1275
X1139Y-1291
X1139Y-1307
X1139Y-1323
X1139Y-1339
X1139Y-1355
X1153Y-1027
X1153Y-1043
X1153Y-1059
X1153Y-1075
X1153Y-1091
X1153Y-1107
X1155Y-1275
X1155Y-1291
X1155Y-1307
X1155Y-1323
X1155Y-1339
X1155Y-1355
X1169Y-1027
X1169Y-1043
X1169Y-1059
X1169Y-1075
X1169Y-1091
X1169Y-1107
X1171Y-1275
X1171Y-1291
X1171Y-1307
X1171Y-1323
X1171Y-1339
X1171Y-1355
X1185Y-1027
X1185Y-1043
X1185Y-1059
X1185Y-1075
X1185Y-1091
X1185Y-1107
X1187Y-1275
X1187Y-1291
X1187Y-1307
X1187Y-1323
X1187Y-1339
X1187Y-1355
X1195Y-14775
X1195Y-14875
X1195Y-17275
X1195Y-17375
X1195Y-19775
X1195Y-19875
X1195Y-22275
X1195Y-22375
X11955Y-1498
X11955Y-1748
X11955Y-1998
X11955Y-2248
X12075Y-14775
X12075Y-14875
X12075Y-14975
X12075Y-17275
X12075Y-17375
X12075Y-17475
X12075Y-19775
X12075Y-19875
X12075Y-19975
X12075Y-22275
X12075Y-22375
X12075Y-22475
X122Y-14775
X122Y-14875
X122Y-14975
X122Y-17275
X122Y-17375
X122Y-17475
X122Y-19775
X122Y-19875
X122Y-19975
X122Y-22275
X122Y-22375
X122Y-22475
X12475Y-053
X12475Y-054
X12475Y-055
X12475Y-056
X12475Y-057
X12575Y-053
X12575Y-054
X12575Y-055
X12575Y-056
X12575Y-057
X12675Y-053
X12675Y-054
X12675Y-055
X12675Y-056
X12675Y-057
X12775Y-053
X12775Y-054
X12775Y-055
X12775Y-056
X12775Y-057
X12875Y-053
X12875Y-054
X12875Y-055
X12875Y-056
X12875Y-057
X12975Y-053
X12975Y-054
X12975Y-055
X12975Y-056
X12975Y-057
T2
X04Y-09675
X04025Y-0905
X0411Y-0647
X04155Y-0971
X0437Y-0643
X04425Y-1065
X04565Y-0928
X0457Y-0743
X0465Y-107
X0467Y-0751
X0467Y-2179
X0467Y-0711
X0468Y-2128
X047188Y-230813
X0501Y-0605
X0521Y-0655
X0551Y-064
X0561Y-1955
X0566Y-0909
X0566Y-0955
X0567Y-1971
X0573Y-2131
X0585Y-2001
X0589Y-1849
X059Y-0889
X059Y-099
X0625Y-0954
X0627Y-1939
X06275Y-1895
X063Y-21225
X06425Y-091
X0643Y-1915
X064538Y-060038
X06475Y-0815
X065Y-0655
X06575Y-18885
X06575Y-20075
X06645Y-182
X066555Y-1736
X068Y-08625
X0681Y-0921
X068235Y-168676
X0686Y-064
X06875Y-19575
X0689Y-0849
X069325Y-168525
X0695Y-0919
X0696Y-2315
X0701Y-0909
X0701Y-0955
X0705Y-1671
X070978Y-168525
X0725Y-0889
X0727Y-2169
X073Y-101
X074Y-19225
X076Y-0954
X07685Y-17315
X077Y-11125
X07775Y-091
X0779Y-0517
X078038Y-060038
X07825Y-0815
X0785Y-0655
X08075Y-09495
X081Y-11275
X0819Y-17
X082788Y-177513
X0829Y-1741
X0855Y-183
X0859Y-0669
X0863Y-0641
X0875Y-0989
X09031Y-19825
X09255Y-05945
X09355Y-09685
X09375Y-12165
X0947Y-0787
X1005Y-24125
X1005Y-24675
X1005Y-25225
X1005Y-25775
X1005Y-26325
X1007Y-1063
X1007Y-1083
X1007Y-1107
X10075Y-26875
X1009Y-1311
X1009Y-1331
X1009Y-1355
X1019Y-1551
X1019Y-1801
X1019Y-2051
X1019Y-2301
X1033Y-0763
X10463Y-15217
X10463Y-17717
X10463Y-20217
X10463Y-22717
X1065Y-1045
X1067Y-1293
X1068Y-0689
X108Y-1465
X108Y-1715
X108Y-1965
X108Y-2215
X10826Y-1523
X10826Y-1773
X10826Y-2023
X10826Y-2273
X1095Y-1045
X1097Y-1293
X10975Y-1675
X10975Y-1925
X10975Y-2175
X11Y-158
X11Y-183
X11Y-208
X11Y-233
X11125Y-1425
X1121Y-1023
X1121Y-1047
X1121Y-1071
X1121Y-1093
X1121Y-1113
X1123Y-1271
X1123Y-1295
X1123Y-1319
X1123Y-1341
X1123Y-1361
X1137Y-1121
X1139Y-1369
X1141Y-0688
X1161Y-1121
X1163Y-1369
X1185Y-1121
X1187Y-1369
X1203Y-1021
X1203Y-1047
X1203Y-1071
X1203Y-1093
X1203Y-1113
X1205Y-1269
X1205Y-1295
X1205Y-1319
X1205Y-1341
X1205Y-1361
X1233Y-1041
X1235Y-1289
X1267Y-1041
X1269Y-1289
X12955Y-14165
X12955Y-14345
X12955Y-16665
X12955Y-16845
X12955Y-19165
X12955Y-19345
X12955Y-21665
X12955Y-21845
X13005Y-07775
X1305Y-08425
X13075Y-08675
X1309Y-0769
X13125Y-06975
X1323Y-1003
X1323Y-1029
X1323Y-1057
X1325Y-1251
X1325Y-1277
X1325Y-1305
X1369Y-0827
X1369Y-0841
X13795Y-14165
X13795Y-14345
X13795Y-16665
X13795Y-16845
X13795Y-19165
X13795Y-19345
X13795Y-21665
X13795Y-21845
T3
X0445Y-19125
X04625Y-11125
X04625Y-11825
X0485Y-18725
X05095Y-27635
X0525Y-27075
X05475Y-27825
X0555Y-2335
X0556Y-2306
X05575Y-2435
X05575Y-245
X05575Y-24634
X05575Y-25975
X055783Y-117217
X056Y-12175
X056Y-124
X05675Y-2485
X05725Y-11475
X05725Y-25575
X058Y-24075
X058Y-25675
X058Y-26275
X06025Y-2415
X06075Y-24025
X061Y-26325
X06175Y-23775
X0645Y-11575
X06475Y-05175
X066038Y-238038
X0675Y-231
X07175Y-2065
X0725Y-231
X0755Y-2365
X077Y-2365
X07725Y-10675
X08Y-23125
X08059Y-24075
X0815Y-263
X08225Y-24125
X082351Y-261851
X0835Y-22025
X0845Y-2705
X08475Y-242
X085Y-2195
X08625Y-2195
X0875Y-1085
X09275Y-273
X09885Y-0771
X1005Y-27025
X1005Y-27125
X10075Y-2395
X101715Y-271
X10294Y-16
X10294Y-185
X10294Y-21
X10294Y-235
X1035Y-27675
X10675Y-26325
X113Y-263
X11475Y-1415
X116Y-15825
X116Y-18325
X116Y-20825
X116Y-23325
X11625Y-16025
X11625Y-18525
X11625Y-21025
X11625Y-23525
X11625Y-26325
X11675Y-1645
X11675Y-1895
X11675Y-2145
X118788Y-266213
X121594Y-262049
X122Y-24275
X1225Y-26075
X12425Y-261
X1245Y-2501
X1245Y-2577
X126Y-26175
X12675Y-118
X131Y-11325
X131888Y-261287
X1329Y-2449
X1365Y-1395
T4
X134475Y-271
X135288Y-269038
X135288Y-272962
X13725Y-268225
X13725Y-273775
X139212Y-269038
X139212Y-272962
X140025Y-271
X038975Y-27925
X039788Y-277288
X039788Y-281212
X04175Y-276475
X04175Y-282025
X043712Y-277288
X043712Y-281212
X044525Y-27925
X038975Y-03275
X039788Y-030788
X039788Y-034712
X04175Y-029975
X04175Y-035525
X043712Y-030788
X043712Y-034712
X044525Y-03275
X039475Y-0845
X039475Y-15625
X040288Y-082538
X040288Y-086462
X040288Y-154288
X040288Y-158212
X04225Y-081725
X04225Y-087275
X04225Y-153475
X04225Y-159025
X044212Y-082538
X044212Y-086462
X044212Y-154288
X044212Y-158212
X045025Y-0845
X045025Y-15625
X083975Y-0845
X083975Y-15625
X084788Y-082538
X084788Y-086462
X084788Y-154288
X084788Y-158212
X08675Y-081725
X08675Y-087275
X08675Y-153475
X08675Y-159025
X088712Y-082538
X088712Y-086462
X088712Y-154288
X088712Y-158212
X089525Y-0845
X089525Y-15625
X094225Y-211
X095038Y-209038
X095038Y-212962
X097Y-208225
X097Y-213775
X098962Y-209038
X098962Y-212962
X099775Y-211
X134475Y-03275
X135288Y-030788
X135288Y-034712
X13725Y-029975
X13725Y-035525
X139212Y-030788
X139212Y-034712
X140025Y-03275
T5
X12375Y-2675
X12502Y-26496
X12629Y-2675
X12756Y-26496
X12883Y-2675
X1301Y-26496
T6
X0425Y-25175
X0425Y-25429
X0425Y-25683
X0425Y-25937
X0425Y-26191
X04504Y-25175
X04504Y-25429
X04504Y-25683
X04504Y-25937
X04504Y-26191
X1295Y-1585
X1345Y-155
X0495Y-207
X0545Y-2035
X06875Y-04325
X07225Y-04825
X07575Y-04325
X0665Y-27871
X0665Y-28125
X06904Y-27871
X06904Y-28125
X07158Y-27871
X07158Y-28125
X07412Y-27871
X07412Y-28125
X07666Y-27871
X07666Y-28125
X0792Y-27871
X0792Y-28125
X08174Y-27871
X08174Y-28125
X08428Y-27871
X08428Y-28125
X08682Y-27871
X08682Y-28125
X08936Y-27871
X08936Y-28125
X0919Y-27871
X0919Y-28125
X09444Y-27871
X09444Y-28125
X09698Y-27871
X09698Y-28125
X09952Y-27871
X09952Y-28125
X10206Y-27871
X10206Y-28125
X1046Y-27871
X1046Y-28125
X10714Y-27871
X10714Y-28125
X10968Y-27871
X10968Y-28125
X11222Y-27871
X11222Y-28125
X11476Y-27871
X11476Y-28125
X04575Y-04325
X04925Y-04825
X1295Y-1835
X1345Y-18
X09425Y-043
X09775Y-048
X1295Y-23325
X1345Y-22975
X126Y-04275
X1295Y-04775
X133Y-04275
X1365Y-04775
X049Y-16875
X054Y-16525
X049Y-18075
X054Y-17725
X0825Y-04325
X086Y-04825
X13828Y-24877
X13828Y-25131
X13828Y-25385
X13828Y-25639
X13828Y-25893
X13828Y-26147
X10875Y-04275
X11225Y-04775
X1295Y-2085
X1345Y-205
X0555Y-04325
X059Y-04825
X0625Y-04325
T7
X04175Y-03275
X04225Y-0845
X04225Y-15625
X08675Y-0845
X08675Y-15625
X097Y-211
X13725Y-03275
X13725Y-271
X04175Y-27925
T0
M30
