M48
; DRILL file {KiCad (5.1.4)-1} date 4/23/2020 11:24:10 AM
; FORMAT={3:3/ absolute / metric / suppress trailing zeros}
; #@! TF.CreationDate,2020-04-23T11:24:10-04:00
; #@! TF.GenerationSoftware,Kicad,Pcbnew,(5.1.4)-1
; #@! TF.FileFunction,Plated,1,4,PTH
FMAT,2
METRIC,LZ
T1C0.260
T2C0.400
T3C0.410
T4C0.500
T5C0.850
T6C1.000
T7C3.200
%
G90
G05
T1
X0325Y-15225
X036Y-1305
X0365Y-1535
X0371Y-1309
X03775Y-11425
X03875Y-11425
X03975Y-11425
X044Y-12025
X04468Y-12082
X04915Y-2685
X05025Y-1065
X051Y-10725
X05125Y-106
X0515Y-11
X05225Y-24775
X0535Y-106
X0535Y-10725
X0535Y-24675
X056Y-25325
X056Y-255
X057123Y-151877
X05825Y-2705
X0585Y-2695
X059Y-26875
X05925Y-193
X0595Y-21975
X05975Y-26825
X06Y-252
X06Y-25425
X06Y-2565
X06075Y-131
X061Y-153
X06153Y-131
X062Y-21975
X06225Y-24825
X06225Y-252
X06225Y-25425
X06225Y-2565
X0645Y-252
X0645Y-25425
X0645Y-2565
X065725Y-17615
X066567Y-248167
X0685Y-244
X0685Y-2535
X068522Y-254877
X069Y-2085
X0695Y-12025
X06975Y-27525
X06975Y-276552
X07Y-24325
X07075Y-2765
X07075Y-27525
X07125Y-20925
X07175Y-1195
X07175Y-205457
X071975Y-180591
X072278Y-213722
X073438Y-210813
X074Y-1365
X0755Y-20775
X07643Y-1365
X07775Y-205457
X07875Y-2385
X07975Y-20225
X08075Y-21025
X08125Y-23425
X08125Y-23525
X08125Y-23625
X08125Y-23725
X0814Y-20275
X08575Y-17775
X086Y-19975
X08625Y-2255
X08743Y-27618
X08825Y-2755
X089Y-27475
X08975Y-274
X09025Y-1665
X1047Y-1027
X1047Y-1043
X1047Y-1059
X1047Y-1075
X1047Y-1091
X1047Y-1107
X1049Y-1275
X1049Y-1291
X1049Y-1307
X1049Y-1323
X1049Y-1339
X1049Y-1355
X1063Y-1027
X1063Y-1043
X1063Y-1059
X1063Y-1075
X1063Y-1091
X1063Y-1107
X1065Y-1275
X1065Y-1291
X1065Y-1307
X1065Y-1323
X1065Y-1339
X1065Y-1355
X1079Y-1027
X1079Y-1043
X1079Y-1059
X1079Y-1075
X1079Y-1091
X1079Y-1107
X1081Y-1275
X1081Y-1291
X1081Y-1307
X1081Y-1323
X1081Y-1339
X1081Y-1355
X1095Y-1027
X1095Y-1043
X1095Y-1059
X1095Y-1075
X1095Y-1091
X1095Y-1107
X1097Y-1275
X1097Y-1291
X1097Y-1307
X1097Y-1323
X1097Y-1339
X1097Y-1355
X1105Y-14775
X1105Y-14875
X1105Y-17275
X1105Y-17375
X1105Y-19775
X1105Y-19875
X1105Y-22275
X1105Y-22375
X11055Y-1498
X11055Y-1748
X11055Y-1998
X11055Y-2248
X11175Y-14775
X11175Y-14875
X11175Y-14975
X11175Y-17275
X11175Y-17375
X11175Y-17475
X11175Y-19775
X11175Y-19875
X11175Y-19975
X11175Y-22275
X11175Y-22375
X11175Y-22475
X113Y-14775
X113Y-14875
X113Y-14975
X113Y-17275
X113Y-17375
X113Y-17475
X113Y-19775
X113Y-19875
X113Y-19975
X113Y-22275
X113Y-22375
X113Y-22475
T2
X03075Y-09175
X031Y-0855
X0315Y-0939
X0321Y-0647
X0323Y-0921
X0347Y-0643
X03475Y-10575
X0355Y-0783
X0355Y-0805
X03575Y-08225
X0364Y-0878
X0365Y-0955
X0367Y-0743
X037Y-1006
X0375Y-107
X0377Y-0751
X0377Y-2179
X0377Y-0711
X0378Y-2128
X038188Y-230813
X038188Y-238388
X0411Y-0605
X0425Y-0939
X0427Y-0831
X04275Y-092
X0431Y-0655
X0455Y-08625
X0456Y-0921
X0461Y-064
X0462Y-0711
X0464Y-0849
X047Y-0919
X0471Y-1955
X0476Y-0909
X0476Y-0955
X0477Y-1971
X0483Y-2131
X0488Y-0689
X0495Y-2001
X0498Y-0825
X0499Y-1849
X05Y-0889
X0505Y-101
X0505Y-25
X0515Y-2527
X051538Y-255538
X051563Y-250963
X051563Y-253963
X052813Y-071113
X0535Y-0954
X0537Y-1939
X05375Y-1895
X054Y-0823
X054Y-21225
X05525Y-091
X0553Y-1915
X055538Y-060038
X05575Y-0815
X05575Y-235
X05595Y-06975
X056Y-0655
X05605Y-24825
X05675Y-18885
X05675Y-20075
X05745Y-182
X057555Y-1736
X0581Y-2651
X058713Y-243513
X059Y-08625
X0591Y-0921
X059235Y-168676
X05945Y-2387
X0596Y-064
X0597Y-0711
X05975Y-19575
X0599Y-0849
X060024Y-260194
X060325Y-168525
X0605Y-0919
X0606Y-23515
X061Y-2185
X0611Y-0909
X0611Y-0955
X0615Y-1671
X061978Y-168525
X0623Y-0689
X0633Y-0825
X0635Y-0889
X0637Y-2169
X0637Y-2387
X064Y-101
X065Y-19225
X065Y-2015
X0651Y-2651
X065712Y-243513
X0663Y-2601
X066313Y-071113
X067Y-0954
X0675Y-0823
X06785Y-17315
X068Y-11125
X06825Y-19425
X06875Y-091
X0689Y-0517
X069038Y-060038
X06925Y-0815
X06925Y-1875
X06945Y-06975
X0695Y-0655
X07175Y-09495
X072Y-11275
X0729Y-1661
X073788Y-177513
X0739Y-1731
X07425Y-20225
X075087Y-257688
X0751Y-2543
X07525Y-19975
X0765Y-183
X0769Y-0669
X0773Y-0641
X0785Y-0989
X08131Y-19825
X08355Y-05945
X08455Y-09685
X08475Y-12165
X0857Y-0787
X0915Y-24125
X0915Y-24675
X0915Y-25225
X0915Y-25775
X0915Y-26325
X0917Y-1063
X0917Y-1083
X0917Y-1107
X09175Y-26875
X0919Y-1311
X0919Y-1331
X0919Y-1355
X0929Y-1551
X0929Y-1801
X0929Y-2051
X0929Y-2301
X0943Y-0763
X09563Y-15217
X09563Y-17717
X09563Y-20217
X09563Y-22717
X0975Y-1045
X0977Y-1293
X099Y-1465
X099Y-1715
X099Y-1965
X099Y-2215
X09926Y-1523
X09926Y-1773
X09926Y-2023
X09926Y-2273
X1005Y-1045
X1007Y-1293
X1008Y-0674
X101Y-158
X101Y-183
X101Y-208
X101Y-233
X1031Y-1023
X1031Y-1047
X1031Y-1071
X1031Y-1093
X1031Y-1113
X1033Y-1271
X1033Y-1295
X1033Y-1319
X1033Y-1341
X1033Y-1361
X1047Y-1121
X1049Y-1369
X1071Y-1121
X1073Y-1369
X1081Y-0673
X1095Y-1121
X1097Y-1369
X1113Y-1021
X1113Y-1047
X1113Y-1071
X1113Y-1093
X1113Y-1113
X1115Y-1269
X1115Y-1295
X1115Y-1319
X1115Y-1341
X1115Y-1361
X1143Y-1041
X1145Y-1289
X1177Y-1041
X1179Y-1289
X12055Y-14165
X12055Y-14345
X12055Y-16665
X12055Y-16845
X12055Y-19165
X12055Y-19345
X12055Y-21665
X12055Y-21845
X12105Y-07775
X1215Y-08425
X12175Y-08675
X1219Y-0769
X12225Y-06975
X1233Y-1003
X1233Y-1029
X1233Y-1057
X1235Y-1251
X1235Y-1277
X1235Y-1305
X1279Y-0827
X1279Y-0841
X12895Y-14165
X12895Y-14345
X12895Y-16665
X12895Y-16845
X12895Y-19165
X12895Y-19345
X12895Y-21665
X12895Y-21845
T3
X03025Y-13925
X03475Y-11725
X03509Y-15291
X0355Y-19125
X0371Y-12965
X03725Y-11125
X038408Y-124908
X0385Y-1495
X0395Y-18725
X04375Y-2605
X044Y-26175
X04575Y-27825
X0465Y-2335
X0466Y-2306
X047992Y-258
X04825Y-11475
X04875Y-25725
X0495Y-2465
X0497Y-27085
X04975Y-2555
X04975Y-25675
X0505Y-2425
X05125Y-26525
X0515Y-24925
X05275Y-14
X053Y-11975
X053Y-23825
X054Y-1115
X0555Y-1115
X0555Y-11575
X05575Y-05175
X057Y-111535
X057Y-16
X058Y-11425
X0585Y-231
X05925Y-11425
X05959Y-15241
X060288Y-243538
X0605Y-11425
X06125Y-12925
X06275Y-2065
X063Y-15
X06325Y-12475
X0635Y-231
X06525Y-231
X06825Y-10675
X07Y-26775
X071Y-23125
X07225Y-24675
X07225Y-26575
X073Y-265
X0735Y-1385
X074Y-26425
X0745Y-22025
X07475Y-263
X07475Y-267
X0755Y-2705
X076Y-2195
X07725Y-1305
X07725Y-1595
X07725Y-2195
X0775Y-158
X0785Y-1085
X08375Y-273
X08985Y-0771
X0915Y-27025
X0915Y-27125
X09175Y-2395
X092715Y-271
X09394Y-16
X09394Y-185
X09394Y-21
X09394Y-235
X0945Y-27675
X09775Y-26325
X104Y-263
X10575Y-1415
X107Y-15825
X107Y-18325
X107Y-20825
X107Y-23325
X10725Y-16025
X10725Y-18525
X10725Y-21025
X10725Y-23525
X10725Y-26325
X10775Y-1645
X10775Y-1895
X10775Y-2145
X109788Y-266213
X11125Y-26525
X11275Y-266
X113Y-24275
X113Y-26425
X1155Y-2561
X1155Y-2637
X1175Y-26725
X11775Y-118
X1215Y-138
X122Y-11325
X122888Y-267287
X1239Y-2509
T4
X03035Y-03275
X031053Y-031053
X031053Y-034447
X03275Y-03035
X03275Y-03515
X034447Y-031053
X034447Y-034447
X03515Y-03275
X03035Y-27925
X031053Y-277553
X031053Y-280947
X03275Y-27685
X03275Y-28165
X034447Y-277553
X034447Y-280947
X03515Y-27925
X12585Y-03275
X126553Y-031053
X126553Y-034447
X12825Y-03035
X12825Y-03515
X129947Y-031053
X129947Y-034447
X13065Y-03275
X12585Y-27925
X126553Y-277553
X126553Y-280947
X12825Y-27685
X12825Y-28165
X129947Y-277553
X129947Y-280947
X13065Y-27925
T5
X11475Y-2735
X11602Y-27096
X11729Y-2735
X11856Y-27096
X11983Y-2735
X1211Y-27096
T6
X08525Y-048
X08875Y-043
X05975Y-04325
X06325Y-04825
X06675Y-04325
X117Y-04775
X1205Y-04275
X124Y-04775
X1275Y-04275
X04Y-16525
X045Y-16875
X04Y-17725
X045Y-18075
X1205Y-205
X1255Y-2085
X0575Y-27871
X0575Y-28125
X06004Y-27871
X06004Y-28125
X06258Y-27871
X06258Y-28125
X06512Y-27871
X06512Y-28125
X06766Y-27871
X06766Y-28125
X0702Y-27871
X0702Y-28125
X07274Y-27871
X07274Y-28125
X07528Y-27871
X07528Y-28125
X07782Y-27871
X07782Y-28125
X08036Y-27871
X08036Y-28125
X0829Y-27871
X0829Y-28125
X08544Y-27871
X08544Y-28125
X08798Y-27871
X08798Y-28125
X09052Y-27871
X09052Y-28125
X09306Y-27871
X09306Y-28125
X0956Y-27871
X0956Y-28125
X09814Y-27871
X09814Y-28125
X10068Y-27871
X10068Y-28125
X10322Y-27871
X10322Y-28125
X10576Y-27871
X10576Y-28125
X1205Y-22975
X1255Y-23325
X1205Y-18
X1255Y-1835
X03675Y-04825
X04025Y-04325
X12928Y-25477
X12928Y-25731
X12928Y-25985
X12928Y-26239
X12928Y-26493
X12928Y-26747
X09975Y-04775
X10325Y-04275
X0465Y-04325
X05Y-04825
X0535Y-04325
X1205Y-155
X1255Y-1585
X0375Y-25175
X0375Y-25429
X0375Y-25683
X0375Y-25937
X0375Y-26191
X04004Y-25175
X04004Y-25429
X04004Y-25683
X04004Y-25937
X04004Y-26191
X0405Y-2035
X0455Y-207
X0735Y-04825
X077Y-04325
T7
X12825Y-27925
X03275Y-03275
X03275Y-27925
X12825Y-03275
T0
M30
