G04 #@! TF.GenerationSoftware,KiCad,Pcbnew,(5.1.4)-1*
G04 #@! TF.CreationDate,2020-07-05T12:22:21-04:00*
G04 #@! TF.ProjectId,RPi_cape,5250695f-6361-4706-952e-6b696361645f,1.8*
G04 #@! TF.SameCoordinates,Original*
G04 #@! TF.FileFunction,Copper,L4,Bot*
G04 #@! TF.FilePolarity,Positive*
%FSLAX45Y45*%
G04 Gerber Fmt 4.5, Leading zero omitted, Abs format (unit mm)*
G04 Created by KiCad (PCBNEW (5.1.4)-1) date 2020-07-05 12:22:21*
%MOMM*%
%LPD*%
G04 APERTURE LIST*
%ADD10C,0.800000*%
%ADD11C,7.400000*%
%ADD12C,1.358000*%
%ADD13R,1.358000X1.358000*%
%ADD14C,2.300000*%
%ADD15O,1.700000X1.700000*%
%ADD16R,1.700000X1.700000*%
%ADD17C,0.620000*%
%ADD18C,0.500000*%
%ADD19C,0.200000*%
%ADD20C,2.000000*%
%ADD21C,0.250000*%
%ADD22C,0.254000*%
G04 APERTURE END LIST*
D10*
X4421222Y-8646222D03*
D11*
X4225000Y-8450000D03*
D10*
X3947500Y-8450000D03*
X4028778Y-8253778D03*
X4225000Y-8727500D03*
X4502500Y-8450000D03*
X4421222Y-8253778D03*
X4028778Y-8646222D03*
X4225000Y-8172500D03*
X8871222Y-8646222D03*
D11*
X8675000Y-8450000D03*
D10*
X8397500Y-8450000D03*
X8478778Y-8253778D03*
X8675000Y-8727500D03*
X8952500Y-8450000D03*
X8871222Y-8253778D03*
X8478778Y-8646222D03*
X8675000Y-8172500D03*
X8871222Y-15821222D03*
D11*
X8675000Y-15625000D03*
D10*
X8397500Y-15625000D03*
X8478778Y-15428778D03*
X8675000Y-15902500D03*
X8952500Y-15625000D03*
X8871222Y-15428778D03*
X8478778Y-15821222D03*
X8675000Y-15347500D03*
X4225000Y-15902500D03*
X4421222Y-15821222D03*
X4028778Y-15428778D03*
X4225000Y-15347500D03*
X4028778Y-15821222D03*
X4502500Y-15625000D03*
X4421222Y-15428778D03*
D11*
X4225000Y-15625000D03*
D10*
X3947500Y-15625000D03*
X9896222Y-20903778D03*
X9700000Y-20822500D03*
X9503778Y-20903778D03*
X9422500Y-21100000D03*
X9503778Y-21296222D03*
X9700000Y-21377500D03*
X9896222Y-21296222D03*
X9977500Y-21100000D03*
D11*
X9700000Y-21100000D03*
D10*
X4371222Y-3078778D03*
X4175000Y-2997500D03*
X3978778Y-3078778D03*
X3897500Y-3275000D03*
X3978778Y-3471222D03*
X4175000Y-3552500D03*
X4371222Y-3471222D03*
X4452500Y-3275000D03*
D11*
X4175000Y-3275000D03*
D10*
X13921222Y-3078778D03*
X13725000Y-2997500D03*
X13528778Y-3078778D03*
X13447500Y-3275000D03*
X13528778Y-3471222D03*
X13725000Y-3552500D03*
X13921222Y-3471222D03*
X14002500Y-3275000D03*
D11*
X13725000Y-3275000D03*
D10*
X4371222Y-27728778D03*
X4175000Y-27647500D03*
X3978778Y-27728778D03*
X3897500Y-27925000D03*
X3978778Y-28121222D03*
X4175000Y-28202500D03*
X4371222Y-28121222D03*
X4452500Y-27925000D03*
D11*
X4175000Y-27925000D03*
D10*
X13921222Y-26903778D03*
X13725000Y-26822500D03*
X13528778Y-26903778D03*
X13447500Y-27100000D03*
X13528778Y-27296222D03*
X13725000Y-27377500D03*
X13921222Y-27296222D03*
X14002500Y-27100000D03*
D11*
X13725000Y-27100000D03*
D12*
X13010000Y-26496000D03*
X12883000Y-26750000D03*
X12756000Y-26496000D03*
X12629000Y-26750000D03*
X12502000Y-26496000D03*
D13*
X12375000Y-26750000D03*
D14*
X12600000Y-4275000D03*
X12950000Y-4775000D03*
X13300000Y-4275000D03*
X13650000Y-4775000D03*
X6250000Y-4325000D03*
X5900000Y-4825000D03*
X5550000Y-4325000D03*
X7575000Y-4325000D03*
X7225000Y-4825000D03*
X6875000Y-4325000D03*
X4900000Y-16875000D03*
X5400000Y-16525000D03*
X4900000Y-18075000D03*
X5400000Y-17725000D03*
X13450000Y-22975000D03*
X12950000Y-23325000D03*
X13450000Y-20500000D03*
X12950000Y-20850000D03*
X13450000Y-18000000D03*
X12950000Y-18350000D03*
X13450000Y-15500000D03*
X12950000Y-15850000D03*
X4575000Y-4325000D03*
X4925000Y-4825000D03*
X8250000Y-4325000D03*
X8600000Y-4825000D03*
X9425000Y-4300000D03*
X9775000Y-4800000D03*
X10875000Y-4275000D03*
X11225000Y-4775000D03*
X4950000Y-20700000D03*
X5450000Y-20350000D03*
D15*
X13828000Y-24877000D03*
X13828000Y-25131000D03*
X13828000Y-25385000D03*
X13828000Y-25639000D03*
X13828000Y-25893000D03*
D16*
X13828000Y-26147000D03*
D15*
X4504000Y-26191000D03*
X4250000Y-26191000D03*
X4504000Y-25937000D03*
X4250000Y-25937000D03*
X4504000Y-25683000D03*
X4250000Y-25683000D03*
X4504000Y-25429000D03*
X4250000Y-25429000D03*
X4504000Y-25175000D03*
D16*
X4250000Y-25175000D03*
D15*
X11476000Y-27871000D03*
X11476000Y-28125000D03*
X11222000Y-27871000D03*
X11222000Y-28125000D03*
X10968000Y-27871000D03*
X10968000Y-28125000D03*
X10714000Y-27871000D03*
X10714000Y-28125000D03*
X10460000Y-27871000D03*
X10460000Y-28125000D03*
X10206000Y-27871000D03*
X10206000Y-28125000D03*
X9952000Y-27871000D03*
X9952000Y-28125000D03*
X9698000Y-27871000D03*
X9698000Y-28125000D03*
X9444000Y-27871000D03*
X9444000Y-28125000D03*
X9190000Y-27871000D03*
X9190000Y-28125000D03*
X8936000Y-27871000D03*
X8936000Y-28125000D03*
X8682000Y-27871000D03*
X8682000Y-28125000D03*
X8428000Y-27871000D03*
X8428000Y-28125000D03*
X8174000Y-27871000D03*
X8174000Y-28125000D03*
X7920000Y-27871000D03*
X7920000Y-28125000D03*
X7666000Y-27871000D03*
X7666000Y-28125000D03*
X7412000Y-27871000D03*
X7412000Y-28125000D03*
X7158000Y-27871000D03*
X7158000Y-28125000D03*
X6904000Y-27871000D03*
X6904000Y-28125000D03*
X6650000Y-27871000D03*
D16*
X6650000Y-28125000D03*
D17*
X12200000Y-14975000D03*
X12075000Y-14975000D03*
X11950000Y-14875000D03*
X12075000Y-14875000D03*
X12200000Y-14875000D03*
X12200000Y-14775000D03*
X12075000Y-14775000D03*
X11950000Y-14775000D03*
X7100000Y-25325000D03*
X7100000Y-25025000D03*
X7250000Y-25175000D03*
X6950000Y-25175000D03*
X7250000Y-25025000D03*
X7250000Y-25325000D03*
X6950000Y-25325000D03*
X6950000Y-25025000D03*
X11870000Y-13550000D03*
X11390000Y-13390000D03*
X11710000Y-13550000D03*
X11550000Y-13550000D03*
X11390000Y-13550000D03*
X11710000Y-13390000D03*
X11550000Y-13390000D03*
X11870000Y-13390000D03*
X11870000Y-13230000D03*
X11390000Y-13070000D03*
X11710000Y-13230000D03*
X11550000Y-13230000D03*
X11390000Y-13230000D03*
X11710000Y-13070000D03*
X11550000Y-13070000D03*
X11870000Y-13070000D03*
X11870000Y-12910000D03*
X11710000Y-12910000D03*
X11550000Y-12910000D03*
X11390000Y-12910000D03*
X11710000Y-12750000D03*
X11390000Y-12750000D03*
D10*
X10050000Y-26325000D03*
X10050000Y-25775000D03*
X10075000Y-26875000D03*
X10050000Y-25225000D03*
X10050000Y-24675000D03*
X10050000Y-24125000D03*
X6575000Y-20075000D03*
X4718750Y-23081250D03*
X4680000Y-21280000D03*
X4670000Y-21790000D03*
X5610000Y-19550000D03*
X6270000Y-19390000D03*
X6430000Y-19150000D03*
X8550000Y-18300000D03*
D17*
X8097502Y-18059143D03*
X7472500Y-17615000D03*
D10*
X8290000Y-17410000D03*
X8190000Y-17000000D03*
X7097789Y-16852501D03*
X6932501Y-16852501D03*
X6645000Y-18200000D03*
X10463000Y-15217000D03*
X7300000Y-10100000D03*
X7600000Y-9540000D03*
X8075000Y-9495000D03*
X7010000Y-9550000D03*
X7250000Y-8890000D03*
X7850000Y-6550000D03*
X7803750Y-6003750D03*
X4565000Y-9280000D03*
X4670000Y-7110000D03*
X4670000Y-7510000D03*
X4110000Y-6470000D03*
X5210000Y-6550000D03*
X5010000Y-6050000D03*
X9255000Y-5945000D03*
X8630000Y-6410000D03*
X9470000Y-7870000D03*
X10330000Y-7630000D03*
X10680000Y-6890000D03*
X13250000Y-12510000D03*
X13250000Y-13050000D03*
X12690000Y-12890000D03*
X12350000Y-12890000D03*
X12050000Y-13190000D03*
X12050000Y-13410000D03*
X12050000Y-13610000D03*
X11230000Y-13610000D03*
X11230000Y-13410000D03*
X11230000Y-13190000D03*
X11230000Y-12710000D03*
X12050000Y-12690000D03*
X10970000Y-12930000D03*
X10670000Y-12930000D03*
X10090000Y-13110000D03*
X10090000Y-13550000D03*
X10090000Y-13310000D03*
X11390000Y-13690000D03*
X11630000Y-13690000D03*
X11870000Y-13690000D03*
X12050000Y-12950000D03*
X11230000Y-12950000D03*
D17*
X11870000Y-12750000D03*
X11550000Y-12750000D03*
D10*
X13250000Y-12770000D03*
D17*
X11850000Y-11070000D03*
X11370000Y-10910000D03*
X11690000Y-11070000D03*
X11530000Y-11070000D03*
X11370000Y-11070000D03*
X11690000Y-10910000D03*
X11530000Y-10910000D03*
X11850000Y-10910000D03*
X11850000Y-10750000D03*
X11370000Y-10590000D03*
X11690000Y-10750000D03*
X11530000Y-10750000D03*
X11370000Y-10750000D03*
X11690000Y-10590000D03*
X11530000Y-10590000D03*
X11850000Y-10590000D03*
X11850000Y-10430000D03*
X11690000Y-10430000D03*
X11530000Y-10430000D03*
X11370000Y-10430000D03*
X11690000Y-10270000D03*
X11370000Y-10270000D03*
D10*
X13230000Y-10030000D03*
X13230000Y-10570000D03*
X12670000Y-10410000D03*
X12330000Y-10410000D03*
X12030000Y-10710000D03*
X12030000Y-10930000D03*
X12030000Y-11130000D03*
X11210000Y-11130000D03*
X11210000Y-10930000D03*
X11210000Y-10710000D03*
X11210000Y-10230000D03*
X12030000Y-10210000D03*
X10950000Y-10450000D03*
X10650000Y-10450000D03*
X10070000Y-10630000D03*
X10070000Y-11070000D03*
X10070000Y-10830000D03*
X11370000Y-11210000D03*
X11610000Y-11210000D03*
X11850000Y-11210000D03*
X12030000Y-10470000D03*
X11210000Y-10470000D03*
D17*
X11850000Y-10270000D03*
X11530000Y-10270000D03*
D10*
X13230000Y-10290000D03*
X6250000Y-9540000D03*
X5660000Y-9550000D03*
X5900000Y-8890000D03*
X6500000Y-6550000D03*
X6453750Y-6003750D03*
D17*
X5040000Y-27400000D03*
D10*
X12450000Y-25010000D03*
X12450000Y-25770000D03*
X13188750Y-26128750D03*
X4650000Y-10700000D03*
X7700000Y-11125000D03*
X4625000Y-11125000D03*
X7725000Y-10675000D03*
X5475000Y-27825000D03*
X12200000Y-24275000D03*
D17*
X7100000Y-25175000D03*
D10*
X5550000Y-23350000D03*
X4450000Y-19125000D03*
X7175000Y-20650000D03*
X11878750Y-26621250D03*
X11625000Y-26325000D03*
X11300000Y-26300000D03*
X10675000Y-26325000D03*
X5725000Y-11475000D03*
D17*
X11955000Y-14980000D03*
D10*
X11475000Y-14150000D03*
X10800000Y-14650000D03*
X10293999Y-16000000D03*
X11000000Y-15800000D03*
X6450000Y-11575000D03*
D17*
X12200000Y-17475000D03*
X12075000Y-17475000D03*
X11950000Y-17375000D03*
X12075000Y-17375000D03*
X12200000Y-17375000D03*
X12200000Y-17275000D03*
X12075000Y-17275000D03*
X11950000Y-17275000D03*
D10*
X10463000Y-17717000D03*
D17*
X11955000Y-17480000D03*
D10*
X10800000Y-17150000D03*
X10293999Y-18500000D03*
X11000000Y-18300000D03*
D17*
X12200000Y-19975000D03*
X12075000Y-19975000D03*
X11950000Y-19875000D03*
X12075000Y-19875000D03*
X12200000Y-19875000D03*
X12200000Y-19775000D03*
X12075000Y-19775000D03*
X11950000Y-19775000D03*
D10*
X10463000Y-20217000D03*
D17*
X11955000Y-19980000D03*
D10*
X10800000Y-19650000D03*
X10293999Y-21000000D03*
X11000000Y-20800000D03*
D17*
X12200000Y-22475000D03*
X12075000Y-22475000D03*
X11950000Y-22375000D03*
X12075000Y-22375000D03*
X12200000Y-22375000D03*
X12200000Y-22275000D03*
X12075000Y-22275000D03*
X11950000Y-22275000D03*
D10*
X10463000Y-22717000D03*
D17*
X11955000Y-22480000D03*
D10*
X10800000Y-22150000D03*
X10293999Y-23500000D03*
X11000000Y-23300000D03*
X11675000Y-16450000D03*
X11675000Y-18950000D03*
X11675000Y-21450000D03*
D17*
X6025000Y-10750000D03*
D10*
X9031002Y-19825000D03*
X6823503Y-16867612D03*
D17*
X8075000Y-20054300D03*
X8102805Y-20772195D03*
X9040002Y-20275000D03*
X7800000Y-20625000D03*
D10*
X7400000Y-19225000D03*
X6875000Y-19575000D03*
D17*
X9025000Y-21100000D03*
D10*
X6075000Y-24025000D03*
X6603750Y-23803750D03*
X5800000Y-24075000D03*
X5575000Y-24350000D03*
X5575000Y-24500000D03*
X5800000Y-25675000D03*
X5575000Y-25975000D03*
X5800000Y-26275000D03*
X6100000Y-26325000D03*
X8150000Y-26300000D03*
X8235082Y-26185082D03*
X8225000Y-24125000D03*
X8475000Y-24200000D03*
X8059000Y-24075000D03*
X5725000Y-25575000D03*
D17*
X6200000Y-24375000D03*
X6200000Y-24475001D03*
X6325000Y-24250001D03*
X6575000Y-24250001D03*
X6775000Y-24249999D03*
X7175000Y-24250000D03*
X7325000Y-24250000D03*
X8025001Y-24500000D03*
X7625000Y-24250000D03*
X8025000Y-24950000D03*
X8025000Y-25550000D03*
X7775000Y-26100000D03*
X7525000Y-26100000D03*
X7025000Y-26100000D03*
X6475000Y-26100000D03*
X6900000Y-26543000D03*
D10*
X5575000Y-24633999D03*
X7550000Y-23650000D03*
X7700000Y-23650000D03*
D17*
X5675000Y-25450000D03*
X5400000Y-25825000D03*
X5361369Y-25113631D03*
X5450000Y-24850000D03*
D10*
X6175002Y-23775000D03*
D17*
X7675000Y-26750000D03*
X7984170Y-26684170D03*
X8425000Y-26450000D03*
X5875000Y-7050000D03*
X6325000Y-7050000D03*
X5800000Y-7325000D03*
X6275000Y-7325000D03*
X7125000Y-7350000D03*
X7200000Y-7075000D03*
X7700000Y-7075000D03*
X7625000Y-7350000D03*
X7650000Y-18925000D03*
X8725000Y-20500000D03*
X8500000Y-20700000D03*
X7550000Y-21875000D03*
X8975000Y-20700000D03*
X8400000Y-19725000D03*
D10*
X5900000Y-9900000D03*
D17*
X5768000Y-10450000D03*
X6425000Y-10675000D03*
X6650000Y-10525000D03*
X6350000Y-10875001D03*
X6000000Y-11075000D03*
X6075000Y-11000000D03*
X6921250Y-11478750D03*
X6650000Y-11500000D03*
X5950000Y-22325000D03*
X5875000Y-23600000D03*
D10*
X4625000Y-11825000D03*
X5600000Y-12400000D03*
D17*
X8300000Y-12200000D03*
X8275000Y-11825000D03*
X7300000Y-11825000D03*
X5175000Y-8582000D03*
X5700000Y-7675000D03*
X4550000Y-10400000D03*
X4650000Y-10400000D03*
D10*
X5578330Y-11721670D03*
X13795000Y-14345000D03*
X13795000Y-14165000D03*
X13090000Y-7690000D03*
X13005000Y-7775000D03*
X13050000Y-8425000D03*
X11600000Y-15825000D03*
X11625000Y-16025000D03*
X13795000Y-16845000D03*
X13795000Y-16665000D03*
X11600000Y-18325000D03*
X11625000Y-18525000D03*
X13795000Y-19345000D03*
X13795000Y-19165000D03*
X11600000Y-20825000D03*
X11625000Y-21025000D03*
X13795000Y-21845000D03*
X13795000Y-21665000D03*
X11600000Y-23325000D03*
X11625000Y-23525000D03*
X13125000Y-6975000D03*
X12955000Y-14165000D03*
X12955000Y-14345000D03*
X13690000Y-8270000D03*
X13690000Y-8410000D03*
X13075000Y-8675000D03*
X13100000Y-11325000D03*
X12955000Y-16665000D03*
X12955000Y-16845000D03*
X12955000Y-19165000D03*
X12955000Y-19345000D03*
X12955000Y-21665000D03*
X12955000Y-21845000D03*
X13650000Y-13950000D03*
X7010000Y-9090000D03*
X6860000Y-6400000D03*
X4155000Y-9710000D03*
X4570000Y-7430000D03*
X4370000Y-6430000D03*
X8590000Y-6690000D03*
X8750000Y-9890000D03*
X5660000Y-9090000D03*
X5510000Y-6400000D03*
X8750000Y-10850000D03*
D17*
X8218750Y-20481250D03*
X8425000Y-20275000D03*
X6700000Y-7350000D03*
X7331250Y-7518750D03*
X5350000Y-7325000D03*
X8325000Y-18675000D03*
X8950000Y-21050000D03*
X8300000Y-19825000D03*
X6050000Y-7475000D03*
D10*
X7790000Y-5170000D03*
X11410000Y-6880000D03*
X6475000Y-5175000D03*
D17*
X8875000Y-20225000D03*
D10*
X5560000Y-23060000D03*
X10190000Y-15510000D03*
X5095000Y-27635000D03*
X12425000Y-26100000D03*
X4850000Y-18725000D03*
X10190000Y-18010000D03*
X10190000Y-20510000D03*
X10190000Y-23010000D03*
X8000000Y-23125000D03*
D17*
X7100001Y-21975000D03*
D10*
X11125000Y-14250000D03*
X10975000Y-16750000D03*
X10975000Y-19250000D03*
X10975000Y-21750000D03*
X6025000Y-24150000D03*
X5675000Y-24850000D03*
D17*
X6375000Y-26100000D03*
X6178750Y-26546250D03*
X5975000Y-26175000D03*
X6825000Y-26100000D03*
X7675000Y-26050000D03*
X9455000Y-23580000D03*
D10*
X6960000Y-23150000D03*
D17*
X8475000Y-24550000D03*
X8475000Y-24075000D03*
X7700000Y-24275000D03*
X7100000Y-23825000D03*
X8350000Y-25950000D03*
X8475000Y-25700000D03*
X8000000Y-24250000D03*
X8450000Y-25050000D03*
X6175000Y-25400000D03*
X6175001Y-25800000D03*
X5025001Y-25175000D03*
X5025000Y-25950000D03*
X4725000Y-24700000D03*
X4850000Y-24000000D03*
X6446250Y-23803750D03*
X5980000Y-27170000D03*
X8225000Y-26825000D03*
X8096250Y-26550001D03*
X6375000Y-22425000D03*
X6425000Y-23150000D03*
D10*
X5600000Y-12175000D03*
X4425000Y-10650000D03*
X5850000Y-20010000D03*
X5730000Y-21310000D03*
X6275000Y-18950000D03*
X7685000Y-17315000D03*
X8278750Y-17751250D03*
X7050000Y-16710000D03*
X6655500Y-17360000D03*
D17*
X8200000Y-18650000D03*
X8850000Y-18025000D03*
X8775000Y-23800000D03*
X8725000Y-18025000D03*
D10*
X7270000Y-21690000D03*
X9355000Y-9685000D03*
X9885000Y-7710000D03*
D17*
X12975000Y-5700000D03*
X12975000Y-5500000D03*
X12975000Y-5300000D03*
X12975000Y-5400000D03*
X12975000Y-5600000D03*
X12875000Y-5700000D03*
X12875000Y-5500000D03*
X12875000Y-5300000D03*
X12875000Y-5400000D03*
X12875000Y-5600000D03*
X12775000Y-5700000D03*
X12775000Y-5500000D03*
X12775000Y-5300000D03*
X12775000Y-5400000D03*
X12775000Y-5600000D03*
X12675000Y-5700000D03*
X12675000Y-5500000D03*
X12675000Y-5300000D03*
X12675000Y-5400000D03*
X12675000Y-5600000D03*
X12575000Y-5700000D03*
X12575000Y-5500000D03*
X12575000Y-5300000D03*
X12575000Y-5400000D03*
X12575000Y-5600000D03*
X12475000Y-5700000D03*
X12475000Y-5600000D03*
X12475000Y-5500000D03*
X12475000Y-5400000D03*
X12475000Y-5300000D03*
D10*
X9375000Y-12165000D03*
X13290000Y-24490000D03*
X9275000Y-27300000D03*
D17*
X7975000Y-27525000D03*
X9643000Y-27618000D03*
X6725000Y-27050000D03*
X7875000Y-27525000D03*
D10*
X8450000Y-27050000D03*
X8100000Y-11275000D03*
X10075000Y-23950000D03*
D17*
X8225000Y-12125000D03*
X7974999Y-27650000D03*
X9725000Y-27550000D03*
X6750000Y-26950000D03*
X9800000Y-27475000D03*
X6800000Y-26875000D03*
X7875000Y-27655155D03*
X9875000Y-27400000D03*
X6875000Y-26825000D03*
D10*
X8625000Y-21950000D03*
D17*
X7275000Y-11407000D03*
D10*
X8500000Y-21950000D03*
D17*
X7343000Y-11450000D03*
X8425000Y-12350000D03*
D10*
X8350000Y-22025001D03*
D17*
X7400000Y-11518995D03*
X8325000Y-12450000D03*
X5225000Y-25825000D03*
X5162500Y-25487500D03*
D10*
X6575000Y-18885000D03*
D17*
X7950000Y-24575000D03*
D10*
X6750000Y-23100000D03*
D17*
X4975000Y-11298995D03*
D10*
X7250000Y-23100000D03*
D17*
X4899131Y-11273976D03*
D10*
X12674999Y-11799999D03*
D17*
X7750000Y-26825000D03*
X7400000Y-23075000D03*
X4842970Y-11219846D03*
D10*
X6890000Y-8490001D03*
D17*
X6250000Y-10450000D03*
D10*
X7825000Y-8150000D03*
D17*
X6772500Y-11152500D03*
D10*
X6800000Y-8625000D03*
X6810000Y-9210000D03*
X7775000Y-9100000D03*
D17*
X6325000Y-24450000D03*
X4375000Y-23550000D03*
D10*
X6950000Y-9190000D03*
D17*
X6326305Y-24529305D03*
X4300000Y-23600000D03*
X6025000Y-10600000D03*
X5850000Y-7975000D03*
D10*
X6475000Y-8150000D03*
D17*
X6624999Y-11100000D03*
X5450000Y-8625000D03*
X5460000Y-9210000D03*
D10*
X6425000Y-9100000D03*
D17*
X6324865Y-24607292D03*
X4225000Y-23650000D03*
X5600000Y-9190000D03*
X6325000Y-24700000D03*
X4150000Y-23700000D03*
X5925000Y-10650000D03*
X6497500Y-11022500D03*
X4955000Y-8595000D03*
X5800000Y-8400000D03*
D10*
X4025000Y-9050000D03*
D17*
X4450000Y-9775000D03*
X4355000Y-9130000D03*
X6326305Y-24779305D03*
X4075000Y-23750000D03*
X4900000Y-9550000D03*
D10*
X4000000Y-9675000D03*
D17*
X6324865Y-24857292D03*
X4000000Y-23800000D03*
D10*
X5250000Y-27075000D03*
D17*
X6200000Y-25600000D03*
D10*
X10826001Y-15230000D03*
D17*
X8000000Y-25750000D03*
D10*
X10826001Y-17730000D03*
D17*
X7925000Y-25800000D03*
D10*
X10826001Y-20230000D03*
D17*
X7925000Y-25925000D03*
D10*
X10826001Y-22730000D03*
D17*
X8000000Y-25975000D03*
D10*
X10350000Y-27674999D03*
X5670000Y-19710000D03*
X5890000Y-18490000D03*
X10171497Y-27100000D03*
X12600000Y-26175000D03*
X10050000Y-27125000D03*
X12250000Y-26075000D03*
X10050000Y-27025000D03*
X12159442Y-26204869D03*
D17*
X9925000Y-16650000D03*
X9025000Y-23725000D03*
X9025000Y-23625000D03*
X9475000Y-17775000D03*
X9025000Y-23525000D03*
X9500000Y-19975000D03*
X9025000Y-23425000D03*
X9525000Y-22550000D03*
D10*
X6300000Y-21225000D03*
D17*
X7975000Y-24425000D03*
X7767180Y-22807820D03*
X6825000Y-19300000D03*
X8025000Y-24650000D03*
X8100000Y-21075000D03*
X7900000Y-20650000D03*
X6500000Y-24325000D03*
X5625000Y-26600000D03*
X7100000Y-24325000D03*
X5850000Y-23875000D03*
X6703000Y-24325000D03*
X6100000Y-26625000D03*
X7375000Y-24325000D03*
X6375000Y-26600000D03*
X6975000Y-24325000D03*
X6375000Y-23625000D03*
X7050000Y-18400000D03*
X6125000Y-22775000D03*
X6625000Y-24325000D03*
X5850000Y-26600000D03*
X5774999Y-22800000D03*
D18*
X12629000Y-26779000D02*
X12629000Y-26750000D01*
X13828000Y-25647000D02*
X13350000Y-26125000D01*
X13828000Y-25639000D02*
X13828000Y-25647000D01*
X13350000Y-26125000D02*
X13350000Y-26525000D01*
X13350000Y-26525000D02*
X12925000Y-26950000D01*
X12925000Y-26950000D02*
X12800000Y-26950000D01*
X12800000Y-26950000D02*
X12629000Y-26779000D01*
D19*
X8800000Y-20125000D02*
X8875000Y-20050000D01*
X6662956Y-27312043D02*
X6662956Y-26889782D01*
X8875000Y-24387099D02*
X8875000Y-21900000D01*
X7025913Y-27675000D02*
X6662956Y-27312043D01*
X7261001Y-25591738D02*
X8019736Y-24833003D01*
X7725000Y-27675000D02*
X7025913Y-27675000D01*
X7800000Y-27750000D02*
X7725000Y-27675000D01*
X6662956Y-26889782D02*
X6844736Y-26708003D01*
X7920000Y-28125000D02*
X7800000Y-28005000D01*
X7800000Y-28005000D02*
X7800000Y-27750000D01*
X6844736Y-26708003D02*
X6972096Y-26708003D01*
X6972096Y-26708003D02*
X7261001Y-26419098D01*
X7261001Y-26419098D02*
X7261001Y-25591738D01*
X8875000Y-21900000D02*
X8800000Y-21825000D01*
X8019736Y-24833003D02*
X8429097Y-24833003D01*
X8429097Y-24833003D02*
X8875000Y-24387099D01*
X8800000Y-21825000D02*
X8800000Y-20125000D01*
X8875000Y-18125000D02*
X8875000Y-18050000D01*
X8875000Y-20050000D02*
X8875000Y-18125000D01*
X8875000Y-18050000D02*
X8850000Y-18025000D01*
X8775000Y-21925000D02*
X8775000Y-23800000D01*
X8600000Y-20250000D02*
X8600000Y-21750000D01*
X8600000Y-21750000D02*
X8775000Y-21925000D01*
X8825000Y-20025000D02*
X8600000Y-20250000D01*
X8725000Y-18025000D02*
X8825000Y-18125000D01*
X8825000Y-18125000D02*
X8825000Y-20025000D01*
D20*
X9311800Y-27300000D02*
X9275000Y-27300000D01*
X9375000Y-13525000D02*
X9975000Y-14125000D01*
X9375000Y-12165000D02*
X9375000Y-13525000D01*
X9975000Y-14125000D02*
X10550000Y-14125000D01*
X10550000Y-14125000D02*
X11375000Y-14950000D01*
X11375000Y-14950000D02*
X11375000Y-25236800D01*
X11375000Y-25236800D02*
X9311800Y-27300000D01*
X8250000Y-11040000D02*
X9375000Y-12165000D01*
X8250000Y-8950000D02*
X8250000Y-11040000D01*
X8600000Y-6100000D02*
X8250000Y-6450000D01*
X8600000Y-4825000D02*
X8600000Y-6100000D01*
X8250000Y-6450000D02*
X8250000Y-8000000D01*
X8075000Y-8175000D02*
X8075000Y-8775000D01*
X8250000Y-8000000D02*
X8075000Y-8175000D01*
X8075000Y-8775000D02*
X8250000Y-8950000D01*
D19*
X8549999Y-27525000D02*
X7975000Y-27525000D01*
X9444000Y-28125000D02*
X9325000Y-28006000D01*
X9325000Y-28006000D02*
X9325000Y-27795860D01*
X8708003Y-27683003D02*
X8549999Y-27525000D01*
X9325000Y-27795860D02*
X9212143Y-27683003D01*
X9212143Y-27683003D02*
X8708003Y-27683003D01*
D21*
X10421000Y-27871000D02*
X10460000Y-27871000D01*
X9643000Y-27618000D02*
X10168000Y-27618000D01*
X10168000Y-27618000D02*
X10421000Y-27871000D01*
D19*
X9643000Y-27618000D02*
X9613997Y-27647002D01*
X7125000Y-27450000D02*
X6725000Y-27050000D01*
X8525913Y-27450000D02*
X7125000Y-27450000D01*
X8722915Y-27647002D02*
X8525913Y-27450000D01*
X9613997Y-27647002D02*
X8722915Y-27647002D01*
X8529000Y-27582000D02*
X7932000Y-27582000D01*
X7932000Y-27582000D02*
X7875000Y-27525000D01*
X8673500Y-27726500D02*
X8529000Y-27582000D01*
X9079000Y-27760000D02*
X9190000Y-27871000D01*
X8673500Y-27726500D02*
X9045500Y-27726500D01*
X9045500Y-27726500D02*
X9079000Y-27760000D01*
D20*
X9011800Y-27050000D02*
X8450000Y-27050000D01*
X10324999Y-25736801D02*
X9011800Y-27050000D01*
X9100000Y-12275000D02*
X8100000Y-11275000D01*
X10324999Y-25736801D02*
X11156000Y-24905800D01*
X11156000Y-15231000D02*
X10300000Y-14375000D01*
X10300000Y-14375000D02*
X9863872Y-14375000D01*
X9863872Y-14375000D02*
X9100000Y-13611128D01*
X9100000Y-13611128D02*
X9100000Y-12275000D01*
D19*
X11137000Y-23950000D02*
X11156000Y-23969000D01*
X10075000Y-23950000D02*
X11137000Y-23950000D01*
D20*
X11156000Y-24905800D02*
X11156000Y-23969000D01*
X11156000Y-23969000D02*
X11156000Y-15231000D01*
D19*
X8465002Y-27654002D02*
X7979002Y-27654002D01*
X8682000Y-27871000D02*
X8465002Y-27654002D01*
X7979002Y-27654002D02*
X7974999Y-27650000D01*
D21*
X10647000Y-27550000D02*
X10968000Y-27871000D01*
X9725000Y-27550000D02*
X10647000Y-27550000D01*
D19*
X8540825Y-27413999D02*
X8737827Y-27611001D01*
X8737827Y-27611001D02*
X9538999Y-27611001D01*
X6750000Y-26950000D02*
X7213999Y-27413999D01*
X7213999Y-27413999D02*
X8540825Y-27413999D01*
X9538999Y-27611001D02*
X9600000Y-27550000D01*
X9600000Y-27550000D02*
X9725000Y-27550000D01*
D21*
X10826000Y-27475000D02*
X11222000Y-27871000D01*
X9800000Y-27475000D02*
X10826000Y-27475000D01*
D19*
X9800000Y-27475000D02*
X9600000Y-27475000D01*
X9600000Y-27475000D02*
X9500000Y-27575000D01*
X9500000Y-27575000D02*
X8752739Y-27575000D01*
X8752739Y-27575000D02*
X8552739Y-27375000D01*
X8552739Y-27375000D02*
X7300000Y-27375000D01*
X7300000Y-27375000D02*
X6800000Y-26875000D01*
X8428000Y-27871000D02*
X8264000Y-27707000D01*
X8264000Y-27707000D02*
X7926845Y-27707000D01*
X7926845Y-27707000D02*
X7875000Y-27655155D01*
D21*
X11005000Y-27400000D02*
X11476000Y-27871000D01*
X9875000Y-27400000D02*
X11005000Y-27400000D01*
D19*
X9875000Y-27400000D02*
X9650000Y-27400000D01*
X7388999Y-27338999D02*
X6875000Y-26825000D01*
X8567651Y-27338999D02*
X7388999Y-27338999D01*
X8767651Y-27538999D02*
X8567651Y-27338999D01*
X9485088Y-27538999D02*
X8767651Y-27538999D01*
X9650000Y-27400000D02*
X9624087Y-27400000D01*
X9624087Y-27400000D02*
X9485088Y-27538999D01*
X8664573Y-21989573D02*
X8625000Y-21950000D01*
X7013999Y-27713999D02*
X6622002Y-27322002D01*
X7412000Y-28088000D02*
X7534000Y-27966000D01*
X7488999Y-27713999D02*
X7013999Y-27713999D01*
X6622002Y-26879824D02*
X6829824Y-26672002D01*
X7534000Y-27759000D02*
X7488999Y-27713999D01*
X7534000Y-27966000D02*
X7534000Y-27759000D01*
X7412000Y-28125000D02*
X7412000Y-28088000D01*
X6622002Y-27322002D02*
X6622002Y-26879824D01*
X7225000Y-26404186D02*
X7225000Y-25576826D01*
X8650000Y-22150000D02*
X8664573Y-22135427D01*
X6957184Y-26672002D02*
X7225000Y-26404186D01*
X6829824Y-26672002D02*
X6957184Y-26672002D01*
X7225000Y-25576826D02*
X8004824Y-24797002D01*
X8414184Y-24797002D02*
X8650000Y-24561186D01*
X8004824Y-24797002D02*
X8414184Y-24797002D01*
X8664573Y-22135427D02*
X8664573Y-21989573D01*
X8650000Y-24561186D02*
X8650000Y-22150000D01*
X7221592Y-20546592D02*
X8625000Y-21950000D01*
X7221592Y-17228408D02*
X7221592Y-20546592D01*
X8025000Y-16425000D02*
X7221592Y-17228408D01*
X7275000Y-11407000D02*
X7289000Y-11393000D01*
X7289000Y-11393000D02*
X7602360Y-11393000D01*
X7602360Y-11393000D02*
X8511001Y-12301641D01*
X8511001Y-12301641D02*
X8511001Y-14893823D01*
X8511001Y-14893823D02*
X8025000Y-15379824D01*
X8025000Y-15379824D02*
X8025000Y-16425000D01*
X7499087Y-11500000D02*
X7924543Y-11925456D01*
X7924543Y-11925456D02*
X8011587Y-12012500D01*
X8011587Y-12012500D02*
X8012500Y-12012500D01*
X7250000Y-27750000D02*
X7275000Y-27775000D01*
X6998193Y-27750000D02*
X7250000Y-27750000D01*
X6586001Y-27337808D02*
X6998193Y-27750000D01*
X6814912Y-26636001D02*
X6586001Y-26864912D01*
X6942272Y-26636001D02*
X6814912Y-26636001D01*
X7186001Y-26392272D02*
X6942272Y-26636001D01*
X7275000Y-28008000D02*
X7158000Y-28125000D01*
X6586001Y-26864912D02*
X6586001Y-27337808D01*
X8500000Y-21950000D02*
X8600000Y-22050000D01*
X8600000Y-22050000D02*
X8600000Y-24560273D01*
X7275000Y-27775000D02*
X7275000Y-28008000D01*
X8600000Y-24560273D02*
X8399272Y-24761001D01*
X8399272Y-24761001D02*
X7989912Y-24761001D01*
X7989912Y-24761001D02*
X7186001Y-25564912D01*
X7186001Y-25564912D02*
X7186001Y-26392272D01*
X7499087Y-11500000D02*
X7449087Y-11450000D01*
X7449087Y-11450000D02*
X7343000Y-11450000D01*
X8387043Y-12387956D02*
X8425000Y-12350000D01*
X7924543Y-11925456D02*
X8387043Y-12387956D01*
X8475000Y-14878911D02*
X8475000Y-12475913D01*
X7974543Y-15379367D02*
X8475000Y-14878911D01*
X7974543Y-16424543D02*
X7974543Y-15379367D01*
X7185591Y-17213496D02*
X7974543Y-16424543D01*
X8475000Y-12475913D02*
X8387043Y-12387956D01*
X7185591Y-20562911D02*
X7185591Y-17213496D01*
X8500000Y-21877320D02*
X7185591Y-20562911D01*
X8500000Y-21950000D02*
X8500000Y-21877320D01*
X8401160Y-21973840D02*
X8350000Y-22025000D01*
X8350000Y-22025000D02*
X8350000Y-22025001D01*
X8550000Y-22122680D02*
X8401160Y-21973840D01*
X8550000Y-24559360D02*
X8550000Y-22122680D01*
X8384360Y-24725000D02*
X8550000Y-24559360D01*
X7975000Y-24725000D02*
X8384360Y-24725000D01*
X7150000Y-25550000D02*
X7975000Y-24725000D01*
X6904000Y-28125000D02*
X7025000Y-28004000D01*
X7025000Y-27827720D02*
X6550000Y-27352720D01*
X7025000Y-28004000D02*
X7025000Y-27827720D01*
X6550000Y-27352720D02*
X6550000Y-26850000D01*
X6927360Y-26600000D02*
X7150000Y-26377360D01*
X6550000Y-26850000D02*
X6800000Y-26600000D01*
X7150000Y-26377360D02*
X7150000Y-25550000D01*
X6800000Y-26600000D02*
X6927360Y-26600000D01*
X7861587Y-11913413D02*
X7467169Y-11518995D01*
X7467169Y-11518995D02*
X7400000Y-11518995D01*
X8361587Y-12413413D02*
X8325000Y-12450000D01*
X8361587Y-12413413D02*
X7861587Y-11913413D01*
X7076160Y-20648840D02*
X8401160Y-21973840D01*
X7076160Y-20548840D02*
X7076160Y-20648840D01*
X7149590Y-17198584D02*
X7149590Y-20475410D01*
X7925000Y-16423174D02*
X7149590Y-17198584D01*
X7149590Y-20475410D02*
X7076160Y-20548840D01*
X7925000Y-15377998D02*
X7925000Y-16423174D01*
X8438999Y-14863999D02*
X7925000Y-15377998D01*
X8438999Y-12490825D02*
X8438999Y-14863999D01*
X8361587Y-12413413D02*
X8438999Y-12490825D01*
X4950000Y-25550000D02*
X5225000Y-25825000D01*
X4250000Y-25429000D02*
X4371000Y-25550000D01*
X4371000Y-25550000D02*
X4950000Y-25550000D01*
X4975000Y-25300000D02*
X5162500Y-25487500D01*
X4250000Y-25175000D02*
X4375000Y-25300000D01*
X4375000Y-25300000D02*
X4975000Y-25300000D01*
X8125000Y-22750000D02*
X6336000Y-20961000D01*
X6336000Y-20961000D02*
X6336000Y-19124000D01*
X6336000Y-19124000D02*
X6350000Y-19110000D01*
X6350000Y-19110000D02*
X6575000Y-18885000D01*
X8125000Y-24484361D02*
X8125000Y-24450000D01*
X8034361Y-24575000D02*
X8125000Y-24484361D01*
X7950000Y-24575000D02*
X8034361Y-24575000D01*
X8125000Y-24450000D02*
X8125000Y-22750000D01*
X6750000Y-23000000D02*
X6750000Y-23100000D01*
X6750000Y-23000000D02*
X5162500Y-21412500D01*
X5162500Y-21412500D02*
X5150000Y-21400000D01*
X5348995Y-11298995D02*
X4975000Y-11298995D01*
X5925000Y-18249087D02*
X5925000Y-11875000D01*
X5162500Y-21412500D02*
X5162500Y-19011587D01*
X5162500Y-19011587D02*
X5925000Y-18249087D01*
X5925000Y-11875000D02*
X5348995Y-11298995D01*
X7250000Y-23100000D02*
X5961001Y-21811001D01*
X5961001Y-11860088D02*
X5342908Y-11241994D01*
X5342908Y-11241994D02*
X4931113Y-11241994D01*
X4931113Y-11241994D02*
X4899131Y-11273976D01*
X5961001Y-21811001D02*
X5961001Y-11860088D01*
X8125000Y-27200000D02*
X7750000Y-26825000D01*
X12774999Y-11899999D02*
X12774999Y-24050001D01*
X12774999Y-24050001D02*
X9375000Y-27450000D01*
X9225000Y-27450000D02*
X8975000Y-27200000D01*
X12674999Y-11799999D02*
X12774999Y-11899999D01*
X9375000Y-27450000D02*
X9225000Y-27450000D01*
X8975000Y-27200000D02*
X8125000Y-27200000D01*
X5357820Y-11205993D02*
X4856823Y-11205993D01*
X6000000Y-21675000D02*
X6000000Y-11848174D01*
X4856823Y-11205993D02*
X4842970Y-11219846D01*
X6000000Y-11848174D02*
X5357820Y-11205993D01*
X7400000Y-23075000D02*
X6000000Y-21675000D01*
X6180000Y-9573600D02*
X6250000Y-9643600D01*
X6890000Y-8490001D02*
X6734999Y-8490001D01*
X6734999Y-8490001D02*
X6180000Y-9045000D01*
X6250000Y-9643600D02*
X6250000Y-10450000D01*
X6180000Y-9045000D02*
X6180000Y-9573600D01*
X6772500Y-11110703D02*
X6772500Y-11152500D01*
X7414999Y-8560001D02*
X6838601Y-8560001D01*
X6355000Y-10693203D02*
X6772500Y-11110703D01*
X7825000Y-8150000D02*
X7414999Y-8560001D01*
X6838601Y-8560001D02*
X6833600Y-8555000D01*
X6833600Y-8555000D02*
X6766400Y-8555000D01*
X6766400Y-8555000D02*
X6355000Y-8966400D01*
X6355000Y-8966400D02*
X6355000Y-10693203D01*
D21*
X6800000Y-8625000D02*
X6800000Y-9200000D01*
X6800000Y-9200000D02*
X6810000Y-9210000D01*
D19*
X6309361Y-24450000D02*
X6325000Y-24450000D01*
X6059361Y-24700000D02*
X6309361Y-24450000D01*
X5175000Y-24700000D02*
X6059361Y-24700000D01*
X4375000Y-23900000D02*
X5175000Y-24700000D01*
X4375000Y-23550000D02*
X4375000Y-23575000D01*
X4375000Y-23550000D02*
X4375000Y-23900000D01*
X4375000Y-18354566D02*
X5875000Y-16854566D01*
X5687845Y-11162845D02*
X5850000Y-11325000D01*
X5850000Y-11325000D02*
X7675000Y-11325000D01*
X5563583Y-11787670D02*
X5289496Y-11787670D01*
X4817484Y-11162845D02*
X5687845Y-11162845D01*
X5875000Y-16854566D02*
X5875000Y-12099086D01*
X7675000Y-11325000D02*
X7850000Y-11150000D01*
X7850000Y-9175000D02*
X7775000Y-9100000D01*
X7850000Y-11150000D02*
X7850000Y-9175000D01*
X4775000Y-11273174D02*
X4775000Y-11205329D01*
X5289496Y-11787670D02*
X4775000Y-11273174D01*
X5875000Y-12099086D02*
X5563583Y-11787670D01*
X4375000Y-23550000D02*
X4375000Y-18354566D01*
X4775000Y-11205329D02*
X4817484Y-11162845D01*
X6315101Y-24529305D02*
X6326305Y-24529305D01*
X6105408Y-24738999D02*
X6315101Y-24529305D01*
X5138999Y-24738999D02*
X6105408Y-24738999D01*
X4300000Y-23900000D02*
X5138999Y-24738999D01*
X4300000Y-23625000D02*
X4300000Y-23600000D01*
X4300000Y-23625000D02*
X4300000Y-23900000D01*
X4738999Y-11190417D02*
X4802572Y-11126844D01*
X4300000Y-23625000D02*
X4300000Y-18378653D01*
X5838999Y-16839654D02*
X5838999Y-12113999D01*
X7650000Y-11077320D02*
X7650000Y-9890000D01*
X5838999Y-12113999D02*
X5548671Y-11823671D01*
X5548671Y-11823671D02*
X5274584Y-11823671D01*
X7452320Y-11275000D02*
X7650000Y-11077320D01*
X5726844Y-11126844D02*
X5875000Y-11275000D01*
X4802572Y-11126844D02*
X5726844Y-11126844D01*
X4300000Y-18378653D02*
X5838999Y-16839654D01*
X7650000Y-9890000D02*
X6950000Y-9190000D01*
X5875000Y-11275000D02*
X7452320Y-11275000D01*
X5274584Y-11823671D02*
X4738999Y-11288086D01*
X4738999Y-11288086D02*
X4738999Y-11190417D01*
X6025000Y-10050000D02*
X6025000Y-10600000D01*
X5975000Y-10000000D02*
X6025000Y-10050000D01*
X5975000Y-8861400D02*
X5975000Y-10000000D01*
X5681800Y-8568200D02*
X5681800Y-8143200D01*
X5681800Y-8568200D02*
X5975000Y-8861400D01*
X5681800Y-8143200D02*
X5850000Y-7975000D01*
X6624999Y-11100000D02*
X6624999Y-11052319D01*
X6125000Y-8500000D02*
X6475000Y-8150000D01*
X6148200Y-10575520D02*
X6148200Y-9998200D01*
X6624999Y-11052319D02*
X6148200Y-10575520D01*
X6125000Y-9975000D02*
X6125000Y-8500000D01*
X6148200Y-9998200D02*
X6125000Y-9975000D01*
D21*
X5450000Y-8625000D02*
X5450000Y-9200000D01*
X5450000Y-9200000D02*
X5460000Y-9210000D01*
D19*
X6157158Y-24775000D02*
X5100000Y-24775000D01*
X5100000Y-24775000D02*
X4225000Y-23900000D01*
X4700000Y-11300000D02*
X4700000Y-11173174D01*
X5765843Y-11090843D02*
X5900000Y-11225000D01*
X5900000Y-11225000D02*
X7425000Y-11225000D01*
X7425000Y-11225000D02*
X7605000Y-11045000D01*
X7605000Y-10280000D02*
X6425000Y-9100000D01*
X5533759Y-11859672D02*
X5259672Y-11859672D01*
X6324865Y-24607292D02*
X6157158Y-24775000D01*
X4782331Y-11090843D02*
X5765843Y-11090843D01*
X4225000Y-18402740D02*
X5802997Y-16824742D01*
X4700000Y-11173174D02*
X4782331Y-11090843D01*
X5802997Y-12128911D02*
X5533759Y-11859672D01*
X7605000Y-11045000D02*
X7605000Y-10280000D01*
X5802997Y-16824742D02*
X5802997Y-12128911D01*
X5259672Y-11859672D02*
X4700000Y-11300000D01*
X4225000Y-23900000D02*
X4225000Y-18402740D01*
X6300000Y-24700000D02*
X6075000Y-24925000D01*
X6075000Y-24925000D02*
X5199087Y-24925000D01*
X5199087Y-24925000D02*
X4150000Y-23875913D01*
X6325000Y-24700000D02*
X6300000Y-24700000D01*
X4150000Y-23875913D02*
X4150000Y-23700000D01*
X4150000Y-23700000D02*
X4150000Y-18426826D01*
X4075000Y-11077739D02*
X4075000Y-10715000D01*
X4075000Y-10715000D02*
X5600000Y-9190000D01*
X5766996Y-16809830D02*
X5766996Y-12769735D01*
X4150000Y-18426826D02*
X5766996Y-16809830D01*
X5766996Y-12769735D02*
X4075000Y-11077739D01*
X5453600Y-8525000D02*
X5825000Y-8896400D01*
X5825000Y-10550000D02*
X5925000Y-10650000D01*
X5825000Y-8896400D02*
X5825000Y-10550000D01*
X6025000Y-8775000D02*
X6025000Y-9975000D01*
X6397500Y-11022500D02*
X6497500Y-11022500D01*
X6100000Y-10050000D02*
X6100000Y-10725000D01*
X6100000Y-10725000D02*
X6397500Y-11022500D01*
X6025000Y-9975000D02*
X6100000Y-10050000D01*
X5453600Y-8525000D02*
X5025000Y-8525000D01*
X5025000Y-8525000D02*
X4955000Y-8595000D01*
X5825000Y-8425000D02*
X5800000Y-8400000D01*
X5825000Y-8575000D02*
X5825000Y-8425000D01*
X5825000Y-8575000D02*
X6025000Y-8775000D01*
X4450000Y-9775000D02*
X4450000Y-9225000D01*
X4450000Y-9225000D02*
X4355000Y-9130000D01*
X4025000Y-11078652D02*
X4025000Y-10425000D01*
X5730995Y-12784647D02*
X4025000Y-11078652D01*
X4025000Y-10425000D02*
X4637500Y-9812500D01*
X5730995Y-16794918D02*
X5730995Y-12784647D01*
X4075000Y-18450913D02*
X5730995Y-16794918D01*
X4075000Y-23851826D02*
X4075000Y-18450913D01*
X6113999Y-24961001D02*
X5184175Y-24961001D01*
X5184175Y-24961001D02*
X4075000Y-23851826D01*
X6326305Y-24779305D02*
X6295695Y-24779305D01*
X4637500Y-9812500D02*
X4900000Y-9550000D01*
X6295695Y-24779305D02*
X6113999Y-24961001D01*
X6182158Y-25000000D02*
X6324865Y-24857292D01*
X5172261Y-25000000D02*
X6182158Y-25000000D01*
X4000000Y-23800000D02*
X4000000Y-23827739D01*
X4000000Y-23827739D02*
X5172261Y-25000000D01*
X5694994Y-12799559D02*
X5694994Y-16780006D01*
X5694994Y-16780006D02*
X4000000Y-18475000D01*
X3975000Y-11079565D02*
X5694994Y-12799559D01*
X3975000Y-9700000D02*
X3975000Y-11079565D01*
X4000000Y-9675000D02*
X3975000Y-9700000D01*
X4000000Y-18475000D02*
X4000000Y-23800000D01*
X5250000Y-27075000D02*
X5250000Y-26700000D01*
X5250000Y-26700000D02*
X6025000Y-25925000D01*
X6025000Y-25925000D02*
X6025000Y-25775000D01*
X6025000Y-25775000D02*
X6200000Y-25600000D01*
X10000000Y-16056001D02*
X10826001Y-15230000D01*
X10000000Y-20650000D02*
X10000000Y-16056001D01*
X8000000Y-25750000D02*
X9575000Y-24175000D01*
X9575000Y-23947718D02*
X10000000Y-23522718D01*
X9575000Y-24175000D02*
X9575000Y-23947718D01*
X10000000Y-23522718D02*
X10000000Y-21550913D01*
X10000000Y-21550913D02*
X10186001Y-21364912D01*
X10186001Y-20836001D02*
X10000000Y-20650000D01*
X10186001Y-21364912D02*
X10186001Y-20836001D01*
X10036001Y-18520000D02*
X10826001Y-17730000D01*
X10036001Y-20627002D02*
X10036001Y-18520000D01*
X10222002Y-21379824D02*
X10222002Y-20813003D01*
X10036001Y-21565825D02*
X10222002Y-21379824D01*
X7950000Y-25825000D02*
X8025000Y-25825000D01*
X7925000Y-25800000D02*
X7950000Y-25825000D01*
X8025000Y-25825000D02*
X9625000Y-24225000D01*
X9625000Y-24225000D02*
X9625000Y-23948631D01*
X10222002Y-20813003D02*
X10036001Y-20627002D01*
X9625000Y-23948631D02*
X10036001Y-23537630D01*
X10036001Y-23537630D02*
X10036001Y-21565825D01*
X10826001Y-20230000D02*
X10826001Y-20826739D01*
X10826001Y-20826739D02*
X10072002Y-21580737D01*
X10072002Y-23552542D02*
X9675000Y-23949544D01*
X10072002Y-21580737D02*
X10072002Y-23552542D01*
X9600000Y-24325000D02*
X9675000Y-24250000D01*
X8063999Y-25861001D02*
X9600000Y-24325000D01*
X7988999Y-25861001D02*
X8063999Y-25861001D01*
X7925000Y-25925000D02*
X7988999Y-25861001D01*
X9675000Y-23949544D02*
X9675000Y-24250000D01*
X9725000Y-23950458D02*
X10826001Y-22849457D01*
X10826001Y-22849457D02*
X10826001Y-22730000D01*
X8000913Y-25975000D02*
X8000000Y-25975000D01*
X9725000Y-24250913D02*
X8000913Y-25975000D01*
X9725000Y-24225000D02*
X9725000Y-24250913D01*
X9725000Y-24225000D02*
X9725000Y-23950458D01*
X5890000Y-19490000D02*
X5670000Y-19710000D01*
X5890000Y-18490000D02*
X5890000Y-19490000D01*
D18*
X13823000Y-24877000D02*
X13828000Y-24877000D01*
X13010000Y-26496000D02*
X13010000Y-25690000D01*
X13010000Y-25690000D02*
X13823000Y-24877000D01*
D19*
X11500000Y-27100000D02*
X10171497Y-27100000D01*
X12350000Y-26250000D02*
X11500000Y-27100000D01*
X12600000Y-26175000D02*
X12525000Y-26250000D01*
X12525000Y-26250000D02*
X12350000Y-26250000D01*
X12250000Y-26225000D02*
X12250000Y-26075000D01*
X11950000Y-26525000D02*
X12250000Y-26225000D01*
X10050000Y-27125000D02*
X10650000Y-26525000D01*
X10650000Y-26525000D02*
X11950000Y-26525000D01*
X11914311Y-26450000D02*
X12159442Y-26204869D01*
X10625000Y-26450000D02*
X11914311Y-26450000D01*
X10050000Y-27025000D02*
X10625000Y-26450000D01*
X9932000Y-16657000D02*
X9925000Y-16650000D01*
X9932000Y-20632913D02*
X9932000Y-16657000D01*
X10150000Y-20850913D02*
X9932000Y-20632913D01*
X10150000Y-21350000D02*
X10150000Y-20850913D01*
X9932000Y-21568000D02*
X10150000Y-21350000D01*
X9932000Y-22818000D02*
X9932000Y-21568000D01*
X9025000Y-23725000D02*
X9932000Y-22818000D01*
X9650000Y-23000000D02*
X9025000Y-23625000D01*
X9475000Y-17775000D02*
X9650000Y-17950000D01*
X9650000Y-17950000D02*
X9650000Y-20475913D01*
X9650000Y-20475913D02*
X9261001Y-20864912D01*
X9261001Y-20864912D02*
X9261001Y-21485088D01*
X9261001Y-21485088D02*
X9650000Y-21874087D01*
X9650000Y-21874087D02*
X9650000Y-23000000D01*
X9500000Y-19987500D02*
X9600000Y-20087500D01*
X9500000Y-19975000D02*
X9500000Y-19987500D01*
X9600000Y-22950000D02*
X9025000Y-23525000D01*
X9600000Y-20475000D02*
X9225000Y-20850000D01*
X9600000Y-20087500D02*
X9600000Y-20475000D01*
X9225000Y-20850000D02*
X9225000Y-21500000D01*
X9225000Y-21500000D02*
X9600000Y-21875000D01*
X9600000Y-21875000D02*
X9600000Y-22950000D01*
X9525000Y-22925000D02*
X9500000Y-22950000D01*
X9525000Y-22550000D02*
X9525000Y-22925000D01*
X9500000Y-22950000D02*
X9025000Y-23425000D01*
X6300000Y-21225000D02*
X6300000Y-21340640D01*
X7916000Y-24366000D02*
X7975000Y-24425000D01*
X7916000Y-24316000D02*
X7916000Y-24366000D01*
X7916000Y-22956640D02*
X7916000Y-24316000D01*
X6300000Y-21340640D02*
X7767180Y-22807820D01*
X7767180Y-22807820D02*
X7916000Y-22956640D01*
X6825000Y-19300000D02*
X6675000Y-19450000D01*
X6675000Y-20725000D02*
X8225000Y-22275000D01*
X6675000Y-19450000D02*
X6675000Y-20725000D01*
X8225000Y-22275000D02*
X8350000Y-22400000D01*
X8025000Y-24650000D02*
X8350000Y-24325000D01*
X8350000Y-22400000D02*
X8350000Y-24325000D01*
X12756000Y-26806000D02*
X12756000Y-26496000D01*
X13828000Y-25397000D02*
X13254750Y-25970250D01*
X13828000Y-25385000D02*
X13828000Y-25397000D01*
X13254750Y-25970250D02*
X13254750Y-26545250D01*
X13254750Y-26545250D02*
X12925000Y-26875000D01*
X12925000Y-26875000D02*
X12825000Y-26875000D01*
X12825000Y-26875000D02*
X12756000Y-26806000D01*
X13807000Y-25893000D02*
X13450000Y-26250000D01*
X13828000Y-25893000D02*
X13807000Y-25893000D01*
X13450000Y-26250000D02*
X13450000Y-26500000D01*
X12502000Y-26802000D02*
X12502000Y-26496000D01*
X13450000Y-26500000D02*
X12925000Y-27025000D01*
X12925000Y-27025000D02*
X12725000Y-27025000D01*
X12725000Y-27025000D02*
X12502000Y-26802000D01*
X12895500Y-26750000D02*
X12883000Y-26750000D01*
X13122750Y-26522750D02*
X12895500Y-26750000D01*
X13122750Y-25827250D02*
X13122750Y-26522750D01*
X13828000Y-25131000D02*
X13819000Y-25131000D01*
X13819000Y-25131000D02*
X13122750Y-25827250D01*
X8100000Y-21075000D02*
X7900000Y-20875000D01*
X7900000Y-20875000D02*
X7900000Y-20650000D01*
X6500000Y-25734360D02*
X5634360Y-26600000D01*
X6500000Y-24325000D02*
X6500000Y-25734360D01*
X5634360Y-26600000D02*
X5625000Y-26600000D01*
X6900000Y-24125000D02*
X6650000Y-23875000D01*
X6650000Y-23875000D02*
X5850000Y-23875000D01*
X6950000Y-24400000D02*
X6900000Y-24350000D01*
X7025000Y-24400000D02*
X6950000Y-24400000D01*
X7100000Y-24325000D02*
X7025000Y-24400000D01*
X6900000Y-24350000D02*
X6900000Y-24125000D01*
X6703000Y-25647913D02*
X6225000Y-26125913D01*
X6703000Y-24325000D02*
X6703000Y-25647913D01*
X6225000Y-26125913D02*
X6225000Y-26350000D01*
X6100000Y-26475000D02*
X6100000Y-26625000D01*
X6225000Y-26350000D02*
X6100000Y-26475000D01*
X6775000Y-24925000D02*
X7375000Y-24325000D01*
X6775000Y-25950000D02*
X6775000Y-24925000D01*
X6375000Y-26600000D02*
X6375000Y-26350000D01*
X6375000Y-26350000D02*
X6775000Y-25950000D01*
X6600000Y-23625000D02*
X6375000Y-23625000D01*
X6975000Y-24000000D02*
X6600000Y-23625000D01*
X6975000Y-24325000D02*
X6975000Y-24000000D01*
X6250000Y-22900000D02*
X6125000Y-22775000D01*
X6250000Y-23075000D02*
X6250000Y-22900000D01*
X6400000Y-23225000D02*
X6250000Y-23075000D01*
X7350000Y-23225000D02*
X6400000Y-23225000D01*
X7050000Y-18400000D02*
X6675000Y-18400000D01*
X6125000Y-18950000D02*
X6125000Y-21550000D01*
X6675000Y-18400000D02*
X6125000Y-18950000D01*
X7475000Y-22900000D02*
X7475000Y-23100000D01*
X6125000Y-21550000D02*
X7475000Y-22900000D01*
X7475000Y-23100000D02*
X7350000Y-23225000D01*
X5850000Y-26600000D02*
X5850000Y-26450000D01*
X5850000Y-26450000D02*
X6550000Y-25750000D01*
X6550000Y-24400000D02*
X6625000Y-24325000D01*
X6550000Y-25750000D02*
X6550000Y-24400000D01*
X5800000Y-23950000D02*
X5774999Y-23924999D01*
X5774999Y-23924999D02*
X5774999Y-22800000D01*
X6425000Y-23950000D02*
X5800000Y-23950000D01*
X6650000Y-24175000D02*
X6425000Y-23950000D01*
X6650000Y-24300000D02*
X6650000Y-24175000D01*
X6625000Y-24325000D02*
X6650000Y-24300000D01*
D22*
G36*
X12737300Y-11717149D02*
G01*
X12724025Y-11708279D01*
X12705189Y-11700477D01*
X12685193Y-11696499D01*
X12664806Y-11696499D01*
X12644810Y-11700477D01*
X12625974Y-11708279D01*
X12609022Y-11719606D01*
X12594606Y-11734022D01*
X12583279Y-11750974D01*
X12575477Y-11769810D01*
X12571499Y-11789806D01*
X12571499Y-11810193D01*
X12575477Y-11830189D01*
X12583279Y-11849025D01*
X12594606Y-11865977D01*
X12609022Y-11880393D01*
X12625974Y-11891720D01*
X12644810Y-11899522D01*
X12664806Y-11903499D01*
X12674555Y-11903499D01*
X12701499Y-11930444D01*
X12701499Y-13937300D01*
X10018524Y-13937300D01*
X9538500Y-13457276D01*
X9538500Y-12173032D01*
X9539291Y-12165000D01*
X9536134Y-12132948D01*
X9526785Y-12102128D01*
X9517419Y-12084606D01*
X9511603Y-12073725D01*
X9491171Y-12048829D01*
X9484933Y-12043708D01*
X8962700Y-11521476D01*
X8962700Y-9674806D01*
X9251500Y-9674806D01*
X9251500Y-9695194D01*
X9255477Y-9715190D01*
X9263280Y-9734026D01*
X9274606Y-9750977D01*
X9289023Y-9765394D01*
X9305974Y-9776721D01*
X9324810Y-9784523D01*
X9344806Y-9788500D01*
X9365194Y-9788500D01*
X9385190Y-9784523D01*
X9404026Y-9776721D01*
X9420977Y-9765394D01*
X9435394Y-9750977D01*
X9446721Y-9734026D01*
X9454523Y-9715190D01*
X9458500Y-9695194D01*
X9458500Y-9674806D01*
X9454523Y-9654810D01*
X9446721Y-9635974D01*
X9435394Y-9619023D01*
X9420977Y-9604606D01*
X9404026Y-9593280D01*
X9385190Y-9585477D01*
X9365194Y-9581500D01*
X9344806Y-9581500D01*
X9324810Y-9585477D01*
X9305974Y-9593280D01*
X9289023Y-9604606D01*
X9274606Y-9619023D01*
X9263280Y-9635974D01*
X9255477Y-9654810D01*
X9251500Y-9674806D01*
X8962700Y-9674806D01*
X8962700Y-8719740D01*
X8980633Y-8737673D01*
X9034721Y-8695654D01*
X9075734Y-8620756D01*
X9101347Y-8539296D01*
X9110575Y-8454404D01*
X9103065Y-8369343D01*
X9079104Y-8287381D01*
X9039614Y-8211669D01*
X9034721Y-8204346D01*
X8980633Y-8162327D01*
X8962700Y-8180260D01*
X8962700Y-7699806D01*
X9781500Y-7699806D01*
X9781500Y-7720194D01*
X9785477Y-7740190D01*
X9793280Y-7759026D01*
X9804606Y-7775977D01*
X9819023Y-7790394D01*
X9835974Y-7801720D01*
X9854810Y-7809523D01*
X9874806Y-7813500D01*
X9895194Y-7813500D01*
X9915190Y-7809523D01*
X9934026Y-7801720D01*
X9950977Y-7790394D01*
X9965394Y-7775977D01*
X9976721Y-7759026D01*
X9984523Y-7740190D01*
X9988500Y-7720194D01*
X9988500Y-7699806D01*
X9984523Y-7679810D01*
X9976721Y-7660974D01*
X9965394Y-7644023D01*
X9950977Y-7629606D01*
X9934026Y-7618279D01*
X9915190Y-7610477D01*
X9895194Y-7606500D01*
X9874806Y-7606500D01*
X9854810Y-7610477D01*
X9835974Y-7618279D01*
X9819023Y-7629606D01*
X9804606Y-7644023D01*
X9793280Y-7660974D01*
X9785477Y-7679810D01*
X9781500Y-7699806D01*
X8962700Y-7699806D01*
X8962700Y-6869806D01*
X11306500Y-6869806D01*
X11306500Y-6890194D01*
X11310477Y-6910190D01*
X11318279Y-6929026D01*
X11329606Y-6945977D01*
X11344023Y-6960394D01*
X11360974Y-6971720D01*
X11379810Y-6979523D01*
X11399806Y-6983500D01*
X11420194Y-6983500D01*
X11440190Y-6979523D01*
X11459026Y-6971720D01*
X11475977Y-6960394D01*
X11490394Y-6945977D01*
X11501720Y-6929026D01*
X11509523Y-6910190D01*
X11513500Y-6890194D01*
X11513500Y-6869806D01*
X11509523Y-6849810D01*
X11501720Y-6830974D01*
X11490394Y-6814023D01*
X11475977Y-6799606D01*
X11459026Y-6788279D01*
X11440190Y-6780477D01*
X11420194Y-6776500D01*
X11399806Y-6776500D01*
X11379810Y-6780477D01*
X11360974Y-6788279D01*
X11344023Y-6799606D01*
X11329606Y-6814023D01*
X11318279Y-6830974D01*
X11310477Y-6849810D01*
X11306500Y-6869806D01*
X8962700Y-6869806D01*
X8962700Y-6662700D01*
X12737300Y-6662700D01*
X12737300Y-11717149D01*
X12737300Y-11717149D01*
G37*
X12737300Y-11717149D02*
X12724025Y-11708279D01*
X12705189Y-11700477D01*
X12685193Y-11696499D01*
X12664806Y-11696499D01*
X12644810Y-11700477D01*
X12625974Y-11708279D01*
X12609022Y-11719606D01*
X12594606Y-11734022D01*
X12583279Y-11750974D01*
X12575477Y-11769810D01*
X12571499Y-11789806D01*
X12571499Y-11810193D01*
X12575477Y-11830189D01*
X12583279Y-11849025D01*
X12594606Y-11865977D01*
X12609022Y-11880393D01*
X12625974Y-11891720D01*
X12644810Y-11899522D01*
X12664806Y-11903499D01*
X12674555Y-11903499D01*
X12701499Y-11930444D01*
X12701499Y-13937300D01*
X10018524Y-13937300D01*
X9538500Y-13457276D01*
X9538500Y-12173032D01*
X9539291Y-12165000D01*
X9536134Y-12132948D01*
X9526785Y-12102128D01*
X9517419Y-12084606D01*
X9511603Y-12073725D01*
X9491171Y-12048829D01*
X9484933Y-12043708D01*
X8962700Y-11521476D01*
X8962700Y-9674806D01*
X9251500Y-9674806D01*
X9251500Y-9695194D01*
X9255477Y-9715190D01*
X9263280Y-9734026D01*
X9274606Y-9750977D01*
X9289023Y-9765394D01*
X9305974Y-9776721D01*
X9324810Y-9784523D01*
X9344806Y-9788500D01*
X9365194Y-9788500D01*
X9385190Y-9784523D01*
X9404026Y-9776721D01*
X9420977Y-9765394D01*
X9435394Y-9750977D01*
X9446721Y-9734026D01*
X9454523Y-9715190D01*
X9458500Y-9695194D01*
X9458500Y-9674806D01*
X9454523Y-9654810D01*
X9446721Y-9635974D01*
X9435394Y-9619023D01*
X9420977Y-9604606D01*
X9404026Y-9593280D01*
X9385190Y-9585477D01*
X9365194Y-9581500D01*
X9344806Y-9581500D01*
X9324810Y-9585477D01*
X9305974Y-9593280D01*
X9289023Y-9604606D01*
X9274606Y-9619023D01*
X9263280Y-9635974D01*
X9255477Y-9654810D01*
X9251500Y-9674806D01*
X8962700Y-9674806D01*
X8962700Y-8719740D01*
X8980633Y-8737673D01*
X9034721Y-8695654D01*
X9075734Y-8620756D01*
X9101347Y-8539296D01*
X9110575Y-8454404D01*
X9103065Y-8369343D01*
X9079104Y-8287381D01*
X9039614Y-8211669D01*
X9034721Y-8204346D01*
X8980633Y-8162327D01*
X8962700Y-8180260D01*
X8962700Y-7699806D01*
X9781500Y-7699806D01*
X9781500Y-7720194D01*
X9785477Y-7740190D01*
X9793280Y-7759026D01*
X9804606Y-7775977D01*
X9819023Y-7790394D01*
X9835974Y-7801720D01*
X9854810Y-7809523D01*
X9874806Y-7813500D01*
X9895194Y-7813500D01*
X9915190Y-7809523D01*
X9934026Y-7801720D01*
X9950977Y-7790394D01*
X9965394Y-7775977D01*
X9976721Y-7759026D01*
X9984523Y-7740190D01*
X9988500Y-7720194D01*
X9988500Y-7699806D01*
X9984523Y-7679810D01*
X9976721Y-7660974D01*
X9965394Y-7644023D01*
X9950977Y-7629606D01*
X9934026Y-7618279D01*
X9915190Y-7610477D01*
X9895194Y-7606500D01*
X9874806Y-7606500D01*
X9854810Y-7610477D01*
X9835974Y-7618279D01*
X9819023Y-7629606D01*
X9804606Y-7644023D01*
X9793280Y-7660974D01*
X9785477Y-7679810D01*
X9781500Y-7699806D01*
X8962700Y-7699806D01*
X8962700Y-6869806D01*
X11306500Y-6869806D01*
X11306500Y-6890194D01*
X11310477Y-6910190D01*
X11318279Y-6929026D01*
X11329606Y-6945977D01*
X11344023Y-6960394D01*
X11360974Y-6971720D01*
X11379810Y-6979523D01*
X11399806Y-6983500D01*
X11420194Y-6983500D01*
X11440190Y-6979523D01*
X11459026Y-6971720D01*
X11475977Y-6960394D01*
X11490394Y-6945977D01*
X11501720Y-6929026D01*
X11509523Y-6910190D01*
X11513500Y-6890194D01*
X11513500Y-6869806D01*
X11509523Y-6849810D01*
X11501720Y-6830974D01*
X11490394Y-6814023D01*
X11475977Y-6799606D01*
X11459026Y-6788279D01*
X11440190Y-6780477D01*
X11420194Y-6776500D01*
X11399806Y-6776500D01*
X11379810Y-6780477D01*
X11360974Y-6788279D01*
X11344023Y-6799606D01*
X11329606Y-6814023D01*
X11318279Y-6830974D01*
X11310477Y-6849810D01*
X11306500Y-6869806D01*
X8962700Y-6869806D01*
X8962700Y-6662700D01*
X12737300Y-6662700D01*
X12737300Y-11717149D01*
G36*
X13350062Y-2967297D02*
G01*
X13297237Y-3046356D01*
X13260850Y-3134202D01*
X13242300Y-3227458D01*
X13242300Y-3322542D01*
X13260850Y-3415798D01*
X13297237Y-3503644D01*
X13350062Y-3582703D01*
X13417297Y-3649938D01*
X13496356Y-3702763D01*
X13584202Y-3739150D01*
X13677458Y-3757700D01*
X13772542Y-3757700D01*
X13865798Y-3739150D01*
X13953644Y-3702763D01*
X14032703Y-3649938D01*
X14034800Y-3647841D01*
X14034800Y-6362300D01*
X9037700Y-6362300D01*
X9037700Y-5929960D01*
X9102300Y-5929960D01*
X9102300Y-5960040D01*
X9108168Y-5989541D01*
X9119679Y-6017331D01*
X9136390Y-6042341D01*
X9157659Y-6063610D01*
X9182669Y-6080321D01*
X9210459Y-6091832D01*
X9239960Y-6097700D01*
X9270040Y-6097700D01*
X9299541Y-6091832D01*
X9327331Y-6080321D01*
X9352341Y-6063610D01*
X9373610Y-6042341D01*
X9390321Y-6017331D01*
X9401832Y-5989541D01*
X9407700Y-5960040D01*
X9407700Y-5929960D01*
X9401832Y-5900459D01*
X9390321Y-5872669D01*
X9373610Y-5847659D01*
X9352341Y-5826390D01*
X9327331Y-5809679D01*
X9299541Y-5798168D01*
X9270040Y-5792300D01*
X9239960Y-5792300D01*
X9210459Y-5798168D01*
X9182669Y-5809679D01*
X9157659Y-5826390D01*
X9136390Y-5847659D01*
X9119679Y-5872669D01*
X9108168Y-5900459D01*
X9102300Y-5929960D01*
X9037700Y-5929960D01*
X9037700Y-4777574D01*
X9547300Y-4777574D01*
X9547300Y-4822427D01*
X9556050Y-4866418D01*
X9573215Y-4907856D01*
X9598134Y-4945150D01*
X9629850Y-4976866D01*
X9667144Y-5001785D01*
X9708582Y-5018950D01*
X9752574Y-5027700D01*
X9797427Y-5027700D01*
X9841418Y-5018950D01*
X9882856Y-5001785D01*
X9920150Y-4976866D01*
X9951866Y-4945150D01*
X9976785Y-4907856D01*
X9993950Y-4866418D01*
X10002700Y-4822427D01*
X10002700Y-4777574D01*
X9997727Y-4752574D01*
X10997300Y-4752574D01*
X10997300Y-4797427D01*
X11006050Y-4841418D01*
X11023215Y-4882856D01*
X11048134Y-4920150D01*
X11079850Y-4951866D01*
X11117144Y-4976785D01*
X11158582Y-4993950D01*
X11202573Y-5002700D01*
X11247426Y-5002700D01*
X11291418Y-4993950D01*
X11332856Y-4976785D01*
X11370150Y-4951866D01*
X11401866Y-4920150D01*
X11426785Y-4882856D01*
X11443950Y-4841418D01*
X11452700Y-4797427D01*
X11452700Y-4752574D01*
X12722300Y-4752574D01*
X12722300Y-4797427D01*
X12731050Y-4841418D01*
X12748215Y-4882856D01*
X12773134Y-4920150D01*
X12804850Y-4951866D01*
X12842144Y-4976785D01*
X12883582Y-4993950D01*
X12927573Y-5002700D01*
X12972426Y-5002700D01*
X13016418Y-4993950D01*
X13057856Y-4976785D01*
X13095150Y-4951866D01*
X13126866Y-4920150D01*
X13151785Y-4882856D01*
X13168950Y-4841418D01*
X13177700Y-4797427D01*
X13177700Y-4752574D01*
X13422300Y-4752574D01*
X13422300Y-4797427D01*
X13431050Y-4841418D01*
X13448215Y-4882856D01*
X13473134Y-4920150D01*
X13504850Y-4951866D01*
X13542144Y-4976785D01*
X13583582Y-4993950D01*
X13627573Y-5002700D01*
X13672426Y-5002700D01*
X13716418Y-4993950D01*
X13757856Y-4976785D01*
X13795150Y-4951866D01*
X13826866Y-4920150D01*
X13851785Y-4882856D01*
X13868950Y-4841418D01*
X13877700Y-4797427D01*
X13877700Y-4752574D01*
X13868950Y-4708582D01*
X13851785Y-4667144D01*
X13826866Y-4629850D01*
X13795150Y-4598134D01*
X13757856Y-4573215D01*
X13716418Y-4556050D01*
X13672426Y-4547300D01*
X13627573Y-4547300D01*
X13583582Y-4556050D01*
X13542144Y-4573215D01*
X13504850Y-4598134D01*
X13473134Y-4629850D01*
X13448215Y-4667144D01*
X13431050Y-4708582D01*
X13422300Y-4752574D01*
X13177700Y-4752574D01*
X13168950Y-4708582D01*
X13151785Y-4667144D01*
X13126866Y-4629850D01*
X13095150Y-4598134D01*
X13057856Y-4573215D01*
X13016418Y-4556050D01*
X12972426Y-4547300D01*
X12927573Y-4547300D01*
X12883582Y-4556050D01*
X12842144Y-4573215D01*
X12804850Y-4598134D01*
X12773134Y-4629850D01*
X12748215Y-4667144D01*
X12731050Y-4708582D01*
X12722300Y-4752574D01*
X11452700Y-4752574D01*
X11443950Y-4708582D01*
X11426785Y-4667144D01*
X11401866Y-4629850D01*
X11370150Y-4598134D01*
X11332856Y-4573215D01*
X11291418Y-4556050D01*
X11247426Y-4547300D01*
X11202573Y-4547300D01*
X11158582Y-4556050D01*
X11117144Y-4573215D01*
X11079850Y-4598134D01*
X11048134Y-4629850D01*
X11023215Y-4667144D01*
X11006050Y-4708582D01*
X10997300Y-4752574D01*
X9997727Y-4752574D01*
X9993950Y-4733582D01*
X9976785Y-4692144D01*
X9951866Y-4654850D01*
X9920150Y-4623134D01*
X9882856Y-4598215D01*
X9841418Y-4581050D01*
X9797427Y-4572300D01*
X9752574Y-4572300D01*
X9708582Y-4581050D01*
X9667144Y-4598215D01*
X9629850Y-4623134D01*
X9598134Y-4654850D01*
X9573215Y-4692144D01*
X9556050Y-4733582D01*
X9547300Y-4777574D01*
X9037700Y-4777574D01*
X9037700Y-4277574D01*
X9197300Y-4277574D01*
X9197300Y-4322427D01*
X9206050Y-4366418D01*
X9223215Y-4407856D01*
X9248134Y-4445150D01*
X9279850Y-4476866D01*
X9317144Y-4501785D01*
X9358582Y-4518950D01*
X9402574Y-4527700D01*
X9447427Y-4527700D01*
X9491418Y-4518950D01*
X9532856Y-4501785D01*
X9570150Y-4476866D01*
X9601866Y-4445150D01*
X9626785Y-4407856D01*
X9643950Y-4366418D01*
X9652700Y-4322427D01*
X9652700Y-4277574D01*
X9647727Y-4252574D01*
X10647300Y-4252574D01*
X10647300Y-4297427D01*
X10656050Y-4341418D01*
X10673215Y-4382856D01*
X10698134Y-4420150D01*
X10729850Y-4451866D01*
X10767144Y-4476785D01*
X10808582Y-4493950D01*
X10852574Y-4502700D01*
X10897427Y-4502700D01*
X10941418Y-4493950D01*
X10982856Y-4476785D01*
X11020150Y-4451866D01*
X11051866Y-4420150D01*
X11076785Y-4382856D01*
X11093950Y-4341418D01*
X11102700Y-4297427D01*
X11102700Y-4252574D01*
X12372300Y-4252574D01*
X12372300Y-4297427D01*
X12381050Y-4341418D01*
X12398215Y-4382856D01*
X12423134Y-4420150D01*
X12454850Y-4451866D01*
X12492144Y-4476785D01*
X12533582Y-4493950D01*
X12577573Y-4502700D01*
X12622426Y-4502700D01*
X12666418Y-4493950D01*
X12707856Y-4476785D01*
X12745150Y-4451866D01*
X12776866Y-4420150D01*
X12801785Y-4382856D01*
X12818950Y-4341418D01*
X12827700Y-4297427D01*
X12827700Y-4252574D01*
X13072300Y-4252574D01*
X13072300Y-4297427D01*
X13081050Y-4341418D01*
X13098215Y-4382856D01*
X13123134Y-4420150D01*
X13154850Y-4451866D01*
X13192144Y-4476785D01*
X13233582Y-4493950D01*
X13277573Y-4502700D01*
X13322426Y-4502700D01*
X13366418Y-4493950D01*
X13407856Y-4476785D01*
X13445150Y-4451866D01*
X13476866Y-4420150D01*
X13501785Y-4382856D01*
X13518950Y-4341418D01*
X13527700Y-4297427D01*
X13527700Y-4252574D01*
X13518950Y-4208582D01*
X13501785Y-4167144D01*
X13476866Y-4129850D01*
X13445150Y-4098134D01*
X13407856Y-4073215D01*
X13366418Y-4056050D01*
X13322426Y-4047300D01*
X13277573Y-4047300D01*
X13233582Y-4056050D01*
X13192144Y-4073215D01*
X13154850Y-4098134D01*
X13123134Y-4129850D01*
X13098215Y-4167144D01*
X13081050Y-4208582D01*
X13072300Y-4252574D01*
X12827700Y-4252574D01*
X12818950Y-4208582D01*
X12801785Y-4167144D01*
X12776866Y-4129850D01*
X12745150Y-4098134D01*
X12707856Y-4073215D01*
X12666418Y-4056050D01*
X12622426Y-4047300D01*
X12577573Y-4047300D01*
X12533582Y-4056050D01*
X12492144Y-4073215D01*
X12454850Y-4098134D01*
X12423134Y-4129850D01*
X12398215Y-4167144D01*
X12381050Y-4208582D01*
X12372300Y-4252574D01*
X11102700Y-4252574D01*
X11093950Y-4208582D01*
X11076785Y-4167144D01*
X11051866Y-4129850D01*
X11020150Y-4098134D01*
X10982856Y-4073215D01*
X10941418Y-4056050D01*
X10897427Y-4047300D01*
X10852574Y-4047300D01*
X10808582Y-4056050D01*
X10767144Y-4073215D01*
X10729850Y-4098134D01*
X10698134Y-4129850D01*
X10673215Y-4167144D01*
X10656050Y-4208582D01*
X10647300Y-4252574D01*
X9647727Y-4252574D01*
X9643950Y-4233582D01*
X9626785Y-4192144D01*
X9601866Y-4154850D01*
X9570150Y-4123134D01*
X9532856Y-4098215D01*
X9491418Y-4081050D01*
X9447427Y-4072300D01*
X9402574Y-4072300D01*
X9358582Y-4081050D01*
X9317144Y-4098215D01*
X9279850Y-4123134D01*
X9248134Y-4154850D01*
X9223215Y-4192144D01*
X9206050Y-4233582D01*
X9197300Y-4277574D01*
X9037700Y-4277574D01*
X9037700Y-2965200D01*
X13352159Y-2965200D01*
X13350062Y-2967297D01*
X13350062Y-2967297D01*
G37*
X13350062Y-2967297D02*
X13297237Y-3046356D01*
X13260850Y-3134202D01*
X13242300Y-3227458D01*
X13242300Y-3322542D01*
X13260850Y-3415798D01*
X13297237Y-3503644D01*
X13350062Y-3582703D01*
X13417297Y-3649938D01*
X13496356Y-3702763D01*
X13584202Y-3739150D01*
X13677458Y-3757700D01*
X13772542Y-3757700D01*
X13865798Y-3739150D01*
X13953644Y-3702763D01*
X14032703Y-3649938D01*
X14034800Y-3647841D01*
X14034800Y-6362300D01*
X9037700Y-6362300D01*
X9037700Y-5929960D01*
X9102300Y-5929960D01*
X9102300Y-5960040D01*
X9108168Y-5989541D01*
X9119679Y-6017331D01*
X9136390Y-6042341D01*
X9157659Y-6063610D01*
X9182669Y-6080321D01*
X9210459Y-6091832D01*
X9239960Y-6097700D01*
X9270040Y-6097700D01*
X9299541Y-6091832D01*
X9327331Y-6080321D01*
X9352341Y-6063610D01*
X9373610Y-6042341D01*
X9390321Y-6017331D01*
X9401832Y-5989541D01*
X9407700Y-5960040D01*
X9407700Y-5929960D01*
X9401832Y-5900459D01*
X9390321Y-5872669D01*
X9373610Y-5847659D01*
X9352341Y-5826390D01*
X9327331Y-5809679D01*
X9299541Y-5798168D01*
X9270040Y-5792300D01*
X9239960Y-5792300D01*
X9210459Y-5798168D01*
X9182669Y-5809679D01*
X9157659Y-5826390D01*
X9136390Y-5847659D01*
X9119679Y-5872669D01*
X9108168Y-5900459D01*
X9102300Y-5929960D01*
X9037700Y-5929960D01*
X9037700Y-4777574D01*
X9547300Y-4777574D01*
X9547300Y-4822427D01*
X9556050Y-4866418D01*
X9573215Y-4907856D01*
X9598134Y-4945150D01*
X9629850Y-4976866D01*
X9667144Y-5001785D01*
X9708582Y-5018950D01*
X9752574Y-5027700D01*
X9797427Y-5027700D01*
X9841418Y-5018950D01*
X9882856Y-5001785D01*
X9920150Y-4976866D01*
X9951866Y-4945150D01*
X9976785Y-4907856D01*
X9993950Y-4866418D01*
X10002700Y-4822427D01*
X10002700Y-4777574D01*
X9997727Y-4752574D01*
X10997300Y-4752574D01*
X10997300Y-4797427D01*
X11006050Y-4841418D01*
X11023215Y-4882856D01*
X11048134Y-4920150D01*
X11079850Y-4951866D01*
X11117144Y-4976785D01*
X11158582Y-4993950D01*
X11202573Y-5002700D01*
X11247426Y-5002700D01*
X11291418Y-4993950D01*
X11332856Y-4976785D01*
X11370150Y-4951866D01*
X11401866Y-4920150D01*
X11426785Y-4882856D01*
X11443950Y-4841418D01*
X11452700Y-4797427D01*
X11452700Y-4752574D01*
X12722300Y-4752574D01*
X12722300Y-4797427D01*
X12731050Y-4841418D01*
X12748215Y-4882856D01*
X12773134Y-4920150D01*
X12804850Y-4951866D01*
X12842144Y-4976785D01*
X12883582Y-4993950D01*
X12927573Y-5002700D01*
X12972426Y-5002700D01*
X13016418Y-4993950D01*
X13057856Y-4976785D01*
X13095150Y-4951866D01*
X13126866Y-4920150D01*
X13151785Y-4882856D01*
X13168950Y-4841418D01*
X13177700Y-4797427D01*
X13177700Y-4752574D01*
X13422300Y-4752574D01*
X13422300Y-4797427D01*
X13431050Y-4841418D01*
X13448215Y-4882856D01*
X13473134Y-4920150D01*
X13504850Y-4951866D01*
X13542144Y-4976785D01*
X13583582Y-4993950D01*
X13627573Y-5002700D01*
X13672426Y-5002700D01*
X13716418Y-4993950D01*
X13757856Y-4976785D01*
X13795150Y-4951866D01*
X13826866Y-4920150D01*
X13851785Y-4882856D01*
X13868950Y-4841418D01*
X13877700Y-4797427D01*
X13877700Y-4752574D01*
X13868950Y-4708582D01*
X13851785Y-4667144D01*
X13826866Y-4629850D01*
X13795150Y-4598134D01*
X13757856Y-4573215D01*
X13716418Y-4556050D01*
X13672426Y-4547300D01*
X13627573Y-4547300D01*
X13583582Y-4556050D01*
X13542144Y-4573215D01*
X13504850Y-4598134D01*
X13473134Y-4629850D01*
X13448215Y-4667144D01*
X13431050Y-4708582D01*
X13422300Y-4752574D01*
X13177700Y-4752574D01*
X13168950Y-4708582D01*
X13151785Y-4667144D01*
X13126866Y-4629850D01*
X13095150Y-4598134D01*
X13057856Y-4573215D01*
X13016418Y-4556050D01*
X12972426Y-4547300D01*
X12927573Y-4547300D01*
X12883582Y-4556050D01*
X12842144Y-4573215D01*
X12804850Y-4598134D01*
X12773134Y-4629850D01*
X12748215Y-4667144D01*
X12731050Y-4708582D01*
X12722300Y-4752574D01*
X11452700Y-4752574D01*
X11443950Y-4708582D01*
X11426785Y-4667144D01*
X11401866Y-4629850D01*
X11370150Y-4598134D01*
X11332856Y-4573215D01*
X11291418Y-4556050D01*
X11247426Y-4547300D01*
X11202573Y-4547300D01*
X11158582Y-4556050D01*
X11117144Y-4573215D01*
X11079850Y-4598134D01*
X11048134Y-4629850D01*
X11023215Y-4667144D01*
X11006050Y-4708582D01*
X10997300Y-4752574D01*
X9997727Y-4752574D01*
X9993950Y-4733582D01*
X9976785Y-4692144D01*
X9951866Y-4654850D01*
X9920150Y-4623134D01*
X9882856Y-4598215D01*
X9841418Y-4581050D01*
X9797427Y-4572300D01*
X9752574Y-4572300D01*
X9708582Y-4581050D01*
X9667144Y-4598215D01*
X9629850Y-4623134D01*
X9598134Y-4654850D01*
X9573215Y-4692144D01*
X9556050Y-4733582D01*
X9547300Y-4777574D01*
X9037700Y-4777574D01*
X9037700Y-4277574D01*
X9197300Y-4277574D01*
X9197300Y-4322427D01*
X9206050Y-4366418D01*
X9223215Y-4407856D01*
X9248134Y-4445150D01*
X9279850Y-4476866D01*
X9317144Y-4501785D01*
X9358582Y-4518950D01*
X9402574Y-4527700D01*
X9447427Y-4527700D01*
X9491418Y-4518950D01*
X9532856Y-4501785D01*
X9570150Y-4476866D01*
X9601866Y-4445150D01*
X9626785Y-4407856D01*
X9643950Y-4366418D01*
X9652700Y-4322427D01*
X9652700Y-4277574D01*
X9647727Y-4252574D01*
X10647300Y-4252574D01*
X10647300Y-4297427D01*
X10656050Y-4341418D01*
X10673215Y-4382856D01*
X10698134Y-4420150D01*
X10729850Y-4451866D01*
X10767144Y-4476785D01*
X10808582Y-4493950D01*
X10852574Y-4502700D01*
X10897427Y-4502700D01*
X10941418Y-4493950D01*
X10982856Y-4476785D01*
X11020150Y-4451866D01*
X11051866Y-4420150D01*
X11076785Y-4382856D01*
X11093950Y-4341418D01*
X11102700Y-4297427D01*
X11102700Y-4252574D01*
X12372300Y-4252574D01*
X12372300Y-4297427D01*
X12381050Y-4341418D01*
X12398215Y-4382856D01*
X12423134Y-4420150D01*
X12454850Y-4451866D01*
X12492144Y-4476785D01*
X12533582Y-4493950D01*
X12577573Y-4502700D01*
X12622426Y-4502700D01*
X12666418Y-4493950D01*
X12707856Y-4476785D01*
X12745150Y-4451866D01*
X12776866Y-4420150D01*
X12801785Y-4382856D01*
X12818950Y-4341418D01*
X12827700Y-4297427D01*
X12827700Y-4252574D01*
X13072300Y-4252574D01*
X13072300Y-4297427D01*
X13081050Y-4341418D01*
X13098215Y-4382856D01*
X13123134Y-4420150D01*
X13154850Y-4451866D01*
X13192144Y-4476785D01*
X13233582Y-4493950D01*
X13277573Y-4502700D01*
X13322426Y-4502700D01*
X13366418Y-4493950D01*
X13407856Y-4476785D01*
X13445150Y-4451866D01*
X13476866Y-4420150D01*
X13501785Y-4382856D01*
X13518950Y-4341418D01*
X13527700Y-4297427D01*
X13527700Y-4252574D01*
X13518950Y-4208582D01*
X13501785Y-4167144D01*
X13476866Y-4129850D01*
X13445150Y-4098134D01*
X13407856Y-4073215D01*
X13366418Y-4056050D01*
X13322426Y-4047300D01*
X13277573Y-4047300D01*
X13233582Y-4056050D01*
X13192144Y-4073215D01*
X13154850Y-4098134D01*
X13123134Y-4129850D01*
X13098215Y-4167144D01*
X13081050Y-4208582D01*
X13072300Y-4252574D01*
X12827700Y-4252574D01*
X12818950Y-4208582D01*
X12801785Y-4167144D01*
X12776866Y-4129850D01*
X12745150Y-4098134D01*
X12707856Y-4073215D01*
X12666418Y-4056050D01*
X12622426Y-4047300D01*
X12577573Y-4047300D01*
X12533582Y-4056050D01*
X12492144Y-4073215D01*
X12454850Y-4098134D01*
X12423134Y-4129850D01*
X12398215Y-4167144D01*
X12381050Y-4208582D01*
X12372300Y-4252574D01*
X11102700Y-4252574D01*
X11093950Y-4208582D01*
X11076785Y-4167144D01*
X11051866Y-4129850D01*
X11020150Y-4098134D01*
X10982856Y-4073215D01*
X10941418Y-4056050D01*
X10897427Y-4047300D01*
X10852574Y-4047300D01*
X10808582Y-4056050D01*
X10767144Y-4073215D01*
X10729850Y-4098134D01*
X10698134Y-4129850D01*
X10673215Y-4167144D01*
X10656050Y-4208582D01*
X10647300Y-4252574D01*
X9647727Y-4252574D01*
X9643950Y-4233582D01*
X9626785Y-4192144D01*
X9601866Y-4154850D01*
X9570150Y-4123134D01*
X9532856Y-4098215D01*
X9491418Y-4081050D01*
X9447427Y-4072300D01*
X9402574Y-4072300D01*
X9358582Y-4081050D01*
X9317144Y-4098215D01*
X9279850Y-4123134D01*
X9248134Y-4154850D01*
X9223215Y-4192144D01*
X9206050Y-4233582D01*
X9197300Y-4277574D01*
X9037700Y-4277574D01*
X9037700Y-2965200D01*
X13352159Y-2965200D01*
X13350062Y-2967297D01*
M02*
