G04 #@! TF.GenerationSoftware,KiCad,Pcbnew,(5.1.4)-1*
G04 #@! TF.CreationDate,2020-04-23T11:23:57-04:00*
G04 #@! TF.ProjectId,RPi_cape,5250695f-6361-4706-952e-6b696361645f,1.8*
G04 #@! TF.SameCoordinates,Original*
G04 #@! TF.FileFunction,Legend,Bot*
G04 #@! TF.FilePolarity,Positive*
%FSLAX45Y45*%
G04 Gerber Fmt 4.5, Leading zero omitted, Abs format (unit mm)*
G04 Created by KiCad (PCBNEW (5.1.4)-1) date 2020-04-23 11:23:57*
%MOMM*%
%LPD*%
G04 APERTURE LIST*
%ADD10C,0.120000*%
%ADD11C,0.150000*%
%ADD12C,0.160000*%
%ADD13C,1.652000*%
%ADD14C,1.460000*%
%ADD15R,1.460000X1.460000*%
%ADD16C,2.402000*%
%ADD17C,0.902000*%
%ADD18C,6.502000*%
%ADD19O,1.802000X1.802000*%
%ADD20R,1.802000X1.802000*%
%ADD21C,0.722000*%
G04 APERTURE END LIST*
D10*
X5617000Y-28125000D02*
X5617000Y-28258000D01*
X5617000Y-28258000D02*
X5750000Y-28258000D01*
X5617000Y-27998000D02*
X5877000Y-27998000D01*
X5877000Y-27998000D02*
X5877000Y-28258000D01*
X5877000Y-28258000D02*
X10709000Y-28258000D01*
X10709000Y-27738000D02*
X10709000Y-28258000D01*
X5617000Y-27738000D02*
X10709000Y-27738000D01*
X5617000Y-27738000D02*
X5617000Y-27998000D01*
D11*
X5393571Y-4570238D02*
X5336429Y-4570238D01*
X5365000Y-4570238D02*
X5365000Y-4470238D01*
X5355476Y-4484524D01*
X5345952Y-4494048D01*
X5336429Y-4498810D01*
X4616667Y-4490238D02*
X4678571Y-4490238D01*
X4645238Y-4528333D01*
X4659524Y-4528333D01*
X4669048Y-4533095D01*
X4673810Y-4537857D01*
X4678571Y-4547381D01*
X4678571Y-4571190D01*
X4673810Y-4580714D01*
X4669048Y-4585476D01*
X4659524Y-4590238D01*
X4630952Y-4590238D01*
X4621429Y-4585476D01*
X4616667Y-4580714D01*
X5393571Y-4570238D02*
X5336429Y-4570238D01*
X5365000Y-4570238D02*
X5365000Y-4470238D01*
X5355476Y-4484524D01*
X5345952Y-4494048D01*
X5336429Y-4498810D01*
X4976429Y-4569762D02*
X4981190Y-4565000D01*
X4990714Y-4560238D01*
X5014524Y-4560238D01*
X5024048Y-4565000D01*
X5028810Y-4569762D01*
X5033571Y-4579286D01*
X5033571Y-4588810D01*
X5028810Y-4603095D01*
X4971667Y-4660238D01*
X5033571Y-4660238D01*
X4616667Y-4490238D02*
X4678571Y-4490238D01*
X4645238Y-4528333D01*
X4659524Y-4528333D01*
X4669048Y-4533095D01*
X4673810Y-4537857D01*
X4678571Y-4547381D01*
X4678571Y-4571190D01*
X4673810Y-4580714D01*
X4669048Y-4585476D01*
X4659524Y-4590238D01*
X4630952Y-4590238D01*
X4621429Y-4585476D01*
X4616667Y-4580714D01*
X6718571Y-4570238D02*
X6661428Y-4570238D01*
X6690000Y-4570238D02*
X6690000Y-4470238D01*
X6680476Y-4484524D01*
X6670952Y-4494048D01*
X6661428Y-4498810D01*
X5941667Y-4490238D02*
X6003571Y-4490238D01*
X5970238Y-4528333D01*
X5984524Y-4528333D01*
X5994048Y-4533095D01*
X5998809Y-4537857D01*
X6003571Y-4547381D01*
X6003571Y-4571190D01*
X5998809Y-4580714D01*
X5994048Y-4585476D01*
X5984524Y-4590238D01*
X5955952Y-4590238D01*
X5946428Y-4585476D01*
X5941667Y-4580714D01*
X6718571Y-4570238D02*
X6661428Y-4570238D01*
X6690000Y-4570238D02*
X6690000Y-4470238D01*
X6680476Y-4484524D01*
X6670952Y-4494048D01*
X6661428Y-4498810D01*
X6301428Y-4569762D02*
X6306190Y-4565000D01*
X6315714Y-4560238D01*
X6339524Y-4560238D01*
X6349048Y-4565000D01*
X6353809Y-4569762D01*
X6358571Y-4579286D01*
X6358571Y-4588810D01*
X6353809Y-4603095D01*
X6296667Y-4660238D01*
X6358571Y-4660238D01*
X5941667Y-4490238D02*
X6003571Y-4490238D01*
X5970238Y-4528333D01*
X5984524Y-4528333D01*
X5994048Y-4533095D01*
X5998809Y-4537857D01*
X6003571Y-4547381D01*
X6003571Y-4571190D01*
X5998809Y-4580714D01*
X5994048Y-4585476D01*
X5984524Y-4590238D01*
X5955952Y-4590238D01*
X5946428Y-4585476D01*
X5941667Y-4580714D01*
X12011667Y-4430238D02*
X12073571Y-4430238D01*
X12040238Y-4468333D01*
X12054524Y-4468333D01*
X12064048Y-4473095D01*
X12068809Y-4477857D01*
X12073571Y-4487381D01*
X12073571Y-4511190D01*
X12068809Y-4520714D01*
X12064048Y-4525476D01*
X12054524Y-4530238D01*
X12025952Y-4530238D01*
X12016428Y-4525476D01*
X12011667Y-4520714D01*
X12376428Y-4519762D02*
X12381190Y-4515000D01*
X12390714Y-4510238D01*
X12414524Y-4510238D01*
X12424048Y-4515000D01*
X12428809Y-4519762D01*
X12433571Y-4529286D01*
X12433571Y-4538810D01*
X12428809Y-4553095D01*
X12371667Y-4610238D01*
X12433571Y-4610238D01*
D12*
X5434667Y-27974667D02*
X5484667Y-27974667D01*
X5494667Y-27971333D01*
X5501333Y-27964667D01*
X5504667Y-27954667D01*
X5504667Y-27948000D01*
X5464667Y-28018000D02*
X5461333Y-28011333D01*
X5458000Y-28008000D01*
X5451333Y-28004667D01*
X5448000Y-28004667D01*
X5441333Y-28008000D01*
X5438000Y-28011333D01*
X5434667Y-28018000D01*
X5434667Y-28031333D01*
X5438000Y-28038000D01*
X5441333Y-28041333D01*
X5448000Y-28044667D01*
X5451333Y-28044667D01*
X5458000Y-28041333D01*
X5461333Y-28038000D01*
X5464667Y-28031333D01*
X5464667Y-28018000D01*
X5468000Y-28011333D01*
X5471333Y-28008000D01*
X5478000Y-28004667D01*
X5491333Y-28004667D01*
X5498000Y-28008000D01*
X5501333Y-28011333D01*
X5504667Y-28018000D01*
X5504667Y-28031333D01*
X5501333Y-28038000D01*
X5498000Y-28041333D01*
X5491333Y-28044667D01*
X5478000Y-28044667D01*
X5471333Y-28041333D01*
X5468000Y-28038000D01*
X5464667Y-28031333D01*
%LPC*%
D13*
X11335000Y-27170000D03*
D14*
X12110000Y-27096000D03*
X11983000Y-27350000D03*
X11856000Y-27096000D03*
X11729000Y-27350000D03*
X11602000Y-27096000D03*
D15*
X11475000Y-27350000D03*
D16*
X5350000Y-4325000D03*
X5000000Y-4825000D03*
X4650000Y-4325000D03*
X6675000Y-4325000D03*
X6325000Y-4825000D03*
X5975000Y-4325000D03*
X11700000Y-4775000D03*
X12050000Y-4275000D03*
X12400000Y-4775000D03*
X12750000Y-4275000D03*
X4500000Y-16875000D03*
X4000000Y-16525000D03*
X4500000Y-18075000D03*
X4000000Y-17725000D03*
X12050000Y-22975000D03*
X12550000Y-23325000D03*
X12050000Y-20500000D03*
X12550000Y-20850000D03*
X12050000Y-18000000D03*
X12550000Y-18350000D03*
X12050000Y-15500000D03*
X12550000Y-15850000D03*
X3675000Y-4825000D03*
X4025000Y-4325000D03*
X7350000Y-4825000D03*
X7700000Y-4325000D03*
X8525000Y-4800000D03*
X8875000Y-4300000D03*
X9975000Y-4775000D03*
X10325000Y-4275000D03*
X4550000Y-20700000D03*
X4050000Y-20350000D03*
D17*
X3444706Y-3105294D03*
X3275000Y-3035000D03*
X3105294Y-3105294D03*
X3035000Y-3275000D03*
X3105294Y-3444706D03*
X3275000Y-3515000D03*
X3444706Y-3444706D03*
X3515000Y-3275000D03*
D18*
X3275000Y-3275000D03*
D17*
X12994706Y-3105294D03*
X12825000Y-3035000D03*
X12655294Y-3105294D03*
X12585000Y-3275000D03*
X12655294Y-3444706D03*
X12825000Y-3515000D03*
X12994706Y-3444706D03*
X13065000Y-3275000D03*
D18*
X12825000Y-3275000D03*
D17*
X3444706Y-27755294D03*
X3275000Y-27685000D03*
X3105294Y-27755294D03*
X3035000Y-27925000D03*
X3105294Y-28094706D03*
X3275000Y-28165000D03*
X3444706Y-28094706D03*
X3515000Y-27925000D03*
D18*
X3275000Y-27925000D03*
D17*
X12994706Y-27755294D03*
X12825000Y-27685000D03*
X12655294Y-27755294D03*
X12585000Y-27925000D03*
X12655294Y-28094706D03*
X12825000Y-28165000D03*
X12994706Y-28094706D03*
X13065000Y-27925000D03*
D18*
X12825000Y-27925000D03*
D19*
X12928000Y-25477000D03*
X12928000Y-25731000D03*
X12928000Y-25985000D03*
X12928000Y-26239000D03*
X12928000Y-26493000D03*
D20*
X12928000Y-26747000D03*
D19*
X4004000Y-26191000D03*
X3750000Y-26191000D03*
X4004000Y-25937000D03*
X3750000Y-25937000D03*
X4004000Y-25683000D03*
X3750000Y-25683000D03*
X4004000Y-25429000D03*
X3750000Y-25429000D03*
X4004000Y-25175000D03*
D20*
X3750000Y-25175000D03*
D19*
X10576000Y-27871000D03*
X10576000Y-28125000D03*
X10322000Y-27871000D03*
X10322000Y-28125000D03*
X10068000Y-27871000D03*
X10068000Y-28125000D03*
X9814000Y-27871000D03*
X9814000Y-28125000D03*
X9560000Y-27871000D03*
X9560000Y-28125000D03*
X9306000Y-27871000D03*
X9306000Y-28125000D03*
X9052000Y-27871000D03*
X9052000Y-28125000D03*
X8798000Y-27871000D03*
X8798000Y-28125000D03*
X8544000Y-27871000D03*
X8544000Y-28125000D03*
X8290000Y-27871000D03*
X8290000Y-28125000D03*
X8036000Y-27871000D03*
X8036000Y-28125000D03*
X7782000Y-27871000D03*
X7782000Y-28125000D03*
X7528000Y-27871000D03*
X7528000Y-28125000D03*
X7274000Y-27871000D03*
X7274000Y-28125000D03*
X7020000Y-27871000D03*
X7020000Y-28125000D03*
X6766000Y-27871000D03*
X6766000Y-28125000D03*
X6512000Y-27871000D03*
X6512000Y-28125000D03*
X6258000Y-27871000D03*
X6258000Y-28125000D03*
X6004000Y-27871000D03*
X6004000Y-28125000D03*
X5750000Y-27871000D03*
D20*
X5750000Y-28125000D03*
D21*
X11300000Y-14975000D03*
X11175000Y-14975000D03*
X11050000Y-14875000D03*
X11175000Y-14875000D03*
X11300000Y-14875000D03*
X11300000Y-14775000D03*
X11175000Y-14775000D03*
X11050000Y-14775000D03*
X6225000Y-25650000D03*
X6225000Y-25200000D03*
X6450000Y-25425000D03*
X6000000Y-25425000D03*
X6450000Y-25200000D03*
X6450000Y-25650000D03*
X6000000Y-25650000D03*
X6000000Y-25200000D03*
X10970000Y-13550000D03*
X10490000Y-13390000D03*
X10810000Y-13550000D03*
X10650000Y-13550000D03*
X10490000Y-13550000D03*
X10810000Y-13390000D03*
X10650000Y-13390000D03*
X10970000Y-13390000D03*
X10970000Y-13230000D03*
X10490000Y-13070000D03*
X10810000Y-13230000D03*
X10650000Y-13230000D03*
X10490000Y-13230000D03*
X10810000Y-13070000D03*
X10650000Y-13070000D03*
X10970000Y-13070000D03*
X10970000Y-12910000D03*
X10810000Y-12910000D03*
X10650000Y-12910000D03*
X10490000Y-12910000D03*
X10810000Y-12750000D03*
X10490000Y-12750000D03*
D17*
X9150000Y-26325000D03*
X9150000Y-25775000D03*
X9175000Y-26875000D03*
X9150000Y-25225000D03*
X9150000Y-24675000D03*
X9150000Y-24125000D03*
X5945000Y-23870000D03*
X6370000Y-23870000D03*
X5675000Y-20075000D03*
X3818750Y-23081250D03*
X3818750Y-23838750D03*
X6630000Y-26010000D03*
X5150000Y-25270000D03*
X5156250Y-25396250D03*
X5605000Y-24825000D03*
X3780000Y-21280000D03*
X3770000Y-21790000D03*
X4710000Y-19550000D03*
X5370000Y-19390000D03*
X5530000Y-19150000D03*
X7650000Y-18300000D03*
D21*
X7197502Y-18059143D03*
X6572500Y-17615000D03*
D17*
X7390000Y-17310000D03*
X7290000Y-16610000D03*
X6197789Y-16852501D03*
X6032501Y-16852501D03*
X5745000Y-18200000D03*
X9563000Y-15217000D03*
X6400000Y-10100000D03*
X6700000Y-9540000D03*
X7175000Y-9495000D03*
X6110000Y-9550000D03*
X6350000Y-8890000D03*
X6750000Y-8230000D03*
X6330000Y-8250000D03*
X5970000Y-7110000D03*
X6631250Y-7111250D03*
X6950000Y-6550000D03*
X6903750Y-6003750D03*
X3700000Y-10060000D03*
X3640000Y-8780000D03*
X4250000Y-9390000D03*
X3150000Y-9390000D03*
X3770000Y-7110000D03*
X4270000Y-8310000D03*
X3550000Y-7830000D03*
X3770000Y-7510000D03*
X3210000Y-6470000D03*
X4310000Y-6550000D03*
X4110000Y-6050000D03*
X8355000Y-5945000D03*
X7730000Y-6410000D03*
X8570000Y-7870000D03*
X9430000Y-7630000D03*
X10080000Y-6740000D03*
X12350000Y-12510000D03*
X12350000Y-13050000D03*
X11790000Y-12890000D03*
X11450000Y-12890000D03*
X11150000Y-13190000D03*
X11150000Y-13410000D03*
X11150000Y-13610000D03*
X10330000Y-13610000D03*
X10330000Y-13410000D03*
X10330000Y-13190000D03*
X10330000Y-12710000D03*
X11150000Y-12690000D03*
X10070000Y-12930000D03*
X9770000Y-12930000D03*
X9190000Y-13110000D03*
X9190000Y-13550000D03*
X9190000Y-13310000D03*
X10490000Y-13690000D03*
X10730000Y-13690000D03*
X10970000Y-13690000D03*
X11150000Y-12950000D03*
X10330000Y-12950000D03*
D21*
X10970000Y-12750000D03*
X10650000Y-12750000D03*
D17*
X12350000Y-12770000D03*
D21*
X10950000Y-11070000D03*
X10470000Y-10910000D03*
X10790000Y-11070000D03*
X10630000Y-11070000D03*
X10470000Y-11070000D03*
X10790000Y-10910000D03*
X10630000Y-10910000D03*
X10950000Y-10910000D03*
X10950000Y-10750000D03*
X10470000Y-10590000D03*
X10790000Y-10750000D03*
X10630000Y-10750000D03*
X10470000Y-10750000D03*
X10790000Y-10590000D03*
X10630000Y-10590000D03*
X10950000Y-10590000D03*
X10950000Y-10430000D03*
X10790000Y-10430000D03*
X10630000Y-10430000D03*
X10470000Y-10430000D03*
X10790000Y-10270000D03*
X10470000Y-10270000D03*
D17*
X12330000Y-10030000D03*
X12330000Y-10570000D03*
X11770000Y-10410000D03*
X11430000Y-10410000D03*
X11130000Y-10710000D03*
X11130000Y-10930000D03*
X11130000Y-11130000D03*
X10310000Y-11130000D03*
X10310000Y-10930000D03*
X10310000Y-10710000D03*
X10310000Y-10230000D03*
X11130000Y-10210000D03*
X10050000Y-10450000D03*
X9750000Y-10450000D03*
X9170000Y-10630000D03*
X9170000Y-11070000D03*
X9170000Y-10830000D03*
X10470000Y-11210000D03*
X10710000Y-11210000D03*
X10950000Y-11210000D03*
X11130000Y-10470000D03*
X10310000Y-10470000D03*
D21*
X10950000Y-10270000D03*
X10630000Y-10270000D03*
D17*
X12330000Y-10290000D03*
X5050000Y-10100000D03*
X5350000Y-9540000D03*
X4760000Y-9550000D03*
X5000000Y-8890000D03*
X5400000Y-8230000D03*
X4980000Y-8250000D03*
X4620000Y-7110000D03*
X5281250Y-7111250D03*
X5600000Y-6550000D03*
X5553750Y-6003750D03*
D21*
X4915000Y-26850000D03*
D17*
X11550000Y-25610000D03*
X11550000Y-26370000D03*
X12288750Y-26728750D03*
X3750000Y-10700000D03*
X6800000Y-11125000D03*
X3725000Y-11125000D03*
X6825000Y-10675000D03*
X4575000Y-27825000D03*
X11300000Y-24275000D03*
D21*
X6225000Y-25425000D03*
D17*
X4650000Y-23350000D03*
X4950000Y-24650000D03*
X3550000Y-19125000D03*
X6275000Y-20650000D03*
X10978750Y-26621250D03*
X10725000Y-26325000D03*
X10400000Y-26300000D03*
X9775000Y-26325000D03*
D21*
X6656748Y-24816747D03*
X6850000Y-25350000D03*
X6852246Y-25487748D03*
D17*
X4825000Y-11475000D03*
X3710000Y-12965000D03*
X6125000Y-12925000D03*
X5959000Y-15241000D03*
X6300000Y-15000000D03*
X3509000Y-15291000D03*
X3850000Y-14950000D03*
X5700000Y-16000000D03*
X7350000Y-13850000D03*
D21*
X11055000Y-14980000D03*
D17*
X10575000Y-14150000D03*
X9900000Y-14650000D03*
X9393999Y-16000000D03*
X10100000Y-15800000D03*
X5550000Y-11575000D03*
D21*
X11300000Y-17475000D03*
X11175000Y-17475000D03*
X11050000Y-17375000D03*
X11175000Y-17375000D03*
X11300000Y-17375000D03*
X11300000Y-17275000D03*
X11175000Y-17275000D03*
X11050000Y-17275000D03*
D17*
X9563000Y-17717000D03*
D21*
X11055000Y-17480000D03*
D17*
X9900000Y-17150000D03*
X9393999Y-18500000D03*
X10100000Y-18300000D03*
D21*
X11300000Y-19975000D03*
X11175000Y-19975000D03*
X11050000Y-19875000D03*
X11175000Y-19875000D03*
X11300000Y-19875000D03*
X11300000Y-19775000D03*
X11175000Y-19775000D03*
X11050000Y-19775000D03*
D17*
X9563000Y-20217000D03*
D21*
X11055000Y-19980000D03*
D17*
X9900000Y-19650000D03*
X9393999Y-21000000D03*
X10100000Y-20800000D03*
D21*
X11300000Y-22475000D03*
X11175000Y-22475000D03*
X11050000Y-22375000D03*
X11175000Y-22375000D03*
X11300000Y-22375000D03*
X11300000Y-22275000D03*
X11175000Y-22275000D03*
X11050000Y-22275000D03*
D17*
X9563000Y-22717000D03*
D21*
X11055000Y-22480000D03*
D17*
X9900000Y-22150000D03*
X9393999Y-23500000D03*
X10100000Y-23300000D03*
X10775000Y-16450000D03*
X10775000Y-18950000D03*
X10775000Y-21450000D03*
X6028750Y-24353750D03*
D21*
X5100000Y-10725000D03*
X5150000Y-11000000D03*
X5350000Y-10725000D03*
D17*
X8131002Y-19825000D03*
X5923503Y-16867612D03*
D21*
X7775000Y-20545700D03*
X7175000Y-20545700D03*
X7227805Y-21372195D03*
X8140002Y-20275000D03*
X6900000Y-20850000D03*
X5950000Y-21975000D03*
D17*
X7725000Y-13050000D03*
X6325000Y-12475000D03*
X3840830Y-12490830D03*
X7525000Y-19975001D03*
X6825000Y-19425000D03*
X6500000Y-19225000D03*
X5975000Y-19575000D03*
X6002436Y-26019439D03*
D21*
X8075000Y-21025000D03*
D17*
X12895000Y-14345000D03*
X12895000Y-14165000D03*
X12190000Y-7690000D03*
X12105000Y-7775000D03*
X12150000Y-8425000D03*
X10700000Y-15825000D03*
X10725000Y-16025000D03*
X12895000Y-16845000D03*
X12895000Y-16665000D03*
X10700000Y-18325000D03*
X10725000Y-18525000D03*
X12895000Y-19345000D03*
X12895000Y-19165000D03*
X10700000Y-20825000D03*
X10725000Y-21025000D03*
X12895000Y-21845000D03*
X12895000Y-21665000D03*
X10700000Y-23325000D03*
X10725000Y-23525000D03*
X12225000Y-6975000D03*
X12055000Y-14165000D03*
X12055000Y-14345000D03*
X12790000Y-8270000D03*
X12790000Y-8410000D03*
X12175000Y-8675000D03*
X12200000Y-11325000D03*
X12150000Y-13800000D03*
X12055000Y-16665000D03*
X12055000Y-16845000D03*
X12055000Y-19165000D03*
X12055000Y-19345000D03*
X12055000Y-21665000D03*
X12055000Y-21845000D03*
X7425000Y-20225000D03*
X6110000Y-9090000D03*
X6945000Y-6975000D03*
X6230000Y-6890000D03*
X5960000Y-6400000D03*
X3230000Y-9210000D03*
X3670000Y-7430000D03*
X3470000Y-6430000D03*
X7690000Y-6690000D03*
X7850000Y-9890000D03*
X4760000Y-9090000D03*
X5595000Y-6975000D03*
X4880000Y-6890000D03*
X4610000Y-6400000D03*
X7850000Y-10850000D03*
D21*
X7125000Y-20925000D03*
X7343750Y-21081250D03*
X7550000Y-20775000D03*
D17*
X6890000Y-5170000D03*
X10810000Y-6730000D03*
X5575000Y-5175000D03*
D21*
X7975000Y-20225000D03*
D17*
X5575000Y-23500000D03*
X6060000Y-23515000D03*
X4660000Y-23060000D03*
D21*
X6225000Y-24825000D03*
D17*
X7508750Y-25768750D03*
X6510000Y-26510000D03*
X5810000Y-26510000D03*
X5156250Y-25096250D03*
X5871250Y-24351250D03*
X6571250Y-24351250D03*
X9290000Y-15510000D03*
X4970000Y-27085000D03*
X5300000Y-23825000D03*
X7475000Y-26700000D03*
X11275000Y-26600000D03*
X3475000Y-10575000D03*
X3950000Y-18725000D03*
X3475000Y-11725000D03*
X9290000Y-18010000D03*
X9290000Y-20510000D03*
X9290000Y-23010000D03*
X7100000Y-23125000D03*
D21*
X6200001Y-21975000D03*
D17*
X3025000Y-13925000D03*
X4950000Y-20010000D03*
X4830000Y-21310000D03*
X5375000Y-18950000D03*
X6925000Y-18750000D03*
X6785000Y-17315000D03*
X7378750Y-17751250D03*
X6150000Y-16710000D03*
X5755500Y-17360000D03*
X7725000Y-15950000D03*
X7750000Y-15800000D03*
D21*
X7875000Y-23850000D03*
D17*
X6370000Y-21690000D03*
X8455000Y-9685000D03*
X8985000Y-7710000D03*
X7510000Y-25430000D03*
X5153750Y-25553750D03*
X5050000Y-24250000D03*
X6500000Y-20150000D03*
X6100000Y-21850000D03*
X8475000Y-12165000D03*
X12390000Y-25090000D03*
X8375000Y-27300000D03*
D21*
X7075000Y-27525000D03*
X8743000Y-27618000D03*
X5825000Y-27050000D03*
X6975000Y-27525000D03*
D17*
X7550000Y-27050000D03*
X7200000Y-11275000D03*
X9175000Y-23950000D03*
X5300000Y-11975000D03*
X5275000Y-14000000D03*
D21*
X7074999Y-27650000D03*
X8825000Y-27550000D03*
X5850000Y-26950000D03*
X8900000Y-27475000D03*
X5900000Y-26875000D03*
X6975000Y-27655155D03*
X8975000Y-27400000D03*
X5975000Y-26825000D03*
D17*
X7725000Y-21950000D03*
X6050000Y-11425000D03*
X5925000Y-11425000D03*
X7600000Y-21950000D03*
D21*
X6153000Y-13100000D03*
X6950000Y-12025000D03*
X7175000Y-11950000D03*
X5712251Y-15187749D03*
X7400000Y-13650000D03*
X7643000Y-13650000D03*
D17*
X7450000Y-22025001D03*
X5800000Y-11425000D03*
D21*
X6075000Y-13100000D03*
X6100000Y-15300000D03*
D17*
X4400000Y-26175000D03*
X4375000Y-26050000D03*
X7225000Y-24675000D03*
X5675000Y-18885000D03*
X5850000Y-23100000D03*
D21*
X3600000Y-13050000D03*
X3775000Y-11425000D03*
X4400000Y-12025000D03*
X3650000Y-15349999D03*
D17*
X6350000Y-23100000D03*
D21*
X3710000Y-13090000D03*
X3875000Y-11425000D03*
X4468000Y-12082000D03*
X3250000Y-15225000D03*
D17*
X7000000Y-26775000D03*
X11774999Y-11799999D03*
X6525000Y-23100000D03*
D21*
X6850000Y-24400000D03*
X3975000Y-11425000D03*
D17*
X5990000Y-8490001D03*
D21*
X5350000Y-10600000D03*
D17*
X6925000Y-8150000D03*
X5700000Y-11153500D03*
X5900000Y-8625000D03*
X5910000Y-9210000D03*
X6875000Y-9100000D03*
X5150000Y-24925000D03*
X6050000Y-9190000D03*
X5050000Y-25000000D03*
X4640000Y-8490001D03*
D21*
X5125000Y-10600000D03*
D17*
X5575000Y-8150000D03*
X5550000Y-11150000D03*
X4550000Y-8625000D03*
X4560000Y-9210000D03*
X5525000Y-9100000D03*
X4975000Y-25550000D03*
D21*
X5600000Y-25500000D03*
D17*
X4700000Y-9190000D03*
X4975000Y-25675000D03*
X3550000Y-8050000D03*
D21*
X5025000Y-10650000D03*
D17*
X3575000Y-8225000D03*
X5400000Y-11150000D03*
X3650000Y-9550000D03*
X3100000Y-8550000D03*
X4275000Y-9200000D03*
X4875000Y-25725000D03*
X3075000Y-9175000D03*
X4799200Y-25800000D03*
D21*
X5600000Y-25325000D03*
D17*
X5125000Y-26525000D03*
X9926001Y-15230000D03*
X7475000Y-26300000D03*
X9926001Y-17730000D03*
X7400000Y-26425000D03*
X9926001Y-20230000D03*
X7300000Y-26500000D03*
X9926001Y-22730000D03*
X7225000Y-26575000D03*
X9450000Y-27674999D03*
X4770000Y-19710000D03*
X4990000Y-18490000D03*
X11750000Y-26725000D03*
X9271497Y-27100000D03*
X9150000Y-27125000D03*
X11125000Y-26525000D03*
X9150000Y-27025000D03*
X11300000Y-26425000D03*
D21*
X9025000Y-16650000D03*
X8125000Y-23725000D03*
X8125000Y-23625000D03*
X8575000Y-17775000D03*
X8125000Y-23525000D03*
X8600000Y-19975000D03*
X8125000Y-23425000D03*
X8625000Y-22550000D03*
X5350000Y-24675000D03*
D17*
X5400000Y-21225000D03*
D21*
X7000000Y-24325000D03*
X5225000Y-24775000D03*
X5925000Y-19300000D03*
M02*
