G04 #@! TF.GenerationSoftware,KiCad,Pcbnew,(5.1.4)-1*
G04 #@! TF.CreationDate,2020-04-19T20:13:49-04:00*
G04 #@! TF.ProjectId,RPi_cape,5250695f-6361-4706-952e-6b696361645f,1.7*
G04 #@! TF.SameCoordinates,Original*
G04 #@! TF.FileFunction,Legend,Bot*
G04 #@! TF.FilePolarity,Positive*
%FSLAX45Y45*%
G04 Gerber Fmt 4.5, Leading zero omitted, Abs format (unit mm)*
G04 Created by KiCad (PCBNEW (5.1.4)-1) date 2020-04-19 20:13:49*
%MOMM*%
%LPD*%
G04 APERTURE LIST*
%ADD10C,0.120000*%
%ADD11C,0.150000*%
%ADD12C,0.160000*%
%ADD13C,2.402000*%
%ADD14C,0.902000*%
%ADD15C,6.502000*%
%ADD16O,1.802000X1.802000*%
%ADD17R,1.802000X1.802000*%
G04 APERTURE END LIST*
D10*
X5617000Y-28125000D02*
X5617000Y-28258000D01*
X5617000Y-28258000D02*
X5750000Y-28258000D01*
X5617000Y-27998000D02*
X5877000Y-27998000D01*
X5877000Y-27998000D02*
X5877000Y-28258000D01*
X5877000Y-28258000D02*
X10709000Y-28258000D01*
X10709000Y-27738000D02*
X10709000Y-28258000D01*
X5617000Y-27738000D02*
X10709000Y-27738000D01*
X5617000Y-27738000D02*
X5617000Y-27998000D01*
D11*
X5393571Y-4570238D02*
X5336429Y-4570238D01*
X5365000Y-4570238D02*
X5365000Y-4470238D01*
X5355476Y-4484524D01*
X5345952Y-4494048D01*
X5336429Y-4498810D01*
X4616667Y-4490238D02*
X4678571Y-4490238D01*
X4645238Y-4528333D01*
X4659524Y-4528333D01*
X4669048Y-4533095D01*
X4673810Y-4537857D01*
X4678571Y-4547381D01*
X4678571Y-4571190D01*
X4673810Y-4580714D01*
X4669048Y-4585476D01*
X4659524Y-4590238D01*
X4630952Y-4590238D01*
X4621429Y-4585476D01*
X4616667Y-4580714D01*
X5393571Y-4570238D02*
X5336429Y-4570238D01*
X5365000Y-4570238D02*
X5365000Y-4470238D01*
X5355476Y-4484524D01*
X5345952Y-4494048D01*
X5336429Y-4498810D01*
X4976429Y-4569762D02*
X4981190Y-4565000D01*
X4990714Y-4560238D01*
X5014524Y-4560238D01*
X5024048Y-4565000D01*
X5028810Y-4569762D01*
X5033571Y-4579286D01*
X5033571Y-4588810D01*
X5028810Y-4603095D01*
X4971667Y-4660238D01*
X5033571Y-4660238D01*
X4616667Y-4490238D02*
X4678571Y-4490238D01*
X4645238Y-4528333D01*
X4659524Y-4528333D01*
X4669048Y-4533095D01*
X4673810Y-4537857D01*
X4678571Y-4547381D01*
X4678571Y-4571190D01*
X4673810Y-4580714D01*
X4669048Y-4585476D01*
X4659524Y-4590238D01*
X4630952Y-4590238D01*
X4621429Y-4585476D01*
X4616667Y-4580714D01*
X6718571Y-4570238D02*
X6661428Y-4570238D01*
X6690000Y-4570238D02*
X6690000Y-4470238D01*
X6680476Y-4484524D01*
X6670952Y-4494048D01*
X6661428Y-4498810D01*
X5941667Y-4490238D02*
X6003571Y-4490238D01*
X5970238Y-4528333D01*
X5984524Y-4528333D01*
X5994048Y-4533095D01*
X5998809Y-4537857D01*
X6003571Y-4547381D01*
X6003571Y-4571190D01*
X5998809Y-4580714D01*
X5994048Y-4585476D01*
X5984524Y-4590238D01*
X5955952Y-4590238D01*
X5946428Y-4585476D01*
X5941667Y-4580714D01*
X6718571Y-4570238D02*
X6661428Y-4570238D01*
X6690000Y-4570238D02*
X6690000Y-4470238D01*
X6680476Y-4484524D01*
X6670952Y-4494048D01*
X6661428Y-4498810D01*
X6301428Y-4569762D02*
X6306190Y-4565000D01*
X6315714Y-4560238D01*
X6339524Y-4560238D01*
X6349048Y-4565000D01*
X6353809Y-4569762D01*
X6358571Y-4579286D01*
X6358571Y-4588810D01*
X6353809Y-4603095D01*
X6296667Y-4660238D01*
X6358571Y-4660238D01*
X5941667Y-4490238D02*
X6003571Y-4490238D01*
X5970238Y-4528333D01*
X5984524Y-4528333D01*
X5994048Y-4533095D01*
X5998809Y-4537857D01*
X6003571Y-4547381D01*
X6003571Y-4571190D01*
X5998809Y-4580714D01*
X5994048Y-4585476D01*
X5984524Y-4590238D01*
X5955952Y-4590238D01*
X5946428Y-4585476D01*
X5941667Y-4580714D01*
X12011667Y-4430238D02*
X12073571Y-4430238D01*
X12040238Y-4468333D01*
X12054524Y-4468333D01*
X12064048Y-4473095D01*
X12068809Y-4477857D01*
X12073571Y-4487381D01*
X12073571Y-4511190D01*
X12068809Y-4520714D01*
X12064048Y-4525476D01*
X12054524Y-4530238D01*
X12025952Y-4530238D01*
X12016428Y-4525476D01*
X12011667Y-4520714D01*
X12376428Y-4519762D02*
X12381190Y-4515000D01*
X12390714Y-4510238D01*
X12414524Y-4510238D01*
X12424048Y-4515000D01*
X12428809Y-4519762D01*
X12433571Y-4529286D01*
X12433571Y-4538810D01*
X12428809Y-4553095D01*
X12371667Y-4610238D01*
X12433571Y-4610238D01*
D12*
X5434667Y-27974667D02*
X5484667Y-27974667D01*
X5494667Y-27971333D01*
X5501333Y-27964667D01*
X5504667Y-27954667D01*
X5504667Y-27948000D01*
X5464667Y-28018000D02*
X5461333Y-28011333D01*
X5458000Y-28008000D01*
X5451333Y-28004667D01*
X5448000Y-28004667D01*
X5441333Y-28008000D01*
X5438000Y-28011333D01*
X5434667Y-28018000D01*
X5434667Y-28031333D01*
X5438000Y-28038000D01*
X5441333Y-28041333D01*
X5448000Y-28044667D01*
X5451333Y-28044667D01*
X5458000Y-28041333D01*
X5461333Y-28038000D01*
X5464667Y-28031333D01*
X5464667Y-28018000D01*
X5468000Y-28011333D01*
X5471333Y-28008000D01*
X5478000Y-28004667D01*
X5491333Y-28004667D01*
X5498000Y-28008000D01*
X5501333Y-28011333D01*
X5504667Y-28018000D01*
X5504667Y-28031333D01*
X5501333Y-28038000D01*
X5498000Y-28041333D01*
X5491333Y-28044667D01*
X5478000Y-28044667D01*
X5471333Y-28041333D01*
X5468000Y-28038000D01*
X5464667Y-28031333D01*
%LPC*%
D13*
X5350000Y-4325000D03*
X5000000Y-4825000D03*
X4650000Y-4325000D03*
X6675000Y-4325000D03*
X6325000Y-4825000D03*
X5975000Y-4325000D03*
X11700000Y-4775000D03*
X12050000Y-4275000D03*
X12400000Y-4775000D03*
X12750000Y-4275000D03*
X4500000Y-16875000D03*
X4000000Y-16525000D03*
X4500000Y-18075000D03*
X4000000Y-17725000D03*
X12050000Y-22975000D03*
X12550000Y-23325000D03*
X12050000Y-20500000D03*
X12550000Y-20850000D03*
X12050000Y-18000000D03*
X12550000Y-18350000D03*
X12050000Y-15500000D03*
X12550000Y-15850000D03*
X3675000Y-4825000D03*
X4025000Y-4325000D03*
X7350000Y-4825000D03*
X7700000Y-4325000D03*
X8525000Y-4800000D03*
X8875000Y-4300000D03*
X9975000Y-4775000D03*
X10325000Y-4275000D03*
X4550000Y-20700000D03*
X4050000Y-20350000D03*
D14*
X3444706Y-3105294D03*
X3275000Y-3035000D03*
X3105294Y-3105294D03*
X3035000Y-3275000D03*
X3105294Y-3444706D03*
X3275000Y-3515000D03*
X3444706Y-3444706D03*
X3515000Y-3275000D03*
D15*
X3275000Y-3275000D03*
D14*
X12994706Y-3105294D03*
X12825000Y-3035000D03*
X12655294Y-3105294D03*
X12585000Y-3275000D03*
X12655294Y-3444706D03*
X12825000Y-3515000D03*
X12994706Y-3444706D03*
X13065000Y-3275000D03*
D15*
X12825000Y-3275000D03*
D14*
X3444706Y-27755294D03*
X3275000Y-27685000D03*
X3105294Y-27755294D03*
X3035000Y-27925000D03*
X3105294Y-28094706D03*
X3275000Y-28165000D03*
X3444706Y-28094706D03*
X3515000Y-27925000D03*
D15*
X3275000Y-27925000D03*
D14*
X12994706Y-27755294D03*
X12825000Y-27685000D03*
X12655294Y-27755294D03*
X12585000Y-27925000D03*
X12655294Y-28094706D03*
X12825000Y-28165000D03*
X12994706Y-28094706D03*
X13065000Y-27925000D03*
D15*
X12825000Y-27925000D03*
D16*
X12928000Y-25477000D03*
X12928000Y-25731000D03*
X12928000Y-25985000D03*
X12928000Y-26239000D03*
X12928000Y-26493000D03*
D17*
X12928000Y-26747000D03*
D16*
X4004000Y-26191000D03*
X3750000Y-26191000D03*
X4004000Y-25937000D03*
X3750000Y-25937000D03*
X4004000Y-25683000D03*
X3750000Y-25683000D03*
X4004000Y-25429000D03*
X3750000Y-25429000D03*
X4004000Y-25175000D03*
D17*
X3750000Y-25175000D03*
D16*
X10576000Y-27871000D03*
X10576000Y-28125000D03*
X10322000Y-27871000D03*
X10322000Y-28125000D03*
X10068000Y-27871000D03*
X10068000Y-28125000D03*
X9814000Y-27871000D03*
X9814000Y-28125000D03*
X9560000Y-27871000D03*
X9560000Y-28125000D03*
X9306000Y-27871000D03*
X9306000Y-28125000D03*
X9052000Y-27871000D03*
X9052000Y-28125000D03*
X8798000Y-27871000D03*
X8798000Y-28125000D03*
X8544000Y-27871000D03*
X8544000Y-28125000D03*
X8290000Y-27871000D03*
X8290000Y-28125000D03*
X8036000Y-27871000D03*
X8036000Y-28125000D03*
X7782000Y-27871000D03*
X7782000Y-28125000D03*
X7528000Y-27871000D03*
X7528000Y-28125000D03*
X7274000Y-27871000D03*
X7274000Y-28125000D03*
X7020000Y-27871000D03*
X7020000Y-28125000D03*
X6766000Y-27871000D03*
X6766000Y-28125000D03*
X6512000Y-27871000D03*
X6512000Y-28125000D03*
X6258000Y-27871000D03*
X6258000Y-28125000D03*
X6004000Y-27871000D03*
X6004000Y-28125000D03*
X5750000Y-27871000D03*
D17*
X5750000Y-28125000D03*
M02*
