G04 #@! TF.GenerationSoftware,KiCad,Pcbnew,(5.1.4)-1*
G04 #@! TF.CreationDate,2020-07-05T12:22:21-04:00*
G04 #@! TF.ProjectId,RPi_cape,5250695f-6361-4706-952e-6b696361645f,1.8*
G04 #@! TF.SameCoordinates,Original*
G04 #@! TF.FileFunction,Legend,Bot*
G04 #@! TF.FilePolarity,Positive*
%FSLAX45Y45*%
G04 Gerber Fmt 4.5, Leading zero omitted, Abs format (unit mm)*
G04 Created by KiCad (PCBNEW (5.1.4)-1) date 2020-07-05 12:22:21*
%MOMM*%
%LPD*%
G04 APERTURE LIST*
%ADD10C,0.120000*%
%ADD11C,0.150000*%
%ADD12C,0.160000*%
%ADD13C,0.902000*%
%ADD14C,7.502000*%
%ADD15C,1.652000*%
%ADD16C,1.460000*%
%ADD17R,1.460000X1.460000*%
%ADD18C,2.402000*%
%ADD19O,1.802000X1.802000*%
%ADD20R,1.802000X1.802000*%
%ADD21C,0.722000*%
G04 APERTURE END LIST*
D10*
X6517000Y-28125000D02*
X6517000Y-28258000D01*
X6517000Y-28258000D02*
X6650000Y-28258000D01*
X6517000Y-27998000D02*
X6777000Y-27998000D01*
X6777000Y-27998000D02*
X6777000Y-28258000D01*
X6777000Y-28258000D02*
X11609000Y-28258000D01*
X11609000Y-27738000D02*
X11609000Y-28258000D01*
X6517000Y-27738000D02*
X11609000Y-27738000D01*
X6517000Y-27738000D02*
X6517000Y-27998000D01*
D11*
X12911667Y-4430238D02*
X12973571Y-4430238D01*
X12940238Y-4468333D01*
X12954524Y-4468333D01*
X12964048Y-4473095D01*
X12968809Y-4477857D01*
X12973571Y-4487381D01*
X12973571Y-4511190D01*
X12968809Y-4520714D01*
X12964048Y-4525476D01*
X12954524Y-4530238D01*
X12925952Y-4530238D01*
X12916428Y-4525476D01*
X12911667Y-4520714D01*
X13276428Y-4519762D02*
X13281190Y-4515000D01*
X13290714Y-4510238D01*
X13314524Y-4510238D01*
X13324048Y-4515000D01*
X13328809Y-4519762D01*
X13333571Y-4529286D01*
X13333571Y-4538810D01*
X13328809Y-4553095D01*
X13271667Y-4610238D01*
X13333571Y-4610238D01*
X6236428Y-4570238D02*
X6293571Y-4570238D01*
X6265000Y-4570238D02*
X6265000Y-4470238D01*
X6274524Y-4484524D01*
X6284048Y-4494048D01*
X6293571Y-4498810D01*
X5876428Y-4569762D02*
X5881190Y-4565000D01*
X5890714Y-4560238D01*
X5914524Y-4560238D01*
X5924048Y-4565000D01*
X5928809Y-4569762D01*
X5933571Y-4579286D01*
X5933571Y-4588810D01*
X5928809Y-4603095D01*
X5871667Y-4660238D01*
X5933571Y-4660238D01*
X5583333Y-4470238D02*
X5521429Y-4470238D01*
X5554762Y-4508333D01*
X5540476Y-4508333D01*
X5530952Y-4513095D01*
X5526190Y-4517857D01*
X5521429Y-4527381D01*
X5521429Y-4551190D01*
X5526190Y-4560714D01*
X5530952Y-4565476D01*
X5540476Y-4570238D01*
X5569048Y-4570238D01*
X5578571Y-4565476D01*
X5583333Y-4560714D01*
X7561428Y-4570238D02*
X7618571Y-4570238D01*
X7590000Y-4570238D02*
X7590000Y-4470238D01*
X7599524Y-4484524D01*
X7609048Y-4494048D01*
X7618571Y-4498810D01*
X7201428Y-4569762D02*
X7206190Y-4565000D01*
X7215714Y-4560238D01*
X7239524Y-4560238D01*
X7249048Y-4565000D01*
X7253809Y-4569762D01*
X7258571Y-4579286D01*
X7258571Y-4588810D01*
X7253809Y-4603095D01*
X7196667Y-4660238D01*
X7258571Y-4660238D01*
X6908333Y-4470238D02*
X6846428Y-4470238D01*
X6879762Y-4508333D01*
X6865476Y-4508333D01*
X6855952Y-4513095D01*
X6851190Y-4517857D01*
X6846428Y-4527381D01*
X6846428Y-4551190D01*
X6851190Y-4560714D01*
X6855952Y-4565476D01*
X6865476Y-4570238D01*
X6894048Y-4570238D01*
X6903571Y-4565476D01*
X6908333Y-4560714D01*
X4608571Y-4479762D02*
X4603810Y-4475000D01*
X4594286Y-4470238D01*
X4570476Y-4470238D01*
X4560952Y-4475000D01*
X4556190Y-4479762D01*
X4551429Y-4489286D01*
X4551429Y-4498810D01*
X4556190Y-4513095D01*
X4613333Y-4570238D01*
X4551429Y-4570238D01*
X8283571Y-4479762D02*
X8278809Y-4475000D01*
X8269286Y-4470238D01*
X8245476Y-4470238D01*
X8235952Y-4475000D01*
X8231190Y-4479762D01*
X8226428Y-4489286D01*
X8226428Y-4498810D01*
X8231190Y-4513095D01*
X8288333Y-4570238D01*
X8226428Y-4570238D01*
X5104762Y-20666429D02*
X5100000Y-20671190D01*
X5095238Y-20680714D01*
X5095238Y-20704524D01*
X5100000Y-20714048D01*
X5104762Y-20718810D01*
X5114286Y-20723571D01*
X5123810Y-20723571D01*
X5138095Y-20718810D01*
X5195238Y-20661667D01*
X5195238Y-20723571D01*
D12*
X6334667Y-27974667D02*
X6384667Y-27974667D01*
X6394667Y-27971333D01*
X6401333Y-27964667D01*
X6404667Y-27954667D01*
X6404667Y-27948000D01*
X6364667Y-28018000D02*
X6361333Y-28011333D01*
X6358000Y-28008000D01*
X6351333Y-28004667D01*
X6348000Y-28004667D01*
X6341333Y-28008000D01*
X6338000Y-28011333D01*
X6334667Y-28018000D01*
X6334667Y-28031333D01*
X6338000Y-28038000D01*
X6341333Y-28041333D01*
X6348000Y-28044667D01*
X6351333Y-28044667D01*
X6358000Y-28041333D01*
X6361333Y-28038000D01*
X6364667Y-28031333D01*
X6364667Y-28018000D01*
X6368000Y-28011333D01*
X6371333Y-28008000D01*
X6378000Y-28004667D01*
X6391333Y-28004667D01*
X6398000Y-28008000D01*
X6401333Y-28011333D01*
X6404667Y-28018000D01*
X6404667Y-28031333D01*
X6401333Y-28038000D01*
X6398000Y-28041333D01*
X6391333Y-28044667D01*
X6378000Y-28044667D01*
X6371333Y-28041333D01*
X6368000Y-28038000D01*
X6364667Y-28031333D01*
%LPC*%
D13*
X4421222Y-8646222D03*
D14*
X4225000Y-8450000D03*
D13*
X3947500Y-8450000D03*
X4028778Y-8253778D03*
X4225000Y-8727500D03*
X4502500Y-8450000D03*
X4421222Y-8253778D03*
X4028778Y-8646222D03*
X4225000Y-8172500D03*
X8871222Y-8646222D03*
D14*
X8675000Y-8450000D03*
D13*
X8397500Y-8450000D03*
X8478778Y-8253778D03*
X8675000Y-8727500D03*
X8952500Y-8450000D03*
X8871222Y-8253778D03*
X8478778Y-8646222D03*
X8675000Y-8172500D03*
X8871222Y-15821222D03*
D14*
X8675000Y-15625000D03*
D13*
X8397500Y-15625000D03*
X8478778Y-15428778D03*
X8675000Y-15902500D03*
X8952500Y-15625000D03*
X8871222Y-15428778D03*
X8478778Y-15821222D03*
X8675000Y-15347500D03*
X4225000Y-15902500D03*
X4421222Y-15821222D03*
X4028778Y-15428778D03*
X4225000Y-15347500D03*
X4028778Y-15821222D03*
X4502500Y-15625000D03*
X4421222Y-15428778D03*
D14*
X4225000Y-15625000D03*
D13*
X3947500Y-15625000D03*
X9896222Y-20903778D03*
X9700000Y-20822500D03*
X9503778Y-20903778D03*
X9422500Y-21100000D03*
X9503778Y-21296222D03*
X9700000Y-21377500D03*
X9896222Y-21296222D03*
X9977500Y-21100000D03*
D14*
X9700000Y-21100000D03*
D13*
X4371222Y-3078778D03*
X4175000Y-2997500D03*
X3978778Y-3078778D03*
X3897500Y-3275000D03*
X3978778Y-3471222D03*
X4175000Y-3552500D03*
X4371222Y-3471222D03*
X4452500Y-3275000D03*
D14*
X4175000Y-3275000D03*
D13*
X13921222Y-3078778D03*
X13725000Y-2997500D03*
X13528778Y-3078778D03*
X13447500Y-3275000D03*
X13528778Y-3471222D03*
X13725000Y-3552500D03*
X13921222Y-3471222D03*
X14002500Y-3275000D03*
D14*
X13725000Y-3275000D03*
D13*
X4371222Y-27728778D03*
X4175000Y-27647500D03*
X3978778Y-27728778D03*
X3897500Y-27925000D03*
X3978778Y-28121222D03*
X4175000Y-28202500D03*
X4371222Y-28121222D03*
X4452500Y-27925000D03*
D14*
X4175000Y-27925000D03*
D13*
X13921222Y-26903778D03*
X13725000Y-26822500D03*
X13528778Y-26903778D03*
X13447500Y-27100000D03*
X13528778Y-27296222D03*
X13725000Y-27377500D03*
X13921222Y-27296222D03*
X14002500Y-27100000D03*
D14*
X13725000Y-27100000D03*
D15*
X12235000Y-26570000D03*
D16*
X13010000Y-26496000D03*
X12883000Y-26750000D03*
X12756000Y-26496000D03*
X12629000Y-26750000D03*
X12502000Y-26496000D03*
D17*
X12375000Y-26750000D03*
D18*
X12600000Y-4275000D03*
X12950000Y-4775000D03*
X13300000Y-4275000D03*
X13650000Y-4775000D03*
X6250000Y-4325000D03*
X5900000Y-4825000D03*
X5550000Y-4325000D03*
X7575000Y-4325000D03*
X7225000Y-4825000D03*
X6875000Y-4325000D03*
X4900000Y-16875000D03*
X5400000Y-16525000D03*
X4900000Y-18075000D03*
X5400000Y-17725000D03*
X13450000Y-22975000D03*
X12950000Y-23325000D03*
X13450000Y-20500000D03*
X12950000Y-20850000D03*
X13450000Y-18000000D03*
X12950000Y-18350000D03*
X13450000Y-15500000D03*
X12950000Y-15850000D03*
X4575000Y-4325000D03*
X4925000Y-4825000D03*
X8250000Y-4325000D03*
X8600000Y-4825000D03*
X9425000Y-4300000D03*
X9775000Y-4800000D03*
X10875000Y-4275000D03*
X11225000Y-4775000D03*
X4950000Y-20700000D03*
X5450000Y-20350000D03*
D19*
X13828000Y-24877000D03*
X13828000Y-25131000D03*
X13828000Y-25385000D03*
X13828000Y-25639000D03*
X13828000Y-25893000D03*
D20*
X13828000Y-26147000D03*
D19*
X4504000Y-26191000D03*
X4250000Y-26191000D03*
X4504000Y-25937000D03*
X4250000Y-25937000D03*
X4504000Y-25683000D03*
X4250000Y-25683000D03*
X4504000Y-25429000D03*
X4250000Y-25429000D03*
X4504000Y-25175000D03*
D20*
X4250000Y-25175000D03*
D19*
X11476000Y-27871000D03*
X11476000Y-28125000D03*
X11222000Y-27871000D03*
X11222000Y-28125000D03*
X10968000Y-27871000D03*
X10968000Y-28125000D03*
X10714000Y-27871000D03*
X10714000Y-28125000D03*
X10460000Y-27871000D03*
X10460000Y-28125000D03*
X10206000Y-27871000D03*
X10206000Y-28125000D03*
X9952000Y-27871000D03*
X9952000Y-28125000D03*
X9698000Y-27871000D03*
X9698000Y-28125000D03*
X9444000Y-27871000D03*
X9444000Y-28125000D03*
X9190000Y-27871000D03*
X9190000Y-28125000D03*
X8936000Y-27871000D03*
X8936000Y-28125000D03*
X8682000Y-27871000D03*
X8682000Y-28125000D03*
X8428000Y-27871000D03*
X8428000Y-28125000D03*
X8174000Y-27871000D03*
X8174000Y-28125000D03*
X7920000Y-27871000D03*
X7920000Y-28125000D03*
X7666000Y-27871000D03*
X7666000Y-28125000D03*
X7412000Y-27871000D03*
X7412000Y-28125000D03*
X7158000Y-27871000D03*
X7158000Y-28125000D03*
X6904000Y-27871000D03*
X6904000Y-28125000D03*
X6650000Y-27871000D03*
D20*
X6650000Y-28125000D03*
D21*
X12200000Y-14975000D03*
X12075000Y-14975000D03*
X11950000Y-14875000D03*
X12075000Y-14875000D03*
X12200000Y-14875000D03*
X12200000Y-14775000D03*
X12075000Y-14775000D03*
X11950000Y-14775000D03*
X7100000Y-25325000D03*
X7100000Y-25025000D03*
X7250000Y-25175000D03*
X6950000Y-25175000D03*
X7250000Y-25025000D03*
X7250000Y-25325000D03*
X6950000Y-25325000D03*
X6950000Y-25025000D03*
X11870000Y-13550000D03*
X11390000Y-13390000D03*
X11710000Y-13550000D03*
X11550000Y-13550000D03*
X11390000Y-13550000D03*
X11710000Y-13390000D03*
X11550000Y-13390000D03*
X11870000Y-13390000D03*
X11870000Y-13230000D03*
X11390000Y-13070000D03*
X11710000Y-13230000D03*
X11550000Y-13230000D03*
X11390000Y-13230000D03*
X11710000Y-13070000D03*
X11550000Y-13070000D03*
X11870000Y-13070000D03*
X11870000Y-12910000D03*
X11710000Y-12910000D03*
X11550000Y-12910000D03*
X11390000Y-12910000D03*
X11710000Y-12750000D03*
X11390000Y-12750000D03*
D13*
X10050000Y-26325000D03*
X10050000Y-25775000D03*
X10075000Y-26875000D03*
X10050000Y-25225000D03*
X10050000Y-24675000D03*
X10050000Y-24125000D03*
X6575000Y-20075000D03*
X4718750Y-23081250D03*
X4680000Y-21280000D03*
X4670000Y-21790000D03*
X5610000Y-19550000D03*
X6270000Y-19390000D03*
X6430000Y-19150000D03*
X8550000Y-18300000D03*
D21*
X8097502Y-18059143D03*
X7472500Y-17615000D03*
D13*
X8290000Y-17410000D03*
X8190000Y-17000000D03*
X7097789Y-16852501D03*
X6932501Y-16852501D03*
X6645000Y-18200000D03*
X10463000Y-15217000D03*
X7300000Y-10100000D03*
X7600000Y-9540000D03*
X8075000Y-9495000D03*
X7010000Y-9550000D03*
X7250000Y-8890000D03*
X7850000Y-6550000D03*
X7803750Y-6003750D03*
X4565000Y-9280000D03*
X4670000Y-7110000D03*
X4670000Y-7510000D03*
X4110000Y-6470000D03*
X5210000Y-6550000D03*
X5010000Y-6050000D03*
X9255000Y-5945000D03*
X8630000Y-6410000D03*
X9470000Y-7870000D03*
X10330000Y-7630000D03*
X10680000Y-6890000D03*
X13250000Y-12510000D03*
X13250000Y-13050000D03*
X12690000Y-12890000D03*
X12350000Y-12890000D03*
X12050000Y-13190000D03*
X12050000Y-13410000D03*
X12050000Y-13610000D03*
X11230000Y-13610000D03*
X11230000Y-13410000D03*
X11230000Y-13190000D03*
X11230000Y-12710000D03*
X12050000Y-12690000D03*
X10970000Y-12930000D03*
X10670000Y-12930000D03*
X10090000Y-13110000D03*
X10090000Y-13550000D03*
X10090000Y-13310000D03*
X11390000Y-13690000D03*
X11630000Y-13690000D03*
X11870000Y-13690000D03*
X12050000Y-12950000D03*
X11230000Y-12950000D03*
D21*
X11870000Y-12750000D03*
X11550000Y-12750000D03*
D13*
X13250000Y-12770000D03*
D21*
X11850000Y-11070000D03*
X11370000Y-10910000D03*
X11690000Y-11070000D03*
X11530000Y-11070000D03*
X11370000Y-11070000D03*
X11690000Y-10910000D03*
X11530000Y-10910000D03*
X11850000Y-10910000D03*
X11850000Y-10750000D03*
X11370000Y-10590000D03*
X11690000Y-10750000D03*
X11530000Y-10750000D03*
X11370000Y-10750000D03*
X11690000Y-10590000D03*
X11530000Y-10590000D03*
X11850000Y-10590000D03*
X11850000Y-10430000D03*
X11690000Y-10430000D03*
X11530000Y-10430000D03*
X11370000Y-10430000D03*
X11690000Y-10270000D03*
X11370000Y-10270000D03*
D13*
X13230000Y-10030000D03*
X13230000Y-10570000D03*
X12670000Y-10410000D03*
X12330000Y-10410000D03*
X12030000Y-10710000D03*
X12030000Y-10930000D03*
X12030000Y-11130000D03*
X11210000Y-11130000D03*
X11210000Y-10930000D03*
X11210000Y-10710000D03*
X11210000Y-10230000D03*
X12030000Y-10210000D03*
X10950000Y-10450000D03*
X10650000Y-10450000D03*
X10070000Y-10630000D03*
X10070000Y-11070000D03*
X10070000Y-10830000D03*
X11370000Y-11210000D03*
X11610000Y-11210000D03*
X11850000Y-11210000D03*
X12030000Y-10470000D03*
X11210000Y-10470000D03*
D21*
X11850000Y-10270000D03*
X11530000Y-10270000D03*
D13*
X13230000Y-10290000D03*
X6250000Y-9540000D03*
X5660000Y-9550000D03*
X5900000Y-8890000D03*
X6500000Y-6550000D03*
X6453750Y-6003750D03*
D21*
X5040000Y-27400000D03*
D13*
X12450000Y-25010000D03*
X12450000Y-25770000D03*
X13188750Y-26128750D03*
X4650000Y-10700000D03*
X7700000Y-11125000D03*
X4625000Y-11125000D03*
X7725000Y-10675000D03*
X5475000Y-27825000D03*
X12200000Y-24275000D03*
D21*
X7100000Y-25175000D03*
D13*
X5550000Y-23350000D03*
X4450000Y-19125000D03*
X7175000Y-20650000D03*
X11878750Y-26621250D03*
X11625000Y-26325000D03*
X11300000Y-26300000D03*
X10675000Y-26325000D03*
X5725000Y-11475000D03*
D21*
X11955000Y-14980000D03*
D13*
X11475000Y-14150000D03*
X10800000Y-14650000D03*
X10293999Y-16000000D03*
X11000000Y-15800000D03*
X6450000Y-11575000D03*
D21*
X12200000Y-17475000D03*
X12075000Y-17475000D03*
X11950000Y-17375000D03*
X12075000Y-17375000D03*
X12200000Y-17375000D03*
X12200000Y-17275000D03*
X12075000Y-17275000D03*
X11950000Y-17275000D03*
D13*
X10463000Y-17717000D03*
D21*
X11955000Y-17480000D03*
D13*
X10800000Y-17150000D03*
X10293999Y-18500000D03*
X11000000Y-18300000D03*
D21*
X12200000Y-19975000D03*
X12075000Y-19975000D03*
X11950000Y-19875000D03*
X12075000Y-19875000D03*
X12200000Y-19875000D03*
X12200000Y-19775000D03*
X12075000Y-19775000D03*
X11950000Y-19775000D03*
D13*
X10463000Y-20217000D03*
D21*
X11955000Y-19980000D03*
D13*
X10800000Y-19650000D03*
X10293999Y-21000000D03*
X11000000Y-20800000D03*
D21*
X12200000Y-22475000D03*
X12075000Y-22475000D03*
X11950000Y-22375000D03*
X12075000Y-22375000D03*
X12200000Y-22375000D03*
X12200000Y-22275000D03*
X12075000Y-22275000D03*
X11950000Y-22275000D03*
D13*
X10463000Y-22717000D03*
D21*
X11955000Y-22480000D03*
D13*
X10800000Y-22150000D03*
X10293999Y-23500000D03*
X11000000Y-23300000D03*
X11675000Y-16450000D03*
X11675000Y-18950000D03*
X11675000Y-21450000D03*
D21*
X6025000Y-10750000D03*
D13*
X9031002Y-19825000D03*
X6823503Y-16867612D03*
D21*
X8075000Y-20054300D03*
X8102805Y-20772195D03*
X9040002Y-20275000D03*
X7800000Y-20625000D03*
D13*
X7400000Y-19225000D03*
X6875000Y-19575000D03*
D21*
X9025000Y-21100000D03*
D13*
X6075000Y-24025000D03*
X6603750Y-23803750D03*
X5800000Y-24075000D03*
X5575000Y-24350000D03*
X5575000Y-24500000D03*
X5800000Y-25675000D03*
X5575000Y-25975000D03*
X5800000Y-26275000D03*
X6100000Y-26325000D03*
X8150000Y-26300000D03*
X8235082Y-26185082D03*
X8225000Y-24125000D03*
X8475000Y-24200000D03*
X8059000Y-24075000D03*
X5725000Y-25575000D03*
D21*
X6200000Y-24375000D03*
X6200000Y-24475001D03*
X6325000Y-24250001D03*
X6575000Y-24250001D03*
X6775000Y-24249999D03*
X7175000Y-24250000D03*
X7325000Y-24250000D03*
X8025001Y-24500000D03*
X7625000Y-24250000D03*
X8025000Y-24950000D03*
X8025000Y-25550000D03*
X7775000Y-26100000D03*
X7525000Y-26100000D03*
X7025000Y-26100000D03*
X6475000Y-26100000D03*
X6900000Y-26543000D03*
D13*
X5575000Y-24633999D03*
X7550000Y-23650000D03*
X7700000Y-23650000D03*
D21*
X5675000Y-25450000D03*
X5400000Y-25825000D03*
X5361369Y-25113631D03*
X5450000Y-24850000D03*
D13*
X6175002Y-23775000D03*
D21*
X7675000Y-26750000D03*
X7984170Y-26684170D03*
X8425000Y-26450000D03*
X5875000Y-7050000D03*
X6325000Y-7050000D03*
X5800000Y-7325000D03*
X6275000Y-7325000D03*
X7125000Y-7350000D03*
X7200000Y-7075000D03*
X7700000Y-7075000D03*
X7625000Y-7350000D03*
X7650000Y-18925000D03*
X8725000Y-20500000D03*
X8500000Y-20700000D03*
X7550000Y-21875000D03*
X8975000Y-20700000D03*
X8400000Y-19725000D03*
D13*
X5900000Y-9900000D03*
D21*
X5768000Y-10450000D03*
X6425000Y-10675000D03*
X6650000Y-10525000D03*
X6350000Y-10875001D03*
X6000000Y-11075000D03*
X6075000Y-11000000D03*
X6921250Y-11478750D03*
X6650000Y-11500000D03*
X5950000Y-22325000D03*
X5875000Y-23600000D03*
D13*
X4625000Y-11825000D03*
X5600000Y-12400000D03*
D21*
X8300000Y-12200000D03*
X8275000Y-11825000D03*
X7300000Y-11825000D03*
X5175000Y-8582000D03*
X5700000Y-7675000D03*
X4550000Y-10400000D03*
X4650000Y-10400000D03*
D13*
X5578330Y-11721670D03*
X13795000Y-14345000D03*
X13795000Y-14165000D03*
X13090000Y-7690000D03*
X13005000Y-7775000D03*
X13050000Y-8425000D03*
X11600000Y-15825000D03*
X11625000Y-16025000D03*
X13795000Y-16845000D03*
X13795000Y-16665000D03*
X11600000Y-18325000D03*
X11625000Y-18525000D03*
X13795000Y-19345000D03*
X13795000Y-19165000D03*
X11600000Y-20825000D03*
X11625000Y-21025000D03*
X13795000Y-21845000D03*
X13795000Y-21665000D03*
X11600000Y-23325000D03*
X11625000Y-23525000D03*
X13125000Y-6975000D03*
X12955000Y-14165000D03*
X12955000Y-14345000D03*
X13690000Y-8270000D03*
X13690000Y-8410000D03*
X13075000Y-8675000D03*
X13100000Y-11325000D03*
X12955000Y-16665000D03*
X12955000Y-16845000D03*
X12955000Y-19165000D03*
X12955000Y-19345000D03*
X12955000Y-21665000D03*
X12955000Y-21845000D03*
X13650000Y-13950000D03*
X7010000Y-9090000D03*
X6860000Y-6400000D03*
X4155000Y-9710000D03*
X4570000Y-7430000D03*
X4370000Y-6430000D03*
X8590000Y-6690000D03*
X8750000Y-9890000D03*
X5660000Y-9090000D03*
X5510000Y-6400000D03*
X8750000Y-10850000D03*
D21*
X8218750Y-20481250D03*
X8425000Y-20275000D03*
X6700000Y-7350000D03*
X7331250Y-7518750D03*
X5350000Y-7325000D03*
X8325000Y-18675000D03*
X8950000Y-21050000D03*
X8300000Y-19825000D03*
X6050000Y-7475000D03*
D13*
X7790000Y-5170000D03*
X11410000Y-6880000D03*
X6475000Y-5175000D03*
D21*
X8875000Y-20225000D03*
D13*
X5560000Y-23060000D03*
X10190000Y-15510000D03*
X5095000Y-27635000D03*
X12425000Y-26100000D03*
X4850000Y-18725000D03*
X10190000Y-18010000D03*
X10190000Y-20510000D03*
X10190000Y-23010000D03*
X8000000Y-23125000D03*
D21*
X7100001Y-21975000D03*
D13*
X11125000Y-14250000D03*
X10975000Y-16750000D03*
X10975000Y-19250000D03*
X10975000Y-21750000D03*
X6025000Y-24150000D03*
X5675000Y-24850000D03*
D21*
X6375000Y-26100000D03*
X6178750Y-26546250D03*
X5975000Y-26175000D03*
X6825000Y-26100000D03*
X7675000Y-26050000D03*
X9455000Y-23580000D03*
D13*
X6960000Y-23150000D03*
D21*
X8475000Y-24550000D03*
X8475000Y-24075000D03*
X7700000Y-24275000D03*
X7100000Y-23825000D03*
X8350000Y-25950000D03*
X8475000Y-25700000D03*
X8000000Y-24250000D03*
X8450000Y-25050000D03*
X6175000Y-25400000D03*
X6175001Y-25800000D03*
X5025001Y-25175000D03*
X5025000Y-25950000D03*
X4725000Y-24700000D03*
X4850000Y-24000000D03*
X6446250Y-23803750D03*
X5980000Y-27170000D03*
X8225000Y-26825000D03*
X8096250Y-26550001D03*
X6375000Y-22425000D03*
X6425000Y-23150000D03*
D13*
X5600000Y-12175000D03*
X4425000Y-10650000D03*
X5850000Y-20010000D03*
X5730000Y-21310000D03*
X6275000Y-18950000D03*
X7685000Y-17315000D03*
X8278750Y-17751250D03*
X7050000Y-16710000D03*
X6655500Y-17360000D03*
D21*
X8200000Y-18650000D03*
X8850000Y-18025000D03*
X8775000Y-23800000D03*
X8725000Y-18025000D03*
D13*
X7270000Y-21690000D03*
X9355000Y-9685000D03*
X9885000Y-7710000D03*
D21*
X12975000Y-5700000D03*
X12975000Y-5500000D03*
X12975000Y-5300000D03*
X12975000Y-5400000D03*
X12975000Y-5600000D03*
X12875000Y-5700000D03*
X12875000Y-5500000D03*
X12875000Y-5300000D03*
X12875000Y-5400000D03*
X12875000Y-5600000D03*
X12775000Y-5700000D03*
X12775000Y-5500000D03*
X12775000Y-5300000D03*
X12775000Y-5400000D03*
X12775000Y-5600000D03*
X12675000Y-5700000D03*
X12675000Y-5500000D03*
X12675000Y-5300000D03*
X12675000Y-5400000D03*
X12675000Y-5600000D03*
X12575000Y-5700000D03*
X12575000Y-5500000D03*
X12575000Y-5300000D03*
X12575000Y-5400000D03*
X12575000Y-5600000D03*
X12475000Y-5700000D03*
X12475000Y-5600000D03*
X12475000Y-5500000D03*
X12475000Y-5400000D03*
X12475000Y-5300000D03*
D13*
X9375000Y-12165000D03*
X13290000Y-24490000D03*
X9275000Y-27300000D03*
D21*
X7975000Y-27525000D03*
X9643000Y-27618000D03*
X6725000Y-27050000D03*
X7875000Y-27525000D03*
D13*
X8450000Y-27050000D03*
X8100000Y-11275000D03*
X10075000Y-23950000D03*
D21*
X8225000Y-12125000D03*
X7974999Y-27650000D03*
X9725000Y-27550000D03*
X6750000Y-26950000D03*
X9800000Y-27475000D03*
X6800000Y-26875000D03*
X7875000Y-27655155D03*
X9875000Y-27400000D03*
X6875000Y-26825000D03*
D13*
X8625000Y-21950000D03*
D21*
X7275000Y-11407000D03*
D13*
X8500000Y-21950000D03*
D21*
X7343000Y-11450000D03*
X8425000Y-12350000D03*
D13*
X8350000Y-22025001D03*
D21*
X7400000Y-11518995D03*
X8325000Y-12450000D03*
X5225000Y-25825000D03*
X5162500Y-25487500D03*
D13*
X6575000Y-18885000D03*
D21*
X7950000Y-24575000D03*
D13*
X6750000Y-23100000D03*
D21*
X4975000Y-11298995D03*
D13*
X7250000Y-23100000D03*
D21*
X4899131Y-11273976D03*
D13*
X12674999Y-11799999D03*
D21*
X7750000Y-26825000D03*
X7400000Y-23075000D03*
X4842970Y-11219846D03*
D13*
X6890000Y-8490001D03*
D21*
X6250000Y-10450000D03*
D13*
X7825000Y-8150000D03*
D21*
X6772500Y-11152500D03*
D13*
X6800000Y-8625000D03*
X6810000Y-9210000D03*
X7775000Y-9100000D03*
D21*
X6325000Y-24450000D03*
X4375000Y-23550000D03*
D13*
X6950000Y-9190000D03*
D21*
X6326305Y-24529305D03*
X4300000Y-23600000D03*
X6025000Y-10600000D03*
X5850000Y-7975000D03*
D13*
X6475000Y-8150000D03*
D21*
X6624999Y-11100000D03*
X5450000Y-8625000D03*
X5460000Y-9210000D03*
D13*
X6425000Y-9100000D03*
D21*
X6324865Y-24607292D03*
X4225000Y-23650000D03*
X5600000Y-9190000D03*
X6325000Y-24700000D03*
X4150000Y-23700000D03*
X5925000Y-10650000D03*
X6497500Y-11022500D03*
X4955000Y-8595000D03*
X5800000Y-8400000D03*
D13*
X4025000Y-9050000D03*
D21*
X4450000Y-9775000D03*
X4355000Y-9130000D03*
X6326305Y-24779305D03*
X4075000Y-23750000D03*
X4900000Y-9550000D03*
D13*
X4000000Y-9675000D03*
D21*
X6324865Y-24857292D03*
X4000000Y-23800000D03*
D13*
X5250000Y-27075000D03*
D21*
X6200000Y-25600000D03*
D13*
X10826001Y-15230000D03*
D21*
X8000000Y-25750000D03*
D13*
X10826001Y-17730000D03*
D21*
X7925000Y-25800000D03*
D13*
X10826001Y-20230000D03*
D21*
X7925000Y-25925000D03*
D13*
X10826001Y-22730000D03*
D21*
X8000000Y-25975000D03*
D13*
X10350000Y-27674999D03*
X5670000Y-19710000D03*
X5890000Y-18490000D03*
X10171497Y-27100000D03*
X12600000Y-26175000D03*
X10050000Y-27125000D03*
X12250000Y-26075000D03*
X10050000Y-27025000D03*
X12159442Y-26204869D03*
D21*
X9925000Y-16650000D03*
X9025000Y-23725000D03*
X9025000Y-23625000D03*
X9475000Y-17775000D03*
X9025000Y-23525000D03*
X9500000Y-19975000D03*
X9025000Y-23425000D03*
X9525000Y-22550000D03*
D13*
X6300000Y-21225000D03*
D21*
X7975000Y-24425000D03*
X7767180Y-22807820D03*
X6825000Y-19300000D03*
X8025000Y-24650000D03*
X8100000Y-21075000D03*
X7900000Y-20650000D03*
X6500000Y-24325000D03*
X5625000Y-26600000D03*
X7100000Y-24325000D03*
X5850000Y-23875000D03*
X6703000Y-24325000D03*
X6100000Y-26625000D03*
X7375000Y-24325000D03*
X6375000Y-26600000D03*
X6975000Y-24325000D03*
X6375000Y-23625000D03*
X7050000Y-18400000D03*
X6125000Y-22775000D03*
X6625000Y-24325000D03*
X5850000Y-26600000D03*
X5774999Y-22800000D03*
M02*
