M48
; DRILL file {KiCad (5.1.4)-1} date 6/7/2020 11:10:39 AM
; FORMAT={3:3/ absolute / metric / suppress trailing zeros}
; #@! TF.CreationDate,2020-06-07T11:10:39-04:00
; #@! TF.GenerationSoftware,Kicad,Pcbnew,(5.1.4)-1
; #@! TF.FileFunction,Plated,1,2,PTH
FMAT,2
METRIC,LZ
T1C0.400
T2C0.410
T3C0.850
T4C1.000
%
G90
G05
T1
X032Y-19
X0385Y-23575
X03875Y-2235
X03997Y-25247
X04Y-257
X04325Y-207
X0435Y-2085
X0435Y-2105
X04375Y-21225
X0445Y-23975
X0445Y-24201
X0445Y-2595
X044717Y-254033
X04575Y-22025
X04625Y-24875
X04625Y-25125
X047375Y-221625
X05925Y-273
X06Y-24525
X06125Y-26725
X06125Y-2705
X0625Y-2705
X06275Y-2665
X06475Y-23075
X065Y-264
X065Y-27025
X06625Y-264
X06625Y-27025
X0664Y-19935
X0664Y-21485
X0664Y-2291
X0664Y-2436
X06675Y-20325
X067Y-2175
X0675Y-264
X0675Y-27025
X069Y-264
X069Y-27025
X06913Y-19642
X06913Y-21192
X06913Y-22617
X06913Y-24067
X0705Y-264
X0705Y-27025
X07175Y-264
X07175Y-27009
X0725Y-20625
X0725Y-2205
X0725Y-235
X0735Y-20325
X0735Y-21875
X0735Y-233
X0735Y-2475
X074Y-1925
X074Y-26175
X076563Y-245563
X076688Y-216813
X07675Y-255
X07725Y-1895
X07725Y-20125
X07775Y-231
X08025Y-21675
X08025Y-231
X0825Y-1895
X084Y-20825
X087Y-25825
X08975Y-2605
X08975Y-26275
X09375Y-265
X09375Y-2665
X09375Y-26775
X099Y-265
X099Y-2665
X099Y-26775
X09925Y-25825
X09925Y-2605
X09925Y-26275
X1Y-2695
X109Y-214
X1153Y-21495
X11575Y-2625
T2
X04625Y-275
X1155Y-24985
X1155Y-25745
X11725Y-22375
T3
X11475Y-26725
X11602Y-26471
X11729Y-26725
X11856Y-26471
X11983Y-26725
X1211Y-26471
T4
X0315Y-20675
X0315Y-20929
X0315Y-21183
X0315Y-21437
X0315Y-21691
X0315Y-21945
X0315Y-22199
X0315Y-22453
X0315Y-22707
X0315Y-22961
X0315Y-23215
X0315Y-23469
X0315Y-23723
X0315Y-23977
X0315Y-24231
X0315Y-24485
X0315Y-24739
X0315Y-24993
X0315Y-25247
X0315Y-25501
X03404Y-20675
X03404Y-20929
X03404Y-21183
X03404Y-21437
X03404Y-21691
X03404Y-21945
X03404Y-22199
X03404Y-22453
X03404Y-22707
X03404Y-22961
X03404Y-23215
X03404Y-23469
X03404Y-23723
X03404Y-23977
X03404Y-24231
X03404Y-24485
X03404Y-24739
X03404Y-24993
X03404Y-25247
X03404Y-25501
X12928Y-24852
X12928Y-25106
X12928Y-2536
X12928Y-25614
X12928Y-25868
X12928Y-26122
X0575Y-27871
X0575Y-28125
X06004Y-27871
X06004Y-28125
X06258Y-27871
X06258Y-28125
X06512Y-27871
X06512Y-28125
X06766Y-27871
X06766Y-28125
X0702Y-27871
X0702Y-28125
X07274Y-27871
X07274Y-28125
X07528Y-27871
X07528Y-28125
X07782Y-27871
X07782Y-28125
X08036Y-27871
X08036Y-28125
X0829Y-27871
X0829Y-28125
X08544Y-27871
X08544Y-28125
X08798Y-27871
X08798Y-28125
X09052Y-27871
X09052Y-28125
X09306Y-27871
X09306Y-28125
X0956Y-27871
X0956Y-28125
X09814Y-27871
X09814Y-28125
X10068Y-27871
X10068Y-28125
X10322Y-27871
X10322Y-28125
X10576Y-27871
X10576Y-28125
X0935Y-19157
X09604Y-19157
X09858Y-19157
X10112Y-19157
X10366Y-19157
X1062Y-19157
X10874Y-19157
X11128Y-19157
X11382Y-19157
X11636Y-19157
X1189Y-19157
X12144Y-19157
X0935Y-20935
X09604Y-20935
X09858Y-20935
X10112Y-20935
X10366Y-20935
X1062Y-20935
X10874Y-20935
X11128Y-20935
X11382Y-20935
X11636Y-20935
X1189Y-20935
X12144Y-20935
X05182Y-20675
X05182Y-20929
X05182Y-21183
X05182Y-21437
X05182Y-21691
X05182Y-21945
X05182Y-22199
X05182Y-22453
X05182Y-22707
X05182Y-22961
X05182Y-23215
X05182Y-23469
X05182Y-23723
X05182Y-23977
X05182Y-24231
X05182Y-24485
X05182Y-24739
X05182Y-24993
X05182Y-25247
X05182Y-25501
X05436Y-20675
X05436Y-20929
X05436Y-21183
X05436Y-21437
X05436Y-21691
X05436Y-21945
X05436Y-22199
X05436Y-22453
X05436Y-22707
X05436Y-22961
X05436Y-23215
X05436Y-23469
X05436Y-23723
X05436Y-23977
X05436Y-24231
X05436Y-24485
X05436Y-24739
X05436Y-24993
X05436Y-25247
X05436Y-25501
T0
M30
